# This file uses centimeters as units for non-parametric coordinates.

mtllib Pool.mtl
g default
v 479.831451 -46.804890 17.343214
v 449.831451 -16.804886 17.343185
v 479.831512 133.195068 17.343185
v 479.831451 -46.804813 777.343201
v 449.831451 -16.804766 747.343201
v 479.831512 133.195221 777.343201
v 69.831459 -46.804752 17.343214
v 99.831467 -16.804766 17.343185
v 69.831520 133.195206 17.343185
v 69.831459 -46.804676 777.343201
v 99.831467 -16.804647 747.343201
v 69.831520 133.195358 777.343201
v 99.831512 133.195343 747.343140
v 449.831512 133.195221 747.343140
v 449.831512 133.195084 17.343161
v 99.831512 133.195190 17.343161
vt 0.212500 0.375000
vt 0.737500 0.375000
vt 0.337500 0.912500
vt 0.562500 0.912500
vt 0.337500 0.212500
vt 0.562500 0.212500
vt 0.337500 0.725000
vt 0.562500 0.725000
vt 0.337500 -0.162500
vt 0.562500 -0.162500
vt 0.337500 0.787500
vt 0.481250 0.787500
vt 0.087500 -0.162500
vt 0.600000 -0.162500
vt 0.600000 0.787500
vt 0.500000 0.750000
vt 0.437500 -0.125000
vt 0.400000 -0.162500
vt 0.912500 -0.162500
vt 0.875000 -0.125000
vt 0.718750 0.375000
vt 0.250000 0.375000
vt 0.562500 0.875000
vt 0.375000 0.875000
vt 0.562500 0.250000
vt 0.375000 0.250000
vt 0.562500 0.687500
vt 0.375000 0.687500
vt 0.375000 -0.125000
vt 0.375000 0.750000
vt 0.562500 -0.125000
vt 0.125000 -0.125000
vt 0.562500 -0.125000
vt 0.562500 0.750000
vn 1.000000 -0.000000 0.000000
vn 1.000000 -0.000000 0.000000
vn 1.000000 -0.000000 0.000000
vn 1.000000 -0.000000 0.000000
vn 1.000000 -0.000000 0.000000
vn 1.000000 -0.000000 0.000000
vn 0.000000 0.000000 1.000000
vn 0.000000 0.000000 1.000000
vn 0.000000 0.000000 1.000000
vn 0.000000 0.000000 1.000000
vn 0.000000 0.000000 1.000000
vn 0.000000 0.000000 1.000000
vn -1.000000 0.000000 0.000000
vn -1.000000 0.000000 0.000000
vn -1.000000 0.000000 0.000000
vn -1.000000 0.000000 0.000000
vn -1.000000 0.000000 0.000000
vn -1.000000 0.000000 -0.000000
vn 0.000000 -1.000000 0.000000
vn 0.000000 -1.000000 0.000000
vn 0.000000 -1.000000 0.000000
vn 0.000000 -1.000000 0.000000
vn 0.000000 -1.000000 0.000000
vn 0.000000 -1.000000 0.000000
vn -0.000001 1.000000 -0.000000
vn -0.000000 1.000000 -0.000000
vn 0.000001 1.000000 0.000000
vn -0.000000 1.000000 -0.000000
vn 0.000001 1.000000 0.000000
vn 0.000001 1.000000 0.000000
vn 0.000001 1.000000 0.000000
vn -0.000000 1.000000 -0.000000
vn 0.000001 1.000000 0.000000
vn 0.000001 1.000000 0.000000
vn -0.000000 1.000000 -0.000000
vn -0.000000 1.000000 -0.000000
vn -0.000000 1.000000 -0.000000
vn 0.000001 1.000000 0.000000
vn -0.000000 1.000000 -0.000000
vn 0.000001 1.000000 0.000000
vn 0.000001 1.000000 0.000000
vn -0.000000 1.000000 -0.000000
vn -1.000000 0.000000 0.000000
vn -1.000000 0.000000 0.000000
vn -1.000000 0.000000 0.000000
vn -1.000000 0.000000 0.000000
vn -1.000000 0.000000 0.000000
vn -1.000000 0.000000 -0.000000
vn 0.000000 -0.000001 -1.000000
vn 0.000000 -0.000001 -1.000000
vn 0.000000 -0.000001 -1.000000
vn 0.000000 -0.000001 -1.000000
vn 0.000000 -0.000001 -1.000000
vn 0.000000 -0.000001 -1.000000
vn 1.000000 -0.000000 0.000000
vn 1.000000 -0.000000 0.000000
vn 1.000000 -0.000000 0.000000
vn 1.000000 -0.000000 0.000000
vn 1.000000 -0.000000 0.000000
vn 1.000000 -0.000000 0.000000
vn 0.000000 1.000000 0.000000
vn 0.000000 1.000000 0.000000
vn 0.000000 1.000000 0.000000
vn 0.000000 1.000000 0.000000
vn 0.000000 1.000000 0.000000
vn 0.000000 1.000000 0.000000
vn 0.000001 0.000000 -1.000000
vn 0.000001 0.000000 -1.000000
vn 0.000001 0.000000 -1.000000
vn 0.000001 0.000000 -1.000000
vn 0.000001 0.000000 -1.000000
vn 0.000001 0.000000 -1.000000
vn 0.000000 -0.000002 -1.000000
vn 0.000000 0.000000 -1.000000
vn 0.000000 -0.000002 -1.000000
vn 0.000000 -0.000002 -1.000000
vn 0.000000 0.000000 -1.000000
vn 0.000000 0.000000 -1.000000
vn -0.000001 0.000000 -1.000000
vn -0.000001 0.000000 -1.000000
vn -0.000001 0.000000 -1.000000
vn -0.000001 0.000000 -1.000000
vn -0.000001 0.000000 -1.000000
vn -0.000001 0.000000 -1.000000
s off
g Pool_Pool
usemtl initialShadingGroup
f 1/1/1 3/2/2 4/3/3
f 4/3/4 3/2/5 6/4/6
f 4/5/7 6/6/8 10/7/9
f 10/7/10 6/6/11 12/8/12
f 10/9/13 12/10/14 7/11/15
f 7/11/16 12/10/17 9/12/18
f 4/13/19 10/14/20 1/1/21
f 1/1/22 10/14/23 7/15/24
f 16/16/25 9/12/26 13/17/27
f 9/12/28 12/18/29 13/17/30
f 12/18/31 6/19/32 13/17/33
f 13/17/34 6/19/35 14/20/36
f 6/19/37 3/2/38 14/20/39
f 3/2/40 15/21/41 14/20/42
f 15/21/43 2/22/44 14/23/45
f 14/23/46 2/22/47 5/24/48
f 14/25/49 5/26/50 13/27/51
f 13/27/52 5/26/53 11/28/54
f 11/29/55 8/30/56 13/31/57
f 13/31/58 8/30/59 16/16/60
f 5/32/61 2/22/62 11/33/63
f 11/33/64 2/22/65 8/34/66
f 1/1/67 2/22/68 3/2/69
f 3/2/70 2/22/71 15/21/72
f 1/1/73 7/15/74 2/22/75
f 2/22/76 7/15/77 8/34/78
f 7/11/79 9/12/80 8/30/81
f 8/30/82 9/12/83 16/16/84
