# This file uses centimeters as units for non-parametric coordinates.

mtllib PoolEdge.mtl
g default
v 479.493500 132.414047 17.349953
v 479.493500 136.414047 17.349953
v 479.493500 132.414169 777.349915
v 479.493500 136.414169 777.349915
v 69.493507 132.414185 17.349953
v 69.493507 136.414185 17.349953
v 69.493507 132.414307 777.349915
v 69.493507 136.414307 777.349915
v 449.493500 132.414169 747.349976
v 99.493500 132.414291 747.349976
v 449.493500 132.414047 17.349976
v 99.493500 132.414169 17.349976
v 99.493507 136.414291 747.349976
v 449.493500 136.414169 747.349976
v 449.493500 136.414047 17.349976
v 99.493507 136.414169 17.349976
vt 0.521253 0.481245
vt 0.356253 0.481245
vt 0.521248 1.081250
vt 0.356248 1.081250
vt 0.437500 1.081250
vt 0.437500 0.481250
vt 0.565000 0.481250
vt 0.565000 1.081250
vt 0.137504 0.262493
vt 0.740004 0.262493
vt 0.137500 0.375000
vt 0.740001 0.375000
vt 0.181250 0.375000
vt 0.181250 0.225000
vt 0.821250 0.225001
vt 0.821250 0.375000
vn 1.000000 -0.000000 0.000000
vn 1.000000 -0.000000 0.000000
vn 1.000000 0.000000 0.000000
vn 1.000000 0.000000 0.000000
vn 1.000000 -0.000000 0.000000
vn 1.000000 0.000000 0.000000
vn -0.000001 -1.000000 0.000000
vn 0.000000 -1.000000 0.000000
vn -0.000001 -1.000000 0.000000
vn -0.000001 -1.000000 0.000000
vn 0.000000 -1.000000 0.000000
vn 0.000000 -1.000000 0.000000
vn -1.000000 0.000000 -0.000000
vn -1.000000 0.000000 -0.000000
vn -1.000000 0.000000 -0.000000
vn -1.000000 0.000000 -0.000000
vn -1.000000 0.000000 -0.000000
vn -1.000000 0.000000 -0.000000
vn 0.000001 1.000000 0.000000
vn 0.000001 1.000000 0.000000
vn 0.000000 1.000000 0.000000
vn 0.000000 1.000000 0.000000
vn 0.000001 1.000000 0.000000
vn 0.000000 1.000000 0.000000
vn -1.000000 0.000000 -0.000000
vn -1.000000 0.000000 -0.000000
vn -1.000000 0.000000 0.000000
vn -1.000000 0.000000 0.000000
vn -1.000000 0.000000 -0.000000
vn -1.000000 0.000000 0.000000
vn 0.000000 -1.000000 0.000000
vn 0.000000 -1.000000 0.000000
vn 0.000000 -1.000000 0.000000
vn 0.000000 -1.000000 0.000000
vn 0.000000 -1.000000 0.000000
vn 0.000000 -1.000000 0.000000
vn 1.000000 0.000000 0.000000
vn 1.000000 0.000000 0.000000
vn 1.000000 0.000000 0.000000
vn 1.000000 0.000000 0.000000
vn 1.000000 0.000000 0.000000
vn 1.000000 -0.000000 0.000000
vn 0.000000 1.000000 0.000000
vn 0.000000 1.000000 0.000000
vn 0.000000 1.000000 0.000000
vn 0.000000 1.000000 0.000000
vn 0.000000 1.000000 0.000000
vn 0.000000 1.000000 0.000000
vn 0.000000 0.000000 -1.000000
vn 0.000000 0.000000 -1.000000
vn 0.000000 0.000000 -1.000000
vn 0.000000 0.000000 -1.000000
vn 0.000000 0.000000 -1.000000
vn 0.000000 0.000000 -1.000000
vn 0.000000 -1.000000 0.000000
vn 0.000000 -1.000000 0.000000
vn 0.000000 -1.000000 0.000000
vn 0.000000 -1.000000 0.000000
vn 0.000000 -1.000000 0.000000
vn 0.000000 -1.000000 0.000000
vn 0.000000 1.000000 0.000000
vn 0.000000 1.000000 0.000000
vn 0.000000 1.000000 0.000000
vn 0.000000 1.000000 0.000000
vn 0.000000 1.000000 0.000000
vn 0.000000 1.000000 0.000000
vn 0.000000 0.000000 1.000000
vn 0.000000 0.000000 1.000000
vn 0.000000 0.000000 1.000000
vn 0.000000 0.000000 1.000000
vn 0.000000 0.000000 1.000000
vn 0.000000 0.000000 1.000000
vn -0.000001 0.000000 -1.000000
vn -0.000001 0.000000 -1.000000
vn -0.000001 0.000000 -1.000000
vn -0.000001 0.000000 -1.000000
vn -0.000001 0.000000 -1.000000
vn -0.000001 0.000000 -1.000000
vn 0.000001 0.000000 -1.000000
vn 0.000001 0.000000 -1.000000
vn 0.000001 0.000000 -1.000000
vn 0.000001 0.000000 -1.000000
vn 0.000001 0.000000 -1.000000
vn 0.000001 0.000000 -1.000000
s off
g PoolEdge_PoolEdges
usemtl initialShadingGroup
f 13/1/1 10/2/2 16/3/3
f 16/3/4 10/2/5 12/4/6
f 12/4/7 10/2/8 5/5/9
f 5/5/10 10/2/11 7/6/12
f 7/6/13 8/7/14 5/5/15
f 5/5/16 8/7/17 6/8/18
f 16/3/19 6/8/20 13/1/21
f 13/1/22 6/8/23 8/7/24
f 9/9/25 14/10/26 11/11/27
f 11/11/28 14/10/29 15/12/30
f 11/11/31 1/13/32 9/9/33
f 9/9/34 1/13/35 3/14/36
f 4/15/37 3/14/38 2/16/39
f 2/16/40 3/14/41 1/13/42
f 15/12/43 14/10/44 2/16/45
f 2/16/46 14/10/47 4/15/48
f 14/10/49 9/9/50 13/1/51
f 13/1/52 9/9/53 10/2/54
f 7/6/55 10/2/56 3/14/57
f 3/14/58 10/2/59 9/9/60
f 13/1/61 8/7/62 14/10/63
f 14/10/64 8/7/65 4/15/66
f 3/14/67 4/15/68 7/6/69
f 7/6/70 4/15/71 8/7/72
f 1/13/73 11/11/74 2/16/75
f 2/16/76 11/11/77 15/12/78
f 12/4/79 5/5/80 16/3/81
f 16/3/82 5/5/83 6/8/84
