# This file uses centimeters as units for non-parametric coordinates.

mtllib diamond.mtl
g default
v 173.286133 11.134579 45.873108
v 174.134323 10.109942 47.678001
v 174.100662 10.082111 46.285439
v 174.198166 9.333419 49.780380
v 174.611954 9.072384 48.475849
v 173.467880 8.923250 51.860146
v 174.238342 8.407125 50.820339
v 172.054703 8.941856 53.600697
v 173.036697 8.187616 52.962009
v 170.173706 9.386426 54.737030
v 171.189987 8.447275 54.574783
v 168.111313 10.189259 55.096191
v 168.979324 9.146564 55.413158
v 166.181473 11.228145 54.623440
v 166.741302 10.179029 55.349472
v 164.678024 12.344913 53.390800
v 164.816605 11.387486 54.393436
v 163.829819 13.369549 51.585903
v 163.498260 12.587955 52.690590
v 163.765976 14.146072 49.483528
v 162.986984 13.597683 50.500187
v 164.496262 14.556241 47.403759
v 163.360580 14.262941 48.155689
v 165.909454 14.537634 45.663208
v 164.562210 14.482450 46.014019
v 167.790436 14.093066 44.526871
v 166.408936 14.222794 44.401241
v 169.852829 13.290233 44.167728
v 168.619583 13.523502 43.562862
v 171.782669 12.251346 44.640469
v 170.857620 12.491037 43.626549
v 172.782318 11.282581 44.582596
v 173.973312 8.891957 40.964066
v 175.149597 8.296042 42.429287
v 176.038452 7.011438 43.631554
v 175.102097 7.650080 42.010681
v 176.580490 6.567528 45.474052
v 176.839386 5.429715 47.062794
v 176.578201 5.866955 45.151646
v 176.688156 5.257584 49.020657
v 176.254135 4.387599 50.735416
v 176.689270 4.515619 48.810287
v 166.644897 2.042071 45.707096
v 175.456207 4.565642 52.529118
v 174.371780 4.043740 54.090317
v 175.418396 3.801816 52.429604
v 173.072220 4.597039 55.465332
v 171.478943 4.450490 56.616711
v 172.959076 3.834204 55.458599
v 166.414154 1.631199 47.155094
v 169.899094 5.346995 57.382282
v 168.015991 5.545919 57.930008
v 169.685699 4.607858 57.436127
v 166.419937 6.701340 57.988140
v 164.510117 7.163265 57.830250
v 166.096634 6.004992 58.061123
v 165.273605 1.791567 48.151165
v 163.164413 8.453884 57.190651
v 161.495102 9.056297 56.332630
v 162.738251 7.812910 57.238426
v 160.628159 10.337817 55.111240
v 159.429947 10.936816 53.665146
v 160.121841 9.756372 55.093315
v 163.891373 2.429230 48.111839
v 159.197250 12.066336 52.066467
v 158.629028 12.518539 50.233898
v 158.645737 11.539497 51.952343
v 159.089615 13.376274 48.519882
v 159.214279 13.560657 46.561260
v 158.534668 12.890829 48.293701
v 163.077133 3.170657 47.060139
v 160.321548 14.068216 45.011417
v 161.096619 13.904514 43.206379
v 159.805542 13.604631 44.674385
v 162.705551 14.036820 42.075203
v 163.989471 13.497766 40.679981
v 162.264877 13.572245 41.645378
v 163.307892 3.581528 45.612148
v 165.878662 13.286864 40.158237
v 167.452423 12.402335 39.366692
v 165.538239 12.798590 39.667870
v 169.357819 11.932519 39.552391
v 170.958298 10.784989 39.466434
v 169.127319 11.401457 39.042885
v 164.448456 3.421160 44.616066
v 172.613327 10.179973 40.349884
v 172.485703 9.593536 39.865570
v 165.830673 2.783497 44.655403
v 166.351227 2.396834 45.082188
v 164.154495 1.040495 45.826710
v 166.667007 1.773217 46.435001
v 165.924850 1.637645 47.757725
v 164.559540 2.069535 48.275509
v 163.370819 2.815894 47.685047
v 163.055038 3.439510 46.332226
v 163.797195 3.575082 45.009510
v 165.162506 3.143192 44.491726
v 171.332520 6.699777 55.494362
v 172.486603 7.249094 54.367790
v 173.644714 6.374672 53.475056
v 175.149231 6.649513 50.793541
v 175.221298 7.748658 49.493732
v 175.617004 7.482458 47.858101
v 174.976852 8.746698 45.115551
v 174.057693 10.046615 44.508766
v 173.326202 10.249762 42.983490
v 170.916351 11.762825 41.786476
v 169.677444 12.796844 42.332989
v 168.114197 13.055536 41.706734
v 165.346313 13.931099 42.756432
v 164.646378 14.388310 44.240967
v 163.034103 14.256203 44.775730
v 161.529617 13.981363 47.457222
v 161.911667 13.888746 49.115017
v 161.061813 13.148417 50.392700
v 161.701965 11.884176 53.135227
v 163.075272 11.590790 54.099995
v 163.352615 10.381115 55.267288
v 165.762466 8.868050 56.464310
v 167.455551 8.840555 56.275772
v 168.564636 7.575336 56.544044
vt 0.382152 0.831975
vt 0.419130 0.822744
vt 0.405544 0.847177
vt 0.449753 0.800524
vt 0.448105 0.829764
vt 0.469382 0.767841
vt 0.477033 0.794743
vt 0.475326 0.730482
vt 0.494826 0.752353
vt 0.466055 0.693587
vt 0.490500 0.707121
vt 0.443878 0.662856
vt 0.473095 0.664589
vt 0.411200 0.643459
vt 0.438046 0.635667
vt 0.373804 0.637273
vt 0.395680 0.617921
vt 0.336961 0.646796
vt 0.350447 0.622241
vt 0.306172 0.668746
vt 0.307956 0.639644
vt 0.286806 0.701633
vt 0.279016 0.674668
vt 0.280618 0.738824
vt 0.261267 0.717017
vt 0.290088 0.775866
vt 0.265555 0.762241
vt 0.312104 0.806435
vt 0.282946 0.804757
vt 0.344885 0.826035
vt 0.317949 0.833699
vt 0.360334 0.851478
vt 0.344393 0.973321
vt 0.389492 0.961064
vt 0.424677 0.980582
vt 0.385827 0.991411
vt 0.437983 0.968053
vt 0.475467 0.939915
vt 0.515343 0.945389
vt 0.483066 0.969588
vt 0.523020 0.927172
vt 0.546236 0.886610
vt 0.584909 0.875511
vt 0.565112 0.910649
vt 0.442445 0.280315
vt 0.722624 0.204748
vt 0.732693 0.234189
vt 0.724599 0.265627
vt 0.585472 0.857240
vt 0.592063 0.810840
vt 0.624109 0.786488
vt 0.618428 0.826427
vt 0.729788 0.295365
vt 0.717390 0.324256
vt 0.616672 0.768183
vt 0.604389 0.723098
vt 0.623852 0.687885
vt 0.634734 0.726719
vt 0.436450 0.305185
vt 0.719637 0.354287
vt 0.704459 0.380722
vt 0.611350 0.674577
vt 0.583188 0.637124
vt 0.588595 0.597241
vt 0.612843 0.629480
vt 0.701185 0.410036
vt 0.681680 0.433191
vt 0.570414 0.589568
vt 0.529846 0.566396
vt 0.518689 0.527740
vt 0.553853 0.547487
vt 0.422035 0.327472
vt 0.676403 0.462796
vt 0.655464 0.483770
vt 0.500466 0.527179
vt 0.454079 0.520626
vt 0.429693 0.488606
vt 0.469635 0.494247
vt 0.644591 0.511821
vt 0.619652 0.528848
vt 0.411442 0.496036
vt 0.366384 0.508338
vt 0.331161 0.488889
vt 0.369989 0.477992
vt 0.402167 0.345698
vt 0.610153 0.560170
vt 0.587886 0.578986
vt 0.317900 0.501373
vt 0.280472 0.529531
vt 0.240587 0.524121
vt 0.272826 0.499875
vt 0.188868 0.554717
vt 0.166711 0.534314
vt 0.159706 0.502335
vt 0.232948 0.542269
vt 0.209779 0.582819
vt 0.171114 0.593952
vt 0.190881 0.558801
vt 0.384307 0.325707
vt 0.137082 0.481703
vt 0.130535 0.451632
vt 0.170568 0.612153
vt 0.163996 0.658526
vt 0.131950 0.682883
vt 0.137627 0.642946
vt 0.111974 0.427949
vt 0.110760 0.397524
vt 0.139385 0.701124
vt 0.151656 0.746191
vt 0.132162 0.781390
vt 0.121310 0.742549
vt 0.372420 0.302006
vt 0.094608 0.371657
vt 0.096204 0.341705
vt 0.144658 0.794658
vt 0.172790 0.832118
vt 0.167325 0.871997
vt 0.143120 0.839726
vt 0.084848 0.313492
vt 0.091938 0.284090
vt 0.185505 0.879650
vt 0.226052 0.902864
vt 0.237135 0.941543
vt 0.202006 0.921733
vt 0.368651 0.276432
vt 0.084533 0.254041
vt 0.095405 0.225684
vt 0.255382 0.942091
vt 0.301775 0.948703
vt 0.326096 0.980775
vt 0.286163 0.975056
vt 0.093360 0.194575
vt 0.109494 0.168264
vt 0.374886 0.252173
vt 0.131640 0.112413
vt 0.139554 0.080913
vt 0.163612 0.060211
vt 0.112006 0.136503
vt 0.441261 0.268122
vt 0.409568 0.277985
vt 0.440616 0.292889
vt 0.430186 0.316782
vt 0.412905 0.337360
vt 0.392369 0.336346
vt 0.377462 0.314141
vt 0.369617 0.289187
vt 0.370743 0.263914
vt 0.381539 0.241902
vt 0.542452 0.692619
vt 0.523807 0.727169
vt 0.545970 0.759755
vt 0.524015 0.821240
vt 0.486395 0.832465
vt 0.479026 0.871182
vt 0.420037 0.899135
vt 0.385508 0.880478
vt 0.352907 0.902631
vt 0.291439 0.880680
vt 0.280224 0.843077
vt 0.241514 0.835682
vt 0.213582 0.776711
vt 0.232241 0.742198
vt 0.210092 0.709607
vt 0.232023 0.648164
vt 0.269620 0.636944
vt 0.276985 0.598238
vt 0.335935 0.570280
vt 0.370469 0.588920
vt 0.403040 0.566750
vt 0.464515 0.588664
vt 0.475767 0.626269
vt 0.514479 0.633629
vn 0.796338 0.604040 -0.031323
vn 0.796338 0.604040 -0.031323
vn 0.796338 0.604040 -0.031323
vn 0.841988 0.513888 0.164243
vn 0.841988 0.513888 0.164243
vn 0.841988 0.513888 0.164243
vn 0.808630 0.454489 0.373574
vn 0.808630 0.454489 0.373574
vn 0.808630 0.454489 0.373574
vn 0.701344 0.434890 0.564790
vn 0.701344 0.434890 0.564790
vn 0.701344 0.434890 0.564790
vn 0.536458 0.458076 0.708787
vn 0.536458 0.458076 0.708787
vn 0.536457 0.458076 0.708787
vn 0.339084 0.520510 0.783640
vn 0.339084 0.520510 0.783640
vn 0.339084 0.520510 0.783640
vn 0.139260 0.612695 0.777954
vn 0.139260 0.612695 0.777954
vn 0.139260 0.612695 0.777954
vn -0.032586 0.720590 0.692596
vn -0.032586 0.720590 0.692596
vn -0.032586 0.720590 0.692596
vn -0.150293 0.827776 0.540554
vn -0.150292 0.827776 0.540555
vn -0.150293 0.827776 0.540554
vn -0.195942 0.917926 0.344990
vn -0.195942 0.917926 0.344990
vn -0.195942 0.917926 0.344990
vn -0.162585 0.977324 0.135659
vn -0.162585 0.977324 0.135659
vn -0.162585 0.977324 0.135659
vn -0.055299 0.996923 -0.055558
vn -0.055299 0.996923 -0.055558
vn -0.055299 0.996923 -0.055558
vn 0.109587 0.973740 -0.199555
vn 0.109588 0.973740 -0.199555
vn 0.109587 0.973740 -0.199555
vn 0.306960 0.911305 -0.274407
vn 0.306960 0.911305 -0.274407
vn 0.306960 0.911305 -0.274407
vn 0.506785 0.819119 -0.268723
vn 0.506785 0.819119 -0.268723
vn 0.506785 0.819119 -0.268723
vn 0.678630 0.711223 -0.183365
vn 0.678630 0.711223 -0.183365
vn 0.678630 0.711223 -0.183365
vn 0.842788 0.247704 -0.477861
vn 0.842788 0.247704 -0.477861
vn 0.842788 0.247704 -0.477861
vn 0.842788 0.247704 -0.477861
vn 0.842788 0.247704 -0.477861
vn 0.842788 0.247704 -0.477861
vn 0.978257 0.084053 -0.189598
vn 0.978257 0.084053 -0.189598
vn 0.978257 0.084053 -0.189598
vn 0.978257 0.084053 -0.189598
vn 0.978257 0.084053 -0.189598
vn 0.978257 0.084053 -0.189598
vn 0.988451 -0.039962 0.146178
vn 0.988451 -0.039962 0.146178
vn 0.988451 -0.039962 0.146178
vn 0.988451 -0.039962 0.146178
vn 0.988451 -0.039962 0.146178
vn 0.988451 -0.039962 0.146178
vn 0.282033 -0.771386 -0.570456
vn 0.282033 -0.771386 -0.570456
vn 0.282033 -0.771386 -0.570456
vn 0.282033 -0.771386 -0.570456
vn 0.282033 -0.771386 -0.570456
vn 0.282033 -0.771386 -0.570456
vn 0.871816 -0.105479 0.478342
vn 0.871816 -0.105479 0.478342
vn 0.871816 -0.105479 0.478342
vn 0.871816 -0.105479 0.478342
vn 0.871816 -0.105479 0.478342
vn 0.871816 -0.105479 0.478342
vn 0.336947 -0.879834 -0.335200
vn 0.336947 -0.879834 -0.335200
vn 0.336947 -0.879834 -0.335200
vn 0.336947 -0.879834 -0.335200
vn 0.336947 -0.879834 -0.335200
vn 0.336947 -0.879834 -0.335200
vn 0.646110 -0.102498 0.756331
vn 0.646110 -0.102498 0.756331
vn 0.646110 -0.102498 0.756331
vn 0.646110 -0.102498 0.756331
vn 0.646110 -0.102498 0.756331
vn 0.646110 -0.102498 0.756331
vn 0.296819 -0.951286 -0.083389
vn 0.296819 -0.951286 -0.083389
vn 0.296819 -0.951286 -0.083389
vn 0.296819 -0.951286 -0.083389
vn 0.296819 -0.951286 -0.083389
vn 0.296819 -0.951286 -0.083389
vn 0.345693 -0.031503 0.937819
vn 0.345693 -0.031503 0.937819
vn 0.345693 -0.031503 0.937819
vn 0.345693 -0.031503 0.937819
vn 0.345693 -0.031503 0.937819
vn 0.345693 -0.031503 0.937819
vn 0.167761 -0.974862 0.146632
vn 0.167761 -0.974862 0.146632
vn 0.167761 -0.974862 0.146632
vn 0.167761 -0.974862 0.146632
vn 0.167761 -0.974862 0.146632
vn 0.167761 -0.974862 0.146632
vn 0.016305 0.096726 0.995178
vn 0.016305 0.096726 0.995178
vn 0.016305 0.096726 0.995178
vn 0.016305 0.096726 0.995178
vn 0.016305 0.096726 0.995178
vn 0.016305 0.096726 0.995178
vn -0.030586 -0.946973 0.319853
vn -0.030586 -0.946973 0.319853
vn -0.030586 -0.946973 0.319853
vn -0.030586 -0.946973 0.319853
vn -0.030586 -0.946973 0.319853
vn -0.030586 -0.946973 0.319853
vn -0.291916 0.262644 0.919676
vn -0.291916 0.262644 0.919676
vn -0.291916 0.262644 0.919676
vn -0.291916 0.262644 0.919676
vn -0.291916 0.262644 0.919676
vn -0.291916 0.262644 0.919676
vn -0.268016 -0.871868 0.409895
vn -0.268016 -0.871868 0.409895
vn -0.268016 -0.871868 0.409895
vn -0.268016 -0.871868 0.409895
vn -0.268016 -0.871868 0.409895
vn -0.268016 -0.871868 0.409895
vn -0.532034 0.441012 0.722806
vn -0.532034 0.441012 0.722806
vn -0.532034 0.441012 0.722806
vn -0.532034 0.441012 0.722806
vn -0.532034 0.441012 0.722806
vn -0.532034 0.441012 0.722806
vn -0.508391 -0.760976 0.403055
vn -0.508391 -0.760976 0.403055
vn -0.508391 -0.760976 0.403055
vn -0.508391 -0.760976 0.403055
vn -0.508391 -0.760976 0.403055
vn -0.508391 -0.760976 0.403055
vn -0.667508 0.604655 0.434541
vn -0.667508 0.604655 0.434541
vn -0.667508 0.604655 0.434541
vn -0.667508 0.604655 0.434541
vn -0.667508 0.604655 0.434541
vn -0.667508 0.604655 0.434541
vn -0.715109 -0.631184 0.300375
vn -0.715109 -0.631184 0.300375
vn -0.715109 -0.631184 0.300375
vn -0.715109 -0.631184 0.300375
vn -0.715109 -0.631184 0.300375
vn -0.715109 -0.631184 0.300375
vn -0.677696 0.728679 0.098768
vn -0.677696 0.728679 0.098768
vn -0.677696 0.728679 0.098768
vn -0.677696 0.728679 0.098768
vn -0.677696 0.728679 0.098768
vn -0.677696 0.728679 0.098768
vn -0.856706 -0.502247 0.117481
vn -0.856706 -0.502247 0.117481
vn -0.856706 -0.502247 0.117481
vn -0.856706 -0.502247 0.117481
vn -0.856706 -0.502247 0.117481
vn -0.856706 -0.502247 0.117481
vn -0.561068 0.794183 -0.233401
vn -0.561068 0.794183 -0.233401
vn -0.561068 0.794183 -0.233401
vn -0.561068 0.794183 -0.233401
vn -0.561068 0.794183 -0.233401
vn -0.561068 0.794183 -0.233401
vn -0.911620 -0.393800 -0.117775
vn -0.911620 -0.393800 -0.117775
vn -0.911620 -0.393800 -0.117775
vn -0.911620 -0.393800 -0.117775
vn -0.911620 -0.393800 -0.117775
vn -0.911620 -0.393800 -0.117775
vn -0.335357 0.791215 -0.511385
vn -0.335357 0.791215 -0.511385
vn -0.335357 0.791215 -0.511385
vn -0.335357 0.791215 -0.511385
vn -0.335357 0.791215 -0.511385
vn -0.335357 0.791215 -0.511385
vn -0.871492 -0.322348 -0.369586
vn -0.871492 -0.322348 -0.369586
vn -0.871492 -0.322348 -0.369586
vn -0.871492 -0.322348 -0.369586
vn -0.871492 -0.322348 -0.369586
vn -0.871492 -0.322348 -0.369586
vn -0.034943 0.720209 -0.692876
vn -0.034943 0.720209 -0.692876
vn -0.034943 0.720209 -0.692876
vn -0.034943 0.720209 -0.692876
vn -0.034943 0.720209 -0.692876
vn -0.034943 0.720209 -0.692876
vn -0.742433 -0.298772 -0.599607
vn -0.742433 -0.298772 -0.599607
vn -0.742433 -0.298772 -0.599607
vn -0.742433 -0.298772 -0.599607
vn -0.742433 -0.298772 -0.599607
vn -0.742433 -0.298772 -0.599607
vn 0.294449 0.591991 -0.750231
vn 0.294449 0.591991 -0.750231
vn 0.294449 0.591991 -0.750231
vn 0.294449 0.591991 -0.750231
vn 0.294449 0.591991 -0.750231
vn 0.294449 0.591991 -0.750231
vn -0.544087 -0.326661 -0.772827
vn -0.544087 -0.326661 -0.772827
vn -0.544087 -0.326661 -0.772827
vn -0.544087 -0.326661 -0.772827
vn -0.544088 -0.326661 -0.772827
vn -0.544087 -0.326661 -0.772827
vn 0.602665 0.426062 -0.674734
vn 0.602665 0.426062 -0.674734
vn 0.602665 0.426062 -0.674734
vn 0.602665 0.426062 -0.674734
vn 0.602665 0.426062 -0.674734
vn 0.602665 0.426062 -0.674734
vn -0.306656 -0.401767 -0.862871
vn -0.306656 -0.401767 -0.862871
vn -0.306656 -0.401767 -0.862871
vn -0.306656 -0.401767 -0.862871
vn -0.306656 -0.401767 -0.862871
vn -0.306656 -0.401767 -0.862871
vn 0.140437 -0.642450 -0.753349
vn 0.140437 -0.642450 -0.753349
vn 0.140437 -0.642450 -0.753349
vn 0.140437 -0.642450 -0.753349
vn 0.140437 -0.642450 -0.753349
vn 0.140437 -0.642450 -0.753349
vn -0.066281 -0.512658 -0.856031
vn -0.066281 -0.512658 -0.856031
vn -0.066281 -0.512658 -0.856031
vn -0.066281 -0.512658 -0.856031
vn -0.066281 -0.512658 -0.856031
vn -0.066281 -0.512658 -0.856031
vn 0.282692 -0.771055 -0.570578
vn 0.282692 -0.771055 -0.570578
vn 0.282692 -0.771055 -0.570578
vn 0.337650 -0.879591 -0.335131
vn 0.337650 -0.879591 -0.335131
vn 0.337650 -0.879591 -0.335131
vn 0.297490 -0.951100 -0.083117
vn 0.297490 -0.951100 -0.083117
vn 0.297490 -0.951100 -0.083117
vn 0.168327 -0.974695 0.147090
vn 0.168327 -0.974695 0.147090
vn 0.168327 -0.974695 0.147090
vn -0.030179 -0.946785 0.320450
vn -0.030179 -0.946785 0.320450
vn -0.030179 -0.946785 0.320450
vn -0.267802 -0.871617 0.410567
vn -0.267802 -0.871617 0.410567
vn -0.267802 -0.871617 0.410567
vn -0.508372 -0.760636 0.403721
vn -0.508372 -0.760636 0.403721
vn -0.508372 -0.760636 0.403721
vn -0.715257 -0.630740 0.300957
vn -0.715257 -0.630740 0.300957
vn -0.715257 -0.630740 0.300957
vn -0.856968 -0.501699 0.117916
vn -0.856968 -0.501699 0.117916
vn -0.856968 -0.501699 0.117916
vn -0.911926 -0.393164 -0.117532
vn -0.911926 -0.393164 -0.117532
vn -0.911926 -0.393164 -0.117532
vn -0.871766 -0.321654 -0.369545
vn -0.871766 -0.321654 -0.369545
vn -0.871766 -0.321654 -0.369545
vn -0.742602 -0.298059 -0.599752
vn -0.742602 -0.298059 -0.599752
vn -0.742603 -0.298059 -0.599752
vn -0.544097 -0.325970 -0.773112
vn -0.544097 -0.325970 -0.773112
vn -0.544097 -0.325970 -0.773112
vn -0.306473 -0.401137 -0.863228
vn -0.306473 -0.401137 -0.863228
vn -0.306473 -0.401137 -0.863228
vn 0.140981 -0.642015 -0.753619
vn 0.140981 -0.642015 -0.753619
vn 0.140981 -0.642015 -0.753619
vn -0.065904 -0.512118 -0.856383
vn -0.065904 -0.512118 -0.856383
vn -0.065904 -0.512118 -0.856383
vn 0.155667 -0.978284 0.136850
vn 0.155667 -0.978284 0.136850
vn 0.155667 -0.978284 0.136850
vn 0.282486 -0.955117 -0.089179
vn 0.282486 -0.955117 -0.089179
vn 0.282486 -0.955117 -0.089179
vn 0.321917 -0.884906 -0.336616
vn 0.321917 -0.884906 -0.336616
vn 0.321917 -0.884906 -0.336616
vn 0.267956 -0.778342 -0.567789
vn 0.267956 -0.778342 -0.567789
vn 0.267956 -0.778342 -0.567789
vn 0.128819 -0.651643 -0.747507
vn 0.128819 -0.651643 -0.747507
vn 0.128819 -0.651643 -0.747507
vn -0.074312 -0.524106 -0.848405
vn -0.074311 -0.524105 -0.848405
vn -0.074312 -0.524106 -0.848405
vn -0.310513 -0.415139 -0.855127
vn -0.310513 -0.415139 -0.855127
vn -0.310513 -0.415139 -0.855127
vn -0.543822 -0.341336 -0.766646
vn -0.543822 -0.341336 -0.766646
vn -0.543822 -0.341337 -0.766646
vn -0.738724 -0.313933 -0.596434
vn -0.738724 -0.313933 -0.596434
vn -0.738724 -0.313933 -0.596434
vn -0.865542 -0.337099 -0.370406
vn -0.865542 -0.337099 -0.370406
vn -0.865542 -0.337099 -0.370406
vn -0.904974 -0.407310 -0.122967
vn -0.904974 -0.407310 -0.122967
vn -0.904974 -0.407310 -0.122967
vn -0.851014 -0.513875 0.108205
vn -0.851013 -0.513876 0.108205
vn -0.851014 -0.513875 0.108205
vn -0.711876 -0.640572 0.287924
vn -0.711876 -0.640572 0.287924
vn -0.711876 -0.640572 0.287924
vn -0.508746 -0.768111 0.388822
vn -0.508746 -0.768111 0.388822
vn -0.508746 -0.768111 0.388822
vn -0.272543 -0.877078 0.395543
vn -0.272543 -0.877078 0.395543
vn -0.272544 -0.877078 0.395544
vn -0.039235 -0.950880 0.307062
vn -0.039235 -0.950880 0.307062
vn -0.039235 -0.950880 0.307062
vn 0.541112 0.403415 0.737872
vn 0.541112 0.403415 0.737872
vn 0.541112 0.403415 0.737871
vn 0.541112 0.403415 0.737871
vn 0.541112 0.403415 0.737871
vn 0.541112 0.403415 0.737872
vn 0.522414 0.421996 0.740947
vn 0.522414 0.421996 0.740947
vn 0.522414 0.421996 0.740947
vn 0.728879 0.392966 0.560636
vn 0.728879 0.392966 0.560636
vn 0.728879 0.392966 0.560636
vn 0.720652 0.378172 0.581074
vn 0.720652 0.378172 0.581074
vn 0.720652 0.378172 0.581074
vn 0.720652 0.378172 0.581074
vn 0.720652 0.378172 0.581074
vn 0.720652 0.378172 0.581074
vn 0.837476 0.399512 0.372858
vn 0.837476 0.399512 0.372858
vn 0.837476 0.399512 0.372858
vn 0.837476 0.399512 0.372858
vn 0.837476 0.399512 0.372858
vn 0.837476 0.399512 0.372858
vn 0.823206 0.410198 0.392518
vn 0.823206 0.410198 0.392518
vn 0.823206 0.410198 0.392518
vn 0.864977 0.484574 0.130399
vn 0.864977 0.484574 0.130399
vn 0.864977 0.484574 0.130399
vn 0.873799 0.464190 0.144922
vn 0.873799 0.464190 0.144922
vn 0.873799 0.464190 0.144922
vn 0.873799 0.464190 0.144922
vn 0.873799 0.464190 0.144923
vn 0.873799 0.464190 0.144922
vn 0.824092 0.562356 -0.068032
vn 0.824092 0.562356 -0.068032
vn 0.824092 0.562356 -0.068032
vn 0.824092 0.562356 -0.068032
vn 0.824092 0.562356 -0.068032
vn 0.824092 0.562356 -0.068032
vn 0.824841 0.563837 -0.041546
vn 0.824841 0.563837 -0.041546
vn 0.824841 0.563837 -0.041546
vn 0.677449 0.698050 -0.231925
vn 0.677449 0.698050 -0.231925
vn 0.677449 0.698050 -0.231925
vn 0.695920 0.679068 -0.233584
vn 0.695920 0.679068 -0.233584
vn 0.695920 0.679068 -0.233584
vn 0.695920 0.679068 -0.233584
vn 0.695920 0.679068 -0.233584
vn 0.695920 0.679068 -0.233584
vn 0.508799 0.796555 -0.326532
vn 0.508799 0.796555 -0.326532
vn 0.508799 0.796555 -0.326532
vn 0.508799 0.796555 -0.326532
vn 0.508799 0.796555 -0.326532
vn 0.508799 0.796555 -0.326532
vn 0.526361 0.792913 -0.306973
vn 0.526361 0.792913 -0.306973
vn 0.526361 0.792913 -0.306973
vn 0.276147 0.908344 -0.314093
vn 0.276147 0.908344 -0.314093
vn 0.276147 0.908344 -0.314093
vn 0.291214 0.896934 -0.332723
vn 0.291214 0.896934 -0.332723
vn 0.291214 0.896934 -0.332723
vn 0.291214 0.896934 -0.332723
vn 0.291214 0.896934 -0.332723
vn 0.291214 0.896934 -0.332723
vn 0.076291 0.964920 -0.251216
vn 0.076291 0.964920 -0.251216
vn 0.076291 0.964920 -0.251216
vn 0.076291 0.964920 -0.251216
vn 0.076291 0.964920 -0.251216
vn 0.076291 0.964920 -0.251216
vn 0.102613 0.963238 -0.248282
vn 0.102613 0.963238 -0.248282
vn 0.102613 0.963238 -0.248282
vn -0.103852 0.992267 -0.067971
vn -0.103852 0.992267 -0.067971
vn -0.103852 0.992267 -0.067971
vn -0.103249 0.990164 -0.094419
vn -0.103249 0.990164 -0.094419
vn -0.103249 0.990164 -0.094419
vn -0.103249 0.990164 -0.094419
vn -0.103249 0.990164 -0.094419
vn -0.103249 0.990164 -0.094419
vn -0.220074 0.968823 0.113796
vn -0.220074 0.968823 0.113796
vn -0.220074 0.968823 0.113796
vn -0.220074 0.968823 0.113796
vn -0.220074 0.968823 0.113796
vn -0.220074 0.968823 0.113796
vn -0.198178 0.975036 0.100148
vn -0.198178 0.975036 0.100148
vn -0.198178 0.975036 0.100148
vn -0.239949 0.900660 0.362266
vn -0.239949 0.900660 0.362266
vn -0.239949 0.900660 0.362266
vn -0.256397 0.904146 0.341732
vn -0.256397 0.904146 0.341732
vn -0.256397 0.904146 0.341732
vn -0.256397 0.904146 0.341732
vn -0.256397 0.904146 0.341732
vn -0.256397 0.904146 0.341732
vn -0.206689 0.805979 0.554687
vn -0.206689 0.805979 0.554687
vn -0.206689 0.805979 0.554687
vn -0.206689 0.805979 0.554687
vn -0.206690 0.805978 0.554687
vn -0.206689 0.805979 0.554687
vn -0.199813 0.821397 0.534212
vn -0.199813 0.821397 0.534211
vn -0.199813 0.821397 0.534212
vn -0.052421 0.687183 0.724590
vn -0.052421 0.687183 0.724590
vn -0.052421 0.687183 0.724590
vn -0.078518 0.689267 0.720240
vn -0.078518 0.689267 0.720240
vn -0.078518 0.689267 0.720240
vn -0.078518 0.689267 0.720240
vn -0.078518 0.689267 0.720240
vn -0.078518 0.689267 0.720240
vn 0.108604 0.571779 0.813187
vn 0.108604 0.571779 0.813187
vn 0.108604 0.571779 0.813187
vn 0.108604 0.571779 0.813187
vn 0.108604 0.571779 0.813187
vn 0.108604 0.571779 0.813187
vn 0.098666 0.592321 0.799638
vn 0.098666 0.592321 0.799638
vn 0.098666 0.592321 0.799638
vn 0.348881 0.476889 0.806758
vn 0.348881 0.476889 0.806758
vn 0.348881 0.476889 0.806758
vn 0.326189 0.471402 0.819378
vn 0.326189 0.471402 0.819378
vn 0.326189 0.471402 0.819378
vn 0.326189 0.471402 0.819378
vn 0.326189 0.471402 0.819378
vn 0.326189 0.471402 0.819378
vn 0.139260 0.612693 0.777955
vn 0.139260 0.612693 0.777955
vn 0.139260 0.612693 0.777955
vn 0.339083 0.520509 0.783641
vn 0.339083 0.520509 0.783641
vn 0.339083 0.520509 0.783641
vn 0.536459 0.458074 0.708788
vn 0.536459 0.458074 0.708788
vn 0.536459 0.458074 0.708788
vn 0.701345 0.434890 0.564789
vn 0.701345 0.434890 0.564789
vn 0.701345 0.434890 0.564789
vn 0.808630 0.454489 0.373574
vn 0.808630 0.454489 0.373574
vn 0.808630 0.454489 0.373574
vn 0.841989 0.513886 0.164243
vn 0.841989 0.513886 0.164243
vn 0.841989 0.513886 0.164243
vn 0.796338 0.604040 -0.031326
vn 0.796338 0.604040 -0.031326
vn 0.796338 0.604040 -0.031326
vn 0.678631 0.711223 -0.183364
vn 0.678631 0.711223 -0.183364
vn 0.678631 0.711223 -0.183364
vn 0.506785 0.819119 -0.268723
vn 0.506785 0.819119 -0.268723
vn 0.506785 0.819119 -0.268723
vn 0.306961 0.911304 -0.274409
vn 0.306961 0.911304 -0.274409
vn 0.306961 0.911304 -0.274409
vn 0.109585 0.973739 -0.199557
vn 0.109585 0.973739 -0.199557
vn 0.109585 0.973739 -0.199557
vn -0.055299 0.996923 -0.055558
vn -0.055299 0.996923 -0.055558
vn -0.055299 0.996923 -0.055558
vn -0.162587 0.977324 0.135660
vn -0.162587 0.977324 0.135660
vn -0.162587 0.977324 0.135660
vn -0.195944 0.917927 0.344988
vn -0.195944 0.917927 0.344988
vn -0.195944 0.917927 0.344988
vn -0.150294 0.827774 0.540558
vn -0.150294 0.827774 0.540558
vn -0.150295 0.827774 0.540557
vn -0.032586 0.720589 0.692596
vn -0.032586 0.720589 0.692596
vn -0.032586 0.720589 0.692596
vn -0.204484 0.869946 0.448754
vn -0.204484 0.869946 0.448754
vn -0.204484 0.869946 0.448754
vn -0.204484 0.869946 0.448754
vn -0.204484 0.869946 0.448754
vn -0.204484 0.869946 0.448754
vn -0.204484 0.869946 0.448754
vn -0.204484 0.869946 0.448754
vn -0.204484 0.869946 0.448754
vn -0.204484 0.869946 0.448754
vn -0.204484 0.869946 0.448754
vn -0.204484 0.869946 0.448754
vn -0.204484 0.869946 0.448754
vn -0.204484 0.869946 0.448754
vn -0.204484 0.869946 0.448754
vn -0.204484 0.869946 0.448754
vn -0.204484 0.869946 0.448754
vn -0.204484 0.869946 0.448754
vn 0.033976 0.652806 0.756763
vn 0.033976 0.652806 0.756763
vn 0.033976 0.652806 0.756763
vn 0.033976 0.652806 0.756763
vn 0.033976 0.652806 0.756763
vn 0.033976 0.652806 0.756763
vn 0.033976 0.652806 0.756763
vn 0.033976 0.652806 0.756763
vn 0.033976 0.652806 0.756763
vn 0.033976 0.652806 0.756763
vn 0.033976 0.652806 0.756763
vn 0.033976 0.652806 0.756763
vn 0.033976 0.652806 0.756763
vn 0.033976 0.652806 0.756763
vn 0.033976 0.652806 0.756763
vn 0.033976 0.652806 0.756763
vn 0.033976 0.652806 0.756763
vn 0.033976 0.652806 0.756763
vn 0.438789 0.466055 0.768282
vn 0.438789 0.466055 0.768282
vn 0.438789 0.466055 0.768282
vn 0.438789 0.466055 0.768282
vn 0.438789 0.466055 0.768282
vn 0.438789 0.466055 0.768282
vn 0.438789 0.466055 0.768282
vn 0.438789 0.466055 0.768282
vn 0.438789 0.466055 0.768282
vn 0.438789 0.466055 0.768282
vn 0.438789 0.466055 0.768282
vn 0.438789 0.466055 0.768282
vn 0.438789 0.466055 0.768282
vn 0.438789 0.466055 0.768282
vn 0.438789 0.466055 0.768282
vn 0.438789 0.466055 0.768282
vn 0.438789 0.466055 0.768282
vn 0.438789 0.466055 0.768282
vn 0.772821 0.419088 0.476564
vn 0.772821 0.419088 0.476564
vn 0.772821 0.419088 0.476564
vn 0.772821 0.419088 0.476564
vn 0.772821 0.419088 0.476564
vn 0.772821 0.419088 0.476564
vn 0.772821 0.419088 0.476564
vn 0.772821 0.419088 0.476564
vn 0.772821 0.419088 0.476564
vn 0.772821 0.419088 0.476564
vn 0.772821 0.419088 0.476564
vn 0.772821 0.419088 0.476564
vn 0.772821 0.419088 0.476564
vn 0.772821 0.419088 0.476564
vn 0.772821 0.419088 0.476564
vn 0.772821 0.419088 0.476564
vn 0.772821 0.419088 0.476564
vn 0.772821 0.419088 0.476564
vn 0.840400 0.539419 0.052493
vn 0.840400 0.539419 0.052493
vn 0.840400 0.539419 0.052493
vn 0.840400 0.539419 0.052493
vn 0.840400 0.539419 0.052493
vn 0.840400 0.539419 0.052493
vn 0.840400 0.539419 0.052493
vn 0.840400 0.539419 0.052493
vn 0.840400 0.539419 0.052493
vn 0.840400 0.539419 0.052493
vn 0.840400 0.539419 0.052493
vn 0.840400 0.539419 0.052493
vn 0.840400 0.539419 0.052493
vn 0.840400 0.539419 0.052493
vn 0.840400 0.539419 0.052493
vn 0.840400 0.539419 0.052493
vn 0.840400 0.539419 0.052493
vn 0.840400 0.539419 0.052493
vn 0.601939 0.756559 -0.255515
vn 0.601939 0.756559 -0.255515
vn 0.601939 0.756559 -0.255515
vn 0.601939 0.756559 -0.255515
vn 0.601939 0.756559 -0.255515
vn 0.601939 0.756559 -0.255515
vn 0.601939 0.756559 -0.255515
vn 0.601939 0.756559 -0.255515
vn 0.601939 0.756559 -0.255515
vn 0.601939 0.756559 -0.255515
vn 0.601939 0.756559 -0.255515
vn 0.601939 0.756559 -0.255515
vn 0.601939 0.756559 -0.255515
vn 0.601939 0.756559 -0.255515
vn 0.601939 0.756559 -0.255515
vn 0.601939 0.756559 -0.255515
vn 0.601939 0.756559 -0.255515
vn 0.601939 0.756559 -0.255515
vn 0.197126 0.943310 -0.267034
vn 0.197126 0.943310 -0.267034
vn 0.197126 0.943310 -0.267034
vn 0.197126 0.943310 -0.267034
vn 0.197126 0.943310 -0.267034
vn 0.197126 0.943310 -0.267034
vn 0.197126 0.943310 -0.267034
vn 0.197126 0.943310 -0.267034
vn 0.197126 0.943310 -0.267034
vn 0.197126 0.943310 -0.267034
vn 0.197126 0.943310 -0.267034
vn 0.197126 0.943310 -0.267034
vn 0.197126 0.943310 -0.267034
vn 0.197126 0.943310 -0.267034
vn 0.197126 0.943310 -0.267034
vn 0.197126 0.943310 -0.267034
vn 0.197126 0.943310 -0.267034
vn 0.197126 0.943310 -0.267034
vn -0.136906 0.990277 0.024684
vn -0.136906 0.990277 0.024684
vn -0.136906 0.990277 0.024684
vn -0.136906 0.990277 0.024684
vn -0.136906 0.990277 0.024684
vn -0.136906 0.990277 0.024684
vn -0.136906 0.990277 0.024684
vn -0.136906 0.990277 0.024684
vn -0.136906 0.990277 0.024684
vn -0.136906 0.990277 0.024684
vn -0.136906 0.990277 0.024684
vn -0.136906 0.990277 0.024684
vn -0.136906 0.990277 0.024684
vn -0.136906 0.990277 0.024684
vn -0.136906 0.990277 0.024684
vn -0.136906 0.990277 0.024684
vn -0.136906 0.990277 0.024684
vn -0.136906 0.990277 0.024684
vn 0.391235 0.867085 0.308383
vn 0.391235 0.867085 0.308383
vn 0.391235 0.867085 0.308383
vn 0.391235 0.867085 0.308383
vn 0.391235 0.867085 0.308383
vn 0.391235 0.867085 0.308383
vn 0.391235 0.867085 0.308383
vn 0.391235 0.867085 0.308383
vn 0.391235 0.867085 0.308383
vn 0.391235 0.867085 0.308383
vn 0.391235 0.867085 0.308383
vn 0.391235 0.867085 0.308383
vn 0.391235 0.867085 0.308383
vn 0.391235 0.867085 0.308383
vn 0.391235 0.867085 0.308383
vn 0.391235 0.867085 0.308383
vn 0.391235 0.867085 0.308383
vn 0.391235 0.867085 0.308383
vn 0.391235 0.867085 0.308383
vn 0.391235 0.867085 0.308383
vn 0.391235 0.867085 0.308383
vn 0.391235 0.867085 0.308383
vn 0.391235 0.867085 0.308383
vn 0.391235 0.867085 0.308383
vn 0.391235 0.867085 0.308383
vn 0.391235 0.867085 0.308383
vn 0.391235 0.867085 0.308383
vn 0.391235 0.867085 0.308383
vn 0.391235 0.867085 0.308383
vn 0.391235 0.867085 0.308383
vn 0.391235 0.867085 0.308383
vn 0.391235 0.867085 0.308383
vn 0.391235 0.867085 0.308383
vn 0.391235 0.867085 0.308383
vn 0.391235 0.867085 0.308383
vn 0.391235 0.867085 0.308383
vn 0.391235 0.867085 0.308383
vn 0.391235 0.867085 0.308383
vn 0.391235 0.867085 0.308383
vn 0.391235 0.867085 0.308383
vn 0.391235 0.867085 0.308383
vn 0.391235 0.867085 0.308383
s off
g pCone1
usemtl pCone1SG
f 1/1/1 2/2/2 3/3/3
f 2/2/4 4/4/5 5/5/6
f 4/4/7 6/6/8 7/7/9
f 6/6/10 8/8/11 9/9/12
f 8/8/13 10/10/14 11/11/15
f 10/10/16 12/12/17 13/13/18
f 12/12/19 14/14/20 15/15/21
f 14/14/22 16/16/23 17/17/24
f 16/16/25 18/18/26 19/19/27
f 18/18/28 20/20/29 21/21/30
f 20/20/31 22/22/32 23/23/33
f 22/22/34 24/24/35 25/25/36
f 24/24/37 26/26/38 27/27/39
f 26/26/40 28/28/41 29/29/42
f 28/28/43 30/30/44 31/31/45
f 30/30/46 1/1/47 32/32/48
f 33/33/49 34/34/50 35/35/51
f 35/35/52 36/36/53 33/33/54
f 35/37/55 37/38/56 38/39/57
f 38/39/58 39/40/59 35/37/60
f 38/41/61 40/42/62 41/43/63
f 41/43/64 42/44/65 38/41/66
f 43/45/67 36/46/68 35/47/69
f 35/47/70 39/48/71 43/45/72
f 41/49/73 44/50/74 45/51/75
f 45/51/76 46/52/77 41/49/78
f 43/45/79 39/48/80 38/53/81
f 38/53/82 42/54/83 43/45/84
f 45/55/85 47/56/86 48/57/87
f 48/57/88 49/58/89 45/55/90
f 50/59/91 42/54/92 41/60/93
f 41/60/94 46/61/95 50/59/96
f 48/62/97 51/63/98 52/64/99
f 52/64/100 53/65/101 48/62/102
f 50/59/103 46/61/104 45/66/105
f 45/66/106 49/67/107 50/59/108
f 52/68/109 54/69/110 55/70/111
f 55/70/112 56/71/113 52/68/114
f 57/72/115 49/67/116 48/73/117
f 48/73/118 53/74/119 57/72/120
f 55/75/121 58/76/122 59/77/123
f 59/77/124 60/78/125 55/75/126
f 57/72/127 53/74/128 52/79/129
f 52/79/130 56/80/131 57/72/132
f 59/81/133 61/82/134 62/83/135
f 62/83/136 63/84/137 59/81/138
f 64/85/139 56/80/140 55/86/141
f 55/86/142 60/87/143 64/85/144
f 62/88/145 65/89/146 66/90/147
f 66/90/148 67/91/149 62/88/150
f 64/85/151 60/92/152 59/93/153
f 59/93/154 63/94/155 64/85/156
f 66/95/157 68/96/158 69/97/159
f 69/97/160 70/98/161 66/95/162
f 71/99/163 63/94/164 62/100/165
f 62/100/166 67/101/167 71/99/168
f 69/102/169 72/103/170 73/104/171
f 73/104/172 74/105/173 69/102/174
f 71/99/175 67/101/176 66/106/177
f 66/106/178 70/107/179 71/99/180
f 73/108/181 75/109/182 76/110/183
f 76/110/184 77/111/185 73/108/186
f 78/112/187 70/107/188 69/113/189
f 69/113/190 74/114/191 78/112/192
f 76/115/193 79/116/194 80/117/195
f 80/117/196 81/118/197 76/115/198
f 78/112/199 74/114/200 73/119/201
f 73/119/202 77/120/203 78/112/204
f 80/121/205 82/122/206 83/123/207
f 83/123/208 84/124/209 80/121/210
f 85/125/211 77/120/212 76/126/213
f 76/126/214 81/127/215 85/125/216
f 83/128/217 86/129/218 33/130/219
f 33/130/220 87/131/221 83/128/222
f 85/125/223 81/127/224 80/132/225
f 80/132/226 84/133/227 85/125/228
f 88/134/229 87/135/230 33/136/231
f 33/136/232 36/137/233 88/134/234
f 88/134/235 84/133/236 83/138/237
f 83/138/238 87/135/239 88/134/240
f 89/139/241 43/45/242 90/140/243
f 43/45/244 91/141/245 90/140/246
f 91/141/247 50/59/248 90/140/249
f 50/59/250 92/142/251 90/140/252
f 92/142/253 57/72/254 90/140/255
f 57/72/256 93/143/257 90/140/258
f 93/143/259 64/85/260 90/140/261
f 64/85/262 94/144/263 90/140/264
f 94/144/265 71/99/266 90/140/267
f 71/99/268 95/145/269 90/140/270
f 95/145/271 78/112/272 90/140/273
f 78/112/274 96/146/275 90/140/276
f 96/146/277 85/125/278 90/140/279
f 85/125/280 97/147/281 90/140/282
f 88/134/283 89/148/284 90/140/285
f 97/147/286 88/134/287 90/140/288
f 50/59/289 49/67/290 92/142/291
f 42/54/292 50/59/293 91/141/294
f 43/45/295 42/54/296 91/141/297
f 36/46/298 43/45/299 89/139/300
f 88/134/301 36/137/302 89/148/303
f 84/133/304 88/134/305 97/147/306
f 85/125/307 84/133/308 97/147/309
f 77/120/310 85/125/311 96/146/312
f 78/112/313 77/120/314 96/146/315
f 70/107/316 78/112/317 95/145/318
f 71/99/319 70/107/320 95/145/321
f 63/94/322 71/99/323 94/144/324
f 64/85/325 63/94/326 94/144/327
f 56/80/328 64/85/329 93/143/330
f 57/72/331 56/80/332 93/143/333
f 49/67/334 57/72/335 92/142/336
f 48/62/337 47/56/338 98/149/339
f 98/149/340 51/63/341 48/62/342
f 99/150/343 98/149/344 47/56/345
f 100/151/346 99/150/347 47/56/348
f 45/55/349 44/50/350 100/151/351
f 100/151/352 47/56/353 45/55/354
f 41/49/355 40/42/356 101/152/357
f 101/152/358 44/50/359 41/49/360
f 102/153/361 101/152/362 40/42/363
f 103/154/364 102/153/365 40/42/366
f 38/41/367 37/38/368 103/154/369
f 103/154/370 40/42/371 38/41/372
f 35/37/373 34/34/374 104/155/375
f 104/155/376 37/38/377 35/37/378
f 105/156/379 104/155/380 34/34/381
f 106/157/382 105/156/383 34/34/384
f 33/33/385 86/129/386 106/157/387
f 106/157/388 34/34/389 33/33/390
f 83/128/391 82/122/392 107/158/393
f 107/158/394 86/129/395 83/128/396
f 108/159/397 107/158/398 82/122/399
f 109/160/400 108/159/401 82/122/402
f 80/121/403 79/116/404 109/160/405
f 109/160/406 82/122/407 80/121/408
f 76/115/409 75/109/410 110/161/411
f 110/161/412 79/116/413 76/115/414
f 111/162/415 110/161/416 75/109/417
f 112/163/418 111/162/419 75/109/420
f 73/108/421 72/103/422 112/163/423
f 112/163/424 75/109/425 73/108/426
f 69/102/427 68/96/428 113/164/429
f 113/164/430 72/103/431 69/102/432
f 114/165/433 113/164/434 68/96/435
f 115/166/436 114/165/437 68/96/438
f 66/95/439 65/89/440 115/166/441
f 115/166/442 68/96/443 66/95/444
f 62/88/445 61/82/446 116/167/447
f 116/167/448 65/89/449 62/88/450
f 117/168/451 116/167/452 61/82/453
f 118/169/454 117/168/455 61/82/456
f 59/81/457 58/76/458 118/169/459
f 118/169/460 61/82/461 59/81/462
f 55/75/463 54/69/464 119/170/465
f 119/170/466 58/76/467 55/75/468
f 120/171/469 119/170/470 54/69/471
f 121/172/472 120/171/473 54/69/474
f 52/68/475 51/63/476 121/172/477
f 121/172/478 54/69/479 52/68/480
f 12/12/481 15/15/482 120/171/483
f 120/171/484 13/13/485 12/12/486
f 8/8/487 11/11/488 99/150/489
f 99/150/490 9/9/491 8/8/492
f 4/4/493 7/7/494 102/153/495
f 102/153/496 5/5/497 4/4/498
f 1/1/499 3/3/500 105/156/501
f 105/156/502 32/32/503 1/1/504
f 28/28/505 31/31/506 108/159/507
f 108/159/508 29/29/509 28/28/510
f 24/24/511 27/27/512 111/162/513
f 111/162/514 25/25/515 24/24/516
f 20/20/517 23/23/518 114/165/519
f 114/165/520 21/21/521 20/20/522
f 16/16/523 19/19/524 117/168/525
f 117/168/526 17/17/527 16/16/528
f 19/19/529 18/18/530 21/21/531
f 19/19/532 21/21/533 114/165/534
f 19/19/535 114/165/536 115/166/537
f 19/19/538 115/166/539 65/89/540
f 19/19/541 65/89/542 116/167/543
f 19/19/544 116/167/545 117/168/546
f 15/15/547 14/14/548 17/17/549
f 15/15/550 17/17/551 117/168/552
f 15/15/553 117/168/554 118/169/555
f 15/15/556 118/169/557 58/76/558
f 15/15/559 58/76/560 119/170/561
f 15/15/562 119/170/563 120/171/564
f 11/11/565 10/10/566 13/13/567
f 11/11/568 13/13/569 120/171/570
f 11/11/571 120/171/572 121/172/573
f 11/11/574 121/172/575 51/63/576
f 11/11/577 51/63/578 98/149/579
f 11/11/580 98/149/581 99/150/582
f 102/153/583 7/7/584 6/6/585
f 102/153/586 6/6/587 9/9/588
f 102/153/589 9/9/590 99/150/591
f 102/153/592 99/150/593 100/151/594
f 100/151/595 44/50/596 101/152/597
f 100/151/598 101/152/599 102/153/600
f 3/3/601 2/2/602 5/5/603
f 3/3/604 5/5/605 102/153/606
f 3/3/607 102/153/608 103/154/609
f 3/3/610 103/154/611 37/38/612
f 3/3/613 37/38/614 104/155/615
f 3/3/616 104/155/617 105/156/618
f 108/159/619 31/31/620 30/30/621
f 108/159/622 30/30/623 32/32/624
f 108/159/625 32/32/626 105/156/627
f 108/159/628 105/156/629 106/157/630
f 106/157/631 86/129/632 107/158/633
f 106/157/634 107/158/635 108/159/636
f 27/27/637 26/26/638 29/29/639
f 27/27/640 29/29/641 108/159/642
f 27/27/643 108/159/644 109/160/645
f 27/27/646 109/160/647 79/116/648
f 27/27/649 79/116/650 110/161/651
f 27/27/652 110/161/653 111/162/654
f 23/23/655 22/22/656 25/25/657
f 23/23/658 25/25/659 111/162/660
f 23/23/661 111/162/662 112/163/663
f 23/23/664 112/163/665 72/103/666
f 23/23/667 72/103/668 113/164/669
f 23/23/670 113/164/671 114/165/672
f 4/4/673 2/2/674 1/1/675
f 4/4/676 1/1/677 30/30/678
f 4/4/679 30/30/680 28/28/681
f 4/4/682 28/28/683 26/26/684
f 4/4/685 26/26/686 24/24/687
f 4/4/688 24/24/689 22/22/690
f 4/4/691 22/22/692 20/20/693
f 4/4/694 20/20/695 18/18/696
f 4/4/697 18/18/698 16/16/699
f 4/4/700 16/16/701 14/14/702
f 4/4/703 14/14/704 12/12/705
f 4/4/706 12/12/707 10/10/708
f 4/4/709 10/10/710 8/8/711
f 8/8/712 6/6/713 4/4/714
