# This file uses centimeters as units for non-parametric coordinates.

mtllib floor.mtl
g default
v 552.799988 0.000000 0.000000
v 0.000000 0.000000 0.000000
v 0.000000 0.000000 559.200012
v 549.599976 0.000000 559.200012
v 556.000000 548.799988 0.000000
v 556.000000 548.799988 559.200012
v 0.000000 548.799988 559.200012
v 0.000000 548.799988 0.000000
v 549.599976 0.000000 559.200012
v 0.000000 0.000000 559.200012
v 0.000000 548.799988 559.200012
v 556.000000 548.799988 559.200012
vt 0.997239 0.997618
vt 0.001992 0.997618
vt 0.001992 0.001867
vt 0.994572 0.001867
vt 0.994966 0.001867
vt 0.994966 0.996690
vt 0.002258 0.996690
vt 0.002258 0.001867
vt 0.996491 0.002382
vt 0.997241 0.996953
vt 0.001561 0.998453
vt 0.001624 0.001530
vn 0.000000 1.000000 0.000000
vn 0.000000 1.000000 0.000000
vn 0.000000 1.000000 0.000000
vn 0.000000 1.000000 0.000000
vn 0.000000 1.000000 0.000000
vn 0.000000 1.000000 0.000000
vn 0.000000 -1.000000 0.000000
vn 0.000000 -1.000000 0.000000
vn 0.000000 -1.000000 0.000000
vn 0.000000 -1.000000 0.000000
vn 0.000000 -1.000000 0.000000
vn 0.000000 -1.000000 0.000000
vn 0.000000 0.000000 -1.000000
vn 0.000000 0.000000 -1.000000
vn 0.000000 0.000000 -1.000000
vn 0.000000 0.000000 -1.000000
vn 0.000000 0.000000 -1.000000
vn 0.000000 0.000000 -1.000000
s off
g Mesh
usemtl initialShadingGroup
f 1/1/1 2/2/2 3/3/3
f 3/3/4 4/4/5 1/1/6
f 5/5/7 6/6/8 7/7/9
f 7/7/10 8/8/11 5/5/12
f 9/9/13 10/10/14 11/11/15
f 11/11/16 12/12/17 9/9/18
