# This file uses centimeters as units for non-parametric coordinates.

mtllib floor2.mtl
g default
v 1894.993530 0.000000 -2055.832031
v -1232.707886 0.000000 -2055.832031
v -1232.707886 0.000000 4563.406738
v 1891.793457 0.000000 4563.406738
vt 0.998894 0.998008
vt 0.000941 0.998008
vt 0.000941 0.001992
vt 0.998413 0.001992
vn 0.000000 1.000000 0.000000
vn 0.000000 1.000000 0.000000
vn 0.000000 1.000000 0.000000
vn 0.000000 1.000000 0.000000
vn 0.000000 1.000000 0.000000
vn 0.000000 1.000000 0.000000
s off
g Mesh
usemtl initialShadingGroup
f 1/1/1 2/2/2 3/3/3
f 3/3/4 4/4/5 1/1/6
