# This file uses centimeters as units for non-parametric coordinates.

mtllib light3.mtl
g default
v 476.124512 151.168610 138.111023
v 485.162598 151.168610 167.066376
v 457.648438 175.671661 175.654602
v 448.610352 175.671661 146.699265
vn -0.618278 -0.761897 0.192989
vn -0.618278 -0.761897 0.192989
vn -0.618278 -0.761897 0.192989
vn -0.618278 -0.761897 0.192989
vn -0.618278 -0.761897 0.192989
vn -0.618278 -0.761897 0.192989
s off
g light3_light3_light2_Mesh
usemtl light3_initialShadingGroup2
f 1//1 2//2 3//3
f 1//4 3//5 4//6
