# This file uses centimeters as units for non-parametric coordinates.

mtllib shortbox.mtl
g default
v -25.220618 165.000000 65.000000
v -73.220618 165.000000 225.000000
v 84.779382 165.000000 272.000000
v 134.779382 165.000000 114.000000
v 134.779382 0.000000 114.000000
v 134.779382 165.000000 114.000000
v 84.779382 165.000000 272.000000
v 84.779382 0.000000 272.000000
v -25.220618 0.000000 65.000000
v -25.220618 165.000000 65.000000
v 134.779382 165.000000 114.000000
v 134.779382 0.000000 114.000000
v -73.220618 0.000000 225.000000
v -73.220618 165.000000 225.000000
v -25.220618 165.000000 65.000000
v -25.220618 0.000000 65.000000
v 84.779382 0.000000 272.000000
v 84.779382 165.000000 272.000000
v -73.220618 165.000000 225.000000
v -73.220618 0.000000 225.000000
vn 0.000000 1.000000 0.000000
vn 0.000000 1.000000 0.000000
vn 0.000000 1.000000 0.000000
vn 0.000000 1.000000 0.000000
vn 0.000000 1.000000 0.000000
vn 0.000000 1.000000 0.000000
vn 0.953400 0.000000 0.301709
vn 0.953400 0.000000 0.301709
vn 0.953400 0.000000 0.301709
vn 0.953400 0.000000 0.301709
vn 0.953400 0.000000 0.301709
vn 0.953400 0.000000 0.301709
vn 0.292826 0.000000 -0.956166
vn 0.292826 0.000000 -0.956166
vn 0.292826 0.000000 -0.956166
vn 0.292826 0.000000 -0.956166
vn 0.292826 0.000000 -0.956166
vn 0.292826 0.000000 -0.956166
vn -0.957826 0.000000 -0.287348
vn -0.957826 0.000000 -0.287348
vn -0.957826 0.000000 -0.287348
vn -0.957826 0.000000 -0.287348
vn -0.957826 0.000000 -0.287348
vn -0.957826 0.000000 -0.287348
vn -0.285121 0.000000 0.958492
vn -0.285121 0.000000 0.958492
vn -0.285121 0.000000 0.958492
vn -0.285121 0.000000 0.958492
vn -0.285121 0.000000 0.958492
vn -0.285121 0.000000 0.958492
s off
g Mesh
usemtl initialShadingGroup
f 1//1 2//2 3//3
f 1//4 3//5 4//6
f 5//7 6//8 7//9
f 5//10 7//11 8//12
f 9//13 10//14 11//15
f 9//16 11//17 12//18
f 13//19 14//20 15//21
f 13//22 15//23 16//24
f 17//25 18//26 19//27
f 17//28 19//29 20//30
