# This file uses centimeters as units for non-parametric coordinates.

mtllib d1.mtl
g default
v 388.385803 28.029453 254.610504
v 383.005066 33.921326 251.687561
v 386.847534 25.194794 251.728424
v 381.466766 31.086668 248.805481
v 386.054077 31.636253 253.820953
v 380.981445 33.877617 249.565063
v 383.798462 27.479866 249.595032
v 388.871094 25.238506 253.850922
v 384.926270 29.558060 251.707977
v 387.498322 29.585590 256.345673
v 379.613647 35.720245 250.930847
v 380.578186 28.756514 248.779572
v 388.462830 22.621853 254.194382
v 389.623108 24.759956 256.368256
v 384.636719 24.312447 250.984283
v 378.453369 33.582150 248.756973
v 383.439789 34.029655 254.140930
v 379.038818 26.992260 257.374023
v 383.358887 26.642429 257.798676
v 379.402496 30.974688 255.649429
v 378.271423 28.890381 253.530273
v 382.227814 24.558123 255.679504
v 383.447815 24.473482 257.498047
v 380.243713 26.350685 253.862686
v 377.646576 30.825768 254.346649
v 381.902252 29.406857 256.969971
v 388.047455 26.400902 257.876892
v 388.084808 26.490456 257.789703
v 388.004211 26.499165 257.876465
v 388.075073 26.444996 257.833679
v 388.058044 26.463976 257.845886
v 388.053284 26.494564 257.833435
v 388.028778 26.448721 257.879181
v 380.163086 35.085114 253.616959
v 380.209229 35.114178 253.511475
v 380.085175 35.119537 253.551590
v 380.187500 35.107487 253.560547
v 380.156189 35.116436 253.553375
v 380.148224 35.124851 253.527588
v 380.122498 35.106075 253.584259
v 377.843506 30.988724 249.351654
v 377.957642 30.965191 249.293060
v 377.886749 30.890461 249.352112
v 377.899475 30.981060 249.314438
v 377.897125 30.953621 249.320923
v 377.921326 30.931492 249.314697
v 377.862152 30.940907 249.349396
v 385.727875 22.304514 253.611603
v 385.833252 22.341465 253.571289
v 385.805725 22.270090 253.676971
v 385.787018 22.318569 253.587570
v 385.798950 22.301163 253.613403
v 385.826355 22.301205 253.620544
v 385.768494 22.283550 253.644318
v 388.723206 22.332954 256.736908
v 388.795105 22.404503 256.678864
v 388.747253 22.377234 256.781921
v 388.768372 22.364311 256.706573
v 388.769257 22.366779 256.729767
v 388.780762 22.387104 256.729736
v 388.739960 22.349890 256.761993
v 381.248199 25.690704 250.490326
v 381.369720 25.685446 250.449005
v 381.332275 25.598677 250.535950
v 381.310852 25.687702 250.462555
v 381.321625 25.657545 250.481232
v 381.354126 25.640331 250.486053
v 381.288879 25.642185 250.510590
v 377.167755 35.056671 250.491638
v 377.246094 35.050591 250.405121
v 377.143738 35.012394 250.446625
v 377.205811 35.061584 250.441910
v 377.185669 35.050728 250.437241
v 377.193451 35.038795 250.418732
v 377.151001 35.039734 250.466553
v 384.642761 31.698921 256.738281
v 384.671448 31.769646 256.635010
v 384.558716 31.790955 256.692596
v 384.663300 31.738194 256.685913
v 384.633270 31.759964 256.685760
v 384.620056 31.785564 256.662415
v 384.602051 31.747440 256.717957
v 388.759277 24.137428 257.591583
v 388.773254 24.056767 257.569489
v 388.856323 24.140579 257.488708
v 388.769348 24.094772 257.582703
v 388.803772 24.110601 257.548584
v 388.817261 24.096836 257.530273
v 388.810181 24.137859 257.541443
v 387.586395 21.869762 255.345917
v 387.527893 21.868347 255.284515
v 387.647705 21.913391 255.224274
v 387.559509 21.865383 255.316040
v 387.594055 21.881351 255.282043
v 387.589478 21.888474 255.254456
v 387.619171 21.889153 255.285645
v 383.612976 23.598194 251.999908
v 383.524719 23.664433 251.938171
v 383.662140 23.674425 251.880432
v 383.569305 23.628475 251.968277
v 383.604431 23.644188 251.934769
v 383.593658 23.667852 251.908234
v 383.638489 23.634220 251.939621
v 379.373352 28.210148 249.683044
v 379.305786 28.314514 249.660126
v 379.434509 28.303654 249.583862
v 379.337494 28.262278 249.669434
v 379.372864 28.277718 249.636078
v 379.368744 28.309593 249.620148
v 379.403076 28.256550 249.631775
v 377.131653 33.252197 249.636978
v 377.117737 33.332863 249.659058
v 377.221161 33.330353 249.560303
v 377.121582 33.294857 249.645859
v 377.157227 33.309570 249.612518
v 377.167511 33.333675 249.608002
v 377.174622 33.292656 249.596832
v 378.304565 35.519867 251.882660
v 378.363037 35.521278 251.944031
v 378.429810 35.557533 251.824738
v 378.331421 35.524246 251.912521
v 378.367004 35.538818 251.879059
v 378.395294 35.542038 251.883850
v 378.365570 35.541359 251.852631
v 382.277985 33.791435 255.228653
v 382.366241 33.725197 255.290359
v 382.415344 33.796501 255.168594
v 382.321625 33.761150 255.260315
v 382.356628 33.775986 255.226349
v 382.391113 33.762661 255.230026
v 382.346252 33.796295 255.198639
v 386.517609 29.179478 257.545502
v 386.585175 29.075115 257.568451
v 386.643005 29.167271 257.465179
v 386.553467 29.127348 257.559143
v 386.588196 29.142454 257.525024
v 386.616028 29.120922 257.518127
v 386.581726 29.173965 257.506470
v 387.880432 26.328102 258.037659
v 387.837158 26.426365 258.037231
v 387.756653 26.350742 258.098755
v 387.861755 26.375919 258.039948
v 387.825134 26.363079 258.068787
v 387.799194 26.386219 258.075195
v 387.821960 26.334507 258.075439
v 379.996033 35.012314 253.777725
v 379.918152 35.046738 253.712357
v 379.886902 34.968056 253.823685
v 379.955444 35.033276 253.745026
v 379.924347 35.014351 253.776886
v 379.895721 35.013683 253.769684
v 379.936737 34.995564 253.804108
v 377.676422 30.915922 249.512421
v 377.719727 30.817661 249.512878
v 377.637024 30.822149 249.608429
v 377.695099 30.868107 249.510162
v 377.665588 30.852110 249.544983
v 377.670685 30.819897 249.558594
v 377.647919 30.871611 249.558350
v 385.560791 22.231712 253.772369
v 385.638702 22.197289 253.837738
v 385.506775 22.204840 253.883469
v 385.601440 22.210752 253.805084
v 385.566376 22.200840 253.836884
v 385.574158 22.192436 253.864105
v 385.533142 22.210554 253.829712
v 388.556152 22.260157 256.897644
v 388.580139 22.304434 256.942688
v 388.466949 22.268614 256.987671
v 388.572937 22.277088 256.922760
v 388.536316 22.266624 256.952606
v 388.527344 22.279581 256.971985
v 388.514374 22.255701 256.947723
v 381.081177 25.617905 250.651062
v 381.165222 25.525875 250.696716
v 381.047546 25.546915 250.762817
v 381.121826 25.569389 250.671356
v 381.089844 25.556881 250.705078
v 381.103546 25.530207 250.730072
v 381.058228 25.579838 250.705475
v 377.000702 34.983868 250.652435
v 376.976685 34.939594 250.607422
v 376.927246 34.904522 250.718994
v 376.983948 34.966934 250.627319
v 376.954529 34.948605 250.661072
v 376.942688 34.926605 250.661652
v 376.955658 34.950489 250.685944
v 384.475708 31.626120 256.899048
v 384.391602 31.718153 256.853363
v 384.346619 31.626221 256.943817
v 384.434998 31.674641 256.878723
v 384.400940 31.658352 256.908600
v 384.366486 31.675983 256.903564
v 384.411804 31.626348 256.928192
v 388.592224 24.064632 257.752350
v 388.493835 24.008690 257.801453
v 388.606140 23.983965 257.730255
v 388.546417 24.031498 257.784546
v 388.565094 24.011055 257.772156
v 388.553772 23.989109 257.773010
v 388.602295 24.021967 257.743469
v 387.419373 21.796963 255.506683
v 387.290131 21.790642 255.546326
v 387.360840 21.795546 255.445282
v 387.357513 21.784794 255.531799
v 387.356201 21.783342 255.507156
v 387.326782 21.784113 255.499557
v 387.392487 21.792582 255.476807
v 383.445892 23.525394 252.160675
v 383.318298 23.545616 252.213928
v 383.357666 23.591631 252.098938
v 383.381287 23.527473 252.189285
v 383.368927 23.545132 252.161896
v 383.334961 23.562199 252.156876
v 383.402283 23.555676 252.129028
v 379.206299 28.137344 249.843811
v 379.108032 28.155859 249.926819
v 379.138733 28.241713 249.820892
v 379.150726 28.143890 249.883896
v 379.140289 28.175457 249.864761
v 379.115295 28.198685 249.871887
v 379.170471 28.189480 249.830200
v 376.964600 33.179394 249.797745
v 376.902283 33.165279 249.903320
v 376.950684 33.260063 249.819824
v 376.924194 33.174934 249.848572
v 376.925995 33.204315 249.841217
v 376.916809 33.217319 249.860107
v 376.954529 33.222057 249.806625
v 378.137543 35.447063 252.043396
v 378.105957 35.383327 252.158478
v 378.195984 35.448479 252.104797
v 378.113037 35.421635 252.101303
v 378.134949 35.432030 252.106201
v 378.143799 35.422314 252.133545
v 378.164368 35.451443 252.073288
v 382.110962 33.718632 255.389420
v 382.077820 33.628349 255.490860
v 382.199219 33.652393 255.451126
v 382.089325 33.678963 255.443817
v 382.122192 33.670242 255.451477
v 382.135651 33.644230 255.476227
v 382.154572 33.688351 255.421051
v 386.350586 29.106680 257.706268
v 386.288086 29.018108 257.778015
v 386.418091 29.002319 257.729218
v 386.319855 29.062538 257.749237
v 386.350830 29.039913 257.748596
v 386.355286 29.007746 257.761230
v 386.386414 29.054546 257.719910
vn 0.403695 -0.275782 -0.872338
vn 0.403695 -0.275782 -0.872338
vn 0.403695 -0.275782 -0.872338
vn 0.943780 0.228995 -0.238414
vn 0.943780 0.228995 -0.238414
vn 0.943780 0.228995 -0.238414
vn 0.657716 0.738353 -0.149148
vn 0.657716 0.738353 -0.149148
vn 0.657716 0.738353 -0.149148
vn 0.687433 0.299589 -0.661576
vn 0.687433 0.299589 -0.661576
vn 0.687433 0.299589 -0.661576
vn 0.687433 0.299589 -0.661576
vn 0.064239 0.842111 0.535464
vn 0.103074 0.817909 0.566039
vn 0.130360 0.871825 0.472151
vn 0.162997 0.843328 0.512084
vn 0.845916 -0.030521 0.532443
vn 0.821188 -0.559552 0.112039
vn 0.857867 -0.241782 0.453437
vn 0.399803 -0.906373 0.136547
vn 0.288090 -0.957601 0.001900
vn 0.499867 -0.865096 0.041732
vn 0.373850 -0.923310 -0.087953
vn -0.096200 -0.750117 -0.654270
vn -0.226371 -0.590887 -0.774344
vn -0.179942 -0.698278 -0.692841
vn -0.143708 -0.876745 -0.458984
vn -0.183620 -0.853012 -0.488523
vn -0.077514 -0.848795 -0.523009
vn -0.127364 -0.827799 -0.546376
vn -0.543285 0.162409 -0.823690
vn -0.377448 0.752939 -0.539088
vn -0.559097 0.371988 -0.740969
vn -0.696219 -0.173943 -0.696436
vn -0.723274 -0.094136 -0.684115
vn -0.617476 -0.140025 -0.774026
vn -0.654370 -0.060230 -0.753772
vn 0.291417 0.835195 0.466397
vn 0.473364 0.698527 0.536643
vn 0.352449 0.773458 0.526822
vn 0.491899 0.723801 -0.483888
vn 0.491899 0.723801 -0.483888
vn 0.491899 0.723801 -0.483888
vn 0.217819 -0.072250 -0.973311
vn 0.217819 -0.072250 -0.973311
vn 0.217819 -0.072250 -0.973311
vn 0.711272 -0.199450 -0.674027
vn 0.711272 -0.199450 -0.674027
vn 0.711272 -0.199450 -0.674027
vn 0.259392 0.295356 -0.919500
vn 0.259392 0.295356 -0.919500
vn 0.259392 0.295356 -0.919500
vn 0.687433 0.299589 -0.661575
vn 0.687433 0.299589 -0.661576
vn 0.687433 0.299589 -0.661576
vn 0.687433 0.299589 -0.661576
vn 0.687433 0.299589 -0.661576
vn 0.687433 0.299589 -0.661576
vn 0.687433 0.299589 -0.661576
vn 0.687433 0.299589 -0.661576
vn 0.687433 0.299589 -0.661575
vn 0.687433 0.299589 -0.661576
vn 0.687433 0.299589 -0.661575
vn 0.687433 0.299589 -0.661576
vn 0.492026 0.392012 0.777327
vn 0.518898 0.344269 0.782447
vn 0.549717 0.419869 0.722165
vn 0.585665 0.373267 0.719492
vn -0.454304 -0.593444 -0.664403
vn -0.487743 -0.552306 -0.676066
vn -0.397953 -0.569232 -0.719450
vn -0.436188 -0.528610 -0.728225
vn 0.660712 -0.270961 0.700028
vn 0.656465 -0.433417 0.617417
vn 0.751382 -0.227626 0.619364
vn 0.756914 -0.391437 0.523314
vn 0.347601 -0.592777 -0.726491
vn 0.347601 -0.592777 -0.726491
vn 0.347601 -0.592777 -0.726491
vn 0.347601 -0.592777 -0.726491
vn 0.072057 -0.965022 -0.252072
vn 0.012714 -0.950218 -0.311326
vn 0.145823 -0.936438 -0.319092
vn 0.091894 -0.916781 -0.388675
vn -0.519462 0.854226 -0.021381
vn -0.411964 0.903616 0.117317
vn -0.421712 0.899157 -0.116943
vn -0.320820 0.946421 0.036917
vn -0.287089 -0.772024 -0.567062
vn -0.321664 -0.738686 -0.592348
vn -0.233348 -0.750722 -0.618034
vn -0.265263 -0.714530 -0.647366
vn -0.135168 -0.064149 -0.988744
vn -0.135168 -0.064149 -0.988744
vn -0.135168 -0.064149 -0.988744
vn -0.135168 -0.064149 -0.988744
vn -0.572568 -0.427115 -0.699813
vn -0.598368 -0.378897 -0.705970
vn -0.514087 -0.404343 -0.756453
vn -0.532825 -0.350239 -0.770344
vn 0.384820 0.563160 0.731276
vn 0.414205 0.520258 0.746837
vn 0.441769 0.588327 0.677283
vn 0.468580 0.542726 0.697052
vn -0.784593 0.216971 -0.580807
vn -0.776134 0.381258 -0.502253
vn -0.698348 0.250732 -0.670406
vn -0.678759 0.425493 -0.598533
vn 0.397566 0.917526 0.009354
vn 0.397566 0.917526 0.009354
vn 0.397566 0.917526 0.009354
vn 0.397566 0.917526 0.009354
vn -0.172161 0.921396 0.348411
vn -0.108911 0.908295 0.403905
vn -0.103476 0.954893 0.278338
vn -0.029128 0.944134 0.328271
vn -0.077171 -0.149414 0.985759
vn 0.156315 -0.256013 0.953951
vn 0.137042 0.047337 0.989434
vn 0.213548 0.739975 0.637836
vn 0.252176 0.708403 0.659221
vn 0.265739 0.764838 0.586861
vn 0.309078 0.733624 0.605200
vn 0.880334 0.388898 0.271607
vn 0.880334 0.388898 0.271607
vn 0.880334 0.388898 0.271607
vn 0.880334 0.388898 0.271607
vn -0.244295 0.366625 0.897723
vn -0.244295 0.366625 0.897723
vn -0.244295 0.366625 0.897723
vn -0.244295 0.366625 0.897723
vn -0.088863 -0.140326 0.986109
vn -0.088863 -0.140326 0.986109
vn -0.088863 -0.140326 0.986109
vn -0.088863 -0.140326 0.986109
vn -0.468352 -0.839616 0.275122
vn -0.468352 -0.839616 0.275122
vn -0.468352 -0.839616 0.275122
vn -0.468352 -0.839616 0.275122
vn -0.652134 -0.757295 -0.035013
vn -0.652134 -0.757295 -0.035013
vn -0.652134 -0.757295 -0.035013
vn -0.652134 -0.757295 -0.035013
vn -0.778896 -0.618491 -0.103874
vn -0.778896 -0.618491 -0.103874
vn -0.778896 -0.618491 -0.103874
vn -0.778896 -0.618491 -0.103874
vn -0.949867 -0.312360 0.013549
vn -0.949867 -0.312360 0.013549
vn -0.949867 -0.312360 0.013549
vn -0.949867 -0.312360 0.013549
vn -0.570378 0.386930 0.724537
vn -0.570378 0.386930 0.724537
vn -0.570378 0.386930 0.724537
vn -0.570378 0.386930 0.724537
vn -0.287566 0.327333 0.900088
vn -0.034030 0.419047 0.907327
vn -0.155053 0.564163 0.810974
vn -0.117532 0.227821 0.966584
vn -0.117532 0.227821 0.966584
vn -0.117532 0.227821 0.966584
vn -0.117532 0.227821 0.966584
vn -0.370562 0.423002 0.826894
vn -0.155053 0.564163 0.810974
vn -0.362293 0.594102 0.718183
vn -0.575889 0.396678 0.714841
vn -0.362293 0.594102 0.718183
vn -0.609377 0.582413 0.538010
vn -0.989002 -0.050925 0.138858
vn -0.929235 0.324362 0.176952
vn -0.981721 -0.103704 -0.159590
vn -0.953933 -0.299948 0.006561
vn -0.981721 -0.103704 -0.159590
vn -0.887989 -0.374606 -0.266730
vn -0.865930 -0.489820 -0.101199
vn -0.887989 -0.374606 -0.266730
vn -0.763201 -0.556478 -0.328414
vn -0.161636 0.189441 0.968497
vn 0.111387 0.272413 0.955711
vn -0.034030 0.419047 0.907327
vn -0.668095 -0.743817 0.019625
vn -0.650813 -0.717508 -0.248242
vn -0.496759 -0.848229 -0.183680
vn -0.557559 -0.827484 0.066317
vn -0.496759 -0.848229 -0.183680
vn -0.388657 -0.921371 0.004520
vn -0.455215 -0.846041 0.277478
vn -0.388657 -0.921371 0.004520
vn -0.216032 -0.942133 0.256350
vn -0.780879 0.332587 0.528785
vn -0.609377 0.582413 0.538010
vn -0.929235 0.324362 0.176952
vn -0.093010 -0.420624 0.902455
vn 0.023639 -0.719024 0.694583
vn 0.156315 -0.256013 0.953951
vn -0.301133 -0.804136 0.512527
vn -0.216032 -0.942133 0.256350
vn 0.023639 -0.719024 0.694583
vn -0.062191 0.085338 0.994409
vn 0.137042 0.047337 0.989434
vn 0.111387 0.272413 0.955711
vn -0.794025 -0.605925 -0.048783
vn -0.763201 -0.556478 -0.328414
vn -0.650813 -0.717508 -0.248242
vn 0.934425 -0.263819 -0.239270
vn 0.934425 -0.263819 -0.239270
vn 0.934425 -0.263819 -0.239270
vn 0.934425 -0.263819 -0.239270
vn 0.393783 -0.863672 -0.314653
vn 0.538639 -0.830027 -0.144647
vn 0.821188 -0.559552 0.112039
vn 0.198384 -0.873767 -0.444045
vn 0.393783 -0.863672 -0.314653
vn 0.124777 -0.813041 -0.568678
vn -0.096200 -0.750117 -0.654270
vn -0.025786 -0.800893 -0.598252
vn 0.124777 -0.813041 -0.568678
vn 0.008006 -0.438526 -0.898683
vn 0.008006 -0.438526 -0.898683
vn 0.008006 -0.438526 -0.898683
vn 0.008006 -0.438526 -0.898683
vn -0.392703 -0.425447 -0.815340
vn -0.346974 -0.515379 -0.783577
vn -0.226371 -0.590887 -0.774344
vn -0.447740 -0.338856 -0.827470
vn -0.392703 -0.425447 -0.815340
vn -0.441460 -0.193011 -0.876276
vn -0.543285 0.162409 -0.823690
vn -0.534491 -0.071272 -0.842164
vn -0.441460 -0.193011 -0.876276
vn 0.057696 0.696193 -0.715533
vn 0.057696 0.696193 -0.715533
vn 0.057696 0.696193 -0.715533
vn 0.057696 0.696193 -0.715533
vn -0.091150 0.995562 0.023402
vn -0.239871 0.960232 -0.142883
vn -0.377448 0.752939 -0.539088
vn 0.033109 0.974653 0.221260
vn -0.091150 0.995562 0.023402
vn 0.175521 0.943914 0.279675
vn 0.291417 0.835195 0.466397
vn 0.215689 0.883654 0.415492
vn 0.175521 0.943914 0.279675
vn 0.636357 0.719344 0.278558
vn 0.636357 0.719344 0.278558
vn 0.636357 0.719344 0.278558
vn 0.636357 0.719344 0.278558
vn 0.587923 0.510527 0.627463
vn 0.519482 0.590559 0.617559
vn 0.473364 0.698527 0.536643
vn 0.637643 0.421617 0.644710
vn 0.587923 0.510527 0.627463
vn 0.741765 0.323882 0.587269
vn 0.845916 -0.030521 0.532443
vn 0.765985 0.172160 0.619378
vn 0.741765 0.323882 0.587269
vn 0.680247 0.167378 0.713617
vn 0.760953 0.226510 0.607983
vn 0.634518 0.277726 0.721287
vn 0.703556 0.309981 0.639469
vn 0.741765 0.323882 0.587269
vn 0.678167 0.388989 0.623520
vn 0.760953 0.226510 0.607983
vn 0.703556 0.309981 0.639469
vn 0.585665 0.373267 0.719492
vn 0.634518 0.277726 0.721287
vn 0.678167 0.388989 0.623520
vn 0.703556 0.309981 0.639469
vn 0.130360 0.871825 0.472151
vn 0.204299 0.907871 0.366104
vn 0.055361 0.911895 0.406674
vn 0.133006 0.934727 0.329538
vn 0.175521 0.943914 0.279675
vn 0.084801 0.966892 0.240685
vn 0.204299 0.907871 0.366104
vn 0.133006 0.934727 0.329538
vn -0.029128 0.944134 0.328271
vn 0.055361 0.911895 0.406674
vn 0.084801 0.966892 0.240685
vn 0.133006 0.934727 0.329538
vn -0.617476 -0.140025 -0.774026
vn -0.501463 -0.113430 -0.857711
vn -0.576491 -0.252441 -0.777130
vn -0.492574 -0.218045 -0.842513
vn -0.441460 -0.193011 -0.876276
vn -0.444130 -0.286999 -0.848752
vn -0.501463 -0.113430 -0.857711
vn -0.492574 -0.218045 -0.842513
vn -0.532825 -0.350239 -0.770344
vn -0.576491 -0.252441 -0.777130
vn -0.444130 -0.286999 -0.848752
vn -0.492574 -0.218045 -0.842513
vn -0.077514 -0.848795 -0.523009
vn 0.029735 -0.805877 -0.591336
vn 0.002665 -0.886607 -0.462517
vn 0.077967 -0.842783 -0.532577
vn 0.124777 -0.813041 -0.568678
vn 0.174680 -0.853808 -0.490407
vn 0.029735 -0.805877 -0.591336
vn 0.077967 -0.842783 -0.532577
vn 0.091894 -0.916781 -0.388675
vn 0.002665 -0.886607 -0.462517
vn 0.174680 -0.853808 -0.490407
vn 0.077967 -0.842783 -0.532577
vn 0.668261 -0.742814 -0.040685
vn 0.753791 -0.622639 0.210047
vn 0.499867 -0.865096 0.041732
vn 0.669988 -0.675862 0.307128
vn 0.821188 -0.559552 0.112039
vn 0.864763 -0.380716 0.327476
vn 0.668261 -0.742814 -0.040685
vn 0.753791 -0.622639 0.210047
vn 0.669988 -0.675862 0.307128
vn 0.753791 -0.622639 0.210047
vn 0.756914 -0.391437 0.523314
vn 0.864763 -0.380716 0.327476
vn -0.397953 -0.569232 -0.719450
vn -0.312752 -0.546458 -0.776898
vn -0.336077 -0.646640 -0.684769
vn -0.272987 -0.615924 -0.738996
vn -0.203363 -0.666243 -0.717471
vn -0.272987 -0.615924 -0.738996
vn -0.226371 -0.590887 -0.774344
vn -0.312752 -0.546458 -0.776898
vn -0.265263 -0.714530 -0.647366
vn -0.336077 -0.646640 -0.684769
vn -0.203363 -0.666243 -0.717471
vn -0.272987 -0.615924 -0.738996
vn -0.305625 0.900856 -0.308304
vn -0.488878 0.738089 -0.464998
vn -0.421712 0.899157 -0.116943
vn -0.594503 0.708758 -0.379775
vn -0.377448 0.752939 -0.539088
vn -0.502130 0.538758 -0.676466
vn -0.305625 0.900856 -0.308304
vn -0.488878 0.738089 -0.464998
vn -0.594503 0.708758 -0.379775
vn -0.488878 0.738089 -0.464998
vn -0.678759 0.425493 -0.598533
vn -0.502130 0.538758 -0.676466
vn 0.441769 0.588327 0.677283
vn 0.498727 0.627507 0.597918
vn 0.374947 0.663578 0.647363
vn 0.433459 0.685858 0.584562
vn 0.389335 0.747289 0.538495
vn 0.433459 0.685858 0.584562
vn 0.473364 0.698527 0.536643
vn 0.498727 0.627507 0.597918
vn 0.309078 0.733624 0.605200
vn 0.374947 0.663578 0.647363
vn 0.389335 0.747289 0.538495
vn 0.433459 0.685858 0.584562
vn 0.713979 -0.072604 0.696393
vn 0.732092 -0.063241 0.678264
vn 0.696714 0.078687 0.713021
vn 0.760422 0.074875 0.645098
vn 0.816501 -0.161201 0.554383
vn 0.732092 -0.063241 0.678264
vn 0.751382 -0.227626 0.619364
vn 0.713979 -0.072604 0.696393
vn 0.845916 -0.030521 0.532443
vn 0.760422 0.074875 0.645098
vn 0.816501 -0.161201 0.554383
vn 0.732092 -0.063241 0.678264
vn 0.237133 -0.951293 -0.197004
vn 0.254882 -0.942583 -0.215805
vn 0.373850 -0.923310 -0.087953
vn 0.422322 -0.887548 -0.184125
vn 0.227380 -0.907351 -0.353571
vn 0.254882 -0.942583 -0.215805
vn 0.145823 -0.936438 -0.319092
vn 0.237133 -0.951293 -0.197004
vn 0.393783 -0.863672 -0.314653
vn 0.422322 -0.887548 -0.184125
vn 0.227380 -0.907351 -0.353571
vn 0.254882 -0.942583 -0.215805
vn -0.127364 -0.827799 -0.546376
vn -0.195848 -0.796182 -0.572484
vn -0.088890 -0.797397 -0.596873
vn -0.181457 -0.789620 -0.586152
vn -0.233348 -0.750722 -0.618034
vn -0.180275 -0.737089 -0.651306
vn -0.195848 -0.796182 -0.572484
vn -0.181457 -0.789620 -0.586152
vn -0.096200 -0.750117 -0.654270
vn -0.088890 -0.797397 -0.596873
vn -0.180275 -0.737089 -0.651306
vn -0.181457 -0.789620 -0.586152
vn -0.436188 -0.528610 -0.728225
vn -0.488519 -0.475709 -0.731471
vn -0.399211 -0.497353 -0.770241
vn -0.473952 -0.469337 -0.745045
vn -0.514087 -0.404343 -0.756453
vn -0.457773 -0.393473 -0.797260
vn -0.488519 -0.475709 -0.731471
vn -0.473952 -0.469337 -0.745045
vn -0.392703 -0.425447 -0.815340
vn -0.399211 -0.497353 -0.770241
vn -0.457773 -0.393473 -0.797260
vn -0.473952 -0.469337 -0.745045
vn -0.702506 0.077598 -0.707434
vn -0.683155 0.084555 -0.725362
vn -0.654370 -0.060230 -0.753772
vn -0.597651 -0.003941 -0.801746
vn -0.615455 0.248807 -0.747870
vn -0.683155 0.084555 -0.725362
vn -0.698348 0.250732 -0.670406
vn -0.702506 0.077598 -0.707434
vn -0.543285 0.162409 -0.823690
vn -0.597651 -0.003941 -0.801746
vn -0.615455 0.248807 -0.747870
vn -0.683155 0.084555 -0.725362
vn -0.225656 0.956295 0.185958
vn -0.205941 0.963912 0.168705
vn -0.320820 0.946421 0.036917
vn -0.221276 0.975166 -0.009359
vn -0.064608 0.978288 0.196922
vn -0.205941 0.963912 0.168705
vn -0.103476 0.954893 0.278338
vn -0.225656 0.956295 0.185958
vn -0.091150 0.995562 0.023402
vn -0.221276 0.975166 -0.009359
vn -0.064608 0.978288 0.196922
vn -0.205941 0.963912 0.168705
vn 0.162997 0.843328 0.512084
vn 0.203523 0.799527 0.565098
vn 0.219334 0.854245 0.471336
vn 0.217868 0.805487 0.551111
vn 0.265739 0.764838 0.586861
vn 0.298704 0.788701 0.537333
vn 0.203523 0.799527 0.565098
vn 0.217868 0.805487 0.551111
vn 0.291417 0.835195 0.466397
vn 0.219334 0.854245 0.471336
vn 0.298704 0.788701 0.537333
vn 0.217868 0.805487 0.551111
vn 0.468580 0.542726 0.697052
vn 0.496196 0.479052 0.724085
vn 0.517641 0.548968 0.656264
vn 0.510366 0.485205 0.710001
vn 0.549717 0.419869 0.722165
vn 0.588219 0.450322 0.671721
vn 0.496196 0.479052 0.724085
vn 0.510366 0.485205 0.710001
vn 0.587923 0.510527 0.627463
vn 0.517641 0.548968 0.656264
vn 0.588219 0.450322 0.671721
vn 0.510366 0.485205 0.710001
vn 0.600019 0.132014 0.789018
vn 0.570854 0.249534 0.782214
vn 0.434764 0.084770 0.896546
vn 0.480548 0.212713 0.850780
vn 0.394353 0.264964 0.879932
vn 0.480548 0.212713 0.850780
vn 0.518898 0.344269 0.782447
vn 0.570854 0.249534 0.782214
vn 0.137042 0.047337 0.989434
vn 0.434764 0.084770 0.896546
vn 0.394353 0.264964 0.879932
vn 0.480548 0.212713 0.850780
vn -0.008544 0.883971 0.467464
vn -0.088630 0.835961 0.541584
vn 0.064239 0.842111 0.535464
vn -0.072533 0.776192 0.626310
vn -0.108911 0.908295 0.403905
vn -0.229974 0.812659 0.535441
vn -0.008544 0.883971 0.467464
vn -0.088630 0.835961 0.541584
vn -0.362293 0.594102 0.718183
vn -0.072533 0.776192 0.626310
vn -0.229974 0.812659 0.535441
vn -0.088630 0.835961 0.541584
vn -0.696219 -0.173943 -0.696436
vn -0.640025 -0.279678 -0.715645
vn -0.804417 -0.245874 -0.540794
vn -0.712603 -0.313845 -0.627454
vn -0.712871 -0.403772 -0.573396
vn -0.712603 -0.313845 -0.627454
vn -0.598368 -0.378897 -0.705970
vn -0.640025 -0.279678 -0.715645
vn -0.887989 -0.374606 -0.266730
vn -0.804417 -0.245874 -0.540794
vn -0.712871 -0.403772 -0.573396
vn -0.712603 -0.313845 -0.627454
vn -0.060623 -0.914115 -0.400898
vn -0.143422 -0.937092 -0.318260
vn -0.143708 -0.876745 -0.458984
vn -0.245989 -0.915007 -0.319769
vn 0.012714 -0.950218 -0.311326
vn -0.139677 -0.973756 -0.179695
vn -0.060623 -0.914115 -0.400898
vn -0.143422 -0.937092 -0.318260
vn -0.388657 -0.921371 0.004520
vn -0.245989 -0.915007 -0.319769
vn -0.139677 -0.973756 -0.179695
vn -0.143422 -0.937092 -0.318260
vn 0.583705 -0.712562 0.389287
vn 0.465916 -0.742363 0.481477
vn 0.399803 -0.906373 0.136547
vn 0.229699 -0.902378 0.364627
vn 0.419435 -0.552748 0.720100
vn 0.465916 -0.742363 0.481477
vn 0.656465 -0.433417 0.617417
vn 0.583705 -0.712562 0.389287
vn 0.023639 -0.719024 0.694583
vn 0.229699 -0.902378 0.364627
vn 0.419435 -0.552748 0.720100
vn 0.465916 -0.742363 0.481477
vn -0.454304 -0.593444 -0.664403
vn -0.380224 -0.665755 -0.642028
vn -0.538239 -0.639498 -0.548945
vn -0.443650 -0.689305 -0.572742
vn -0.321664 -0.738686 -0.592348
vn -0.429022 -0.759087 -0.489619
vn -0.380224 -0.665755 -0.642028
vn -0.443650 -0.689305 -0.572742
vn -0.650813 -0.717508 -0.248242
vn -0.538239 -0.639498 -0.548945
vn -0.429022 -0.759087 -0.489619
vn -0.443650 -0.689305 -0.572742
vn -0.679614 0.670764 -0.296986
vn -0.769277 0.610159 -0.189521
vn -0.519462 0.854226 -0.021381
vn -0.715937 0.690475 0.103334
vn -0.905676 0.340844 -0.252145
vn -0.769277 0.610159 -0.189521
vn -0.776134 0.381258 -0.502253
vn -0.679614 0.670764 -0.296986
vn -0.929235 0.324362 0.176952
vn -0.715937 0.690475 0.103334
vn -0.905676 0.340844 -0.252145
vn -0.769277 0.610159 -0.189521
vn 0.384820 0.563160 0.731276
vn 0.330620 0.644135 0.689769
vn 0.265440 0.520607 0.811486
vn 0.261380 0.609868 0.748159
vn 0.252176 0.708403 0.659221
vn 0.156224 0.640199 0.752156
vn 0.330620 0.644135 0.689769
vn 0.261380 0.609868 0.748159
vn -0.034030 0.419047 0.907327
vn 0.265440 0.520607 0.811486
vn 0.156224 0.640199 0.752156
vn 0.261380 0.609868 0.748159
vn 0.449188 -0.048983 0.892094
vn 0.542758 -0.138329 0.828420
vn 0.623169 0.050509 0.780454
vn 0.660095 -0.098836 0.744652
vn 0.156315 -0.256013 0.953951
vn 0.443197 -0.304552 0.843104
vn 0.449188 -0.048983 0.892094
vn 0.542758 -0.138329 0.828420
vn 0.660095 -0.098836 0.744652
vn 0.542758 -0.138329 0.828420
vn 0.660712 -0.270961 0.700028
vn 0.443197 -0.304552 0.843104
vn 0.073435 -0.985902 0.150350
vn 0.077271 -0.996053 -0.043668
vn 0.288090 -0.957601 0.001900
vn 0.186228 -0.972023 -0.143143
vn -0.216032 -0.942133 0.256350
vn -0.064446 -0.995448 -0.070219
vn 0.073435 -0.985902 0.150350
vn 0.077271 -0.996053 -0.043668
vn 0.186228 -0.972023 -0.143143
vn 0.077271 -0.996053 -0.043668
vn 0.072057 -0.965022 -0.252072
vn -0.064446 -0.995448 -0.070219
vn -0.183620 -0.853012 -0.488523
vn -0.304512 -0.877896 -0.369554
vn -0.230478 -0.811276 -0.537319
vn -0.306740 -0.835464 -0.455972
vn -0.496759 -0.848229 -0.183680
vn -0.381987 -0.810746 -0.443595
vn -0.304512 -0.877896 -0.369554
vn -0.306740 -0.835464 -0.455972
vn -0.287089 -0.772024 -0.567062
vn -0.230478 -0.811276 -0.537319
vn -0.381987 -0.810746 -0.443595
vn -0.306740 -0.835464 -0.455972
vn -0.487743 -0.552306 -0.676066
vn -0.594332 -0.578233 -0.558942
vn -0.523948 -0.489927 -0.696742
vn -0.595733 -0.519021 -0.612960
vn -0.763201 -0.556478 -0.328414
vn -0.670193 -0.477479 -0.568203
vn -0.594332 -0.578233 -0.558942
vn -0.595733 -0.519021 -0.612960
vn -0.572568 -0.427115 -0.699813
vn -0.523948 -0.489927 -0.696742
vn -0.670193 -0.477479 -0.568203
vn -0.595733 -0.519021 -0.612960
vn -0.856256 -0.128417 -0.500335
vn -0.840275 0.008668 -0.542092
vn -0.723274 -0.094136 -0.684115
vn -0.754251 0.057800 -0.654037
vn -0.981721 -0.103704 -0.159590
vn -0.916633 0.098225 -0.387473
vn -0.856256 -0.128417 -0.500335
vn -0.840275 0.008668 -0.542092
vn -0.754251 0.057800 -0.654037
vn -0.840275 0.008668 -0.542092
vn -0.784593 0.216971 -0.580807
vn -0.916633 0.098225 -0.387473
vn -0.546871 0.779575 0.305278
vn -0.374786 0.866394 0.329994
vn -0.411964 0.903616 0.117317
vn -0.280386 0.930988 0.233762
vn -0.609377 0.582413 0.538010
vn -0.342616 0.818046 0.461968
vn -0.546871 0.779575 0.305278
vn -0.374786 0.866394 0.329994
vn -0.280386 0.930988 0.233762
vn -0.374786 0.866394 0.329994
vn -0.172161 0.921396 0.348411
vn -0.342616 0.818046 0.461968
vn 0.103074 0.817909 0.566039
vn -0.008754 0.741373 0.671037
vn 0.167222 0.783710 0.598194
vn 0.087449 0.739897 0.667012
vn -0.155053 0.564163 0.810974
vn 0.090499 0.683714 0.724117
vn -0.008754 0.741373 0.671037
vn 0.087449 0.739897 0.667012
vn 0.213548 0.739975 0.637836
vn 0.167222 0.783710 0.598194
vn 0.090499 0.683714 0.724117
vn 0.087449 0.739897 0.667012
vn 0.414205 0.520258 0.746837
vn 0.302842 0.451199 0.839468
vn 0.460695 0.462357 0.757619
vn 0.376444 0.423446 0.824004
vn 0.111387 0.272413 0.955711
vn 0.356932 0.340953 0.869684
vn 0.302842 0.451199 0.839468
vn 0.376444 0.423446 0.824004
vn 0.492026 0.392012 0.777327
vn 0.460695 0.462357 0.757619
vn 0.356932 0.340953 0.869684
vn 0.376444 0.423446 0.824004
vn 0.741765 0.323882 0.587269
vn 0.760953 0.226510 0.607983
vn 0.845916 -0.030521 0.532443
vn 0.760422 0.074875 0.645098
vn 0.760953 0.226510 0.607983
vn 0.680247 0.167378 0.713617
vn 0.760422 0.074875 0.645098
vn 0.696714 0.078687 0.713021
vn 0.393783 -0.863672 -0.314653
vn 0.821188 -0.559552 0.112039
vn 0.422322 -0.887548 -0.184125
vn 0.668261 -0.742814 -0.040685
vn 0.422322 -0.887548 -0.184125
vn 0.668261 -0.742814 -0.040685
vn 0.373850 -0.923310 -0.087953
vn 0.499867 -0.865096 0.041732
vn -0.096200 -0.750117 -0.654270
vn 0.124777 -0.813041 -0.568678
vn -0.088890 -0.797397 -0.596873
vn 0.029735 -0.805877 -0.591336
vn -0.088890 -0.797397 -0.596873
vn 0.029735 -0.805877 -0.591336
vn -0.127364 -0.827799 -0.546376
vn -0.077514 -0.848795 -0.523009
vn -0.392703 -0.425447 -0.815340
vn -0.226371 -0.590887 -0.774344
vn -0.399211 -0.497353 -0.770241
vn -0.312752 -0.546458 -0.776898
vn -0.399211 -0.497353 -0.770241
vn -0.312752 -0.546458 -0.776898
vn -0.436188 -0.528610 -0.728225
vn -0.397953 -0.569232 -0.719450
vn -0.441460 -0.193011 -0.876276
vn -0.501463 -0.113430 -0.857711
vn -0.543285 0.162409 -0.823690
vn -0.597651 -0.003941 -0.801746
vn -0.501463 -0.113430 -0.857711
vn -0.617476 -0.140025 -0.774026
vn -0.597651 -0.003941 -0.801746
vn -0.654370 -0.060230 -0.753772
vn -0.091150 0.995562 0.023402
vn -0.377448 0.752939 -0.539088
vn -0.221276 0.975166 -0.009359
vn -0.305625 0.900856 -0.308304
vn -0.221276 0.975166 -0.009359
vn -0.305625 0.900856 -0.308304
vn -0.320820 0.946421 0.036917
vn -0.421712 0.899157 -0.116943
vn 0.291417 0.835195 0.466397
vn 0.175521 0.943914 0.279675
vn 0.219334 0.854245 0.471336
vn 0.204299 0.907871 0.366104
vn 0.219334 0.854245 0.471336
vn 0.204299 0.907871 0.366104
vn 0.162997 0.843328 0.512084
vn 0.130360 0.871825 0.472151
vn 0.587923 0.510527 0.627463
vn 0.473364 0.698527 0.536643
vn 0.517641 0.548968 0.656264
vn 0.498727 0.627507 0.597918
vn 0.517641 0.548968 0.656264
vn 0.498727 0.627507 0.597918
vn 0.468580 0.542726 0.697052
vn 0.441769 0.588327 0.677283
vn 0.845916 -0.030521 0.532443
vn 0.816501 -0.161201 0.554383
vn 0.821188 -0.559552 0.112039
vn 0.864763 -0.380716 0.327476
vn 0.816501 -0.161201 0.554383
vn 0.751382 -0.227626 0.619364
vn 0.864763 -0.380716 0.327476
vn 0.756914 -0.391437 0.523314
vn 0.124777 -0.813041 -0.568678
vn 0.393783 -0.863672 -0.314653
vn 0.174680 -0.853808 -0.490407
vn 0.227380 -0.907351 -0.353571
vn 0.174680 -0.853808 -0.490407
vn 0.227380 -0.907351 -0.353571
vn 0.091894 -0.916781 -0.388675
vn 0.145823 -0.936438 -0.319092
vn -0.226371 -0.590887 -0.774344
vn -0.096200 -0.750117 -0.654270
vn -0.203363 -0.666243 -0.717471
vn -0.180275 -0.737089 -0.651306
vn -0.203363 -0.666243 -0.717471
vn -0.180275 -0.737089 -0.651306
vn -0.265263 -0.714530 -0.647366
vn -0.233348 -0.750722 -0.618034
vn -0.392703 -0.425447 -0.815340
vn -0.457773 -0.393473 -0.797260
vn -0.441460 -0.193011 -0.876276
vn -0.444130 -0.286999 -0.848752
vn -0.457773 -0.393473 -0.797260
vn -0.514087 -0.404343 -0.756453
vn -0.444130 -0.286999 -0.848752
vn -0.532825 -0.350239 -0.770344
vn -0.543285 0.162409 -0.823690
vn -0.615455 0.248807 -0.747870
vn -0.377448 0.752939 -0.539088
vn -0.502130 0.538758 -0.676466
vn -0.615455 0.248807 -0.747870
vn -0.698348 0.250732 -0.670406
vn -0.502130 0.538758 -0.676466
vn -0.678759 0.425493 -0.598533
vn 0.175521 0.943914 0.279675
vn -0.091150 0.995562 0.023402
vn 0.084801 0.966892 0.240685
vn -0.064608 0.978288 0.196922
vn 0.084801 0.966892 0.240685
vn -0.064608 0.978288 0.196922
vn -0.029128 0.944134 0.328271
vn -0.103476 0.954893 0.278338
vn 0.473364 0.698527 0.536643
vn 0.291417 0.835195 0.466397
vn 0.389335 0.747289 0.538495
vn 0.298704 0.788701 0.537333
vn 0.389335 0.747289 0.538495
vn 0.298704 0.788701 0.537333
vn 0.309078 0.733624 0.605200
vn 0.265739 0.764838 0.586861
vn 0.587923 0.510527 0.627463
vn 0.588219 0.450322 0.671721
vn 0.741765 0.323882 0.587269
vn 0.678167 0.388989 0.623520
vn 0.588219 0.450322 0.671721
vn 0.549717 0.419869 0.722165
vn 0.678167 0.388989 0.623520
vn 0.585665 0.373267 0.719492
vn 0.623169 0.050509 0.780454
vn 0.600019 0.132014 0.789018
vn 0.449188 -0.048983 0.892094
vn 0.434764 0.084770 0.896546
vn 0.449188 -0.048983 0.892094
vn 0.434764 0.084770 0.896546
vn 0.156315 -0.256013 0.953951
vn 0.137042 0.047337 0.989434
vn 0.399803 -0.906373 0.136547
vn 0.229699 -0.902378 0.364627
vn 0.288090 -0.957601 0.001900
vn 0.073435 -0.985902 0.150350
vn 0.229699 -0.902378 0.364627
vn 0.023639 -0.719024 0.694583
vn 0.073435 -0.985902 0.150350
vn -0.216032 -0.942133 0.256350
vn -0.143708 -0.876745 -0.458984
vn -0.245989 -0.915007 -0.319769
vn -0.183620 -0.853012 -0.488523
vn -0.304512 -0.877896 -0.369554
vn -0.245989 -0.915007 -0.319769
vn -0.388657 -0.921371 0.004520
vn -0.304512 -0.877896 -0.369554
vn -0.496759 -0.848229 -0.183680
vn -0.487743 -0.552306 -0.676066
vn -0.454304 -0.593444 -0.664403
vn -0.594332 -0.578233 -0.558942
vn -0.538239 -0.639498 -0.548945
vn -0.594332 -0.578233 -0.558942
vn -0.538239 -0.639498 -0.548945
vn -0.763201 -0.556478 -0.328414
vn -0.650813 -0.717508 -0.248242
vn -0.723274 -0.094136 -0.684115
vn -0.696219 -0.173943 -0.696436
vn -0.856256 -0.128417 -0.500335
vn -0.804417 -0.245874 -0.540794
vn -0.856256 -0.128417 -0.500335
vn -0.804417 -0.245874 -0.540794
vn -0.981721 -0.103704 -0.159590
vn -0.887989 -0.374606 -0.266730
vn -0.519462 0.854226 -0.021381
vn -0.715937 0.690475 0.103334
vn -0.411964 0.903616 0.117317
vn -0.546871 0.779575 0.305278
vn -0.715937 0.690475 0.103334
vn -0.929235 0.324362 0.176952
vn -0.546871 0.779575 0.305278
vn -0.609377 0.582413 0.538010
vn 0.064239 0.842111 0.535464
vn -0.072533 0.776192 0.626310
vn 0.103074 0.817909 0.566039
vn -0.008754 0.741373 0.671037
vn -0.072533 0.776192 0.626310
vn -0.362293 0.594102 0.718183
vn -0.008754 0.741373 0.671037
vn -0.155053 0.564163 0.810974
vn 0.414205 0.520258 0.746837
vn 0.384820 0.563160 0.731276
vn 0.302842 0.451199 0.839468
vn 0.265440 0.520607 0.811486
vn 0.302842 0.451199 0.839468
vn 0.265440 0.520607 0.811486
vn 0.111387 0.272413 0.955711
vn -0.034030 0.419047 0.907327
vn 0.656465 -0.433417 0.617417
vn 0.660712 -0.270961 0.700028
vn 0.419435 -0.552748 0.720100
vn 0.443197 -0.304552 0.843104
vn 0.419435 -0.552748 0.720100
vn 0.443197 -0.304552 0.843104
vn 0.023639 -0.719024 0.694583
vn 0.156315 -0.256013 0.953951
vn 0.072057 -0.965022 -0.252072
vn -0.064446 -0.995448 -0.070219
vn 0.012714 -0.950218 -0.311326
vn -0.139677 -0.973756 -0.179695
vn -0.064446 -0.995448 -0.070219
vn -0.216032 -0.942133 0.256350
vn -0.139677 -0.973756 -0.179695
vn -0.388657 -0.921371 0.004520
vn -0.287089 -0.772024 -0.567062
vn -0.381987 -0.810746 -0.443595
vn -0.321664 -0.738686 -0.592348
vn -0.429022 -0.759087 -0.489619
vn -0.381987 -0.810746 -0.443595
vn -0.496759 -0.848229 -0.183680
vn -0.429022 -0.759087 -0.489619
vn -0.650813 -0.717508 -0.248242
vn -0.598368 -0.378897 -0.705970
vn -0.572568 -0.427115 -0.699813
vn -0.712871 -0.403772 -0.573396
vn -0.670193 -0.477479 -0.568203
vn -0.712871 -0.403772 -0.573396
vn -0.670193 -0.477479 -0.568203
vn -0.887989 -0.374606 -0.266730
vn -0.763201 -0.556478 -0.328414
vn -0.776134 0.381258 -0.502253
vn -0.784593 0.216971 -0.580807
vn -0.905676 0.340844 -0.252145
vn -0.916633 0.098225 -0.387473
vn -0.905676 0.340844 -0.252145
vn -0.916633 0.098225 -0.387473
vn -0.929235 0.324362 0.176952
vn -0.981721 -0.103704 -0.159590
vn -0.172161 0.921396 0.348411
vn -0.342616 0.818046 0.461968
vn -0.108911 0.908295 0.403905
vn -0.229974 0.812659 0.535441
vn -0.342616 0.818046 0.461968
vn -0.609377 0.582413 0.538010
vn -0.229974 0.812659 0.535441
vn -0.362293 0.594102 0.718183
vn 0.213548 0.739975 0.637836
vn 0.090499 0.683714 0.724117
vn 0.252176 0.708403 0.659221
vn 0.156224 0.640199 0.752156
vn 0.090499 0.683714 0.724117
vn -0.155053 0.564163 0.810974
vn 0.156224 0.640199 0.752156
vn -0.034030 0.419047 0.907327
vn 0.518898 0.344269 0.782447
vn 0.492026 0.392012 0.777327
vn 0.394353 0.264964 0.879932
vn 0.356932 0.340953 0.869684
vn 0.394353 0.264964 0.879932
vn 0.356932 0.340953 0.869684
vn 0.137042 0.047337 0.989434
vn 0.111387 0.272413 0.955711
vn 0.696714 0.078687 0.713021
vn 0.623169 0.050509 0.780454
vn 0.713979 -0.072604 0.696393
vn 0.660095 -0.098836 0.744652
vn 0.713979 -0.072604 0.696393
vn 0.660095 -0.098836 0.744652
vn 0.751382 -0.227626 0.619364
vn 0.660712 -0.270961 0.700028
vn 0.399803 -0.906373 0.136547
vn 0.499867 -0.865096 0.041732
vn 0.583705 -0.712562 0.389287
vn 0.669988 -0.675862 0.307128
vn 0.583705 -0.712562 0.389287
vn 0.669988 -0.675862 0.307128
vn 0.656465 -0.433417 0.617417
vn 0.756914 -0.391437 0.523314
vn 0.072057 -0.965022 -0.252072
vn 0.145823 -0.936438 -0.319092
vn 0.186228 -0.972023 -0.143143
vn 0.237133 -0.951293 -0.197004
vn 0.186228 -0.972023 -0.143143
vn 0.237133 -0.951293 -0.197004
vn 0.288090 -0.957601 0.001900
vn 0.373850 -0.923310 -0.087953
vn -0.143708 -0.876745 -0.458984
vn -0.077514 -0.848795 -0.523009
vn -0.060623 -0.914115 -0.400898
vn 0.002665 -0.886607 -0.462517
vn -0.060623 -0.914115 -0.400898
vn 0.002665 -0.886607 -0.462517
vn 0.012714 -0.950218 -0.311326
vn 0.091894 -0.916781 -0.388675
vn -0.287089 -0.772024 -0.567062
vn -0.233348 -0.750722 -0.618034
vn -0.230478 -0.811276 -0.537319
vn -0.195848 -0.796182 -0.572484
vn -0.230478 -0.811276 -0.537319
vn -0.195848 -0.796182 -0.572484
vn -0.183620 -0.853012 -0.488523
vn -0.127364 -0.827799 -0.546376
vn -0.454304 -0.593444 -0.664403
vn -0.397953 -0.569232 -0.719450
vn -0.380224 -0.665755 -0.642028
vn -0.336077 -0.646640 -0.684769
vn -0.380224 -0.665755 -0.642028
vn -0.336077 -0.646640 -0.684769
vn -0.321664 -0.738686 -0.592348
vn -0.265263 -0.714530 -0.647366
vn -0.572568 -0.427115 -0.699813
vn -0.514087 -0.404343 -0.756453
vn -0.523948 -0.489927 -0.696742
vn -0.488519 -0.475709 -0.731471
vn -0.523948 -0.489927 -0.696742
vn -0.488519 -0.475709 -0.731471
vn -0.487743 -0.552306 -0.676066
vn -0.436188 -0.528610 -0.728225
vn -0.696219 -0.173943 -0.696436
vn -0.617476 -0.140025 -0.774026
vn -0.640025 -0.279678 -0.715645
vn -0.576491 -0.252441 -0.777130
vn -0.640025 -0.279678 -0.715645
vn -0.576491 -0.252441 -0.777130
vn -0.598368 -0.378897 -0.705970
vn -0.532825 -0.350239 -0.770344
vn -0.784593 0.216971 -0.580807
vn -0.698348 0.250732 -0.670406
vn -0.754251 0.057800 -0.654037
vn -0.702506 0.077598 -0.707434
vn -0.754251 0.057800 -0.654037
vn -0.702506 0.077598 -0.707434
vn -0.723274 -0.094136 -0.684115
vn -0.654370 -0.060230 -0.753772
vn -0.519462 0.854226 -0.021381
vn -0.421712 0.899157 -0.116943
vn -0.679614 0.670764 -0.296986
vn -0.594503 0.708758 -0.379775
vn -0.679614 0.670764 -0.296986
vn -0.594503 0.708758 -0.379775
vn -0.776134 0.381258 -0.502253
vn -0.678759 0.425493 -0.598533
vn -0.172161 0.921396 0.348411
vn -0.103476 0.954893 0.278338
vn -0.280386 0.930988 0.233762
vn -0.225656 0.956295 0.185958
vn -0.280386 0.930988 0.233762
vn -0.225656 0.956295 0.185958
vn -0.411964 0.903616 0.117317
vn -0.320820 0.946421 0.036917
vn 0.064239 0.842111 0.535464
vn 0.130360 0.871825 0.472151
vn -0.008544 0.883971 0.467464
vn 0.055361 0.911895 0.406674
vn -0.008544 0.883971 0.467464
vn 0.055361 0.911895 0.406674
vn -0.108911 0.908295 0.403905
vn -0.029128 0.944134 0.328271
vn 0.213548 0.739975 0.637836
vn 0.265739 0.764838 0.586861
vn 0.167222 0.783710 0.598194
vn 0.203523 0.799527 0.565098
vn 0.167222 0.783710 0.598194
vn 0.203523 0.799527 0.565098
vn 0.103074 0.817909 0.566039
vn 0.162997 0.843328 0.512084
vn 0.384820 0.563160 0.731276
vn 0.441769 0.588327 0.677283
vn 0.330620 0.644135 0.689769
vn 0.374947 0.663578 0.647363
vn 0.330620 0.644135 0.689769
vn 0.374947 0.663578 0.647363
vn 0.252176 0.708403 0.659221
vn 0.309078 0.733624 0.605200
vn 0.492026 0.392012 0.777327
vn 0.549717 0.419869 0.722165
vn 0.460695 0.462357 0.757619
vn 0.496196 0.479052 0.724085
vn 0.460695 0.462357 0.757619
vn 0.496196 0.479052 0.724085
vn 0.414205 0.520258 0.746837
vn 0.468580 0.542726 0.697052
vn 0.600019 0.132014 0.789018
vn 0.680247 0.167378 0.713617
vn 0.570854 0.249534 0.782214
vn 0.634518 0.277726 0.721287
vn 0.570854 0.249534 0.782214
vn 0.634518 0.277726 0.721287
vn 0.518898 0.344269 0.782447
vn 0.585665 0.373267 0.719492
vn 0.600019 0.132014 0.789018
vn 0.623169 0.050509 0.780454
vn 0.680247 0.167378 0.713617
vn 0.696714 0.078687 0.713021
vn 0.843591 0.534821 -0.048174
vn 0.843591 0.534821 -0.048174
vn 0.843591 0.534821 -0.048174
s off
g d1_polySurface1
usemtl initialShadingGroup
f 15//1 7//2 3//3
f 14//4 8//5 1//6
f 17//7 5//8 2//9
s 1
f 7//10 9//11 3//12
f 3//12 9//11 8//13
s 2
f 146//14 237//15 34//16
f 34//16 237//15 125//17
s off
f 85//18 56//19 14//20
s 3
f 167//21 202//22 55//23
f 55//23 202//22 90//24
s off
f 99//25 63//26 15//27
s 4
f 160//28 209//29 48//30
f 48//30 209//29 97//31
s off
f 113//32 70//33 16//34
s 5
f 153//35 223//36 41//37
f 41//37 223//36 111//38
s off
f 127//39 77//40 17//41
f 11//42 2//43 6//44
f 12//45 4//46 7//47
f 13//48 3//49 8//50
f 16//51 6//52 4//53
s 6
f 6//54 2//55 9//56
f 9//56 2//55 5//57
s 7
f 5//58 1//59 9//60
f 9//60 1//59 8//61
s 8
f 6//62 9//63 4//64
f 4//64 9//63 7//65
s 9
f 246//66 140//67 133//68
f 133//68 140//67 29//69
s 10
f 174//70 216//71 62//72
f 62//72 216//71 104//73
s 11
f 197//74 168//75 84//76
f 84//76 168//75 57//77
s 12
f 15//78 3//79 49//80
f 49//80 3//79 13//81
s 13
f 204//82 161//83 91//84
f 91//84 161//83 50//85
s 14
f 181//86 230//87 69//88
f 69//88 230//87 118//89
s 15
f 211//90 175//91 98//92
f 98//92 175//91 64//93
s 16
f 16//94 4//95 42//96
f 42//96 4//95 12//97
s 17
f 218//98 154//99 105//100
f 105//100 154//99 43//101
s 18
f 188//102 244//103 76//104
f 76//104 244//103 132//105
s 19
f 225//106 182//107 112//108
f 112//108 182//107 71//109
s 20
f 17//110 2//111 35//112
f 35//112 2//111 11//113
s 21
f 232//114 147//115 119//116
f 119//116 147//115 36//117
s off
f 19//118 196//119 141//120
s 22
f 239//121 189//122 126//123
f 126//123 189//122 78//124
s 23
f 14//125 1//126 28//127
f 28//127 1//126 10//128
s 24
f 238//129 20//130 26//131
f 26//131 20//130 18//132
s 25
f 196//133 19//134 23//135
f 23//135 19//134 18//136
s 26
f 203//137 23//138 22//139
f 22//139 23//138 18//140
s 27
f 210//141 22//142 24//143
f 24//143 22//142 18//144
s 28
f 217//145 24//146 21//147
f 21//147 24//146 18//148
s 29
f 224//149 21//150 25//151
f 25//151 21//150 18//152
s 30
f 231//153 25//154 20//155
f 20//155 25//154 18//156
s off
f 26//157 190//158 238//159
s 31
f 245//160 26//161 19//162
f 19//162 26//161 18//163
s off
f 20//164 238//165 148//166
f 20//167 148//168 231//169
f 25//170 183//171 224//172
f 21//173 224//174 155//175
f 21//176 155//177 217//178
f 26//179 245//180 190//181
f 24//182 176//183 210//184
f 22//185 210//186 162//187
f 22//188 162//189 203//190
f 25//191 231//192 183//193
f 23//194 169//195 196//196
f 23//197 203//198 169//199
f 19//200 141//201 245//202
f 24//203 217//204 176//205
s 32
f 56//206 13//207 14//208
f 14//208 13//207 8//209
s off
f 92//210 13//211 56//212
f 13//213 92//214 49//215
f 99//216 15//217 49//218
s 33
f 12//219 7//220 63//221
f 63//221 7//220 15//222
s off
f 106//223 12//224 63//225
f 12//226 106//227 42//228
f 113//229 16//230 42//231
s 34
f 70//232 11//233 16//234
f 16//234 11//233 6//235
s off
f 120//236 11//237 70//238
f 11//239 120//240 35//241
f 127//242 17//243 35//244
s 35
f 10//245 5//246 77//247
f 77//247 5//246 17//248
s off
f 134//249 10//250 77//251
f 10//252 134//253 28//254
f 85//255 14//256 28//257
s 36
f 27//258 30//259 33//260
f 33//260 30//259 31//261
s 37
f 28//262 32//263 30//264
f 30//264 32//263 31//265
s 38
f 29//266 33//267 32//268
f 32//268 33//267 31//269
s 39
f 34//270 37//271 40//272
f 40//272 37//271 38//273
s 40
f 35//274 39//275 37//276
f 37//276 39//275 38//277
s 41
f 36//278 40//279 39//280
f 39//280 40//279 38//281
s 42
f 41//282 44//283 47//284
f 47//284 44//283 45//285
s 43
f 42//286 46//287 44//288
f 44//288 46//287 45//289
s 44
f 43//290 47//291 46//292
f 46//292 47//291 45//293
s 45
f 48//294 51//295 54//296
f 54//296 51//295 52//297
s 46
f 49//298 53//299 51//300
f 51//300 53//299 52//301
s 47
f 50//302 54//303 53//304
f 53//304 54//303 52//305
s 48
f 58//306 59//307 55//308
f 55//308 59//307 61//309
s 49
f 56//310 60//311 58//312
f 58//312 60//311 59//313
s 50
f 61//314 59//315 57//316
f 57//316 59//315 60//317
s 51
f 62//318 65//319 68//320
f 68//320 65//319 66//321
s 52
f 67//322 66//323 63//324
f 63//324 66//323 65//325
s 53
f 64//326 68//327 67//328
f 67//328 68//327 66//329
s 54
f 72//330 73//331 69//332
f 69//332 73//331 75//333
s 55
f 70//334 74//335 72//336
f 72//336 74//335 73//337
s 56
f 75//338 73//339 71//340
f 71//340 73//339 74//341
s 57
f 76//342 79//343 82//344
f 82//344 79//343 80//345
s 58
f 81//346 80//347 77//348
f 77//348 80//347 79//349
s 59
f 78//350 82//351 81//352
f 81//352 82//351 80//353
s 60
f 86//354 87//355 83//356
f 83//356 87//355 89//357
s 61
f 88//358 87//359 84//360
f 84//360 87//359 86//361
s 62
f 85//362 89//363 88//364
f 88//364 89//363 87//365
s 63
f 93//366 94//367 90//368
f 90//368 94//367 96//369
s 64
f 95//370 94//371 91//372
f 91//372 94//371 93//373
s 65
f 92//374 96//375 95//376
f 95//376 96//375 94//377
s 66
f 97//378 100//379 103//380
f 103//380 100//379 101//381
s 67
f 98//382 102//383 100//384
f 100//384 102//383 101//385
s 68
f 99//386 103//387 102//388
f 102//388 103//387 101//389
s 69
f 104//390 107//391 110//392
f 110//392 107//391 108//393
s 70
f 105//394 109//395 107//396
f 107//396 109//395 108//397
s 71
f 106//398 110//399 109//400
f 109//400 110//399 108//401
s 72
f 114//402 115//403 111//404
f 111//404 115//403 117//405
s 73
f 116//406 115//407 112//408
f 112//408 115//407 114//409
s 74
f 113//410 117//411 116//412
f 116//412 117//411 115//413
s 75
f 121//414 122//415 118//416
f 118//416 122//415 124//417
s 76
f 123//418 122//419 119//420
f 119//420 122//419 121//421
s 77
f 120//422 124//423 123//424
f 123//424 124//423 122//425
s 78
f 125//426 128//427 131//428
f 131//428 128//427 129//429
s 79
f 126//430 130//431 128//432
f 128//432 130//431 129//433
s 80
f 127//434 131//435 130//436
f 130//436 131//435 129//437
s 81
f 132//438 135//439 138//440
f 138//440 135//439 136//441
s 82
f 133//442 137//443 135//444
f 135//444 137//443 136//445
s 83
f 134//446 138//447 137//448
f 137//448 138//447 136//449
s 84
f 139//450 142//451 145//452
f 145//452 142//451 143//453
s 85
f 144//454 143//455 140//456
f 140//456 143//455 142//457
s 86
f 141//458 145//459 144//460
f 144//460 145//459 143//461
s 87
f 149//462 150//463 146//464
f 146//464 150//463 152//465
s 88
f 147//466 151//467 149//468
f 149//468 151//467 150//469
s 89
f 148//470 152//471 151//472
f 151//472 152//471 150//473
s 90
f 153//474 156//475 159//476
f 159//476 156//475 157//477
s 91
f 158//478 157//479 154//480
f 154//480 157//479 156//481
s 92
f 155//482 159//483 158//484
f 158//484 159//483 157//485
s 93
f 163//486 164//487 160//488
f 160//488 164//487 166//489
s 94
f 161//490 165//491 163//492
f 163//492 165//491 164//493
s 95
f 162//494 166//495 165//496
f 165//496 166//495 164//497
s 96
f 170//498 171//499 167//500
f 167//500 171//499 173//501
s 97
f 172//502 171//503 168//504
f 168//504 171//503 170//505
s 98
f 169//506 173//507 172//508
f 172//508 173//507 171//509
s 99
f 174//510 177//511 180//512
f 180//512 177//511 178//513
s 100
f 175//514 179//515 177//516
f 177//516 179//515 178//517
s 101
f 176//518 180//519 179//520
f 179//520 180//519 178//521
s 102
f 184//522 185//523 181//524
f 181//524 185//523 187//525
s 103
f 186//526 185//527 182//528
f 182//528 185//527 184//529
s 104
f 183//530 187//531 186//532
f 186//532 187//531 185//533
s 105
f 188//534 191//535 194//536
f 194//536 191//535 192//537
s 106
f 189//538 193//539 191//540
f 191//540 193//539 192//541
s 107
f 190//542 194//543 193//544
f 193//544 194//543 192//545
s 108
f 198//546 199//547 195//548
f 195//548 199//547 201//549
s 109
f 196//550 200//551 198//552
f 198//552 200//551 199//553
s 110
f 201//554 199//555 197//556
f 197//556 199//555 200//557
s 111
f 205//558 206//559 202//560
f 202//560 206//559 208//561
s 112
f 203//562 207//563 205//564
f 205//564 207//563 206//565
s 113
f 208//566 206//567 204//568
f 204//568 206//567 207//569
s 114
f 209//570 212//571 215//572
f 215//572 212//571 213//573
s 115
f 210//574 214//575 212//576
f 212//576 214//575 213//577
s 116
f 211//578 215//579 214//580
f 214//580 215//579 213//581
s 117
f 216//582 219//583 222//584
f 222//584 219//583 220//585
s 118
f 217//586 221//587 219//588
f 219//588 221//587 220//589
s 119
f 218//590 222//591 221//592
f 221//592 222//591 220//593
s 120
f 226//594 227//595 223//596
f 223//596 227//595 229//597
s 121
f 224//598 228//599 226//600
f 226//600 228//599 227//601
s 122
f 229//602 227//603 225//604
f 225//604 227//603 228//605
s 123
f 233//606 234//607 230//608
f 230//608 234//607 236//609
s 124
f 231//610 235//611 233//612
f 233//612 235//611 234//613
s 125
f 236//614 234//615 232//616
f 232//616 234//615 235//617
s 126
f 237//618 240//619 243//620
f 243//620 240//619 241//621
s 127
f 238//622 242//623 240//624
f 240//624 242//623 241//625
s 128
f 239//626 243//627 242//628
f 242//628 243//627 241//629
s 129
f 244//630 247//631 250//632
f 250//632 247//631 248//633
s 130
f 245//634 249//635 247//636
f 247//636 249//635 248//637
s 131
f 246//638 250//639 249//640
f 249//640 250//639 248//641
s 132
f 28//642 30//643 85//644
f 85//644 30//643 89//645
s 133
f 30//646 27//647 89//648
f 89//648 27//647 83//649
s 134
f 92//650 56//651 96//652
f 96//652 56//651 58//653
s 135
f 96//654 58//655 90//656
f 90//656 58//655 55//657
s 136
f 99//658 49//659 103//660
f 103//660 49//659 51//661
s 137
f 103//662 51//663 97//664
f 97//664 51//663 48//665
s 138
f 106//666 63//667 110//668
f 110//668 63//667 65//669
s 139
f 110//670 65//671 104//672
f 104//672 65//671 62//673
s 140
f 42//674 44//675 113//676
f 113//676 44//675 117//677
s 141
f 44//678 41//679 117//680
f 117//680 41//679 111//681
s 142
f 120//682 70//683 124//684
f 124//684 70//683 72//685
s 143
f 124//686 72//687 118//688
f 118//688 72//687 69//689
s 144
f 127//690 35//691 131//692
f 131//692 35//691 37//693
s 145
f 131//694 37//695 125//696
f 125//696 37//695 34//697
s 146
f 134//698 77//699 138//700
f 138//700 77//699 79//701
s 147
f 138//702 79//703 132//704
f 132//704 79//703 76//705
s 148
f 85//706 88//707 56//708
f 56//708 88//707 60//709
s 149
f 88//710 84//711 60//712
f 60//712 84//711 57//713
s 150
f 49//714 92//715 53//716
f 53//716 92//715 95//717
s 151
f 53//718 95//719 50//720
f 50//720 95//719 91//721
s 152
f 63//722 99//723 67//724
f 67//724 99//723 102//725
s 153
f 67//726 102//727 64//728
f 64//728 102//727 98//729
s 154
f 106//730 109//731 42//732
f 42//732 109//731 46//733
s 155
f 109//734 105//735 46//736
f 46//736 105//735 43//737
s 156
f 113//738 116//739 70//740
f 70//740 116//739 74//741
s 157
f 116//742 112//743 74//744
f 74//744 112//743 71//745
s 158
f 35//746 120//747 39//748
f 39//748 120//747 123//749
s 159
f 39//750 123//751 36//752
f 36//752 123//751 119//753
s 160
f 77//754 127//755 81//756
f 81//756 127//755 130//757
s 161
f 81//758 130//759 78//760
f 78//760 130//759 126//761
s 162
f 134//762 137//763 28//764
f 28//764 137//763 32//765
s 163
f 137//766 133//767 32//768
f 32//768 133//767 29//769
s 164
f 195//770 139//771 198//772
f 198//772 139//771 145//773
s 165
f 198//774 145//775 196//776
f 196//776 145//775 141//777
s 166
f 167//778 173//779 202//780
f 202//780 173//779 205//781
s 167
f 173//782 169//783 205//784
f 205//784 169//783 203//785
s 168
f 160//786 166//787 209//788
f 209//788 166//787 212//789
s 169
f 166//790 162//791 212//792
f 212//792 162//791 210//793
s 170
f 216//794 174//795 219//796
f 219//796 174//795 180//797
s 171
f 219//798 180//799 217//800
f 217//800 180//799 176//801
s 172
f 223//802 153//803 226//804
f 226//804 153//803 159//805
s 173
f 226//806 159//807 224//808
f 224//808 159//807 155//809
s 174
f 181//810 187//811 230//812
f 230//812 187//811 233//813
s 175
f 187//814 183//815 233//816
f 233//816 183//815 231//817
s 176
f 146//818 152//819 237//820
f 237//820 152//819 240//821
s 177
f 152//822 148//823 240//824
f 240//824 148//823 238//825
s 178
f 244//826 188//827 247//828
f 247//828 188//827 194//829
s 179
f 247//830 194//831 245//832
f 245//832 194//831 190//833
s 180
f 168//834 197//835 172//836
f 172//836 197//835 200//837
s 181
f 172//838 200//839 169//840
f 169//840 200//839 196//841
s 182
f 204//842 207//843 161//844
f 161//844 207//843 165//845
s 183
f 207//846 203//847 165//848
f 165//848 203//847 162//849
s 184
f 211//850 214//851 175//852
f 175//852 214//851 179//853
s 185
f 214//854 210//855 179//856
f 179//856 210//855 176//857
s 186
f 154//858 218//859 158//860
f 158//860 218//859 221//861
s 187
f 158//862 221//863 155//864
f 155//864 221//863 217//865
s 188
f 182//866 225//867 186//868
f 186//868 225//867 228//869
s 189
f 186//870 228//871 183//872
f 183//872 228//871 224//873
s 190
f 232//874 235//875 147//876
f 147//876 235//875 151//877
s 191
f 235//878 231//879 151//880
f 151//880 231//879 148//881
s 192
f 239//882 242//883 189//884
f 189//884 242//883 193//885
s 193
f 242//886 238//887 193//888
f 193//888 238//887 190//889
s 194
f 140//890 246//891 144//892
f 144//892 246//891 249//893
s 195
f 144//894 249//895 141//896
f 141//896 249//895 245//897
s 196
f 83//898 195//899 86//900
f 86//900 195//899 201//901
s 197
f 86//902 201//903 84//904
f 84//904 201//903 197//905
s 198
f 167//906 55//907 170//908
f 170//908 55//907 61//909
s 199
f 170//910 61//911 168//912
f 168//912 61//911 57//913
s 200
f 204//914 91//915 208//916
f 208//916 91//915 93//917
s 201
f 208//918 93//919 202//920
f 202//920 93//919 90//921
s 202
f 160//922 48//923 163//924
f 163//924 48//923 54//925
s 203
f 163//926 54//927 161//928
f 161//928 54//927 50//929
s 204
f 211//930 98//931 215//932
f 215//932 98//931 100//933
s 205
f 215//934 100//935 209//936
f 209//936 100//935 97//937
s 206
f 174//938 62//939 177//940
f 177//940 62//939 68//941
s 207
f 177//942 68//943 175//944
f 175//944 68//943 64//945
s 208
f 218//946 105//947 222//948
f 222//948 105//947 107//949
s 209
f 222//950 107//951 216//952
f 216//952 107//951 104//953
s 210
f 153//954 41//955 156//956
f 156//956 41//955 47//957
s 211
f 156//958 47//959 154//960
f 154//960 47//959 43//961
s 212
f 225//962 112//963 229//964
f 229//964 112//963 114//965
s 213
f 229//966 114//967 223//968
f 223//968 114//967 111//969
s 214
f 181//970 69//971 184//972
f 184//972 69//971 75//973
s 215
f 184//974 75//975 182//976
f 182//976 75//975 71//977
s 216
f 232//978 119//979 236//980
f 236//980 119//979 121//981
s 217
f 236//982 121//983 230//984
f 230//984 121//983 118//985
s 218
f 146//986 34//987 149//988
f 149//988 34//987 40//989
s 219
f 149//990 40//991 147//992
f 147//992 40//991 36//993
s 220
f 239//994 126//995 243//996
f 243//996 126//995 128//997
s 221
f 243//998 128//999 237//1000
f 237//1000 128//999 125//1001
s 222
f 188//1002 76//1003 191//1004
f 191//1004 76//1003 82//1005
s 223
f 191//1006 82//1007 189//1008
f 189//1008 82//1007 78//1009
s 224
f 246//1010 133//1011 250//1012
f 250//1012 133//1011 135//1013
s 225
f 250//1014 135//1015 244//1016
f 244//1016 135//1015 132//1017
s 226
f 139//1018 27//1019 142//1020
f 142//1020 27//1019 33//1021
s 227
f 142//1022 33//1023 140//1024
f 140//1024 33//1023 29//1025
s 228
f 139//1026 195//1027 27//1028
f 27//1028 195//1027 83//1029
s off
f 10//1030 1//1031 5//1032
