# This file uses centimeters as units for non-parametric coordinates.

mtllib d2.mtl
g default
v 382.636169 7.138740 243.590515
v 384.853363 12.132679 248.181107
v 380.261139 9.494517 242.174866
v 382.478333 14.488458 246.765442
v 384.298523 9.086487 246.215851
v 384.182800 14.474844 248.543488
v 380.816040 12.540708 244.140106
v 380.931732 7.152350 241.812439
v 382.557251 10.813596 245.177994
v 383.181671 6.414126 245.478424
v 384.766785 14.245188 250.696625
v 380.435944 14.563221 246.307480
v 378.850830 6.732159 241.089249
v 380.642242 4.955265 242.157043
v 378.763550 10.796436 242.844940
v 382.975342 16.022081 249.628845
v 384.854065 10.180911 248.940948
v 377.595123 8.659407 249.918121
v 379.150330 6.607260 247.320694
v 380.780579 10.279275 250.696106
v 379.034241 12.011463 249.655197
v 377.403961 8.339448 246.279755
v 377.671204 6.519225 246.229019
v 378.029297 10.673634 247.517212
v 380.061676 11.903409 251.178314
v 380.589905 8.133768 249.043488
v 380.977783 4.677402 244.407745
v 381.067108 4.737786 244.388260
v 381.029541 4.707108 244.475372
v 381.025757 4.703736 244.392456
v 381.030701 4.703895 244.415680
v 381.051849 4.718721 244.426544
v 381.003723 4.689096 244.440186
v 384.260559 11.984544 251.165009
v 384.312378 12.047241 251.107330
v 384.258789 12.067303 251.200775
v 384.293030 12.019020 251.137207
v 384.286804 12.037701 251.157120
v 384.292145 12.060768 251.155212
v 384.261658 12.027054 251.185455
v 380.797760 15.500265 249.137787
v 380.836121 15.495309 249.035309
v 380.746033 15.470560 249.070160
v 380.820251 15.504516 249.085785
v 380.798950 15.497261 249.078186
v 380.794159 15.489531 249.051682
v 380.771820 15.488571 249.105347
v 377.515015 8.193123 242.380524
v 377.590881 8.185854 242.316238
v 377.516785 8.110365 242.344788
v 377.552979 8.189235 242.341034
v 377.542877 8.163450 242.336731
v 377.553864 8.147484 242.322998
v 377.513916 8.150613 242.360077
v 378.483490 4.733697 241.822205
v 378.571625 4.756917 241.785782
v 378.520599 4.696902 241.844330
v 378.528503 4.742097 241.795990
v 378.528168 4.725093 241.805740
v 378.547577 4.723155 241.807388
v 378.500092 4.710885 241.829193
v 378.349548 12.662679 245.285370
v 378.402252 12.644489 245.193054
v 378.314880 12.584673 245.213654
v 378.377228 12.657987 245.235046
v 378.358276 12.636282 245.223221
v 378.359375 12.617835 245.198135
v 378.330139 12.625759 245.248260
v 383.292053 15.443971 251.723358
v 383.330566 15.475717 251.638824
v 383.254974 15.480764 251.701218
v 383.317200 15.466023 251.682541
v 383.301331 15.475983 251.688293
v 383.298096 15.484964 251.671143
v 383.275482 15.466782 251.716339
v 383.426025 7.514988 248.260193
v 383.499939 7.588143 248.231552
v 383.460663 7.592994 248.331894
v 383.468506 7.550130 248.243469
v 383.471222 7.564795 248.270813
v 383.486328 7.590281 248.280365
v 383.445435 7.551909 248.297287
v 379.696381 4.321494 242.904556
v 379.647095 4.322016 242.853195
v 379.751251 4.359003 242.806122
v 379.671173 4.318656 242.876892
v 379.700897 4.332063 242.849121
v 379.698792 4.338459 242.827835
v 379.723877 4.338225 242.853973
v 377.814697 6.139551 241.760986
v 377.795227 6.207246 241.771362
v 377.885162 6.209931 241.693863
v 377.803284 6.171411 241.763519
v 377.833099 6.184710 241.735809
v 377.839172 6.207606 241.730591
v 377.849060 6.173182 241.725281
v 377.705933 10.365894 243.567810
v 377.722076 10.454040 243.624756
v 377.794250 10.443552 243.522675
v 377.712280 10.409985 243.594498
v 377.742126 10.422675 243.566528
v 377.757263 10.449273 243.572479
v 377.749084 10.404477 243.543579
v 379.432678 14.306978 247.166504
v 379.480743 14.363437 247.242462
v 379.536316 14.367276 247.129486
v 379.456024 14.337591 247.204865
v 379.485779 14.350044 247.176682
v 379.508514 14.367311 247.186310
v 379.484039 14.338644 247.147705
v 382.079163 15.856173 250.640945
v 382.128448 15.855650 250.692322
v 382.181549 15.886920 250.589233
v 382.104401 15.859014 250.668640
v 382.133728 15.871247 250.639954
v 382.155823 15.873541 250.642151
v 382.130798 15.873765 250.616043
v 383.960876 14.038116 251.784531
v 383.980316 13.970421 251.774170
v 384.047607 14.035995 251.701492
v 383.972290 14.006256 251.782013
v 384.001526 14.018600 251.753296
v 384.015442 14.004390 251.739395
v 384.005585 14.038815 251.744705
v 384.069641 9.811773 249.977722
v 384.053528 9.723630 249.920776
v 384.138519 9.802374 249.872650
v 384.063293 9.767682 249.951050
v 384.092529 9.780643 249.922577
v 384.097351 9.762723 249.897522
v 384.105560 9.807522 249.926453
v 382.342865 5.870691 246.379028
v 382.294800 5.814231 246.303040
v 382.396484 5.878650 246.265839
v 382.319519 5.840076 246.340668
v 382.348846 5.853270 246.312408
v 382.346130 5.844684 246.283676
v 382.370575 5.873352 246.322296
v 380.837006 4.616280 244.542236
v 380.888733 4.645989 244.609863
v 380.793610 4.623090 244.651199
v 380.862946 4.627977 244.574677
v 380.834961 4.619664 244.602951
v 380.839722 4.628046 244.631042
v 380.812500 4.612413 244.595444
v 384.119751 11.923422 251.299500
v 384.117981 12.006180 251.335266
v 384.036438 11.927109 251.365265
v 384.120850 11.965935 251.319946
v 384.090576 11.952468 251.343475
v 384.078613 11.968866 251.357712
v 384.079559 11.925312 251.338898
v 380.656952 15.439142 249.272278
v 380.605255 15.409437 249.204651
v 380.562805 15.372616 249.294754
v 380.631042 15.427445 249.239838
v 380.603241 15.411550 249.264832
v 380.580963 15.395550 249.253510
v 380.608154 15.411183 249.289093
v 377.374207 8.132004 242.515015
v 377.376007 8.049243 242.479279
v 377.319977 8.068596 242.580658
v 377.373138 8.089491 242.494568
v 377.347626 8.078748 242.524292
v 377.342041 8.054733 242.526855
v 377.341125 8.098288 242.545654
v 378.342712 4.672578 241.956696
v 378.379822 4.635777 241.978821
v 378.300903 4.642866 242.050186
v 378.359283 4.649763 241.963684
v 378.332947 4.641012 241.993347
v 378.336243 4.631985 242.011993
v 378.316284 4.651833 242.000061
v 378.208740 12.601557 245.419861
v 378.174103 12.523552 245.348145
v 378.131653 12.524094 245.454712
v 378.189331 12.564636 245.382751
v 378.163086 12.550978 245.410278
v 378.147217 12.523932 245.400650
v 378.165894 12.566000 245.439301
v 383.151276 15.382848 251.857849
v 383.114197 15.419646 251.835709
v 383.055969 15.353043 251.895309
v 383.134705 15.405661 251.850830
v 383.105347 15.390241 251.874359
v 383.084534 15.391671 251.872421
v 383.104553 15.371822 251.884369
v 383.285217 7.453866 248.394684
v 383.319855 7.531872 248.466385
v 383.225220 7.471809 248.490784
v 383.304626 7.490787 248.431778
v 383.275208 7.480272 248.457428
v 383.273560 7.499724 248.483780
v 383.254883 7.457658 248.445129
v 379.555603 4.260372 243.039062
v 379.468201 4.256073 243.094620
v 379.506317 4.260894 242.987686
v 379.508850 4.250652 243.065643
v 379.503601 4.249800 243.040771
v 379.482941 4.250874 243.038666
v 379.530365 4.257534 243.011383
v 377.673920 6.078429 241.895477
v 377.609802 6.099408 241.986923
v 377.654419 6.146124 241.905853
v 377.636078 6.082797 241.937805
v 377.637085 6.101172 241.928192
v 377.625854 6.118368 241.943298
v 377.662476 6.110289 241.898026
v 377.565155 10.304771 243.702332
v 377.519226 10.318476 243.809464
v 377.581299 10.392919 243.759247
v 377.535889 10.309500 243.753784
v 377.546143 10.336611 243.757828
v 377.544312 10.355775 243.783630
v 377.571472 10.348863 243.728989
v 379.291901 14.245857 247.300995
v 379.254150 14.226108 247.401459
v 379.339966 14.302314 247.376984
v 379.268494 14.239210 247.353424
v 379.288605 14.261269 247.365463
v 379.293732 14.268810 247.393295
v 379.315247 14.276466 247.339355
v 381.938354 15.795052 250.775436
v 381.890289 15.740528 250.849319
v 381.987671 15.794529 250.826813
v 381.912415 15.773205 250.818298
v 381.934998 15.781563 250.826706
v 381.938293 15.772985 250.845306
v 381.963593 15.797892 250.803162
v 383.820068 13.976994 251.919022
v 383.748688 13.897194 251.957031
v 383.839539 13.909302 251.908661
v 383.785187 13.941059 251.946198
v 383.801483 13.930197 251.939255
v 383.795410 13.905489 251.940704
v 383.831482 13.945133 251.916504
v 383.928833 9.750650 250.112213
v 383.839294 9.678129 250.134476
v 383.912720 9.662508 250.055267
v 383.885376 9.714360 250.130188
v 383.892426 9.694757 250.109650
v 383.876953 9.668085 250.100327
v 383.922485 9.706560 250.085541
v 382.202057 5.809566 246.513519
v 382.104370 5.770494 246.542496
v 382.154022 5.753109 246.437531
v 382.152771 5.784648 246.530579
v 382.149963 5.770101 246.501953
v 382.127533 5.755050 246.490677
v 382.178741 5.778954 246.475159
vn 0.082655 0.529589 -0.844218
vn 0.082655 0.529589 -0.844218
vn 0.082655 0.529589 -0.844218
vn 0.706609 -0.199585 -0.678874
vn 0.706609 -0.199585 -0.678874
vn 0.706609 -0.199585 -0.678874
vn 0.982568 -0.067148 -0.173351
vn 0.982568 -0.067148 -0.173351
vn 0.982568 -0.067148 -0.173351
vn 0.689903 0.299505 -0.659038
vn 0.689903 0.299505 -0.659038
vn 0.689903 0.299505 -0.659038
vn 0.689903 0.299505 -0.659038
vn 0.680743 -0.370222 0.632080
vn 0.676062 -0.418651 0.606360
vn 0.747821 -0.341562 0.569297
vn 0.735133 -0.395881 0.550326
vn 0.337570 -0.864109 -0.373312
vn -0.071396 -0.565666 -0.821538
vn 0.174049 -0.832551 -0.525895
vn -0.584470 -0.441833 -0.680572
vn -0.667840 -0.279974 -0.689640
vn -0.486217 -0.399887 -0.776971
vn -0.583461 -0.236699 -0.776883
vn -0.603633 0.502443 -0.619015
vn -0.519264 0.691794 -0.501782
vn -0.597330 0.582986 -0.550749
vn -0.760497 0.335597 -0.555895
vn -0.756897 0.383555 -0.529143
vn -0.694790 0.364582 -0.619958
vn -0.699375 0.411405 -0.584483
vn -0.033856 0.995959 0.083186
vn 0.516726 0.758996 0.396131
vn 0.125794 0.962721 0.239466
vn -0.414206 0.906259 0.084424
vn -0.361699 0.920146 0.150021
vn -0.335281 0.942085 0.007869
vn -0.288812 0.953666 0.084316
vn 0.799552 -0.417388 0.431860
vn 0.767143 -0.584184 0.264990
vn 0.770457 -0.507827 0.385367
vn 0.928329 0.299809 -0.219817
vn 0.928329 0.299809 -0.219817
vn 0.928329 0.299809 -0.219817
vn 0.173857 0.735009 -0.655390
vn 0.173857 0.735009 -0.655390
vn 0.173857 0.735009 -0.655390
vn 0.279164 0.224396 -0.933656
vn 0.279164 0.224396 -0.933656
vn 0.279164 0.224396 -0.933656
vn 0.500884 0.723789 -0.474599
vn 0.500884 0.723789 -0.474599
vn 0.500884 0.723789 -0.474599
vn 0.689903 0.299505 -0.659038
vn 0.689903 0.299505 -0.659038
vn 0.689903 0.299505 -0.659038
vn 0.689903 0.299505 -0.659038
vn 0.689903 0.299505 -0.659038
vn 0.689903 0.299505 -0.659038
vn 0.689903 0.299505 -0.659038
vn 0.689903 0.299505 -0.659038
vn 0.689903 0.299505 -0.659038
vn 0.689903 0.299505 -0.659038
vn 0.689903 0.299505 -0.659038
vn 0.689903 0.299505 -0.659038
vn 0.485219 -0.848495 0.211233
vn 0.457659 -0.872686 0.170198
vn 0.545382 -0.823264 0.157466
vn 0.524415 -0.844743 0.106762
vn -0.651730 0.702298 -0.286400
vn -0.632306 0.734266 -0.247068
vn -0.595366 0.727508 -0.340985
vn -0.579196 0.759127 -0.297081
vn 0.017195 -0.959461 -0.281317
vn -0.112611 -0.909871 -0.399316
vn 0.110594 -0.925129 -0.363188
vn -0.013661 -0.868615 -0.495300
vn -0.234209 0.381288 -0.894296
vn -0.234209 0.381288 -0.894296
vn -0.234209 0.381288 -0.894296
vn -0.234209 0.381288 -0.894296
vn -0.751931 0.041184 -0.657954
vn -0.762049 0.122789 -0.635771
vn -0.681441 0.069333 -0.728582
vn -0.683347 0.158124 -0.712765
vn 0.464374 0.389706 0.795290
vn 0.543521 0.226001 0.808399
vn 0.564648 0.433941 0.702046
vn 0.636684 0.259806 0.726040
vn -0.730760 0.512515 -0.450908
vn -0.716814 0.555707 -0.421150
vn -0.678724 0.534956 -0.503145
vn -0.660475 0.580861 -0.475787
vn 0.002667 0.914817 -0.403861
vn 0.002667 0.914817 -0.403861
vn 0.002667 0.914817 -0.403861
vn 0.002667 0.914817 -0.403861
vn -0.566054 0.813402 -0.134015
vn -0.537412 0.838063 -0.094014
vn -0.509625 0.838787 -0.191622
vn -0.471386 0.867764 -0.157418
vn 0.581994 -0.732572 0.353017
vn 0.558505 -0.766305 0.317567
vn 0.639340 -0.708417 0.298981
vn 0.611705 -0.745014 0.266027
vn -0.141518 0.905489 0.400078
vn -0.007485 0.857735 0.514037
vn -0.057368 0.948236 0.312343
vn 0.092097 0.902664 0.420375
vn 0.982052 -0.056630 0.179910
vn 0.982052 -0.056630 0.179910
vn 0.982052 -0.056630 0.179910
vn 0.982052 -0.056630 0.179910
vn 0.651468 -0.084796 0.753922
vn 0.665506 -0.164697 0.727995
vn 0.723942 -0.050884 0.687982
vn 0.746344 -0.130775 0.652586
vn -0.292254 -0.844880 0.448068
vn -0.259769 -0.942396 0.210736
vn -0.016101 -0.918814 0.394362
vn 0.656958 -0.544550 0.521413
vn 0.647076 -0.585982 0.487768
vn 0.711233 -0.520845 0.472089
vn 0.704448 -0.561772 0.433780
vn 0.745176 -0.590158 -0.310526
vn 0.745176 -0.590158 -0.310526
vn 0.745176 -0.590158 -0.310526
vn 0.745176 -0.590158 -0.310526
vn 0.072683 -0.612661 0.786996
vn 0.072683 -0.612661 0.786996
vn 0.072683 -0.612661 0.786996
vn 0.072683 -0.612661 0.786996
vn -0.290532 -0.838353 0.461254
vn -0.290532 -0.838353 0.461254
vn -0.290532 -0.838353 0.461254
vn -0.290532 -0.838353 0.461254
vn -0.988190 -0.146350 0.045409
vn -0.988190 -0.146350 0.045409
vn -0.988190 -0.146350 0.045409
vn -0.988190 -0.146350 0.045409
vn -0.972332 0.222100 0.072404
vn -0.972332 0.222100 0.072404
vn -0.972332 0.222100 0.072404
vn -0.972332 0.222100 0.072404
vn -0.910135 0.362190 0.201179
vn -0.910135 0.362190 0.201179
vn -0.910135 0.362190 0.201179
vn -0.910135 0.362190 0.201179
vn -0.751929 0.385793 0.534571
vn -0.751929 0.385793 0.534571
vn -0.751929 0.385793 0.534571
vn -0.751929 0.385793 0.534571
vn -0.054272 -0.306210 0.950416
vn -0.054272 -0.306210 0.950416
vn -0.054272 -0.306210 0.950416
vn -0.054272 -0.306210 0.950416
vn 0.016888 -0.600366 0.799547
vn 0.223300 -0.711545 0.666213
vn 0.297303 -0.549249 0.780984
vn 0.010486 -0.752752 0.658221
vn 0.010486 -0.752752 0.658221
vn 0.010486 -0.752752 0.658221
vn 0.010486 -0.752752 0.658221
vn 0.065271 -0.483442 0.872939
vn 0.297303 -0.549249 0.780984
vn 0.228901 -0.366979 0.901627
vn -0.047552 -0.293725 0.954706
vn 0.228901 -0.366979 0.901627
vn 0.115922 -0.096197 0.988589
vn -0.565503 0.334146 0.754025
vn -0.220657 0.329252 0.918098
vn -0.568599 0.582778 0.580573
vn -0.742554 0.395643 0.540445
vn -0.568599 0.582778 0.580573
vn -0.737546 0.591635 0.325569
vn -0.845421 0.419868 0.330114
vn -0.737546 0.591635 0.325569
vn -0.820726 0.559716 0.114578
vn -0.044900 -0.739536 0.671618
vn 0.166570 -0.843703 0.510313
vn 0.223300 -0.711545 0.666213
vn -0.975982 0.183998 0.116639
vn -0.910604 0.413167 -0.009660
vn -0.951457 0.265262 -0.156096
vn -0.996727 0.079073 0.016845
vn -0.951457 0.265262 -0.156096
vn -0.982549 0.039801 -0.181696
vn -0.987255 -0.155512 0.033807
vn -0.982549 0.039801 -0.181696
vn -0.944294 -0.263423 -0.197275
vn -0.182886 -0.045369 0.982087
vn 0.115922 -0.096197 0.988589
vn -0.220657 0.329252 0.918098
vn -0.520396 -0.805564 0.283293
vn -0.688194 -0.723809 -0.049909
vn -0.259769 -0.942396 0.210736
vn -0.903013 -0.426048 0.055232
vn -0.944294 -0.263423 -0.197275
vn -0.688194 -0.723809 -0.049909
vn -0.086035 -0.824237 0.559671
vn -0.016101 -0.918814 0.394362
vn 0.166570 -0.843703 0.510313
vn -0.914193 0.323168 0.244568
vn -0.820726 0.559716 0.114578
vn -0.910604 0.413167 -0.009660
vn 0.282754 -0.268329 -0.920896
vn 0.282754 -0.268329 -0.920896
vn 0.282754 -0.268329 -0.920896
vn 0.282754 -0.268329 -0.920896
vn -0.493640 -0.039635 -0.868763
vn -0.412823 -0.250436 -0.875705
vn -0.071396 -0.565666 -0.821538
vn -0.585377 0.162976 -0.794212
vn -0.493640 -0.039635 -0.868763
vn -0.555364 0.315068 -0.769612
vn -0.603633 0.502443 -0.619015
vn -0.618054 0.413094 -0.668851
vn -0.555364 0.315068 -0.769612
vn -0.254245 0.713273 -0.653148
vn -0.254245 0.713273 -0.653148
vn -0.254245 0.713273 -0.653148
vn -0.254245 0.713273 -0.653148
vn -0.458151 0.830120 -0.317802
vn -0.515374 0.767581 -0.381063
vn -0.519264 0.691794 -0.501782
vn -0.411017 0.879415 -0.240196
vn -0.458151 0.830120 -0.317802
vn -0.277532 0.940847 -0.194376
vn -0.033856 0.995959 0.083186
vn -0.225783 0.972909 -0.049698
vn -0.277532 0.940847 -0.194376
vn 0.712931 0.700582 -0.030244
vn 0.712931 0.700582 -0.030244
vn 0.712931 0.700582 -0.030244
vn 0.712931 0.700582 -0.030244
vn 0.797354 0.171484 0.578636
vn 0.712666 0.380606 0.589276
vn 0.516726 0.758996 0.396131
vn 0.817702 -0.062118 0.572281
vn 0.797354 0.171484 0.578636
vn 0.856743 -0.184231 0.481716
vn 0.799552 -0.417388 0.431860
vn 0.808640 -0.330357 0.486792
vn 0.856743 -0.184231 0.481716
vn 0.900923 -0.432533 0.035401
vn 0.900923 -0.432533 0.035401
vn 0.900923 -0.432533 0.035401
vn 0.900923 -0.432533 0.035401
vn 0.654072 -0.745065 0.130646
vn 0.688501 -0.692422 0.215682
vn 0.767143 -0.584184 0.264990
vn 0.601603 -0.796677 0.058136
vn 0.654072 -0.745065 0.130646
vn 0.578911 -0.810010 -0.093520
vn 0.337570 -0.864109 -0.373312
vn 0.458108 -0.872051 -0.172234
vn 0.578911 -0.810010 -0.093520
vn 0.398285 -0.914734 -0.068055
vn 0.503227 -0.851626 -0.146613
vn 0.467837 -0.883483 0.024201
vn 0.540932 -0.839685 -0.048183
vn 0.578911 -0.810010 -0.093520
vn 0.597225 -0.802070 0.002392
vn 0.503227 -0.851626 -0.146613
vn 0.540932 -0.839685 -0.048183
vn 0.524415 -0.844743 0.106762
vn 0.467837 -0.883483 0.024201
vn 0.597225 -0.802070 0.002392
vn 0.540932 -0.839685 -0.048183
vn 0.747821 -0.341562 0.569297
vn 0.829734 -0.278381 0.483783
vn 0.752009 -0.243432 0.612555
vn 0.820880 -0.209148 0.531425
vn 0.856743 -0.184231 0.481716
vn 0.834989 -0.104379 0.540277
vn 0.829734 -0.278381 0.483783
vn 0.820880 -0.209148 0.531425
vn 0.746344 -0.130775 0.652586
vn 0.752009 -0.243432 0.612555
vn 0.834989 -0.104379 0.540277
vn 0.820880 -0.209148 0.531425
vn -0.335281 0.942085 0.007869
vn -0.242807 0.964681 -0.102156
vn -0.409602 0.908765 -0.079831
vn -0.329194 0.931606 -0.154083
vn -0.277532 0.940847 -0.194376
vn -0.362348 0.904037 -0.226762
vn -0.242807 0.964681 -0.102156
vn -0.329194 0.931606 -0.154083
vn -0.471386 0.867764 -0.157418
vn -0.409602 0.908765 -0.079831
vn -0.362348 0.904037 -0.226762
vn -0.329194 0.931606 -0.154083
vn -0.694790 0.364582 -0.619958
vn -0.594856 0.380345 -0.708155
vn -0.693775 0.268710 -0.668186
vn -0.609144 0.301065 -0.733691
vn -0.555364 0.315068 -0.769612
vn -0.574573 0.217434 -0.789043
vn -0.594856 0.380345 -0.708155
vn -0.609144 0.301065 -0.733691
vn -0.683347 0.158124 -0.712765
vn -0.693775 0.268710 -0.668186
vn -0.574573 0.217434 -0.789043
vn -0.609144 0.301065 -0.733691
vn -0.285794 -0.388564 -0.875979
vn -0.171934 -0.628958 -0.758189
vn -0.486217 -0.399887 -0.776971
vn -0.272346 -0.682278 -0.678472
vn -0.071396 -0.565666 -0.821538
vn 0.075466 -0.746893 -0.660648
vn -0.285794 -0.388564 -0.875979
vn -0.171934 -0.628958 -0.758189
vn -0.272346 -0.682278 -0.678472
vn -0.171934 -0.628958 -0.758189
vn -0.013661 -0.868615 -0.495300
vn 0.075466 -0.746893 -0.660648
vn -0.595366 0.727508 -0.340985
vn -0.525205 0.741095 -0.418256
vn -0.634074 0.656749 -0.408204
vn -0.568847 0.679065 -0.463987
vn -0.578881 0.620198 -0.529388
vn -0.568847 0.679065 -0.463987
vn -0.519264 0.691794 -0.501782
vn -0.525205 0.741095 -0.418256
vn -0.660475 0.580861 -0.475787
vn -0.634074 0.656749 -0.408204
vn -0.578881 0.620198 -0.529388
vn -0.568847 0.679065 -0.463987
vn 0.649726 0.546560 0.528327
vn 0.437800 0.744376 0.504218
vn 0.564648 0.433941 0.702046
vn 0.348098 0.715167 0.606106
vn 0.516726 0.758996 0.396131
vn 0.288473 0.904886 0.312994
vn 0.649726 0.546560 0.528327
vn 0.437800 0.744376 0.504218
vn 0.348098 0.715167 0.606106
vn 0.437800 0.744376 0.504218
vn 0.092097 0.902664 0.420375
vn 0.288473 0.904886 0.312994
vn 0.639340 -0.708417 0.298981
vn 0.711850 -0.660066 0.239963
vn 0.673085 -0.639813 0.370940
vn 0.729896 -0.609150 0.310141
vn 0.765523 -0.539174 0.351094
vn 0.729896 -0.609150 0.310141
vn 0.767143 -0.584184 0.264990
vn 0.711850 -0.660066 0.239963
vn 0.704448 -0.561772 0.433780
vn 0.673085 -0.639813 0.370940
vn 0.765523 -0.539174 0.351094
vn 0.729896 -0.609150 0.310141
vn 0.213555 -0.951483 -0.221527
vn 0.233078 -0.942766 -0.238470
vn 0.331321 -0.935211 -0.124925
vn 0.369239 -0.906433 -0.205040
vn 0.208611 -0.889046 -0.407529
vn 0.233078 -0.942766 -0.238470
vn 0.110594 -0.925129 -0.363188
vn 0.213555 -0.951483 -0.221527
vn 0.337570 -0.864109 -0.373312
vn 0.369239 -0.906433 -0.205040
vn 0.208611 -0.889046 -0.407529
vn 0.233078 -0.942766 -0.238470
vn -0.663084 -0.081954 -0.744045
vn -0.644225 -0.072573 -0.761385
vn -0.583461 -0.236699 -0.776883
vn -0.516047 -0.170258 -0.839469
vn -0.610702 0.065572 -0.789141
vn -0.644225 -0.072573 -0.761385
vn -0.681441 0.069333 -0.728582
vn -0.663084 -0.081954 -0.744045
vn -0.493640 -0.039635 -0.868763
vn -0.516047 -0.170258 -0.839469
vn -0.610702 0.065572 -0.789141
vn -0.644225 -0.072573 -0.761385
vn -0.699375 0.411405 -0.584483
vn -0.704080 0.470925 -0.531509
vn -0.647446 0.441945 -0.620885
vn -0.689412 0.477084 -0.545071
vn -0.678724 0.534956 -0.503145
vn -0.635812 0.541152 -0.550362
vn -0.704080 0.470925 -0.531509
vn -0.689412 0.477084 -0.545071
vn -0.603633 0.502443 -0.619015
vn -0.647446 0.441945 -0.620885
vn -0.635812 0.541152 -0.550362
vn -0.689412 0.477084 -0.545071
vn -0.579196 0.759127 -0.297081
vn -0.560476 0.794369 -0.234192
vn -0.528389 0.783105 -0.327951
vn -0.545897 0.800328 -0.247935
vn -0.509625 0.838787 -0.191622
vn -0.466452 0.849608 -0.246147
vn -0.560476 0.794369 -0.234192
vn -0.545897 0.800328 -0.247935
vn -0.458151 0.830120 -0.317802
vn -0.528389 0.783105 -0.327951
vn -0.466452 0.849608 -0.246147
vn -0.545897 0.800328 -0.247935
vn -0.202031 0.956486 0.210517
vn -0.183957 0.964090 0.191546
vn -0.288812 0.953666 0.084316
vn -0.205885 0.977349 0.048993
vn -0.006846 0.976636 0.214790
vn -0.183957 0.964090 0.191546
vn -0.057368 0.948236 0.312343
vn -0.202031 0.956486 0.210517
vn -0.033856 0.995959 0.083186
vn -0.205885 0.977349 0.048993
vn -0.006846 0.976636 0.214790
vn -0.183957 0.964090 0.191546
vn 0.674600 0.086954 0.733044
vn 0.693339 0.093897 0.714468
vn 0.636684 0.259806 0.726040
vn 0.717813 0.257847 0.646729
vn 0.774057 0.005342 0.633094
vn 0.693339 0.093897 0.714468
vn 0.723942 -0.050884 0.687982
vn 0.674600 0.086954 0.733044
vn 0.797354 0.171484 0.578636
vn 0.717813 0.257847 0.646729
vn 0.774057 0.005342 0.633094
vn 0.693339 0.093897 0.714468
vn 0.735133 -0.395881 0.550326
vn 0.711783 -0.467582 0.524148
vn 0.778359 -0.385109 0.495830
vn 0.725956 -0.461219 0.510161
vn 0.711233 -0.520845 0.472089
vn 0.754668 -0.489554 0.436822
vn 0.711783 -0.467582 0.524148
vn 0.725956 -0.461219 0.510161
vn 0.799552 -0.417388 0.431860
vn 0.778359 -0.385109 0.495830
vn 0.754668 -0.489554 0.436822
vn 0.725956 -0.461219 0.510161
vn 0.611705 -0.745014 0.266027
vn 0.568183 -0.791022 0.226830
vn 0.647246 -0.731506 0.214411
vn 0.582444 -0.784462 0.213023
vn 0.545382 -0.823264 0.157466
vn 0.597366 -0.792774 0.121089
vn 0.568183 -0.791022 0.226830
vn 0.582444 -0.784462 0.213023
vn 0.654072 -0.745065 0.130646
vn 0.647246 -0.731506 0.214411
vn 0.597366 -0.792774 0.121089
vn 0.582444 -0.784462 0.213023
vn 0.317655 -0.948174 0.007808
vn 0.403608 -0.910989 0.084845
vn 0.179453 -0.971593 0.154282
vn 0.317473 -0.933978 0.163998
vn 0.314231 -0.911210 0.266374
vn 0.317473 -0.933978 0.163998
vn 0.457659 -0.872686 0.170198
vn 0.403608 -0.910989 0.084845
vn -0.016101 -0.918814 0.394362
vn 0.179453 -0.971593 0.154282
vn 0.314231 -0.911210 0.266374
vn 0.317473 -0.933978 0.163998
vn 0.687901 -0.270663 0.673449
vn 0.596752 -0.304945 0.742223
vn 0.680743 -0.370222 0.632080
vn 0.543312 -0.395235 0.740676
vn 0.665506 -0.164697 0.727995
vn 0.505617 -0.236957 0.829580
vn 0.687901 -0.270663 0.673449
vn 0.596752 -0.304945 0.742223
vn 0.228901 -0.366979 0.901627
vn 0.543312 -0.395235 0.740676
vn 0.505617 -0.236957 0.829580
vn 0.596752 -0.304945 0.742223
vn -0.414206 0.906259 0.084424
vn -0.473028 0.880853 -0.018531
vn -0.550440 0.810539 0.200108
vn -0.550365 0.832874 0.058476
vn -0.633896 0.772435 0.038991
vn -0.550365 0.832874 0.058476
vn -0.537412 0.838063 -0.094014
vn -0.473028 0.880853 -0.018531
vn -0.737546 0.591635 0.325569
vn -0.550440 0.810539 0.200108
vn -0.633896 0.772435 0.038991
vn -0.550365 0.832874 0.058476
vn -0.757316 0.240530 -0.607139
vn -0.829639 0.203848 -0.519755
vn -0.760497 0.335597 -0.555895
vn -0.862978 0.256459 -0.435314
vn -0.762049 0.122789 -0.635771
vn -0.876601 0.075910 -0.475194
vn -0.757316 0.240530 -0.607139
vn -0.829639 0.203848 -0.519755
vn -0.982549 0.039801 -0.181696
vn -0.862978 0.256459 -0.435314
vn -0.876601 0.075910 -0.475194
vn -0.829639 0.203848 -0.519755
vn -0.358060 -0.718963 -0.595723
vn -0.455261 -0.748613 -0.481991
vn -0.584470 -0.441833 -0.680572
vn -0.696948 -0.560302 -0.447577
vn -0.348131 -0.906293 -0.239662
vn -0.455261 -0.748613 -0.481991
vn -0.112611 -0.909871 -0.399316
vn -0.358060 -0.718963 -0.595723
vn -0.688194 -0.723809 -0.049909
vn -0.696948 -0.560302 -0.447577
vn -0.348131 -0.906293 -0.239662
vn -0.455261 -0.748613 -0.481991
vn -0.651730 0.702298 -0.286400
vn -0.678308 0.637311 -0.365695
vn -0.748451 0.634102 -0.194257
vn -0.739534 0.603106 -0.298919
vn -0.716814 0.555707 -0.421150
vn -0.802039 0.513401 -0.305210
vn -0.678308 0.637311 -0.365695
vn -0.739534 0.603106 -0.298919
vn -0.910604 0.413167 -0.009660
vn -0.748451 0.634102 -0.194257
vn -0.802039 0.513401 -0.305210
vn -0.739534 0.603106 -0.298919
vn 0.261804 0.677185 0.687662
vn 0.150797 0.616448 0.772821
vn 0.464374 0.389706 0.795290
vn 0.208948 0.348452 0.913741
vn -0.139870 0.694439 0.705827
vn 0.150797 0.616448 0.772821
vn -0.007485 0.857735 0.514037
vn 0.261804 0.677185 0.687662
vn -0.220657 0.329252 0.918098
vn 0.208948 0.348452 0.913741
vn -0.139870 0.694439 0.705827
vn 0.150797 0.616448 0.772821
vn 0.581994 -0.732572 0.353017
vn 0.628522 -0.658924 0.413254
vn 0.474669 -0.752959 0.455787
vn 0.556604 -0.682524 0.473659
vn 0.647076 -0.585982 0.487768
vn 0.528260 -0.632258 0.566738
vn 0.628522 -0.658924 0.413254
vn 0.556604 -0.682524 0.473659
vn 0.223300 -0.711545 0.666213
vn 0.474669 -0.752959 0.455787
vn 0.528260 -0.632258 0.566738
vn 0.556604 -0.682524 0.473659
vn 0.073613 -0.994511 0.074358
vn 0.053470 -0.996224 -0.068405
vn 0.261221 -0.963765 -0.054037
vn 0.157590 -0.972243 -0.172944
vn -0.259769 -0.942396 0.210736
vn -0.140573 -0.987348 -0.073368
vn 0.073613 -0.994511 0.074358
vn 0.053470 -0.996224 -0.068405
vn 0.157590 -0.972243 -0.172944
vn 0.053470 -0.996224 -0.068405
vn 0.017195 -0.959461 -0.281317
vn -0.140573 -0.987348 -0.073368
vn -0.820343 -0.313094 -0.478550
vn -0.802259 -0.147428 -0.578485
vn -0.667840 -0.279974 -0.689640
vn -0.713548 -0.108158 -0.692207
vn -0.944294 -0.263423 -0.197275
vn -0.870649 -0.057905 -0.488485
vn -0.820343 -0.313094 -0.478550
vn -0.802259 -0.147428 -0.578485
vn -0.713548 -0.108158 -0.692207
vn -0.802259 -0.147428 -0.578485
vn -0.751931 0.041184 -0.657954
vn -0.870649 -0.057905 -0.488485
vn -0.756897 0.383555 -0.529143
vn -0.854912 0.332763 -0.397988
vn -0.739068 0.454240 -0.497438
vn -0.808927 0.415440 -0.415989
vn -0.951457 0.265262 -0.156096
vn -0.827862 0.443571 -0.343350
vn -0.854912 0.332763 -0.397988
vn -0.808927 0.415440 -0.415989
vn -0.730760 0.512515 -0.450908
vn -0.739068 0.454240 -0.497438
vn -0.827862 0.443571 -0.343350
vn -0.808927 0.415440 -0.415989
vn -0.632306 0.734266 -0.247068
vn -0.723675 0.678236 -0.127637
vn -0.595073 0.778567 -0.199304
vn -0.667129 0.734817 -0.122406
vn -0.820726 0.559716 0.114578
vn -0.675486 0.736896 -0.026493
vn -0.723675 0.678236 -0.127637
vn -0.667129 0.734817 -0.122406
vn -0.566054 0.813402 -0.134015
vn -0.595073 0.778567 -0.199304
vn -0.675486 0.736896 -0.026493
vn -0.667129 0.734817 -0.122406
vn -0.482145 0.817157 0.315897
vn -0.352064 0.866596 0.353641
vn -0.361699 0.920146 0.150021
vn -0.252096 0.931215 0.263224
vn -0.568599 0.582778 0.580573
vn -0.334557 0.781082 0.527241
vn -0.482145 0.817157 0.315897
vn -0.352064 0.866596 0.353641
vn -0.252096 0.931215 0.263224
vn -0.352064 0.866596 0.353641
vn -0.141518 0.905489 0.400078
vn -0.334557 0.781082 0.527241
vn 0.345214 0.106821 0.932425
vn 0.503680 0.017807 0.863707
vn 0.543521 0.226001 0.808399
vn 0.619056 0.067134 0.782472
vn 0.115922 -0.096197 0.988589
vn 0.462122 -0.119445 0.878735
vn 0.345214 0.106821 0.932425
vn 0.503680 0.017807 0.863707
vn 0.619056 0.067134 0.782472
vn 0.503680 0.017807 0.863707
vn 0.651468 -0.084796 0.753922
vn 0.462122 -0.119445 0.878735
vn 0.676062 -0.418651 0.606360
vn 0.540519 -0.469254 0.698312
vn 0.675585 -0.481797 0.558083
vn 0.588844 -0.510983 0.626226
vn 0.297303 -0.549249 0.780984
vn 0.535327 -0.570564 0.622801
vn 0.540519 -0.469254 0.698312
vn 0.588844 -0.510983 0.626226
vn 0.656958 -0.544550 0.521413
vn 0.675585 -0.481797 0.558083
vn 0.535327 -0.570564 0.622801
vn 0.588844 -0.510983 0.626226
vn 0.558505 -0.766305 0.317567
vn 0.431140 -0.805233 0.407084
vn 0.531589 -0.806126 0.259949
vn 0.447047 -0.830361 0.332641
vn 0.166570 -0.843703 0.510313
vn 0.361092 -0.873384 0.326823
vn 0.431140 -0.805233 0.407084
vn 0.447047 -0.830361 0.332641
vn 0.485219 -0.848495 0.211233
vn 0.531589 -0.806126 0.259949
vn 0.361092 -0.873384 0.326823
vn 0.447047 -0.830361 0.332641
vn 0.578911 -0.810010 -0.093520
vn 0.503227 -0.851626 -0.146613
vn 0.337570 -0.864109 -0.373312
vn 0.369239 -0.906433 -0.205040
vn 0.503227 -0.851626 -0.146613
vn 0.398285 -0.914734 -0.068055
vn 0.369239 -0.906433 -0.205040
vn 0.331321 -0.935211 -0.124925
vn -0.493640 -0.039635 -0.868763
vn -0.071396 -0.565666 -0.821538
vn -0.516047 -0.170258 -0.839469
vn -0.285794 -0.388564 -0.875979
vn -0.516047 -0.170258 -0.839469
vn -0.285794 -0.388564 -0.875979
vn -0.583461 -0.236699 -0.776883
vn -0.486217 -0.399887 -0.776971
vn -0.603633 0.502443 -0.619015
vn -0.555364 0.315068 -0.769612
vn -0.647446 0.441945 -0.620885
vn -0.594856 0.380345 -0.708155
vn -0.647446 0.441945 -0.620885
vn -0.594856 0.380345 -0.708155
vn -0.699375 0.411405 -0.584483
vn -0.694790 0.364582 -0.619958
vn -0.458151 0.830120 -0.317802
vn -0.519264 0.691794 -0.501782
vn -0.528389 0.783105 -0.327951
vn -0.525205 0.741095 -0.418256
vn -0.528389 0.783105 -0.327951
vn -0.525205 0.741095 -0.418256
vn -0.579196 0.759127 -0.297081
vn -0.595366 0.727508 -0.340985
vn -0.277532 0.940847 -0.194376
vn -0.242807 0.964681 -0.102156
vn -0.033856 0.995959 0.083186
vn -0.205885 0.977349 0.048993
vn -0.242807 0.964681 -0.102156
vn -0.335281 0.942085 0.007869
vn -0.205885 0.977349 0.048993
vn -0.288812 0.953666 0.084316
vn 0.797354 0.171484 0.578636
vn 0.516726 0.758996 0.396131
vn 0.717813 0.257847 0.646729
vn 0.649726 0.546560 0.528327
vn 0.717813 0.257847 0.646729
vn 0.649726 0.546560 0.528327
vn 0.636684 0.259806 0.726040
vn 0.564648 0.433941 0.702046
vn 0.799552 -0.417388 0.431860
vn 0.856743 -0.184231 0.481716
vn 0.778359 -0.385109 0.495830
vn 0.829734 -0.278381 0.483783
vn 0.778359 -0.385109 0.495830
vn 0.829734 -0.278381 0.483783
vn 0.735133 -0.395881 0.550326
vn 0.747821 -0.341562 0.569297
vn 0.654072 -0.745065 0.130646
vn 0.767143 -0.584184 0.264990
vn 0.647246 -0.731506 0.214411
vn 0.711850 -0.660066 0.239963
vn 0.647246 -0.731506 0.214411
vn 0.711850 -0.660066 0.239963
vn 0.611705 -0.745014 0.266027
vn 0.639340 -0.708417 0.298981
vn 0.337570 -0.864109 -0.373312
vn 0.208611 -0.889046 -0.407529
vn -0.071396 -0.565666 -0.821538
vn 0.075466 -0.746893 -0.660648
vn 0.208611 -0.889046 -0.407529
vn 0.110594 -0.925129 -0.363188
vn 0.075466 -0.746893 -0.660648
vn -0.013661 -0.868615 -0.495300
vn -0.555364 0.315068 -0.769612
vn -0.493640 -0.039635 -0.868763
vn -0.574573 0.217434 -0.789043
vn -0.610702 0.065572 -0.789141
vn -0.574573 0.217434 -0.789043
vn -0.610702 0.065572 -0.789141
vn -0.683347 0.158124 -0.712765
vn -0.681441 0.069333 -0.728582
vn -0.519264 0.691794 -0.501782
vn -0.603633 0.502443 -0.619015
vn -0.578881 0.620198 -0.529388
vn -0.635812 0.541152 -0.550362
vn -0.578881 0.620198 -0.529388
vn -0.635812 0.541152 -0.550362
vn -0.660475 0.580861 -0.475787
vn -0.678724 0.534956 -0.503145
vn -0.458151 0.830120 -0.317802
vn -0.466452 0.849608 -0.246147
vn -0.277532 0.940847 -0.194376
vn -0.362348 0.904037 -0.226762
vn -0.466452 0.849608 -0.246147
vn -0.509625 0.838787 -0.191622
vn -0.362348 0.904037 -0.226762
vn -0.471386 0.867764 -0.157418
vn -0.033856 0.995959 0.083186
vn -0.006846 0.976636 0.214790
vn 0.516726 0.758996 0.396131
vn 0.288473 0.904886 0.312994
vn -0.006846 0.976636 0.214790
vn -0.057368 0.948236 0.312343
vn 0.288473 0.904886 0.312994
vn 0.092097 0.902664 0.420375
vn 0.856743 -0.184231 0.481716
vn 0.797354 0.171484 0.578636
vn 0.834989 -0.104379 0.540277
vn 0.774057 0.005342 0.633094
vn 0.834989 -0.104379 0.540277
vn 0.774057 0.005342 0.633094
vn 0.746344 -0.130775 0.652586
vn 0.723942 -0.050884 0.687982
vn 0.767143 -0.584184 0.264990
vn 0.799552 -0.417388 0.431860
vn 0.765523 -0.539174 0.351094
vn 0.754668 -0.489554 0.436822
vn 0.765523 -0.539174 0.351094
vn 0.754668 -0.489554 0.436822
vn 0.704448 -0.561772 0.433780
vn 0.711233 -0.520845 0.472089
vn 0.654072 -0.745065 0.130646
vn 0.597366 -0.792774 0.121089
vn 0.578911 -0.810010 -0.093520
vn 0.597225 -0.802070 0.002392
vn 0.597366 -0.792774 0.121089
vn 0.545382 -0.823264 0.157466
vn 0.597225 -0.802070 0.002392
vn 0.524415 -0.844743 0.106762
vn 0.261221 -0.963765 -0.054037
vn 0.317655 -0.948174 0.007808
vn 0.073613 -0.994511 0.074358
vn 0.179453 -0.971593 0.154282
vn 0.073613 -0.994511 0.074358
vn 0.179453 -0.971593 0.154282
vn -0.259769 -0.942396 0.210736
vn -0.016101 -0.918814 0.394362
vn -0.584470 -0.441833 -0.680572
vn -0.696948 -0.560302 -0.447577
vn -0.667840 -0.279974 -0.689640
vn -0.820343 -0.313094 -0.478550
vn -0.696948 -0.560302 -0.447577
vn -0.688194 -0.723809 -0.049909
vn -0.820343 -0.313094 -0.478550
vn -0.944294 -0.263423 -0.197275
vn -0.760497 0.335597 -0.555895
vn -0.862978 0.256459 -0.435314
vn -0.756897 0.383555 -0.529143
vn -0.854912 0.332763 -0.397988
vn -0.862978 0.256459 -0.435314
vn -0.982549 0.039801 -0.181696
vn -0.854912 0.332763 -0.397988
vn -0.951457 0.265262 -0.156096
vn -0.632306 0.734266 -0.247068
vn -0.651730 0.702298 -0.286400
vn -0.723675 0.678236 -0.127637
vn -0.748451 0.634102 -0.194257
vn -0.723675 0.678236 -0.127637
vn -0.748451 0.634102 -0.194257
vn -0.820726 0.559716 0.114578
vn -0.910604 0.413167 -0.009660
vn -0.361699 0.920146 0.150021
vn -0.414206 0.906259 0.084424
vn -0.482145 0.817157 0.315897
vn -0.550440 0.810539 0.200108
vn -0.482145 0.817157 0.315897
vn -0.550440 0.810539 0.200108
vn -0.568599 0.582778 0.580573
vn -0.737546 0.591635 0.325569
vn 0.464374 0.389706 0.795290
vn 0.208948 0.348452 0.913741
vn 0.543521 0.226001 0.808399
vn 0.345214 0.106821 0.932425
vn 0.208948 0.348452 0.913741
vn -0.220657 0.329252 0.918098
vn 0.345214 0.106821 0.932425
vn 0.115922 -0.096197 0.988589
vn 0.680743 -0.370222 0.632080
vn 0.543312 -0.395235 0.740676
vn 0.676062 -0.418651 0.606360
vn 0.540519 -0.469254 0.698312
vn 0.543312 -0.395235 0.740676
vn 0.228901 -0.366979 0.901627
vn 0.540519 -0.469254 0.698312
vn 0.297303 -0.549249 0.780984
vn 0.558505 -0.766305 0.317567
vn 0.581994 -0.732572 0.353017
vn 0.431140 -0.805233 0.407084
vn 0.474669 -0.752959 0.455787
vn 0.431140 -0.805233 0.407084
vn 0.474669 -0.752959 0.455787
vn 0.166570 -0.843703 0.510313
vn 0.223300 -0.711545 0.666213
vn -0.112611 -0.909871 -0.399316
vn 0.017195 -0.959461 -0.281317
vn -0.348131 -0.906293 -0.239662
vn -0.140573 -0.987348 -0.073368
vn -0.348131 -0.906293 -0.239662
vn -0.140573 -0.987348 -0.073368
vn -0.688194 -0.723809 -0.049909
vn -0.259769 -0.942396 0.210736
vn -0.751931 0.041184 -0.657954
vn -0.870649 -0.057905 -0.488485
vn -0.762049 0.122789 -0.635771
vn -0.876601 0.075910 -0.475194
vn -0.870649 -0.057905 -0.488485
vn -0.944294 -0.263423 -0.197275
vn -0.876601 0.075910 -0.475194
vn -0.982549 0.039801 -0.181696
vn -0.730760 0.512515 -0.450908
vn -0.827862 0.443571 -0.343350
vn -0.716814 0.555707 -0.421150
vn -0.802039 0.513401 -0.305210
vn -0.827862 0.443571 -0.343350
vn -0.951457 0.265262 -0.156096
vn -0.802039 0.513401 -0.305210
vn -0.910604 0.413167 -0.009660
vn -0.537412 0.838063 -0.094014
vn -0.566054 0.813402 -0.134015
vn -0.633896 0.772435 0.038991
vn -0.675486 0.736896 -0.026493
vn -0.633896 0.772435 0.038991
vn -0.675486 0.736896 -0.026493
vn -0.737546 0.591635 0.325569
vn -0.820726 0.559716 0.114578
vn -0.007485 0.857735 0.514037
vn -0.141518 0.905489 0.400078
vn -0.139870 0.694439 0.705827
vn -0.334557 0.781082 0.527241
vn -0.139870 0.694439 0.705827
vn -0.334557 0.781082 0.527241
vn -0.220657 0.329252 0.918098
vn -0.568599 0.582778 0.580573
vn 0.651468 -0.084796 0.753922
vn 0.462122 -0.119445 0.878735
vn 0.665506 -0.164697 0.727995
vn 0.505617 -0.236957 0.829580
vn 0.462122 -0.119445 0.878735
vn 0.115922 -0.096197 0.988589
vn 0.505617 -0.236957 0.829580
vn 0.228901 -0.366979 0.901627
vn 0.656958 -0.544550 0.521413
vn 0.535327 -0.570564 0.622801
vn 0.647076 -0.585982 0.487768
vn 0.528260 -0.632258 0.566738
vn 0.535327 -0.570564 0.622801
vn 0.297303 -0.549249 0.780984
vn 0.528260 -0.632258 0.566738
vn 0.223300 -0.711545 0.666213
vn 0.457659 -0.872686 0.170198
vn 0.485219 -0.848495 0.211233
vn 0.314231 -0.911210 0.266374
vn 0.361092 -0.873384 0.326823
vn 0.314231 -0.911210 0.266374
vn 0.361092 -0.873384 0.326823
vn -0.016101 -0.918814 0.394362
vn 0.166570 -0.843703 0.510313
vn 0.331321 -0.935211 -0.124925
vn 0.261221 -0.963765 -0.054037
vn 0.213555 -0.951483 -0.221527
vn 0.157590 -0.972243 -0.172944
vn 0.213555 -0.951483 -0.221527
vn 0.157590 -0.972243 -0.172944
vn 0.110594 -0.925129 -0.363188
vn 0.017195 -0.959461 -0.281317
vn -0.584470 -0.441833 -0.680572
vn -0.486217 -0.399887 -0.776971
vn -0.358060 -0.718963 -0.595723
vn -0.272346 -0.682278 -0.678472
vn -0.358060 -0.718963 -0.595723
vn -0.272346 -0.682278 -0.678472
vn -0.112611 -0.909871 -0.399316
vn -0.013661 -0.868615 -0.495300
vn -0.751931 0.041184 -0.657954
vn -0.681441 0.069333 -0.728582
vn -0.713548 -0.108158 -0.692207
vn -0.663084 -0.081954 -0.744045
vn -0.713548 -0.108158 -0.692207
vn -0.663084 -0.081954 -0.744045
vn -0.667840 -0.279974 -0.689640
vn -0.583461 -0.236699 -0.776883
vn -0.760497 0.335597 -0.555895
vn -0.694790 0.364582 -0.619958
vn -0.757316 0.240530 -0.607139
vn -0.693775 0.268710 -0.668186
vn -0.757316 0.240530 -0.607139
vn -0.693775 0.268710 -0.668186
vn -0.762049 0.122789 -0.635771
vn -0.683347 0.158124 -0.712765
vn -0.730760 0.512515 -0.450908
vn -0.678724 0.534956 -0.503145
vn -0.739068 0.454240 -0.497438
vn -0.704080 0.470925 -0.531509
vn -0.739068 0.454240 -0.497438
vn -0.704080 0.470925 -0.531509
vn -0.756897 0.383555 -0.529143
vn -0.699375 0.411405 -0.584483
vn -0.651730 0.702298 -0.286400
vn -0.595366 0.727508 -0.340985
vn -0.678308 0.637311 -0.365695
vn -0.634074 0.656749 -0.408204
vn -0.678308 0.637311 -0.365695
vn -0.634074 0.656749 -0.408204
vn -0.716814 0.555707 -0.421150
vn -0.660475 0.580861 -0.475787
vn -0.566054 0.813402 -0.134015
vn -0.509625 0.838787 -0.191622
vn -0.595073 0.778567 -0.199304
vn -0.560476 0.794369 -0.234192
vn -0.595073 0.778567 -0.199304
vn -0.560476 0.794369 -0.234192
vn -0.632306 0.734266 -0.247068
vn -0.579196 0.759127 -0.297081
vn -0.414206 0.906259 0.084424
vn -0.335281 0.942085 0.007869
vn -0.473028 0.880853 -0.018531
vn -0.409602 0.908765 -0.079831
vn -0.473028 0.880853 -0.018531
vn -0.409602 0.908765 -0.079831
vn -0.537412 0.838063 -0.094014
vn -0.471386 0.867764 -0.157418
vn -0.141518 0.905489 0.400078
vn -0.057368 0.948236 0.312343
vn -0.252096 0.931215 0.263224
vn -0.202031 0.956486 0.210517
vn -0.252096 0.931215 0.263224
vn -0.202031 0.956486 0.210517
vn -0.361699 0.920146 0.150021
vn -0.288812 0.953666 0.084316
vn 0.464374 0.389706 0.795290
vn 0.564648 0.433941 0.702046
vn 0.261804 0.677185 0.687662
vn 0.348098 0.715167 0.606106
vn 0.261804 0.677185 0.687662
vn 0.348098 0.715167 0.606106
vn -0.007485 0.857735 0.514037
vn 0.092097 0.902664 0.420375
vn 0.651468 -0.084796 0.753922
vn 0.723942 -0.050884 0.687982
vn 0.619056 0.067134 0.782472
vn 0.674600 0.086954 0.733044
vn 0.619056 0.067134 0.782472
vn 0.674600 0.086954 0.733044
vn 0.543521 0.226001 0.808399
vn 0.636684 0.259806 0.726040
vn 0.680743 -0.370222 0.632080
vn 0.747821 -0.341562 0.569297
vn 0.687901 -0.270663 0.673449
vn 0.752009 -0.243432 0.612555
vn 0.687901 -0.270663 0.673449
vn 0.752009 -0.243432 0.612555
vn 0.665506 -0.164697 0.727995
vn 0.746344 -0.130775 0.652586
vn 0.656958 -0.544550 0.521413
vn 0.711233 -0.520845 0.472089
vn 0.675585 -0.481797 0.558083
vn 0.711783 -0.467582 0.524148
vn 0.675585 -0.481797 0.558083
vn 0.711783 -0.467582 0.524148
vn 0.676062 -0.418651 0.606360
vn 0.735133 -0.395881 0.550326
vn 0.581994 -0.732572 0.353017
vn 0.639340 -0.708417 0.298981
vn 0.628522 -0.658924 0.413254
vn 0.673085 -0.639813 0.370940
vn 0.628522 -0.658924 0.413254
vn 0.673085 -0.639813 0.370940
vn 0.647076 -0.585982 0.487768
vn 0.704448 -0.561772 0.433780
vn 0.485219 -0.848495 0.211233
vn 0.545382 -0.823264 0.157466
vn 0.531589 -0.806126 0.259949
vn 0.568183 -0.791022 0.226830
vn 0.531589 -0.806126 0.259949
vn 0.568183 -0.791022 0.226830
vn 0.558505 -0.766305 0.317567
vn 0.611705 -0.745014 0.266027
vn 0.317655 -0.948174 0.007808
vn 0.398285 -0.914734 -0.068055
vn 0.403608 -0.910989 0.084845
vn 0.467837 -0.883483 0.024201
vn 0.403608 -0.910989 0.084845
vn 0.467837 -0.883483 0.024201
vn 0.457659 -0.872686 0.170198
vn 0.524415 -0.844743 0.106762
vn 0.317655 -0.948174 0.007808
vn 0.261221 -0.963765 -0.054037
vn 0.398285 -0.914734 -0.068055
vn 0.331321 -0.935211 -0.124925
vn 0.891367 -0.272567 -0.362178
vn 0.891367 -0.272567 -0.362178
vn 0.891367 -0.272567 -0.362178
s off
g d2_polySurface2
usemtl initialShadingGroup
f 15//1 7//2 3//3
f 14//4 8//5 1//6
f 17//7 5//8 2//9
s 1
f 7//10 9//11 3//12
f 3//12 9//11 8//13
s 2
f 146//14 237//15 34//16
f 34//16 237//15 125//17
s off
f 85//18 56//19 14//20
s 3
f 167//21 202//22 55//23
f 55//23 202//22 90//24
s off
f 99//25 63//26 15//27
s 4
f 160//28 209//29 48//30
f 48//30 209//29 97//31
s off
f 113//32 70//33 16//34
s 5
f 153//35 223//36 41//37
f 41//37 223//36 111//38
s off
f 127//39 77//40 17//41
f 11//42 2//43 6//44
f 12//45 4//46 7//47
f 13//48 3//49 8//50
f 16//51 6//52 4//53
s 6
f 6//54 2//55 9//56
f 9//56 2//55 5//57
s 7
f 5//58 1//59 9//60
f 9//60 1//59 8//61
s 8
f 6//62 9//63 4//64
f 4//64 9//63 7//65
s 9
f 246//66 140//67 133//68
f 133//68 140//67 29//69
s 10
f 174//70 216//71 62//72
f 62//72 216//71 104//73
s 11
f 197//74 168//75 84//76
f 84//76 168//75 57//77
s 12
f 15//78 3//79 49//80
f 49//80 3//79 13//81
s 13
f 204//82 161//83 91//84
f 91//84 161//83 50//85
s 14
f 181//86 230//87 69//88
f 69//88 230//87 118//89
s 15
f 211//90 175//91 98//92
f 98//92 175//91 64//93
s 16
f 16//94 4//95 42//96
f 42//96 4//95 12//97
s 17
f 218//98 154//99 105//100
f 105//100 154//99 43//101
s 18
f 188//102 244//103 76//104
f 76//104 244//103 132//105
s 19
f 225//106 182//107 112//108
f 112//108 182//107 71//109
s 20
f 17//110 2//111 35//112
f 35//112 2//111 11//113
s 21
f 232//114 147//115 119//116
f 119//116 147//115 36//117
s off
f 19//118 196//119 141//120
s 22
f 239//121 189//122 126//123
f 126//123 189//122 78//124
s 23
f 14//125 1//126 28//127
f 28//127 1//126 10//128
s 24
f 238//129 20//130 26//131
f 26//131 20//130 18//132
s 25
f 196//133 19//134 23//135
f 23//135 19//134 18//136
s 26
f 203//137 23//138 22//139
f 22//139 23//138 18//140
s 27
f 210//141 22//142 24//143
f 24//143 22//142 18//144
s 28
f 217//145 24//146 21//147
f 21//147 24//146 18//148
s 29
f 224//149 21//150 25//151
f 25//151 21//150 18//152
s 30
f 231//153 25//154 20//155
f 20//155 25//154 18//156
s off
f 26//157 190//158 238//159
s 31
f 245//160 26//161 19//162
f 19//162 26//161 18//163
s off
f 20//164 238//165 148//166
f 20//167 148//168 231//169
f 25//170 183//171 224//172
f 21//173 224//174 155//175
f 21//176 155//177 217//178
f 26//179 245//180 190//181
f 24//182 176//183 210//184
f 22//185 210//186 162//187
f 22//188 162//189 203//190
f 25//191 231//192 183//193
f 23//194 169//195 196//196
f 23//197 203//198 169//199
f 19//200 141//201 245//202
f 24//203 217//204 176//205
s 32
f 56//206 13//207 14//208
f 14//208 13//207 8//209
s off
f 92//210 13//211 56//212
f 13//213 92//214 49//215
f 99//216 15//217 49//218
s 33
f 12//219 7//220 63//221
f 63//221 7//220 15//222
s off
f 106//223 12//224 63//225
f 12//226 106//227 42//228
f 113//229 16//230 42//231
s 34
f 70//232 11//233 16//234
f 16//234 11//233 6//235
s off
f 120//236 11//237 70//238
f 11//239 120//240 35//241
f 127//242 17//243 35//244
s 35
f 10//245 5//246 77//247
f 77//247 5//246 17//248
s off
f 134//249 10//250 77//251
f 10//252 134//253 28//254
f 85//255 14//256 28//257
s 36
f 27//258 30//259 33//260
f 33//260 30//259 31//261
s 37
f 28//262 32//263 30//264
f 30//264 32//263 31//265
s 38
f 29//266 33//267 32//268
f 32//268 33//267 31//269
s 39
f 34//270 37//271 40//272
f 40//272 37//271 38//273
s 40
f 35//274 39//275 37//276
f 37//276 39//275 38//277
s 41
f 36//278 40//279 39//280
f 39//280 40//279 38//281
s 42
f 41//282 44//283 47//284
f 47//284 44//283 45//285
s 43
f 42//286 46//287 44//288
f 44//288 46//287 45//289
s 44
f 43//290 47//291 46//292
f 46//292 47//291 45//293
s 45
f 48//294 51//295 54//296
f 54//296 51//295 52//297
s 46
f 49//298 53//299 51//300
f 51//300 53//299 52//301
s 47
f 50//302 54//303 53//304
f 53//304 54//303 52//305
s 48
f 58//306 59//307 55//308
f 55//308 59//307 61//309
s 49
f 56//310 60//311 58//312
f 58//312 60//311 59//313
s 50
f 61//314 59//315 57//316
f 57//316 59//315 60//317
s 51
f 62//318 65//319 68//320
f 68//320 65//319 66//321
s 52
f 67//322 66//323 63//324
f 63//324 66//323 65//325
s 53
f 64//326 68//327 67//328
f 67//328 68//327 66//329
s 54
f 72//330 73//331 69//332
f 69//332 73//331 75//333
s 55
f 70//334 74//335 72//336
f 72//336 74//335 73//337
s 56
f 75//338 73//339 71//340
f 71//340 73//339 74//341
s 57
f 76//342 79//343 82//344
f 82//344 79//343 80//345
s 58
f 81//346 80//347 77//348
f 77//348 80//347 79//349
s 59
f 78//350 82//351 81//352
f 81//352 82//351 80//353
s 60
f 86//354 87//355 83//356
f 83//356 87//355 89//357
s 61
f 88//358 87//359 84//360
f 84//360 87//359 86//361
s 62
f 85//362 89//363 88//364
f 88//364 89//363 87//365
s 63
f 93//366 94//367 90//368
f 90//368 94//367 96//369
s 64
f 95//370 94//371 91//372
f 91//372 94//371 93//373
s 65
f 92//374 96//375 95//376
f 95//376 96//375 94//377
s 66
f 97//378 100//379 103//380
f 103//380 100//379 101//381
s 67
f 98//382 102//383 100//384
f 100//384 102//383 101//385
s 68
f 99//386 103//387 102//388
f 102//388 103//387 101//389
s 69
f 104//390 107//391 110//392
f 110//392 107//391 108//393
s 70
f 105//394 109//395 107//396
f 107//396 109//395 108//397
s 71
f 106//398 110//399 109//400
f 109//400 110//399 108//401
s 72
f 114//402 115//403 111//404
f 111//404 115//403 117//405
s 73
f 116//406 115//407 112//408
f 112//408 115//407 114//409
s 74
f 113//410 117//411 116//412
f 116//412 117//411 115//413
s 75
f 121//414 122//415 118//416
f 118//416 122//415 124//417
s 76
f 123//418 122//419 119//420
f 119//420 122//419 121//421
s 77
f 120//422 124//423 123//424
f 123//424 124//423 122//425
s 78
f 125//426 128//427 131//428
f 131//428 128//427 129//429
s 79
f 126//430 130//431 128//432
f 128//432 130//431 129//433
s 80
f 127//434 131//435 130//436
f 130//436 131//435 129//437
s 81
f 132//438 135//439 138//440
f 138//440 135//439 136//441
s 82
f 133//442 137//443 135//444
f 135//444 137//443 136//445
s 83
f 134//446 138//447 137//448
f 137//448 138//447 136//449
s 84
f 139//450 142//451 145//452
f 145//452 142//451 143//453
s 85
f 144//454 143//455 140//456
f 140//456 143//455 142//457
s 86
f 141//458 145//459 144//460
f 144//460 145//459 143//461
s 87
f 149//462 150//463 146//464
f 146//464 150//463 152//465
s 88
f 147//466 151//467 149//468
f 149//468 151//467 150//469
s 89
f 148//470 152//471 151//472
f 151//472 152//471 150//473
s 90
f 153//474 156//475 159//476
f 159//476 156//475 157//477
s 91
f 158//478 157//479 154//480
f 154//480 157//479 156//481
s 92
f 155//482 159//483 158//484
f 158//484 159//483 157//485
s 93
f 163//486 164//487 160//488
f 160//488 164//487 166//489
s 94
f 161//490 165//491 163//492
f 163//492 165//491 164//493
s 95
f 162//494 166//495 165//496
f 165//496 166//495 164//497
s 96
f 170//498 171//499 167//500
f 167//500 171//499 173//501
s 97
f 172//502 171//503 168//504
f 168//504 171//503 170//505
s 98
f 169//506 173//507 172//508
f 172//508 173//507 171//509
s 99
f 174//510 177//511 180//512
f 180//512 177//511 178//513
s 100
f 175//514 179//515 177//516
f 177//516 179//515 178//517
s 101
f 176//518 180//519 179//520
f 179//520 180//519 178//521
s 102
f 184//522 185//523 181//524
f 181//524 185//523 187//525
s 103
f 186//526 185//527 182//528
f 182//528 185//527 184//529
s 104
f 183//530 187//531 186//532
f 186//532 187//531 185//533
s 105
f 188//534 191//535 194//536
f 194//536 191//535 192//537
s 106
f 189//538 193//539 191//540
f 191//540 193//539 192//541
s 107
f 190//542 194//543 193//544
f 193//544 194//543 192//545
s 108
f 198//546 199//547 195//548
f 195//548 199//547 201//549
s 109
f 196//550 200//551 198//552
f 198//552 200//551 199//553
s 110
f 201//554 199//555 197//556
f 197//556 199//555 200//557
s 111
f 205//558 206//559 202//560
f 202//560 206//559 208//561
s 112
f 203//562 207//563 205//564
f 205//564 207//563 206//565
s 113
f 208//566 206//567 204//568
f 204//568 206//567 207//569
s 114
f 209//570 212//571 215//572
f 215//572 212//571 213//573
s 115
f 210//574 214//575 212//576
f 212//576 214//575 213//577
s 116
f 211//578 215//579 214//580
f 214//580 215//579 213//581
s 117
f 216//582 219//583 222//584
f 222//584 219//583 220//585
s 118
f 217//586 221//587 219//588
f 219//588 221//587 220//589
s 119
f 218//590 222//591 221//592
f 221//592 222//591 220//593
s 120
f 226//594 227//595 223//596
f 223//596 227//595 229//597
s 121
f 224//598 228//599 226//600
f 226//600 228//599 227//601
s 122
f 229//602 227//603 225//604
f 225//604 227//603 228//605
s 123
f 233//606 234//607 230//608
f 230//608 234//607 236//609
s 124
f 231//610 235//611 233//612
f 233//612 235//611 234//613
s 125
f 236//614 234//615 232//616
f 232//616 234//615 235//617
s 126
f 237//618 240//619 243//620
f 243//620 240//619 241//621
s 127
f 238//622 242//623 240//624
f 240//624 242//623 241//625
s 128
f 239//626 243//627 242//628
f 242//628 243//627 241//629
s 129
f 244//630 247//631 250//632
f 250//632 247//631 248//633
s 130
f 245//634 249//635 247//636
f 247//636 249//635 248//637
s 131
f 246//638 250//639 249//640
f 249//640 250//639 248//641
s 132
f 28//642 30//643 85//644
f 85//644 30//643 89//645
s 133
f 30//646 27//647 89//648
f 89//648 27//647 83//649
s 134
f 92//650 56//651 96//652
f 96//652 56//651 58//653
s 135
f 96//654 58//655 90//656
f 90//656 58//655 55//657
s 136
f 99//658 49//659 103//660
f 103//660 49//659 51//661
s 137
f 103//662 51//663 97//664
f 97//664 51//663 48//665
s 138
f 106//666 63//667 110//668
f 110//668 63//667 65//669
s 139
f 110//670 65//671 104//672
f 104//672 65//671 62//673
s 140
f 42//674 44//675 113//676
f 113//676 44//675 117//677
s 141
f 44//678 41//679 117//680
f 117//680 41//679 111//681
s 142
f 120//682 70//683 124//684
f 124//684 70//683 72//685
s 143
f 124//686 72//687 118//688
f 118//688 72//687 69//689
s 144
f 127//690 35//691 131//692
f 131//692 35//691 37//693
s 145
f 131//694 37//695 125//696
f 125//696 37//695 34//697
s 146
f 134//698 77//699 138//700
f 138//700 77//699 79//701
s 147
f 138//702 79//703 132//704
f 132//704 79//703 76//705
s 148
f 85//706 88//707 56//708
f 56//708 88//707 60//709
s 149
f 88//710 84//711 60//712
f 60//712 84//711 57//713
s 150
f 49//714 92//715 53//716
f 53//716 92//715 95//717
s 151
f 53//718 95//719 50//720
f 50//720 95//719 91//721
s 152
f 63//722 99//723 67//724
f 67//724 99//723 102//725
s 153
f 67//726 102//727 64//728
f 64//728 102//727 98//729
s 154
f 106//730 109//731 42//732
f 42//732 109//731 46//733
s 155
f 109//734 105//735 46//736
f 46//736 105//735 43//737
s 156
f 113//738 116//739 70//740
f 70//740 116//739 74//741
s 157
f 116//742 112//743 74//744
f 74//744 112//743 71//745
s 158
f 35//746 120//747 39//748
f 39//748 120//747 123//749
s 159
f 39//750 123//751 36//752
f 36//752 123//751 119//753
s 160
f 77//754 127//755 81//756
f 81//756 127//755 130//757
s 161
f 81//758 130//759 78//760
f 78//760 130//759 126//761
s 162
f 134//762 137//763 28//764
f 28//764 137//763 32//765
s 163
f 137//766 133//767 32//768
f 32//768 133//767 29//769
s 164
f 195//770 139//771 198//772
f 198//772 139//771 145//773
s 165
f 198//774 145//775 196//776
f 196//776 145//775 141//777
s 166
f 167//778 173//779 202//780
f 202//780 173//779 205//781
s 167
f 173//782 169//783 205//784
f 205//784 169//783 203//785
s 168
f 160//786 166//787 209//788
f 209//788 166//787 212//789
s 169
f 166//790 162//791 212//792
f 212//792 162//791 210//793
s 170
f 216//794 174//795 219//796
f 219//796 174//795 180//797
s 171
f 219//798 180//799 217//800
f 217//800 180//799 176//801
s 172
f 223//802 153//803 226//804
f 226//804 153//803 159//805
s 173
f 226//806 159//807 224//808
f 224//808 159//807 155//809
s 174
f 181//810 187//811 230//812
f 230//812 187//811 233//813
s 175
f 187//814 183//815 233//816
f 233//816 183//815 231//817
s 176
f 146//818 152//819 237//820
f 237//820 152//819 240//821
s 177
f 152//822 148//823 240//824
f 240//824 148//823 238//825
s 178
f 244//826 188//827 247//828
f 247//828 188//827 194//829
s 179
f 247//830 194//831 245//832
f 245//832 194//831 190//833
s 180
f 168//834 197//835 172//836
f 172//836 197//835 200//837
s 181
f 172//838 200//839 169//840
f 169//840 200//839 196//841
s 182
f 204//842 207//843 161//844
f 161//844 207//843 165//845
s 183
f 207//846 203//847 165//848
f 165//848 203//847 162//849
s 184
f 211//850 214//851 175//852
f 175//852 214//851 179//853
s 185
f 214//854 210//855 179//856
f 179//856 210//855 176//857
s 186
f 154//858 218//859 158//860
f 158//860 218//859 221//861
s 187
f 158//862 221//863 155//864
f 155//864 221//863 217//865
s 188
f 182//866 225//867 186//868
f 186//868 225//867 228//869
s 189
f 186//870 228//871 183//872
f 183//872 228//871 224//873
s 190
f 232//874 235//875 147//876
f 147//876 235//875 151//877
s 191
f 235//878 231//879 151//880
f 151//880 231//879 148//881
s 192
f 239//882 242//883 189//884
f 189//884 242//883 193//885
s 193
f 242//886 238//887 193//888
f 193//888 238//887 190//889
s 194
f 140//890 246//891 144//892
f 144//892 246//891 249//893
s 195
f 144//894 249//895 141//896
f 141//896 249//895 245//897
s 196
f 83//898 195//899 86//900
f 86//900 195//899 201//901
s 197
f 86//902 201//903 84//904
f 84//904 201//903 197//905
s 198
f 167//906 55//907 170//908
f 170//908 55//907 61//909
s 199
f 170//910 61//911 168//912
f 168//912 61//911 57//913
s 200
f 204//914 91//915 208//916
f 208//916 91//915 93//917
s 201
f 208//918 93//919 202//920
f 202//920 93//919 90//921
s 202
f 160//922 48//923 163//924
f 163//924 48//923 54//925
s 203
f 163//926 54//927 161//928
f 161//928 54//927 50//929
s 204
f 211//930 98//931 215//932
f 215//932 98//931 100//933
s 205
f 215//934 100//935 209//936
f 209//936 100//935 97//937
s 206
f 174//938 62//939 177//940
f 177//940 62//939 68//941
s 207
f 177//942 68//943 175//944
f 175//944 68//943 64//945
s 208
f 218//946 105//947 222//948
f 222//948 105//947 107//949
s 209
f 222//950 107//951 216//952
f 216//952 107//951 104//953
s 210
f 153//954 41//955 156//956
f 156//956 41//955 47//957
s 211
f 156//958 47//959 154//960
f 154//960 47//959 43//961
s 212
f 225//962 112//963 229//964
f 229//964 112//963 114//965
s 213
f 229//966 114//967 223//968
f 223//968 114//967 111//969
s 214
f 181//970 69//971 184//972
f 184//972 69//971 75//973
s 215
f 184//974 75//975 182//976
f 182//976 75//975 71//977
s 216
f 232//978 119//979 236//980
f 236//980 119//979 121//981
s 217
f 236//982 121//983 230//984
f 230//984 121//983 118//985
s 218
f 146//986 34//987 149//988
f 149//988 34//987 40//989
s 219
f 149//990 40//991 147//992
f 147//992 40//991 36//993
s 220
f 239//994 126//995 243//996
f 243//996 126//995 128//997
s 221
f 243//998 128//999 237//1000
f 237//1000 128//999 125//1001
s 222
f 188//1002 76//1003 191//1004
f 191//1004 76//1003 82//1005
s 223
f 191//1006 82//1007 189//1008
f 189//1008 82//1007 78//1009
s 224
f 246//1010 133//1011 250//1012
f 250//1012 133//1011 135//1013
s 225
f 250//1014 135//1015 244//1016
f 244//1016 135//1015 132//1017
s 226
f 139//1018 27//1019 142//1020
f 142//1020 27//1019 33//1021
s 227
f 142//1022 33//1023 140//1024
f 140//1024 33//1023 29//1025
s 228
f 139//1026 195//1027 27//1028
f 27//1028 195//1027 83//1029
s off
f 10//1030 1//1031 5//1032
