# This file uses centimeters as units for non-parametric coordinates.

mtllib d3.mtl
g default
v 371.573944 4.346775 229.292587
v 376.578247 7.859523 235.194122
v 369.393738 8.064585 228.928391
v 374.398010 11.577333 234.829926
v 374.584381 5.236383 232.328278
v 376.654785 10.537383 236.387878
v 371.387573 10.687721 231.794250
v 369.317169 5.386725 227.734619
v 372.985962 7.962054 232.061249
v 372.310425 2.791104 231.097412
v 377.646667 9.439056 238.610809
v 372.029297 12.356691 234.871246
v 366.693054 5.708742 227.357819
v 368.337524 2.904504 227.632553
v 368.254700 9.707129 230.419891
v 376.002228 12.243294 238.336090
v 376.085022 5.440671 235.548752
v 367.575317 5.388654 238.181030
v 368.169556 3.506799 234.298798
v 371.849182 6.089697 238.638199
v 370.246094 8.823387 238.370392
v 366.566467 6.240483 234.031006
v 366.263916 4.154343 233.431778
v 368.269470 8.281960 235.870239
v 371.659241 7.941591 239.794464
v 370.620056 4.273620 236.262939
v 369.051575 1.788321 230.019135
v 369.168457 1.837800 229.989075
v 369.132446 1.786011 230.089691
v 369.111420 1.809636 229.995941
v 369.121460 1.801089 230.020966
v 369.152252 1.808472 230.031525
v 369.090790 1.784058 230.052017
v 376.424957 6.904971 238.689697
v 376.493042 6.979284 238.626953
v 376.456757 6.986388 238.752075
v 376.467651 6.943518 238.658569
v 376.470459 6.959703 238.687622
v 376.483673 6.984588 238.690018
v 376.443909 6.945591 238.723572
v 373.279663 12.404181 238.221313
v 373.301971 12.420912 238.093872
v 373.198730 12.406491 238.150772
v 373.296600 12.419400 238.157623
v 373.268738 12.419466 238.152771
v 373.255798 12.420565 238.122025
v 373.240417 12.408442 238.188400
v 365.906250 7.287528 229.550720
v 365.977386 7.279428 229.456009
v 365.874451 7.206114 229.488403
v 365.940369 7.285522 229.494965
v 365.919739 7.260852 229.486084
v 365.924316 7.244452 229.463516
v 365.887268 7.246908 229.516846
v 365.763916 3.345534 227.767242
v 365.864136 3.359271 227.708740
v 365.797974 3.287457 227.772949
v 365.812561 3.351108 227.727859
v 365.808411 3.329136 227.734589
v 365.830048 3.321219 227.730789
v 365.776550 3.313395 227.764893
v 368.858765 11.124093 233.774414
v 368.894867 11.118966 233.651276
v 368.780579 11.069220 233.682251
v 368.878967 11.127405 233.708954
v 368.848267 11.112062 233.694946
v 368.838715 11.099159 233.661484
v 368.817749 11.099943 233.727997
v 376.567291 10.846968 240.473175
v 376.605133 10.898891 240.375580
v 376.533203 10.905043 240.467499
v 376.595154 10.877769 240.426056
v 376.581573 10.891333 240.439331
v 376.577606 10.907660 240.423126
v 376.554688 10.879107 240.475555
v 373.472443 3.068409 234.466034
v 373.574402 3.139197 234.433014
v 373.550629 3.123279 234.558197
v 373.528748 3.101475 234.444977
v 373.541779 3.108402 234.478973
v 373.568970 3.129717 234.492416
v 373.513458 3.092559 234.512421
v 367.203766 2.214702 228.564743
v 367.138550 2.244900 228.519775
v 367.259338 2.273076 228.448486
v 367.169128 2.227131 228.539307
v 367.201813 2.242911 228.503510
v 367.197479 2.257380 228.481659
v 367.230652 2.242062 228.504517
v 365.456451 5.113278 228.238770
v 365.458557 5.190729 228.273193
v 365.546326 5.194155 228.162323
v 365.454437 5.151093 228.252869
v 365.487244 5.166702 228.217117
v 365.500610 5.192253 228.215515
v 365.499512 5.152881 228.197983
v 367.056458 9.281958 231.406357
v 367.114288 9.357816 231.489319
v 367.173065 9.359133 231.351974
v 367.083099 9.320946 231.446259
v 367.115631 9.335949 231.410004
v 367.142548 9.359650 231.419617
v 367.113220 9.321078 231.377472
v 370.975189 12.067980 236.042496
v 371.062286 12.093834 236.130402
v 371.104919 12.119091 235.988800
v 371.018799 12.083631 236.087646
v 371.051147 12.098473 236.051117
v 371.084259 12.108543 236.060486
v 371.039978 12.095440 236.015839
v 375.127472 11.977800 239.675720
v 375.192688 11.947599 239.720673
v 375.243347 12.000965 239.598022
v 375.162109 11.965371 239.701111
v 375.193817 11.980227 239.664047
v 375.219940 11.976130 239.661285
v 375.186768 11.991447 239.638397
v 376.874725 9.079221 240.001678
v 376.872650 9.001773 239.967255
v 376.956329 9.079889 239.884186
v 376.876770 9.041409 239.987549
v 376.908386 9.056436 239.950470
v 376.916840 9.041259 239.927399
v 376.917908 9.080627 239.944931
v 375.274719 4.910547 236.834106
v 375.216919 4.834689 236.751114
v 375.329590 4.914909 236.694550
v 375.248108 4.871553 236.794159
v 375.279999 4.887186 236.757568
v 375.274872 4.873860 236.723297
v 375.304199 4.912431 236.765472
v 371.356049 2.124519 232.197937
v 371.268921 2.098668 232.110046
v 371.397736 2.154954 232.057709
v 371.312378 2.108868 232.152786
v 371.344482 2.124663 232.116455
v 371.333191 2.124966 232.082428
v 371.377441 2.138073 232.127060
v 368.898071 1.715307 230.192749
v 368.978943 1.712994 230.263321
v 368.871887 1.699941 230.329315
v 368.937286 1.711041 230.225647
v 368.908325 1.700316 230.262909
v 368.921753 1.699461 230.295563
v 368.879181 1.700679 230.258469
v 376.271423 6.831954 238.863342
v 376.303223 6.913374 238.925690
v 376.191010 6.837600 238.960754
v 376.290405 6.872574 238.897217
v 376.256317 6.858222 238.928375
v 376.250854 6.875217 238.951874
v 376.234100 6.832368 238.919067
v 373.126129 12.331163 238.394943
v 373.045227 12.333473 238.324402
v 373.002289 12.275185 238.428070
v 373.086884 12.335426 238.362061
v 373.055023 12.317234 238.393570
v 373.022522 12.308985 238.382538
v 373.065063 12.307770 238.419662
v 365.752747 7.214514 229.724365
v 365.720947 7.133097 229.662018
v 365.683167 7.137522 229.796600
v 365.733734 7.173891 229.690491
v 365.707062 7.159326 229.728104
v 365.693390 7.133232 229.726273
v 365.710144 7.176078 229.759064
v 365.610413 3.272517 227.940887
v 365.644470 3.214443 227.946579
v 365.571167 3.220905 228.050110
v 365.623016 3.240378 227.938522
v 365.596008 3.228282 227.976791
v 365.600342 3.211386 227.994659
v 365.582001 3.242706 227.991608
v 368.705261 11.051076 233.948044
v 368.627075 10.996202 233.855865
v 368.599487 10.974357 233.987854
v 368.664246 11.026926 233.901627
v 368.635315 11.010006 233.936218
v 368.606750 10.987179 233.922501
v 368.648926 11.016768 233.972214
v 376.413788 10.773951 240.646820
v 376.379700 10.832026 240.641113
v 376.303497 10.754463 240.706726
v 376.401184 10.806093 240.649170
v 376.367462 10.789309 240.679596
v 376.344055 10.797129 240.683304
v 376.362396 10.765812 240.686340
v 373.318909 2.995395 234.639648
v 373.397095 3.050262 234.731827
v 373.275208 3.001011 234.768951
v 373.359955 3.019545 234.686066
v 373.328125 3.007584 234.720184
v 373.337616 3.021339 234.755463
v 373.295441 2.991750 234.705750
v 367.050232 2.141685 228.738373
v 366.960663 2.142762 228.823242
v 366.985016 2.171883 228.693390
v 366.999298 2.134977 228.778320
v 366.988342 2.143374 228.751282
v 366.965027 2.150790 228.754669
v 367.015594 2.154117 228.712967
v 365.302948 5.040261 228.412399
v 365.254700 5.051856 228.538284
v 365.305054 5.117712 228.446823
v 365.269653 5.041872 228.471451
v 365.274963 5.065143 228.465057
v 365.270782 5.082549 228.489578
v 365.300964 5.078079 228.426514
v 366.902954 9.208941 231.579987
v 366.875854 9.202524 231.716919
v 366.960754 9.284801 231.662979
v 366.881195 9.205729 231.647186
v 366.902405 9.231915 231.656067
v 366.911469 9.245574 231.690720
v 366.929565 9.247932 231.619904
v 370.821655 11.994967 236.216125
v 370.791565 11.951158 236.334732
v 370.908783 12.020817 236.304047
v 370.802948 11.977188 236.279938
v 370.835175 11.992527 236.293991
v 370.848694 11.990718 236.326080
v 370.865295 12.010617 236.261292
v 374.973938 11.904786 239.849350
v 374.915771 11.833440 239.931564
v 375.039154 11.874585 239.894302
v 374.945587 11.873778 239.899063
v 374.975372 11.874353 239.904755
v 374.979858 11.857968 239.922729
v 375.008575 11.892354 239.874725
v 376.721222 9.006207 240.175293
v 376.621704 8.924346 240.216522
v 376.719116 8.928759 240.140869
v 376.675262 8.966886 240.205948
v 376.688751 8.952585 240.191010
v 376.674103 8.926212 240.187820
v 376.723267 8.968392 240.161179
v 375.121185 4.837533 237.007736
v 375.000580 4.773681 237.037872
v 375.063416 4.761672 236.924744
v 375.063690 4.803030 237.030182
v 375.061371 4.785810 237.000000
v 375.033386 4.763187 236.986664
v 375.094604 4.798536 236.967804
v 371.202515 2.051502 232.371582
v 371.084900 2.025045 232.420074
v 371.115387 2.025654 232.283691
v 371.141907 2.031570 232.397430
v 371.128540 2.025204 232.362061
v 371.096191 2.018043 232.351318
v 371.158875 2.035851 232.326416
vn 0.089562 0.702873 -0.705655
vn 0.089562 0.702873 -0.705655
vn 0.089562 0.702873 -0.705655
vn 0.507496 -0.165515 -0.845608
vn 0.507496 -0.165515 -0.845608
vn 0.507496 -0.165515 -0.845608
vn 0.885887 -0.238932 -0.397638
vn 0.885887 -0.238932 -0.397638
vn 0.885887 -0.238932 -0.397638
vn 0.631760 0.300476 -0.714559
vn 0.631760 0.300476 -0.714559
vn 0.631760 0.300476 -0.714559
vn 0.631760 0.300476 -0.714559
vn 0.644458 -0.669670 0.369074
vn 0.622645 -0.707101 0.335143
vn 0.705963 -0.641230 0.300733
vn 0.676008 -0.684175 0.273712
vn 0.023709 -0.786101 -0.617643
vn -0.353489 -0.294274 -0.887946
vn -0.146964 -0.678783 -0.719482
vn -0.783699 -0.099832 -0.613065
vn -0.819791 0.073076 -0.567981
vn -0.694324 -0.057025 -0.717400
vn -0.741754 0.117816 -0.660242
vn -0.532969 0.772583 -0.345050
vn -0.382366 0.899550 -0.211203
vn -0.494043 0.828370 -0.264055
vn -0.717493 0.634934 -0.286467
vn -0.696668 0.671895 -0.251419
vn -0.657402 0.664327 -0.355658
vn -0.643266 0.699748 -0.310745
vn 0.254412 0.918380 0.303072
vn 0.761286 0.488230 0.426702
vn 0.421537 0.809375 0.408923
vn -0.130725 0.920089 0.369252
vn -0.066692 0.903697 0.422946
vn -0.058209 0.956237 0.286744
vn 0.001182 0.936150 0.351598
vn 0.712380 -0.687252 0.142126
vn 0.609353 -0.791591 -0.045533
vn 0.652579 -0.752967 0.084741
vn 0.927760 0.129490 -0.349991
vn 0.927760 0.129490 -0.349991
vn 0.927760 0.129490 -0.349991
vn 0.262433 0.824219 -0.501788
vn 0.262433 0.824219 -0.501788
vn 0.262433 0.824219 -0.501788
vn 0.177969 0.396415 -0.900657
vn 0.177969 0.396415 -0.900657
vn 0.177969 0.396415 -0.900657
vn 0.598233 0.691419 -0.405039
vn 0.598233 0.691419 -0.405039
vn 0.598233 0.691419 -0.405039
vn 0.631760 0.300476 -0.714559
vn 0.631760 0.300476 -0.714559
vn 0.631760 0.300476 -0.714559
vn 0.631760 0.300476 -0.714559
vn 0.631760 0.300476 -0.714559
vn 0.631760 0.300476 -0.714559
vn 0.631760 0.300476 -0.714559
vn 0.631760 0.300476 -0.714559
vn 0.631760 0.300476 -0.714559
vn 0.631760 0.300476 -0.714559
vn 0.631760 0.300476 -0.714559
vn 0.631760 0.300476 -0.714559
vn 0.260908 -0.961022 -0.091450
vn 0.221610 -0.966487 -0.129586
vn 0.316348 -0.936638 -0.150442
vn 0.282516 -0.938470 -0.198645
vn -0.470889 0.881832 0.025221
vn -0.437445 0.896875 0.065243
vn -0.419190 0.907273 -0.033705
vn -0.388198 0.921507 0.011307
vn -0.291682 -0.827500 -0.479756
vn -0.419924 -0.720164 -0.552293
vn -0.206692 -0.794607 -0.570858
vn -0.330019 -0.678264 -0.656541
vn -0.259602 0.649032 -0.715098
vn -0.259602 0.649032 -0.715098
vn -0.259602 0.649032 -0.715098
vn -0.259602 0.649032 -0.715098
vn -0.806380 0.384472 -0.449368
vn -0.790059 0.457270 -0.408303
vn -0.743023 0.413760 -0.526042
vn -0.717953 0.493131 -0.491289
vn 0.673728 0.047528 0.737449
vn 0.705951 -0.127221 0.696741
vn 0.766147 0.091186 0.636163
vn 0.790491 -0.094636 0.605118
vn -0.624063 0.765879 -0.154840
vn -0.594250 0.795239 -0.120260
vn -0.576853 0.789081 -0.211168
vn -0.542599 0.820646 -0.179238
vn 0.189389 0.964201 -0.185602
vn 0.189389 0.964201 -0.185602
vn 0.189389 0.964201 -0.185602
vn 0.189389 0.964201 -0.185602
vn -0.334933 0.925815 0.175177
vn -0.294648 0.931749 0.212196
vn -0.283600 0.952214 0.113402
vn -0.233949 0.961569 0.143713
vn 0.407029 -0.912205 0.047008
vn 0.369859 -0.929020 0.011201
vn 0.459459 -0.888120 -0.011842
vn 0.417971 -0.907346 -0.044982
vn 0.177836 0.773352 0.608524
vn 0.309951 0.667859 0.676680
vn 0.255428 0.817786 0.515735
vn 0.401840 0.712423 0.575307
vn 0.944419 -0.323321 -0.059472
vn 0.944419 -0.323321 -0.059472
vn 0.944419 -0.323321 -0.059472
vn 0.944419 -0.323321 -0.059472
vn 0.714379 -0.428230 0.553428
vn 0.701648 -0.499319 0.508301
vn 0.781940 -0.395250 0.482024
vn 0.775640 -0.465694 0.426042
vn -0.437815 -0.844970 0.307154
vn -0.471482 -0.880272 0.053166
vn -0.204734 -0.962369 0.178691
vn 0.556481 -0.798022 0.231280
vn 0.530391 -0.825611 0.192488
vn 0.606621 -0.774923 0.177499
vn 0.582865 -0.801495 0.133694
vn 0.495427 -0.638490 -0.588967
vn 0.495427 -0.638490 -0.588967
vn 0.495427 -0.638490 -0.588967
vn 0.495427 -0.638490 -0.588967
vn 0.025870 -0.800554 0.598702
vn 0.025870 -0.800554 0.598702
vn 0.025870 -0.800554 0.598702
vn 0.025870 -0.800554 0.598702
vn -0.432296 -0.842768 0.320723
vn -0.432296 -0.842768 0.320723
vn -0.432296 -0.842768 0.320723
vn -0.432296 -0.842768 0.320723
vn -0.970136 0.074390 0.230874
vn -0.970136 0.074390 0.230874
vn -0.970136 0.074390 0.230874
vn -0.970136 0.074390 0.230874
vn -0.849699 0.408726 0.333098
vn -0.849699 0.408726 0.333098
vn -0.849699 0.408726 0.333098
vn -0.849699 0.408726 0.333098
vn -0.731806 0.491481 0.472129
vn -0.731806 0.491481 0.472129
vn -0.731806 0.491481 0.472129
vn -0.731806 0.491481 0.472129
vn -0.522310 0.388740 0.758995
vn -0.522310 0.388740 0.758995
vn -0.522310 0.388740 0.758995
vn -0.522310 0.388740 0.758995
vn 0.015530 -0.528417 0.848843
vn 0.015530 -0.528417 0.848843
vn 0.015530 -0.528417 0.848843
vn 0.015530 -0.528417 0.848843
vn -0.021677 -0.779763 0.625699
vn 0.122385 -0.895000 0.428949
vn 0.255345 -0.790374 0.556873
vn -0.092023 -0.883309 0.459671
vn -0.092023 -0.883309 0.459671
vn -0.092023 -0.883309 0.459671
vn -0.092023 -0.883309 0.459671
vn 0.067957 -0.700790 0.710123
vn 0.255345 -0.790374 0.556873
vn 0.259663 -0.636384 0.726354
vn 0.026010 -0.519389 0.854142
vn 0.259663 -0.636384 0.726354
vn 0.240637 -0.380404 0.892965
vn -0.324804 0.239559 0.914939
vn 0.026975 0.113119 0.993215
vn -0.287076 0.519488 0.804810
vn -0.509782 0.394276 0.764636
vn -0.287076 0.519488 0.804810
vn -0.485396 0.634131 0.601888
vn -0.634116 0.496426 0.592839
vn -0.485396 0.634131 0.601888
vn -0.606569 0.679408 0.412890
vn -0.138796 -0.861975 0.487581
vn 0.007543 -0.964316 0.264646
vn 0.122385 -0.895000 0.428949
vn -0.856587 0.362045 0.367671
vn -0.751766 0.595655 0.282919
vn -0.854367 0.505469 0.120658
vn -0.920912 0.295110 0.254621
vn -0.854367 0.505469 0.120658
vn -0.949793 0.308146 0.054225
vn -0.973607 0.068695 0.217648
vn -0.949793 0.308146 0.054225
vn -0.999195 0.019620 -0.034990
vn -0.029837 -0.263438 0.964215
vn 0.240637 -0.380404 0.892965
vn 0.026975 0.113119 0.993215
vn -0.669578 -0.712505 0.209768
vn -0.859229 -0.508954 -0.051885
vn -0.471482 -0.880272 0.053166
vn -0.964546 -0.209508 0.160493
vn -0.999195 0.019620 -0.034990
vn -0.859229 -0.508954 -0.051885
vn -0.218839 -0.902107 0.371905
vn -0.204734 -0.962369 0.178691
vn 0.007543 -0.964316 0.264646
vn -0.739468 0.444257 0.505789
vn -0.606569 0.679408 0.412890
vn -0.751766 0.595655 0.282919
vn 0.048192 -0.069353 -0.996427
vn 0.048192 -0.069353 -0.996427
vn 0.048192 -0.069353 -0.996427
vn 0.048192 -0.069353 -0.996427
vn -0.617091 0.306628 -0.724692
vn -0.599397 0.092732 -0.795063
vn -0.353489 -0.294274 -0.887946
vn -0.636650 0.497263 -0.589411
vn -0.617091 0.306628 -0.724692
vn -0.562538 0.626371 -0.539639
vn -0.532969 0.772583 -0.345050
vn -0.579085 0.705464 -0.408633
vn -0.562538 0.626371 -0.539639
vn -0.149184 0.900131 -0.409279
vn -0.149184 0.900131 -0.409279
vn -0.149184 0.900131 -0.409279
vn -0.149184 0.900131 -0.409279
vn -0.257211 0.966151 -0.019847
vn -0.338697 0.937415 -0.080856
vn -0.382366 0.899550 -0.211203
vn -0.186653 0.980932 0.054162
vn -0.257211 0.966151 -0.019847
vn -0.035915 0.996034 0.081405
vn 0.254412 0.918380 0.303072
vn 0.044949 0.975712 0.214398
vn -0.035915 0.996034 0.081405
vn 0.863579 0.503008 -0.034842
vn 0.863579 0.503008 -0.034842
vn 0.863579 0.503008 -0.034842
vn 0.863579 0.503008 -0.034842
vn 0.895212 -0.174348 0.410120
vn 0.873969 0.037860 0.484504
vn 0.761286 0.488230 0.426702
vn 0.849395 -0.396078 0.348784
vn 0.895212 -0.174348 0.410120
vn 0.838522 -0.495108 0.227485
vn 0.712380 -0.687252 0.142126
vn 0.753608 -0.622458 0.211236
vn 0.838522 -0.495108 0.227485
vn 0.741361 -0.618480 -0.260510
vn 0.741361 -0.618480 -0.260510
vn 0.741361 -0.618480 -0.260510
vn 0.741361 -0.618480 -0.260510
vn 0.436620 -0.880821 -0.183076
vn 0.497233 -0.862013 -0.098458
vn 0.609353 -0.791591 -0.045533
vn 0.361176 -0.897926 -0.251558
vn 0.436620 -0.880821 -0.183076
vn 0.311900 -0.864770 -0.393562
vn 0.023709 -0.786101 -0.617643
vn 0.167796 -0.874527 -0.455025
vn 0.311900 -0.864770 -0.393562
vn 0.115897 -0.928800 -0.351993
vn 0.220266 -0.872445 -0.436260
vn 0.205104 -0.939905 -0.272968
vn 0.274947 -0.896082 -0.348484
vn 0.311900 -0.864770 -0.393562
vn 0.346692 -0.887094 -0.304743
vn 0.220266 -0.872445 -0.436260
vn 0.274947 -0.896082 -0.348484
vn 0.282516 -0.938470 -0.198645
vn 0.205104 -0.939905 -0.272968
vn 0.346692 -0.887094 -0.304743
vn 0.274947 -0.896082 -0.348484
vn 0.705963 -0.641230 0.300733
vn 0.787398 -0.577741 0.214990
vn 0.743737 -0.561811 0.362249
vn 0.805569 -0.523612 0.277290
vn 0.838522 -0.495108 0.227485
vn 0.849107 -0.431029 0.305337
vn 0.787398 -0.577741 0.214990
vn 0.805569 -0.523612 0.277290
vn 0.775640 -0.465694 0.426042
vn 0.743737 -0.561811 0.362249
vn 0.849107 -0.431029 0.305337
vn 0.805569 -0.523612 0.277290
vn -0.058209 0.956237 0.286744
vn 0.018210 0.985868 0.166529
vn -0.151772 0.965270 0.212646
vn -0.081045 0.988305 0.129170
vn -0.035915 0.996034 0.081405
vn -0.131600 0.989396 0.061461
vn 0.018210 0.985868 0.166529
vn -0.081045 0.988305 0.129170
vn -0.233949 0.961569 0.143713
vn -0.151772 0.965270 0.212646
vn -0.131600 0.989396 0.061461
vn -0.081045 0.988305 0.129170
vn -0.657402 0.664327 -0.355658
vn -0.572314 0.680038 -0.458262
vn -0.690411 0.587174 -0.422563
vn -0.611678 0.615830 -0.496592
vn -0.562538 0.626371 -0.539639
vn -0.610635 0.544451 -0.575063
vn -0.572314 0.680038 -0.458262
vn -0.611678 0.615830 -0.496592
vn -0.717953 0.493131 -0.491289
vn -0.690411 0.587174 -0.422563
vn -0.610635 0.544451 -0.575063
vn -0.611678 0.615830 -0.496592
vn -0.516876 -0.065313 -0.853565
vn -0.456146 -0.347719 -0.819159
vn -0.694324 -0.057025 -0.717400
vn -0.553330 -0.396255 -0.732672
vn -0.353489 -0.294274 -0.887946
vn -0.238377 -0.540236 -0.807045
vn -0.516876 -0.065313 -0.853565
vn -0.456146 -0.347719 -0.819159
vn -0.553330 -0.396255 -0.732672
vn -0.456146 -0.347719 -0.819159
vn -0.330019 -0.678264 -0.656541
vn -0.238377 -0.540236 -0.807045
vn -0.419190 0.907273 -0.033705
vn -0.361201 0.924763 -0.119780
vn -0.485997 0.867706 -0.104374
vn -0.426878 0.888750 -0.167031
vn -0.462939 0.853348 -0.239759
vn -0.426878 0.888750 -0.167031
vn -0.382366 0.899550 -0.211203
vn -0.361201 0.924763 -0.119780
vn -0.542599 0.820646 -0.179238
vn -0.485997 0.867706 -0.104374
vn -0.462939 0.853348 -0.239759
vn -0.426878 0.888750 -0.167031
vn 0.850137 0.223818 0.476627
vn 0.699603 0.463511 0.543795
vn 0.766147 0.091186 0.636163
vn 0.622698 0.429248 0.654212
vn 0.761286 0.488230 0.426702
vn 0.571638 0.698740 0.430107
vn 0.850137 0.223818 0.476627
vn 0.699603 0.463511 0.543795
vn 0.622698 0.429248 0.654212
vn 0.699603 0.463511 0.543795
vn 0.401840 0.712423 0.575307
vn 0.571638 0.698740 0.430107
vn 0.459459 -0.888120 -0.011842
vn 0.532113 -0.843474 -0.073532
vn 0.521720 -0.850715 0.063969
vn 0.574352 -0.818608 0.000228
vn 0.633851 -0.772060 0.046447
vn 0.574352 -0.818608 0.000228
vn 0.609353 -0.791591 -0.045533
vn 0.532113 -0.843474 -0.073532
vn 0.582865 -0.801495 0.133694
vn 0.521720 -0.850715 0.063969
vn 0.633851 -0.772060 0.046447
vn 0.574352 -0.818608 0.000228
vn -0.093768 -0.880433 -0.464807
vn -0.075550 -0.872160 -0.483352
vn 0.037734 -0.917641 -0.395615
vn 0.068872 -0.877862 -0.473936
vn -0.110875 -0.771141 -0.626935
vn -0.075550 -0.872160 -0.483352
vn -0.206692 -0.794607 -0.570858
vn -0.093768 -0.880433 -0.464807
vn 0.023709 -0.786101 -0.617643
vn 0.068872 -0.877862 -0.473936
vn -0.110875 -0.771141 -0.626935
vn -0.075550 -0.872160 -0.483352
vn -0.769587 0.272024 -0.577702
vn -0.751881 0.281173 -0.596336
vn -0.741754 0.117816 -0.660242
vn -0.669532 0.181517 -0.720263
vn -0.686588 0.410401 -0.600140
vn -0.751881 0.281173 -0.596336
vn -0.743023 0.413760 -0.526042
vn -0.769587 0.272024 -0.577702
vn -0.617091 0.306628 -0.724692
vn -0.669532 0.181517 -0.720263
vn -0.686588 0.410401 -0.600140
vn -0.751881 0.281173 -0.596336
vn -0.643266 0.699748 -0.310745
vn -0.622978 0.742415 -0.246412
vn -0.591420 0.726326 -0.350246
vn -0.609533 0.748486 -0.261226
vn -0.576853 0.789081 -0.211168
vn -0.541957 0.797785 -0.264237
vn -0.622978 0.742415 -0.246412
vn -0.609533 0.748486 -0.261226
vn -0.532969 0.772583 -0.345050
vn -0.591420 0.726326 -0.350246
vn -0.541957 0.797785 -0.264237
vn -0.609533 0.748486 -0.261226
vn -0.388198 0.921507 0.011307
vn -0.350780 0.933483 0.074584
vn -0.338337 0.940716 -0.024108
vn -0.337500 0.939438 0.059578
vn -0.283600 0.952214 0.113402
vn -0.248345 0.967146 0.054337
vn -0.350780 0.933483 0.074584
vn -0.337500 0.939438 0.059578
vn -0.257211 0.966151 -0.019847
vn -0.338337 0.940716 -0.024108
vn -0.248345 0.967146 0.054337
vn -0.337500 0.939438 0.059578
vn 0.104310 0.885448 0.452882
vn 0.120520 0.893549 0.432488
vn 0.001182 0.936150 0.351598
vn 0.080714 0.949008 0.304744
vn 0.295635 0.859016 0.417961
vn 0.120520 0.893549 0.432488
vn 0.255428 0.817786 0.515735
vn 0.104310 0.885448 0.452882
vn 0.254412 0.918380 0.303072
vn 0.080714 0.949008 0.304744
vn 0.295635 0.859016 0.417961
vn 0.120520 0.893549 0.432488
vn 0.780131 -0.267009 0.565776
vn 0.796856 -0.259782 0.545467
vn 0.790491 -0.094636 0.605118
vn 0.854295 -0.093641 0.511285
vn 0.836179 -0.339253 0.430943
vn 0.796856 -0.259782 0.545467
vn 0.781940 -0.395250 0.482024
vn 0.780131 -0.267009 0.565776
vn 0.895212 -0.174348 0.410120
vn 0.854295 -0.093641 0.511285
vn 0.836179 -0.339253 0.430943
vn 0.796856 -0.259782 0.545467
vn 0.676008 -0.684175 0.273712
vn 0.630030 -0.739061 0.238435
vn 0.711302 -0.669308 0.214652
vn 0.642997 -0.732570 0.223376
vn 0.606621 -0.774923 0.177499
vn 0.650798 -0.746019 0.141131
vn 0.630030 -0.739061 0.238435
vn 0.642997 -0.732570 0.223376
vn 0.712380 -0.687252 0.142126
vn 0.711302 -0.669308 0.214652
vn 0.650798 -0.746019 0.141131
vn 0.642997 -0.732570 0.223376
vn 0.417971 -0.907346 -0.044982
vn 0.357838 -0.930126 -0.082567
vn 0.447179 -0.888949 -0.098998
vn 0.370968 -0.923520 -0.097433
vn 0.316348 -0.936638 -0.150442
vn 0.368231 -0.910126 -0.189936
vn 0.357838 -0.930126 -0.082567
vn 0.370968 -0.923520 -0.097433
vn 0.436620 -0.880821 -0.183076
vn 0.447179 -0.888949 -0.098998
vn 0.368231 -0.910126 -0.189936
vn 0.370968 -0.923520 -0.097433
vn 0.042312 -0.962140 -0.269251
vn 0.146274 -0.967337 -0.207034
vn -0.071905 -0.991931 -0.104416
vn 0.070859 -0.990522 -0.117664
vn 0.090299 -0.995806 -0.014688
vn 0.070859 -0.990522 -0.117664
vn 0.221610 -0.966487 -0.129586
vn 0.146274 -0.967337 -0.207034
vn -0.204734 -0.962369 0.178691
vn -0.071905 -0.991931 -0.104416
vn 0.090299 -0.995806 -0.014688
vn 0.070859 -0.990522 -0.117664
vn 0.685139 -0.589082 0.428447
vn 0.600216 -0.618939 0.506611
vn 0.644458 -0.669670 0.369074
vn 0.524516 -0.691008 0.497384
vn 0.701648 -0.499319 0.508301
vn 0.546328 -0.557960 0.624665
vn 0.685139 -0.589082 0.428447
vn 0.600216 -0.618939 0.506611
vn 0.259663 -0.636384 0.726354
vn 0.524516 -0.691008 0.497384
vn 0.546328 -0.557960 0.624665
vn 0.600216 -0.618939 0.506611
vn -0.130725 0.920089 0.369252
vn -0.209846 0.937101 0.278938
vn -0.267813 0.830355 0.488658
vn -0.284122 0.889091 0.358877
vn -0.383023 0.856582 0.345776
vn -0.284122 0.889091 0.358877
vn -0.294648 0.931749 0.212196
vn -0.209846 0.937101 0.278938
vn -0.485396 0.634131 0.601888
vn -0.267813 0.830355 0.488658
vn -0.383023 0.856582 0.345776
vn -0.284122 0.889091 0.358877
vn -0.748710 0.558846 -0.356545
vn -0.813483 0.517506 -0.265394
vn -0.717493 0.634934 -0.286467
vn -0.817240 0.551783 -0.166295
vn -0.790059 0.457270 -0.408303
vn -0.886045 0.396384 -0.240424
vn -0.748710 0.558846 -0.356545
vn -0.813483 0.517506 -0.265394
vn -0.949793 0.308146 0.054225
vn -0.817240 0.551783 -0.166295
vn -0.886045 0.396384 -0.240424
vn -0.813483 0.517506 -0.265394
vn -0.631533 -0.433334 -0.642952
vn -0.713785 -0.469489 -0.519704
vn -0.783699 -0.099832 -0.613065
vn -0.885859 -0.247587 -0.392371
vn -0.616943 -0.706158 -0.347450
vn -0.713785 -0.469489 -0.519704
vn -0.419924 -0.720164 -0.552293
vn -0.631533 -0.433334 -0.642952
vn -0.859229 -0.508954 -0.051885
vn -0.885859 -0.247587 -0.392371
vn -0.616943 -0.706158 -0.347450
vn -0.713785 -0.469489 -0.519704
vn -0.470889 0.881832 0.025221
vn -0.526526 0.848153 -0.058368
vn -0.566688 0.815226 0.119467
vn -0.583366 0.812131 0.011273
vn -0.594250 0.795239 -0.120260
vn -0.668262 0.743926 -0.000322
vn -0.526526 0.848153 -0.058368
vn -0.583366 0.812131 0.011273
vn -0.751766 0.595655 0.282919
vn -0.566688 0.815226 0.119467
vn -0.668262 0.743926 -0.000322
vn -0.583366 0.812131 0.011273
vn 0.543395 0.391413 0.742642
vn 0.434987 0.336888 0.835041
vn 0.673728 0.047528 0.737449
vn 0.438988 0.035047 0.897809
vn 0.170075 0.493620 0.852886
vn 0.434987 0.336888 0.835041
vn 0.309951 0.667859 0.676680
vn 0.543395 0.391413 0.742642
vn 0.026975 0.113119 0.993215
vn 0.438988 0.035047 0.897809
vn 0.170075 0.493620 0.852886
vn 0.434987 0.336888 0.835041
vn 0.407029 -0.912205 0.047008
vn 0.480937 -0.869836 0.109931
vn 0.315979 -0.934467 0.164100
vn 0.415853 -0.891803 0.178194
vn 0.530391 -0.825611 0.192488
vn 0.417556 -0.863166 0.283885
vn 0.480937 -0.869836 0.109931
vn 0.415853 -0.891803 0.178194
vn 0.122385 -0.895000 0.428949
vn 0.315979 -0.934467 0.164100
vn 0.417556 -0.863166 0.283885
vn 0.415853 -0.891803 0.178194
vn -0.191276 -0.968100 -0.161851
vn -0.233532 -0.927012 -0.293447
vn -0.025310 -0.947455 -0.318887
vn -0.144813 -0.900186 -0.410724
vn -0.471482 -0.880272 0.053166
vn -0.415921 -0.873464 -0.253120
vn -0.191276 -0.968100 -0.161851
vn -0.233532 -0.927012 -0.293447
vn -0.144813 -0.900186 -0.410724
vn -0.233532 -0.927012 -0.293447
vn -0.291682 -0.827500 -0.479756
vn -0.415921 -0.873464 -0.253120
vn -0.939969 0.020189 -0.340663
vn -0.893237 0.197977 -0.403648
vn -0.819791 0.073076 -0.567981
vn -0.816402 0.245055 -0.522912
vn -0.999195 0.019620 -0.034990
vn -0.919228 0.273259 -0.283461
vn -0.939969 0.020189 -0.340663
vn -0.893237 0.197977 -0.403648
vn -0.816402 0.245055 -0.522912
vn -0.893237 0.197977 -0.403648
vn -0.806380 0.384472 -0.449368
vn -0.919228 0.273259 -0.283461
vn -0.696668 0.671895 -0.251419
vn -0.782718 0.611465 -0.116029
vn -0.655327 0.725599 -0.209886
vn -0.719283 0.683308 -0.125388
vn -0.854367 0.505469 0.120658
vn -0.717980 0.694540 -0.046025
vn -0.782718 0.611465 -0.116029
vn -0.719283 0.683308 -0.125388
vn -0.624063 0.765879 -0.154840
vn -0.655327 0.725599 -0.209886
vn -0.717980 0.694540 -0.046025
vn -0.719283 0.683308 -0.125388
vn -0.437445 0.896875 0.065243
vn -0.520496 0.833163 0.186878
vn -0.382388 0.917189 0.111996
vn -0.450512 0.871971 0.191586
vn -0.606569 0.679408 0.412890
vn -0.442624 0.850194 0.285051
vn -0.520496 0.833163 0.186878
vn -0.450512 0.871971 0.191586
vn -0.334933 0.925815 0.175177
vn -0.382388 0.917189 0.111996
vn -0.442624 0.850194 0.285051
vn -0.450512 0.871971 0.191586
vn -0.182826 0.790171 0.584983
vn -0.039889 0.796969 0.602702
vn -0.066692 0.903697 0.422946
vn 0.058281 0.859030 0.508597
vn -0.287076 0.519488 0.804810
vn -0.019169 0.666528 0.745234
vn -0.182826 0.790171 0.584983
vn -0.039889 0.796969 0.602702
vn 0.058281 0.859030 0.508597
vn -0.039889 0.796969 0.602702
vn 0.177836 0.773352 0.608524
vn -0.019169 0.666528 0.745234
vn 0.504883 -0.227123 0.832771
vn 0.619820 -0.328019 0.712900
vn 0.705951 -0.127221 0.696741
vn 0.729869 -0.286211 0.620785
vn 0.240637 -0.380404 0.892965
vn 0.545133 -0.451185 0.706585
vn 0.504883 -0.227123 0.832771
vn 0.619820 -0.328019 0.712900
vn 0.729869 -0.286211 0.620785
vn 0.619820 -0.328019 0.712900
vn 0.714379 -0.428230 0.553428
vn 0.545133 -0.451185 0.706585
vn 0.622645 -0.707101 0.335143
vn 0.494826 -0.748392 0.441652
vn 0.597195 -0.753248 0.275637
vn 0.517753 -0.779159 0.353332
vn 0.255345 -0.790374 0.556873
vn 0.450101 -0.821948 0.349013
vn 0.494826 -0.748392 0.441652
vn 0.517753 -0.779159 0.353332
vn 0.556481 -0.798022 0.231280
vn 0.597195 -0.753248 0.275637
vn 0.450101 -0.821948 0.349013
vn 0.517753 -0.779159 0.353332
vn 0.369859 -0.929020 0.011201
vn 0.252607 -0.960576 0.116121
vn 0.324251 -0.944840 -0.046240
vn 0.248971 -0.967828 0.036370
vn 0.007543 -0.964316 0.264646
vn 0.154725 -0.987124 0.040580
vn 0.252607 -0.960576 0.116121
vn 0.248971 -0.967828 0.036370
vn 0.260908 -0.961022 -0.091450
vn 0.324251 -0.944840 -0.046240
vn 0.154725 -0.987124 0.040580
vn 0.248971 -0.967828 0.036370
vn 0.311900 -0.864770 -0.393562
vn 0.220266 -0.872445 -0.436260
vn 0.023709 -0.786101 -0.617643
vn 0.068872 -0.877862 -0.473936
vn 0.220266 -0.872445 -0.436260
vn 0.115897 -0.928800 -0.351993
vn 0.068872 -0.877862 -0.473936
vn 0.037734 -0.917641 -0.395615
vn -0.617091 0.306628 -0.724692
vn -0.353489 -0.294274 -0.887946
vn -0.669532 0.181517 -0.720263
vn -0.516876 -0.065313 -0.853565
vn -0.669532 0.181517 -0.720263
vn -0.516876 -0.065313 -0.853565
vn -0.741754 0.117816 -0.660242
vn -0.694324 -0.057025 -0.717400
vn -0.532969 0.772583 -0.345050
vn -0.562538 0.626371 -0.539639
vn -0.591420 0.726326 -0.350246
vn -0.572314 0.680038 -0.458262
vn -0.591420 0.726326 -0.350246
vn -0.572314 0.680038 -0.458262
vn -0.643266 0.699748 -0.310745
vn -0.657402 0.664327 -0.355658
vn -0.257211 0.966151 -0.019847
vn -0.382366 0.899550 -0.211203
vn -0.338337 0.940716 -0.024108
vn -0.361201 0.924763 -0.119780
vn -0.338337 0.940716 -0.024108
vn -0.361201 0.924763 -0.119780
vn -0.388198 0.921507 0.011307
vn -0.419190 0.907273 -0.033705
vn -0.035915 0.996034 0.081405
vn 0.018210 0.985868 0.166529
vn 0.254412 0.918380 0.303072
vn 0.080714 0.949008 0.304744
vn 0.018210 0.985868 0.166529
vn -0.058209 0.956237 0.286744
vn 0.080714 0.949008 0.304744
vn 0.001182 0.936150 0.351598
vn 0.895212 -0.174348 0.410120
vn 0.761286 0.488230 0.426702
vn 0.854295 -0.093641 0.511285
vn 0.850137 0.223818 0.476627
vn 0.854295 -0.093641 0.511285
vn 0.850137 0.223818 0.476627
vn 0.790491 -0.094636 0.605118
vn 0.766147 0.091186 0.636163
vn 0.712380 -0.687252 0.142126
vn 0.838522 -0.495108 0.227485
vn 0.711302 -0.669308 0.214652
vn 0.787398 -0.577741 0.214990
vn 0.711302 -0.669308 0.214652
vn 0.787398 -0.577741 0.214990
vn 0.676008 -0.684175 0.273712
vn 0.705963 -0.641230 0.300733
vn 0.436620 -0.880821 -0.183076
vn 0.609353 -0.791591 -0.045533
vn 0.447179 -0.888949 -0.098998
vn 0.532113 -0.843474 -0.073532
vn 0.447179 -0.888949 -0.098998
vn 0.532113 -0.843474 -0.073532
vn 0.417971 -0.907346 -0.044982
vn 0.459459 -0.888120 -0.011842
vn 0.023709 -0.786101 -0.617643
vn -0.110875 -0.771141 -0.626935
vn -0.353489 -0.294274 -0.887946
vn -0.238377 -0.540236 -0.807045
vn -0.110875 -0.771141 -0.626935
vn -0.206692 -0.794607 -0.570858
vn -0.238377 -0.540236 -0.807045
vn -0.330019 -0.678264 -0.656541
vn -0.562538 0.626371 -0.539639
vn -0.617091 0.306628 -0.724692
vn -0.610635 0.544451 -0.575063
vn -0.686588 0.410401 -0.600140
vn -0.610635 0.544451 -0.575063
vn -0.686588 0.410401 -0.600140
vn -0.717953 0.493131 -0.491289
vn -0.743023 0.413760 -0.526042
vn -0.382366 0.899550 -0.211203
vn -0.532969 0.772583 -0.345050
vn -0.462939 0.853348 -0.239759
vn -0.541957 0.797785 -0.264237
vn -0.462939 0.853348 -0.239759
vn -0.541957 0.797785 -0.264237
vn -0.542599 0.820646 -0.179238
vn -0.576853 0.789081 -0.211168
vn -0.257211 0.966151 -0.019847
vn -0.248345 0.967146 0.054337
vn -0.035915 0.996034 0.081405
vn -0.131600 0.989396 0.061461
vn -0.248345 0.967146 0.054337
vn -0.283600 0.952214 0.113402
vn -0.131600 0.989396 0.061461
vn -0.233949 0.961569 0.143713
vn 0.254412 0.918380 0.303072
vn 0.295635 0.859016 0.417961
vn 0.761286 0.488230 0.426702
vn 0.571638 0.698740 0.430107
vn 0.295635 0.859016 0.417961
vn 0.255428 0.817786 0.515735
vn 0.571638 0.698740 0.430107
vn 0.401840 0.712423 0.575307
vn 0.838522 -0.495108 0.227485
vn 0.895212 -0.174348 0.410120
vn 0.849107 -0.431029 0.305337
vn 0.836179 -0.339253 0.430943
vn 0.849107 -0.431029 0.305337
vn 0.836179 -0.339253 0.430943
vn 0.775640 -0.465694 0.426042
vn 0.781940 -0.395250 0.482024
vn 0.609353 -0.791591 -0.045533
vn 0.712380 -0.687252 0.142126
vn 0.633851 -0.772060 0.046447
vn 0.650798 -0.746019 0.141131
vn 0.633851 -0.772060 0.046447
vn 0.650798 -0.746019 0.141131
vn 0.582865 -0.801495 0.133694
vn 0.606621 -0.774923 0.177499
vn 0.436620 -0.880821 -0.183076
vn 0.368231 -0.910126 -0.189936
vn 0.311900 -0.864770 -0.393562
vn 0.346692 -0.887094 -0.304743
vn 0.368231 -0.910126 -0.189936
vn 0.316348 -0.936638 -0.150442
vn 0.346692 -0.887094 -0.304743
vn 0.282516 -0.938470 -0.198645
vn -0.025310 -0.947455 -0.318887
vn 0.042312 -0.962140 -0.269251
vn -0.191276 -0.968100 -0.161851
vn -0.071905 -0.991931 -0.104416
vn -0.191276 -0.968100 -0.161851
vn -0.071905 -0.991931 -0.104416
vn -0.471482 -0.880272 0.053166
vn -0.204734 -0.962369 0.178691
vn -0.783699 -0.099832 -0.613065
vn -0.885859 -0.247587 -0.392371
vn -0.819791 0.073076 -0.567981
vn -0.939969 0.020189 -0.340663
vn -0.885859 -0.247587 -0.392371
vn -0.859229 -0.508954 -0.051885
vn -0.939969 0.020189 -0.340663
vn -0.999195 0.019620 -0.034990
vn -0.717493 0.634934 -0.286467
vn -0.817240 0.551783 -0.166295
vn -0.696668 0.671895 -0.251419
vn -0.782718 0.611465 -0.116029
vn -0.817240 0.551783 -0.166295
vn -0.949793 0.308146 0.054225
vn -0.782718 0.611465 -0.116029
vn -0.854367 0.505469 0.120658
vn -0.437445 0.896875 0.065243
vn -0.470889 0.881832 0.025221
vn -0.520496 0.833163 0.186878
vn -0.566688 0.815226 0.119467
vn -0.520496 0.833163 0.186878
vn -0.566688 0.815226 0.119467
vn -0.606569 0.679408 0.412890
vn -0.751766 0.595655 0.282919
vn -0.066692 0.903697 0.422946
vn -0.130725 0.920089 0.369252
vn -0.182826 0.790171 0.584983
vn -0.267813 0.830355 0.488658
vn -0.182826 0.790171 0.584983
vn -0.267813 0.830355 0.488658
vn -0.287076 0.519488 0.804810
vn -0.485396 0.634131 0.601888
vn 0.673728 0.047528 0.737449
vn 0.438988 0.035047 0.897809
vn 0.705951 -0.127221 0.696741
vn 0.504883 -0.227123 0.832771
vn 0.438988 0.035047 0.897809
vn 0.026975 0.113119 0.993215
vn 0.504883 -0.227123 0.832771
vn 0.240637 -0.380404 0.892965
vn 0.644458 -0.669670 0.369074
vn 0.524516 -0.691008 0.497384
vn 0.622645 -0.707101 0.335143
vn 0.494826 -0.748392 0.441652
vn 0.524516 -0.691008 0.497384
vn 0.259663 -0.636384 0.726354
vn 0.494826 -0.748392 0.441652
vn 0.255345 -0.790374 0.556873
vn 0.369859 -0.929020 0.011201
vn 0.407029 -0.912205 0.047008
vn 0.252607 -0.960576 0.116121
vn 0.315979 -0.934467 0.164100
vn 0.252607 -0.960576 0.116121
vn 0.315979 -0.934467 0.164100
vn 0.007543 -0.964316 0.264646
vn 0.122385 -0.895000 0.428949
vn -0.419924 -0.720164 -0.552293
vn -0.291682 -0.827500 -0.479756
vn -0.616943 -0.706158 -0.347450
vn -0.415921 -0.873464 -0.253120
vn -0.616943 -0.706158 -0.347450
vn -0.415921 -0.873464 -0.253120
vn -0.859229 -0.508954 -0.051885
vn -0.471482 -0.880272 0.053166
vn -0.806380 0.384472 -0.449368
vn -0.919228 0.273259 -0.283461
vn -0.790059 0.457270 -0.408303
vn -0.886045 0.396384 -0.240424
vn -0.919228 0.273259 -0.283461
vn -0.999195 0.019620 -0.034990
vn -0.886045 0.396384 -0.240424
vn -0.949793 0.308146 0.054225
vn -0.624063 0.765879 -0.154840
vn -0.717980 0.694540 -0.046025
vn -0.594250 0.795239 -0.120260
vn -0.668262 0.743926 -0.000322
vn -0.717980 0.694540 -0.046025
vn -0.854367 0.505469 0.120658
vn -0.668262 0.743926 -0.000322
vn -0.751766 0.595655 0.282919
vn -0.294648 0.931749 0.212196
vn -0.334933 0.925815 0.175177
vn -0.383023 0.856582 0.345776
vn -0.442624 0.850194 0.285051
vn -0.383023 0.856582 0.345776
vn -0.442624 0.850194 0.285051
vn -0.485396 0.634131 0.601888
vn -0.606569 0.679408 0.412890
vn 0.309951 0.667859 0.676680
vn 0.177836 0.773352 0.608524
vn 0.170075 0.493620 0.852886
vn -0.019169 0.666528 0.745234
vn 0.170075 0.493620 0.852886
vn -0.019169 0.666528 0.745234
vn 0.026975 0.113119 0.993215
vn -0.287076 0.519488 0.804810
vn 0.714379 -0.428230 0.553428
vn 0.545133 -0.451185 0.706585
vn 0.701648 -0.499319 0.508301
vn 0.546328 -0.557960 0.624665
vn 0.545133 -0.451185 0.706585
vn 0.240637 -0.380404 0.892965
vn 0.546328 -0.557960 0.624665
vn 0.259663 -0.636384 0.726354
vn 0.556481 -0.798022 0.231280
vn 0.450101 -0.821948 0.349013
vn 0.530391 -0.825611 0.192488
vn 0.417556 -0.863166 0.283885
vn 0.450101 -0.821948 0.349013
vn 0.255345 -0.790374 0.556873
vn 0.417556 -0.863166 0.283885
vn 0.122385 -0.895000 0.428949
vn 0.221610 -0.966487 -0.129586
vn 0.260908 -0.961022 -0.091450
vn 0.090299 -0.995806 -0.014688
vn 0.154725 -0.987124 0.040580
vn 0.090299 -0.995806 -0.014688
vn 0.154725 -0.987124 0.040580
vn -0.204734 -0.962369 0.178691
vn 0.007543 -0.964316 0.264646
vn 0.037734 -0.917641 -0.395615
vn -0.025310 -0.947455 -0.318887
vn -0.093768 -0.880433 -0.464807
vn -0.144813 -0.900186 -0.410724
vn -0.093768 -0.880433 -0.464807
vn -0.144813 -0.900186 -0.410724
vn -0.206692 -0.794607 -0.570858
vn -0.291682 -0.827500 -0.479756
vn -0.783699 -0.099832 -0.613065
vn -0.694324 -0.057025 -0.717400
vn -0.631533 -0.433334 -0.642952
vn -0.553330 -0.396255 -0.732672
vn -0.631533 -0.433334 -0.642952
vn -0.553330 -0.396255 -0.732672
vn -0.419924 -0.720164 -0.552293
vn -0.330019 -0.678264 -0.656541
vn -0.806380 0.384472 -0.449368
vn -0.743023 0.413760 -0.526042
vn -0.816402 0.245055 -0.522912
vn -0.769587 0.272024 -0.577702
vn -0.816402 0.245055 -0.522912
vn -0.769587 0.272024 -0.577702
vn -0.819791 0.073076 -0.567981
vn -0.741754 0.117816 -0.660242
vn -0.717493 0.634934 -0.286467
vn -0.657402 0.664327 -0.355658
vn -0.748710 0.558846 -0.356545
vn -0.690411 0.587174 -0.422563
vn -0.748710 0.558846 -0.356545
vn -0.690411 0.587174 -0.422563
vn -0.790059 0.457270 -0.408303
vn -0.717953 0.493131 -0.491289
vn -0.624063 0.765879 -0.154840
vn -0.576853 0.789081 -0.211168
vn -0.655327 0.725599 -0.209886
vn -0.622978 0.742415 -0.246412
vn -0.655327 0.725599 -0.209886
vn -0.622978 0.742415 -0.246412
vn -0.696668 0.671895 -0.251419
vn -0.643266 0.699748 -0.310745
vn -0.470889 0.881832 0.025221
vn -0.419190 0.907273 -0.033705
vn -0.526526 0.848153 -0.058368
vn -0.485997 0.867706 -0.104374
vn -0.526526 0.848153 -0.058368
vn -0.485997 0.867706 -0.104374
vn -0.594250 0.795239 -0.120260
vn -0.542599 0.820646 -0.179238
vn -0.334933 0.925815 0.175177
vn -0.283600 0.952214 0.113402
vn -0.382388 0.917189 0.111996
vn -0.350780 0.933483 0.074584
vn -0.382388 0.917189 0.111996
vn -0.350780 0.933483 0.074584
vn -0.437445 0.896875 0.065243
vn -0.388198 0.921507 0.011307
vn -0.130725 0.920089 0.369252
vn -0.058209 0.956237 0.286744
vn -0.209846 0.937101 0.278938
vn -0.151772 0.965270 0.212646
vn -0.209846 0.937101 0.278938
vn -0.151772 0.965270 0.212646
vn -0.294648 0.931749 0.212196
vn -0.233949 0.961569 0.143713
vn 0.177836 0.773352 0.608524
vn 0.255428 0.817786 0.515735
vn 0.058281 0.859030 0.508597
vn 0.104310 0.885448 0.452882
vn 0.058281 0.859030 0.508597
vn 0.104310 0.885448 0.452882
vn -0.066692 0.903697 0.422946
vn 0.001182 0.936150 0.351598
vn 0.673728 0.047528 0.737449
vn 0.766147 0.091186 0.636163
vn 0.543395 0.391413 0.742642
vn 0.622698 0.429248 0.654212
vn 0.543395 0.391413 0.742642
vn 0.622698 0.429248 0.654212
vn 0.309951 0.667859 0.676680
vn 0.401840 0.712423 0.575307
vn 0.714379 -0.428230 0.553428
vn 0.781940 -0.395250 0.482024
vn 0.729869 -0.286211 0.620785
vn 0.780131 -0.267009 0.565776
vn 0.729869 -0.286211 0.620785
vn 0.780131 -0.267009 0.565776
vn 0.705951 -0.127221 0.696741
vn 0.790491 -0.094636 0.605118
vn 0.644458 -0.669670 0.369074
vn 0.705963 -0.641230 0.300733
vn 0.685139 -0.589082 0.428447
vn 0.743737 -0.561811 0.362249
vn 0.685139 -0.589082 0.428447
vn 0.743737 -0.561811 0.362249
vn 0.701648 -0.499319 0.508301
vn 0.775640 -0.465694 0.426042
vn 0.556481 -0.798022 0.231280
vn 0.606621 -0.774923 0.177499
vn 0.597195 -0.753248 0.275637
vn 0.630030 -0.739061 0.238435
vn 0.597195 -0.753248 0.275637
vn 0.630030 -0.739061 0.238435
vn 0.622645 -0.707101 0.335143
vn 0.676008 -0.684175 0.273712
vn 0.407029 -0.912205 0.047008
vn 0.459459 -0.888120 -0.011842
vn 0.480937 -0.869836 0.109931
vn 0.521720 -0.850715 0.063969
vn 0.480937 -0.869836 0.109931
vn 0.521720 -0.850715 0.063969
vn 0.530391 -0.825611 0.192488
vn 0.582865 -0.801495 0.133694
vn 0.260908 -0.961022 -0.091450
vn 0.316348 -0.936638 -0.150442
vn 0.324251 -0.944840 -0.046240
vn 0.357838 -0.930126 -0.082567
vn 0.324251 -0.944840 -0.046240
vn 0.357838 -0.930126 -0.082567
vn 0.369859 -0.929020 0.011201
vn 0.417971 -0.907346 -0.044982
vn 0.042312 -0.962140 -0.269251
vn 0.115897 -0.928800 -0.351993
vn 0.146274 -0.967337 -0.207034
vn 0.205104 -0.939905 -0.272968
vn 0.146274 -0.967337 -0.207034
vn 0.205104 -0.939905 -0.272968
vn 0.221610 -0.966487 -0.129586
vn 0.282516 -0.938470 -0.198645
vn 0.042312 -0.962140 -0.269251
vn -0.025310 -0.947455 -0.318887
vn 0.115897 -0.928800 -0.351993
vn 0.037734 -0.917641 -0.395615
vn 0.713016 -0.360278 -0.601504
vn 0.713016 -0.360278 -0.601504
vn 0.713016 -0.360278 -0.601504
s off
g d3_polySurface3
usemtl initialShadingGroup
f 15//1 7//2 3//3
f 14//4 8//5 1//6
f 17//7 5//8 2//9
s 1
f 7//10 9//11 3//12
f 3//12 9//11 8//13
s 2
f 146//14 237//15 34//16
f 34//16 237//15 125//17
s off
f 85//18 56//19 14//20
s 3
f 167//21 202//22 55//23
f 55//23 202//22 90//24
s off
f 99//25 63//26 15//27
s 4
f 160//28 209//29 48//30
f 48//30 209//29 97//31
s off
f 113//32 70//33 16//34
s 5
f 153//35 223//36 41//37
f 41//37 223//36 111//38
s off
f 127//39 77//40 17//41
f 11//42 2//43 6//44
f 12//45 4//46 7//47
f 13//48 3//49 8//50
f 16//51 6//52 4//53
s 6
f 6//54 2//55 9//56
f 9//56 2//55 5//57
s 7
f 5//58 1//59 9//60
f 9//60 1//59 8//61
s 8
f 6//62 9//63 4//64
f 4//64 9//63 7//65
s 9
f 246//66 140//67 133//68
f 133//68 140//67 29//69
s 10
f 174//70 216//71 62//72
f 62//72 216//71 104//73
s 11
f 197//74 168//75 84//76
f 84//76 168//75 57//77
s 12
f 15//78 3//79 49//80
f 49//80 3//79 13//81
s 13
f 204//82 161//83 91//84
f 91//84 161//83 50//85
s 14
f 181//86 230//87 69//88
f 69//88 230//87 118//89
s 15
f 211//90 175//91 98//92
f 98//92 175//91 64//93
s 16
f 16//94 4//95 42//96
f 42//96 4//95 12//97
s 17
f 218//98 154//99 105//100
f 105//100 154//99 43//101
s 18
f 188//102 244//103 76//104
f 76//104 244//103 132//105
s 19
f 225//106 182//107 112//108
f 112//108 182//107 71//109
s 20
f 17//110 2//111 35//112
f 35//112 2//111 11//113
s 21
f 232//114 147//115 119//116
f 119//116 147//115 36//117
s off
f 19//118 196//119 141//120
s 22
f 239//121 189//122 126//123
f 126//123 189//122 78//124
s 23
f 14//125 1//126 28//127
f 28//127 1//126 10//128
s 24
f 238//129 20//130 26//131
f 26//131 20//130 18//132
s 25
f 196//133 19//134 23//135
f 23//135 19//134 18//136
s 26
f 203//137 23//138 22//139
f 22//139 23//138 18//140
s 27
f 210//141 22//142 24//143
f 24//143 22//142 18//144
s 28
f 217//145 24//146 21//147
f 21//147 24//146 18//148
s 29
f 224//149 21//150 25//151
f 25//151 21//150 18//152
s 30
f 231//153 25//154 20//155
f 20//155 25//154 18//156
s off
f 26//157 190//158 238//159
s 31
f 245//160 26//161 19//162
f 19//162 26//161 18//163
s off
f 20//164 238//165 148//166
f 20//167 148//168 231//169
f 25//170 183//171 224//172
f 21//173 224//174 155//175
f 21//176 155//177 217//178
f 26//179 245//180 190//181
f 24//182 176//183 210//184
f 22//185 210//186 162//187
f 22//188 162//189 203//190
f 25//191 231//192 183//193
f 23//194 169//195 196//196
f 23//197 203//198 169//199
f 19//200 141//201 245//202
f 24//203 217//204 176//205
s 32
f 56//206 13//207 14//208
f 14//208 13//207 8//209
s off
f 92//210 13//211 56//212
f 13//213 92//214 49//215
f 99//216 15//217 49//218
s 33
f 12//219 7//220 63//221
f 63//221 7//220 15//222
s off
f 106//223 12//224 63//225
f 12//226 106//227 42//228
f 113//229 16//230 42//231
s 34
f 70//232 11//233 16//234
f 16//234 11//233 6//235
s off
f 120//236 11//237 70//238
f 11//239 120//240 35//241
f 127//242 17//243 35//244
s 35
f 10//245 5//246 77//247
f 77//247 5//246 17//248
s off
f 134//249 10//250 77//251
f 10//252 134//253 28//254
f 85//255 14//256 28//257
s 36
f 27//258 30//259 33//260
f 33//260 30//259 31//261
s 37
f 28//262 32//263 30//264
f 30//264 32//263 31//265
s 38
f 29//266 33//267 32//268
f 32//268 33//267 31//269
s 39
f 34//270 37//271 40//272
f 40//272 37//271 38//273
s 40
f 35//274 39//275 37//276
f 37//276 39//275 38//277
s 41
f 36//278 40//279 39//280
f 39//280 40//279 38//281
s 42
f 41//282 44//283 47//284
f 47//284 44//283 45//285
s 43
f 42//286 46//287 44//288
f 44//288 46//287 45//289
s 44
f 43//290 47//291 46//292
f 46//292 47//291 45//293
s 45
f 48//294 51//295 54//296
f 54//296 51//295 52//297
s 46
f 49//298 53//299 51//300
f 51//300 53//299 52//301
s 47
f 50//302 54//303 53//304
f 53//304 54//303 52//305
s 48
f 58//306 59//307 55//308
f 55//308 59//307 61//309
s 49
f 56//310 60//311 58//312
f 58//312 60//311 59//313
s 50
f 61//314 59//315 57//316
f 57//316 59//315 60//317
s 51
f 62//318 65//319 68//320
f 68//320 65//319 66//321
s 52
f 67//322 66//323 63//324
f 63//324 66//323 65//325
s 53
f 64//326 68//327 67//328
f 67//328 68//327 66//329
s 54
f 72//330 73//331 69//332
f 69//332 73//331 75//333
s 55
f 70//334 74//335 72//336
f 72//336 74//335 73//337
s 56
f 75//338 73//339 71//340
f 71//340 73//339 74//341
s 57
f 76//342 79//343 82//344
f 82//344 79//343 80//345
s 58
f 81//346 80//347 77//348
f 77//348 80//347 79//349
s 59
f 78//350 82//351 81//352
f 81//352 82//351 80//353
s 60
f 86//354 87//355 83//356
f 83//356 87//355 89//357
s 61
f 88//358 87//359 84//360
f 84//360 87//359 86//361
s 62
f 85//362 89//363 88//364
f 88//364 89//363 87//365
s 63
f 93//366 94//367 90//368
f 90//368 94//367 96//369
s 64
f 95//370 94//371 91//372
f 91//372 94//371 93//373
s 65
f 92//374 96//375 95//376
f 95//376 96//375 94//377
s 66
f 97//378 100//379 103//380
f 103//380 100//379 101//381
s 67
f 98//382 102//383 100//384
f 100//384 102//383 101//385
s 68
f 99//386 103//387 102//388
f 102//388 103//387 101//389
s 69
f 104//390 107//391 110//392
f 110//392 107//391 108//393
s 70
f 105//394 109//395 107//396
f 107//396 109//395 108//397
s 71
f 106//398 110//399 109//400
f 109//400 110//399 108//401
s 72
f 114//402 115//403 111//404
f 111//404 115//403 117//405
s 73
f 116//406 115//407 112//408
f 112//408 115//407 114//409
s 74
f 113//410 117//411 116//412
f 116//412 117//411 115//413
s 75
f 121//414 122//415 118//416
f 118//416 122//415 124//417
s 76
f 123//418 122//419 119//420
f 119//420 122//419 121//421
s 77
f 120//422 124//423 123//424
f 123//424 124//423 122//425
s 78
f 125//426 128//427 131//428
f 131//428 128//427 129//429
s 79
f 126//430 130//431 128//432
f 128//432 130//431 129//433
s 80
f 127//434 131//435 130//436
f 130//436 131//435 129//437
s 81
f 132//438 135//439 138//440
f 138//440 135//439 136//441
s 82
f 133//442 137//443 135//444
f 135//444 137//443 136//445
s 83
f 134//446 138//447 137//448
f 137//448 138//447 136//449
s 84
f 139//450 142//451 145//452
f 145//452 142//451 143//453
s 85
f 144//454 143//455 140//456
f 140//456 143//455 142//457
s 86
f 141//458 145//459 144//460
f 144//460 145//459 143//461
s 87
f 149//462 150//463 146//464
f 146//464 150//463 152//465
s 88
f 147//466 151//467 149//468
f 149//468 151//467 150//469
s 89
f 148//470 152//471 151//472
f 151//472 152//471 150//473
s 90
f 153//474 156//475 159//476
f 159//476 156//475 157//477
s 91
f 158//478 157//479 154//480
f 154//480 157//479 156//481
s 92
f 155//482 159//483 158//484
f 158//484 159//483 157//485
s 93
f 163//486 164//487 160//488
f 160//488 164//487 166//489
s 94
f 161//490 165//491 163//492
f 163//492 165//491 164//493
s 95
f 162//494 166//495 165//496
f 165//496 166//495 164//497
s 96
f 170//498 171//499 167//500
f 167//500 171//499 173//501
s 97
f 172//502 171//503 168//504
f 168//504 171//503 170//505
s 98
f 169//506 173//507 172//508
f 172//508 173//507 171//509
s 99
f 174//510 177//511 180//512
f 180//512 177//511 178//513
s 100
f 175//514 179//515 177//516
f 177//516 179//515 178//517
s 101
f 176//518 180//519 179//520
f 179//520 180//519 178//521
s 102
f 184//522 185//523 181//524
f 181//524 185//523 187//525
s 103
f 186//526 185//527 182//528
f 182//528 185//527 184//529
s 104
f 183//530 187//531 186//532
f 186//532 187//531 185//533
s 105
f 188//534 191//535 194//536
f 194//536 191//535 192//537
s 106
f 189//538 193//539 191//540
f 191//540 193//539 192//541
s 107
f 190//542 194//543 193//544
f 193//544 194//543 192//545
s 108
f 198//546 199//547 195//548
f 195//548 199//547 201//549
s 109
f 196//550 200//551 198//552
f 198//552 200//551 199//553
s 110
f 201//554 199//555 197//556
f 197//556 199//555 200//557
s 111
f 205//558 206//559 202//560
f 202//560 206//559 208//561
s 112
f 203//562 207//563 205//564
f 205//564 207//563 206//565
s 113
f 208//566 206//567 204//568
f 204//568 206//567 207//569
s 114
f 209//570 212//571 215//572
f 215//572 212//571 213//573
s 115
f 210//574 214//575 212//576
f 212//576 214//575 213//577
s 116
f 211//578 215//579 214//580
f 214//580 215//579 213//581
s 117
f 216//582 219//583 222//584
f 222//584 219//583 220//585
s 118
f 217//586 221//587 219//588
f 219//588 221//587 220//589
s 119
f 218//590 222//591 221//592
f 221//592 222//591 220//593
s 120
f 226//594 227//595 223//596
f 223//596 227//595 229//597
s 121
f 224//598 228//599 226//600
f 226//600 228//599 227//601
s 122
f 229//602 227//603 225//604
f 225//604 227//603 228//605
s 123
f 233//606 234//607 230//608
f 230//608 234//607 236//609
s 124
f 231//610 235//611 233//612
f 233//612 235//611 234//613
s 125
f 236//614 234//615 232//616
f 232//616 234//615 235//617
s 126
f 237//618 240//619 243//620
f 243//620 240//619 241//621
s 127
f 238//622 242//623 240//624
f 240//624 242//623 241//625
s 128
f 239//626 243//627 242//628
f 242//628 243//627 241//629
s 129
f 244//630 247//631 250//632
f 250//632 247//631 248//633
s 130
f 245//634 249//635 247//636
f 247//636 249//635 248//637
s 131
f 246//638 250//639 249//640
f 249//640 250//639 248//641
s 132
f 28//642 30//643 85//644
f 85//644 30//643 89//645
s 133
f 30//646 27//647 89//648
f 89//648 27//647 83//649
s 134
f 92//650 56//651 96//652
f 96//652 56//651 58//653
s 135
f 96//654 58//655 90//656
f 90//656 58//655 55//657
s 136
f 99//658 49//659 103//660
f 103//660 49//659 51//661
s 137
f 103//662 51//663 97//664
f 97//664 51//663 48//665
s 138
f 106//666 63//667 110//668
f 110//668 63//667 65//669
s 139
f 110//670 65//671 104//672
f 104//672 65//671 62//673
s 140
f 42//674 44//675 113//676
f 113//676 44//675 117//677
s 141
f 44//678 41//679 117//680
f 117//680 41//679 111//681
s 142
f 120//682 70//683 124//684
f 124//684 70//683 72//685
s 143
f 124//686 72//687 118//688
f 118//688 72//687 69//689
s 144
f 127//690 35//691 131//692
f 131//692 35//691 37//693
s 145
f 131//694 37//695 125//696
f 125//696 37//695 34//697
s 146
f 134//698 77//699 138//700
f 138//700 77//699 79//701
s 147
f 138//702 79//703 132//704
f 132//704 79//703 76//705
s 148
f 85//706 88//707 56//708
f 56//708 88//707 60//709
s 149
f 88//710 84//711 60//712
f 60//712 84//711 57//713
s 150
f 49//714 92//715 53//716
f 53//716 92//715 95//717
s 151
f 53//718 95//719 50//720
f 50//720 95//719 91//721
s 152
f 63//722 99//723 67//724
f 67//724 99//723 102//725
s 153
f 67//726 102//727 64//728
f 64//728 102//727 98//729
s 154
f 106//730 109//731 42//732
f 42//732 109//731 46//733
s 155
f 109//734 105//735 46//736
f 46//736 105//735 43//737
s 156
f 113//738 116//739 70//740
f 70//740 116//739 74//741
s 157
f 116//742 112//743 74//744
f 74//744 112//743 71//745
s 158
f 35//746 120//747 39//748
f 39//748 120//747 123//749
s 159
f 39//750 123//751 36//752
f 36//752 123//751 119//753
s 160
f 77//754 127//755 81//756
f 81//756 127//755 130//757
s 161
f 81//758 130//759 78//760
f 78//760 130//759 126//761
s 162
f 134//762 137//763 28//764
f 28//764 137//763 32//765
s 163
f 137//766 133//767 32//768
f 32//768 133//767 29//769
s 164
f 195//770 139//771 198//772
f 198//772 139//771 145//773
s 165
f 198//774 145//775 196//776
f 196//776 145//775 141//777
s 166
f 167//778 173//779 202//780
f 202//780 173//779 205//781
s 167
f 173//782 169//783 205//784
f 205//784 169//783 203//785
s 168
f 160//786 166//787 209//788
f 209//788 166//787 212//789
s 169
f 166//790 162//791 212//792
f 212//792 162//791 210//793
s 170
f 216//794 174//795 219//796
f 219//796 174//795 180//797
s 171
f 219//798 180//799 217//800
f 217//800 180//799 176//801
s 172
f 223//802 153//803 226//804
f 226//804 153//803 159//805
s 173
f 226//806 159//807 224//808
f 224//808 159//807 155//809
s 174
f 181//810 187//811 230//812
f 230//812 187//811 233//813
s 175
f 187//814 183//815 233//816
f 233//816 183//815 231//817
s 176
f 146//818 152//819 237//820
f 237//820 152//819 240//821
s 177
f 152//822 148//823 240//824
f 240//824 148//823 238//825
s 178
f 244//826 188//827 247//828
f 247//828 188//827 194//829
s 179
f 247//830 194//831 245//832
f 245//832 194//831 190//833
s 180
f 168//834 197//835 172//836
f 172//836 197//835 200//837
s 181
f 172//838 200//839 169//840
f 169//840 200//839 196//841
s 182
f 204//842 207//843 161//844
f 161//844 207//843 165//845
s 183
f 207//846 203//847 165//848
f 165//848 203//847 162//849
s 184
f 211//850 214//851 175//852
f 175//852 214//851 179//853
s 185
f 214//854 210//855 179//856
f 179//856 210//855 176//857
s 186
f 154//858 218//859 158//860
f 158//860 218//859 221//861
s 187
f 158//862 221//863 155//864
f 155//864 221//863 217//865
s 188
f 182//866 225//867 186//868
f 186//868 225//867 228//869
s 189
f 186//870 228//871 183//872
f 183//872 228//871 224//873
s 190
f 232//874 235//875 147//876
f 147//876 235//875 151//877
s 191
f 235//878 231//879 151//880
f 151//880 231//879 148//881
s 192
f 239//882 242//883 189//884
f 189//884 242//883 193//885
s 193
f 242//886 238//887 193//888
f 193//888 238//887 190//889
s 194
f 140//890 246//891 144//892
f 144//892 246//891 249//893
s 195
f 144//894 249//895 141//896
f 141//896 249//895 245//897
s 196
f 83//898 195//899 86//900
f 86//900 195//899 201//901
s 197
f 86//902 201//903 84//904
f 84//904 201//903 197//905
s 198
f 167//906 55//907 170//908
f 170//908 55//907 61//909
s 199
f 170//910 61//911 168//912
f 168//912 61//911 57//913
s 200
f 204//914 91//915 208//916
f 208//916 91//915 93//917
s 201
f 208//918 93//919 202//920
f 202//920 93//919 90//921
s 202
f 160//922 48//923 163//924
f 163//924 48//923 54//925
s 203
f 163//926 54//927 161//928
f 161//928 54//927 50//929
s 204
f 211//930 98//931 215//932
f 215//932 98//931 100//933
s 205
f 215//934 100//935 209//936
f 209//936 100//935 97//937
s 206
f 174//938 62//939 177//940
f 177//940 62//939 68//941
s 207
f 177//942 68//943 175//944
f 175//944 68//943 64//945
s 208
f 218//946 105//947 222//948
f 222//948 105//947 107//949
s 209
f 222//950 107//951 216//952
f 216//952 107//951 104//953
s 210
f 153//954 41//955 156//956
f 156//956 41//955 47//957
s 211
f 156//958 47//959 154//960
f 154//960 47//959 43//961
s 212
f 225//962 112//963 229//964
f 229//964 112//963 114//965
s 213
f 229//966 114//967 223//968
f 223//968 114//967 111//969
s 214
f 181//970 69//971 184//972
f 184//972 69//971 75//973
s 215
f 184//974 75//975 182//976
f 182//976 75//975 71//977
s 216
f 232//978 119//979 236//980
f 236//980 119//979 121//981
s 217
f 236//982 121//983 230//984
f 230//984 121//983 118//985
s 218
f 146//986 34//987 149//988
f 149//988 34//987 40//989
s 219
f 149//990 40//991 147//992
f 147//992 40//991 36//993
s 220
f 239//994 126//995 243//996
f 243//996 126//995 128//997
s 221
f 243//998 128//999 237//1000
f 237//1000 128//999 125//1001
s 222
f 188//1002 76//1003 191//1004
f 191//1004 76//1003 82//1005
s 223
f 191//1006 82//1007 189//1008
f 189//1008 82//1007 78//1009
s 224
f 246//1010 133//1011 250//1012
f 250//1012 133//1011 135//1013
s 225
f 250//1014 135//1015 244//1016
f 244//1016 135//1015 132//1017
s 226
f 139//1018 27//1019 142//1020
f 142//1020 27//1019 33//1021
s 227
f 142//1022 33//1023 140//1024
f 140//1024 33//1023 29//1025
s 228
f 139//1026 195//1027 27//1028
f 27//1028 195//1027 83//1029
s off
f 10//1030 1//1031 5//1032
