# This file uses centimeters as units for non-parametric coordinates.

mtllib d4.mtl
g default
v 365.053467 51.169258 243.040833
v 359.674438 47.858627 237.356094
v 367.174194 47.404163 243.226822
v 361.795197 44.093536 237.542053
v 361.869537 50.391731 240.155090
v 359.480774 45.204247 236.123749
v 364.979126 44.871063 240.427795
v 367.367889 50.058540 244.459122
v 363.424316 47.631397 240.291458
v 362.706482 51.993382 243.220947
v 356.847473 45.583504 235.892365
v 362.594360 42.492294 239.279083
v 368.453369 48.902172 246.607666
v 366.853729 51.742069 246.467346
v 366.651581 44.989407 243.566925
v 358.447113 42.743607 236.032684
v 358.649261 49.496269 238.933090
v 358.293518 45.055313 246.646576
v 361.039429 48.433929 246.750732
v 357.084290 45.999649 242.570755
v 358.643646 43.231194 242.707535
v 362.598816 45.665485 246.887466
v 362.507690 47.499985 248.082855
v 361.209473 43.915726 244.551086
v 356.708374 43.930649 241.953888
v 358.923035 47.975037 244.350540
v 364.132721 51.957527 246.500107
v 364.148590 51.976074 246.371979
v 364.048279 51.962643 246.434021
v 364.146576 51.973537 246.435883
v 364.118500 51.974224 246.432526
v 364.104004 51.976120 246.402527
v 364.091888 51.963123 246.469437
v 356.209686 47.138222 238.149933
v 356.275543 47.130424 238.051437
v 356.173004 47.058548 238.088013
v 356.240784 47.136536 238.092407
v 356.219208 47.112431 238.084259
v 356.222290 47.096348 238.061157
v 356.188110 47.098579 238.116440
v 359.263489 41.571854 238.359055
v 359.379578 41.619591 238.323669
v 359.347900 41.566738 238.425140
v 359.322449 41.592422 238.333054
v 359.333618 41.583241 238.357391
v 359.365051 41.589836 238.366394
v 359.304291 41.566257 238.389725
v 367.186462 46.391167 246.709229
v 367.252655 46.465244 246.644211
v 367.223206 46.470833 246.771179
v 367.228241 46.429420 246.676529
v 367.232910 46.445034 246.705643
v 367.246735 46.469612 246.707764
v 367.208069 46.430801 246.742737
v 367.502502 50.297562 248.547867
v 367.536194 50.350456 248.449265
v 367.469391 50.356373 248.544983
v 367.528503 50.328644 248.499878
v 367.515900 50.342228 248.514069
v 367.511414 50.358917 248.498352
v 367.490723 50.329891 248.551453
v 363.938019 42.687553 242.585312
v 364.039490 42.756935 242.548126
v 364.022034 42.739269 242.674118
v 363.993774 42.719891 242.561859
v 364.008728 42.725967 242.595276
v 364.037018 42.746513 242.607574
v 363.981903 42.710083 242.629898
v 355.893646 43.231827 236.311295
v 355.990906 43.244652 236.247757
v 355.926788 43.173012 236.314209
v 355.940216 43.237160 236.269455
v 355.936035 43.215149 236.276047
v 355.957275 43.206882 236.270935
v 355.905457 43.199493 236.307724
v 359.458130 50.841827 242.273849
v 359.487610 50.838181 242.148895
v 359.374115 50.790115 242.185043
v 359.474915 50.845905 242.207474
v 359.443237 50.831413 242.194855
v 359.431702 50.819286 242.161743
v 359.414276 50.819298 242.229309
v 366.045746 51.469906 247.846954
v 366.112610 51.437660 247.887878
v 366.157837 51.492199 247.763626
v 366.081421 51.456356 247.870285
v 366.111450 51.471256 247.831833
v 366.137268 51.466702 247.827621
v 366.103271 51.483063 247.806793
v 367.748810 48.532806 248.031403
v 367.743378 48.456036 247.995850
v 367.824097 48.533974 247.909760
v 367.749329 48.495216 248.016571
v 367.779266 48.510281 247.978134
v 367.786133 48.495354 247.954376
v 367.788971 48.534382 247.972458
v 365.899750 44.452415 244.884521
v 365.836121 44.379166 244.803467
v 365.947235 44.458183 244.742371
v 365.870300 44.414658 244.845428
v 365.900482 44.430317 244.807465
v 365.893311 44.417698 244.773285
v 365.925598 44.454941 244.814453
v 361.686096 41.824936 240.417572
v 361.593964 41.802330 240.334015
v 361.720947 41.857033 240.275848
v 361.639832 41.810936 240.374542
v 361.670319 41.826748 240.336823
v 361.657227 41.827866 240.303452
v 361.704041 41.839325 240.345886
v 357.350433 42.059479 237.012207
v 357.283539 42.091721 236.971283
v 357.400940 42.118816 236.894196
v 357.314758 42.073021 236.988876
v 357.345825 42.088799 236.951691
v 357.340637 42.103729 236.930298
v 357.374664 42.087372 236.951111
v 355.647339 44.996578 236.827759
v 355.652832 45.073353 236.863342
v 355.734650 45.077038 236.748047
v 355.646851 45.034172 236.842590
v 355.678009 45.049767 236.805405
v 355.691803 45.075081 236.803528
v 355.688995 45.036057 236.785431
v 357.496429 49.076969 239.974640
v 357.560028 49.150215 240.055710
v 357.611511 49.152821 239.915466
v 357.525879 49.114723 240.013733
v 357.556763 49.129738 239.976059
v 357.584625 49.152740 239.984619
v 357.552338 49.115494 239.943451
v 361.710083 51.704445 244.441589
v 361.802185 51.727055 244.525146
v 361.837769 51.753975 244.381943
v 361.756317 51.718449 244.484650
v 361.786987 51.733303 244.446686
v 361.820740 51.742573 244.454453
v 361.773895 51.731110 244.411987
v 363.987152 51.884434 246.680450
v 363.902679 51.889549 246.614349
v 363.864136 51.830280 246.719177
v 363.946289 51.890038 246.649750
v 363.915802 51.871902 246.682648
v 363.882538 51.864479 246.673218
v 363.927002 51.861786 246.707977
v 356.064087 47.065125 238.330231
v 356.027435 46.985458 238.268311
v 355.996887 46.988235 238.404816
v 356.042542 47.025486 238.296753
v 356.017578 47.010780 238.335510
v 356.003326 46.984985 238.333954
v 356.022644 47.026917 238.366547
v 359.117889 41.498764 238.539368
v 359.202332 41.493649 238.605469
v 359.098663 41.481506 238.676834
v 359.158691 41.493164 238.570068
v 359.131561 41.482346 238.608612
v 359.146637 41.480656 238.640503
v 359.102203 41.483349 238.605713
v 367.040894 46.318073 246.889572
v 367.077606 46.397743 246.951477
v 366.965851 46.323547 246.991196
v 367.062469 46.357712 246.923035
v 367.029755 46.343468 246.955750
v 367.025879 46.360153 246.979752
v 367.006592 46.318222 246.947174
v 367.356934 50.224468 248.728210
v 367.323792 50.283279 248.725296
v 367.249634 50.206055 248.793549
v 367.345154 50.256798 248.731781
v 367.312744 50.240135 248.763641
v 367.289703 50.248341 248.768707
v 367.307587 50.216618 248.770264
v 363.792419 42.614464 242.765625
v 363.876465 42.666176 242.854431
v 363.755737 42.618637 242.897141
v 363.836304 42.636993 242.810181
v 363.806122 42.625050 242.845734
v 363.817719 42.637993 242.880707
v 363.772400 42.610104 242.832825
v 355.748047 43.158730 236.491608
v 355.781189 43.099922 236.494507
v 355.713623 43.105968 236.601868
v 355.759888 43.126404 236.488037
v 355.734680 43.114159 236.527496
v 355.739624 43.096870 236.544830
v 355.721771 43.128586 236.543243
v 359.312561 50.768738 242.454163
v 359.228546 50.717022 242.365387
v 359.207520 50.693382 242.498260
v 359.268677 50.746204 242.409607
v 359.241333 50.729240 242.445404
v 359.211609 50.707214 242.432831
v 359.256927 50.735100 242.480713
v 365.900146 51.396812 248.027298
v 365.845001 51.325165 248.111267
v 365.967041 51.364571 248.068222
v 365.873901 51.365490 248.077927
v 365.903931 51.365379 248.082047
v 365.909027 51.348602 248.099442
v 365.935852 51.383270 248.050598
v 367.603210 48.459717 248.211700
v 367.504425 48.379074 248.256821
v 367.597778 48.382942 248.176163
v 367.558167 48.420761 248.244080
v 367.570587 48.406460 248.228180
v 367.555237 48.380436 248.225372
v 367.603760 48.422127 248.196854
v 365.754150 44.379326 245.064835
v 365.634033 44.317299 245.100266
v 365.690582 44.306068 244.983795
v 365.697266 44.345551 245.089752
v 365.692963 44.328918 245.059433
v 365.663879 44.307076 245.047211
v 365.724731 44.341560 245.025742
v 361.540527 41.751842 240.597885
v 361.425110 41.726814 240.652100
v 361.448395 41.729237 240.514313
v 361.481018 41.732632 240.626587
v 361.465698 41.727150 240.591888
v 361.432648 41.720810 240.582764
v 361.494263 41.737839 240.554855
v 357.204834 41.986385 237.192505
v 357.119934 41.987694 237.282043
v 357.137970 42.018631 237.151581
v 357.155945 41.979965 237.235016
v 357.143799 41.989044 237.208740
v 357.120789 41.996849 237.213455
v 357.169159 41.999931 237.169220
v 355.501770 44.923485 237.008102
v 355.460480 44.933784 237.136536
v 355.507263 45.000259 237.043640
v 355.471649 44.924698 237.068848
v 355.477142 44.947968 237.062576
v 355.474609 44.965015 237.087555
v 355.501251 44.961075 237.022934
v 357.350830 49.003876 240.154968
v 357.330872 48.995560 240.293030
v 357.414459 49.077129 240.236023
v 357.332581 48.999905 240.223175
v 357.354767 49.025517 240.231354
v 357.365936 49.038376 240.265686
v 357.380280 49.041634 240.194046
v 361.564484 51.631355 244.621918
v 361.539825 51.586040 244.741211
v 361.656616 51.653961 244.705490
v 361.548828 51.612820 244.686310
v 361.582031 51.627281 244.698898
v 361.597168 51.624641 244.730164
v 361.610748 51.645355 244.664932
vn 0.858635 -0.248941 -0.448079
vn 0.858635 -0.248941 -0.448079
vn 0.858635 -0.248941 -0.448079
vn 0.589870 0.686778 -0.424722
vn 0.589870 0.686778 -0.424722
vn 0.589870 0.686778 -0.424722
vn 0.066368 0.713365 -0.697643
vn 0.066368 0.713365 -0.697643
vn 0.066368 0.713365 -0.697643
vn 0.599087 0.300789 -0.742038
vn 0.599087 0.300789 -0.742038
vn 0.599087 0.300789 -0.742038
vn 0.599087 0.300789 -0.742038
vn -0.718631 0.653637 -0.237338
vn -0.695240 0.689564 -0.202835
vn -0.661695 0.683083 -0.309124
vn -0.644494 0.717423 -0.264445
vn 0.288592 0.907796 0.304337
vn 0.792478 0.465826 0.393682
vn 0.458831 0.793732 0.399330
vn 0.712557 0.021483 0.701286
vn 0.739044 -0.153114 0.656025
vn 0.800362 0.065125 0.595969
vn 0.819270 -0.120558 0.560591
vn 0.704845 -0.703289 0.092621
vn 0.589962 -0.802286 -0.091004
vn 0.640779 -0.766814 0.037413
vn 0.649376 -0.688408 0.323117
vn 0.625047 -0.724807 0.289777
vn 0.707746 -0.659961 0.252088
vn 0.675543 -0.701835 0.225985
vn -0.024853 -0.775380 -0.631006
vn -0.405768 -0.271668 -0.872667
vn -0.198459 -0.663005 -0.721830
vn 0.008562 -0.957871 -0.287070
vn -0.061271 -0.941008 -0.332790
vn 0.078330 -0.924505 -0.373035
vn -0.001784 -0.911069 -0.412251
vn -0.534712 0.788709 -0.303351
vn -0.374710 0.910359 -0.175610
vn -0.490441 0.842295 -0.223623
vn 0.138135 0.408748 -0.902133
vn 0.138135 0.408748 -0.902133
vn 0.138135 0.408748 -0.902133
vn 0.672819 -0.363305 -0.644456
vn 0.672819 -0.363305 -0.644456
vn 0.672819 -0.363305 -0.644456
vn 0.910410 0.117703 -0.396610
vn 0.910410 0.117703 -0.396610
vn 0.910410 0.117703 -0.396610
vn 0.458675 -0.160327 -0.874021
vn 0.458675 -0.160327 -0.874021
vn 0.458675 -0.160327 -0.874021
vn 0.599087 0.300789 -0.742038
vn 0.599087 0.300789 -0.742038
vn 0.599087 0.300789 -0.742038
vn 0.599087 0.300789 -0.742038
vn 0.599087 0.300789 -0.742038
vn 0.599087 0.300789 -0.742038
vn 0.599087 0.300789 -0.742038
vn 0.599087 0.300789 -0.742038
vn 0.599087 0.300789 -0.742038
vn 0.599087 0.300789 -0.742038
vn 0.599087 0.300789 -0.742038
vn 0.599087 0.300789 -0.742038
vn -0.306415 0.928875 0.208088
vn -0.264119 0.933375 0.243006
vn -0.257898 0.955362 0.144124
vn -0.206536 0.963220 0.171903
vn 0.390409 -0.920586 0.010142
vn 0.351069 -0.936044 -0.023912
vn 0.440131 -0.896484 -0.051002
vn 0.396572 -0.914316 -0.082202
vn 0.225332 0.758907 0.610971
vn 0.358717 0.649675 0.670257
vn 0.298797 0.803465 0.514941
vn 0.446002 0.694249 0.564891
vn 0.933226 -0.340405 -0.114951
vn 0.933226 -0.340405 -0.114951
vn 0.933226 -0.340405 -0.114951
vn 0.933226 -0.340405 -0.114951
vn 0.733804 -0.451658 0.507481
vn 0.717271 -0.521687 0.461914
vn 0.798151 -0.418732 0.433149
vn 0.787479 -0.488046 0.376415
vn -0.816844 -0.073835 -0.572114
vn -0.847000 0.098916 -0.522309
vn -0.732257 -0.030913 -0.680327
vn -0.773054 0.143768 -0.617833
vn 0.551662 -0.812585 0.188083
vn 0.523010 -0.838973 0.150281
vn 0.599350 -0.789511 0.132104
vn 0.572782 -0.814841 0.089190
vn 0.450613 -0.637440 -0.624995
vn 0.450613 -0.637440 -0.624995
vn 0.450613 -0.637440 -0.624995
vn 0.450613 -0.637440 -0.624995
vn 0.236220 -0.964118 -0.121145
vn 0.194863 -0.968147 -0.157224
vn 0.288949 -0.939772 -0.182584
vn 0.252587 -0.940098 -0.228943
vn -0.450962 0.890183 0.064861
vn -0.415154 0.903869 0.103291
vn -0.401946 0.915656 0.003704
vn -0.368339 0.928491 0.047233
vn -0.333284 -0.813112 -0.477253
vn -0.463000 -0.702043 -0.541080
vn -0.252576 -0.780261 -0.572187
vn -0.377879 -0.660061 -0.649252
vn -0.283826 0.666455 -0.689406
vn -0.283826 0.666455 -0.689406
vn -0.283826 0.666455 -0.689406
vn -0.283826 0.666455 -0.689406
vn -0.821044 0.407860 -0.399420
vn -0.801108 0.479590 -0.358078
vn -0.761248 0.437262 -0.478856
vn -0.732778 0.515505 -0.444175
vn -0.460607 0.390484 0.797097
vn -0.233605 0.510638 0.827452
vn -0.440003 0.632657 0.637293
vn -0.615748 0.780409 -0.108702
vn -0.583565 0.808570 -0.075275
vn -0.571121 0.803685 -0.167067
vn -0.534598 0.834013 -0.136484
vn 0.198788 0.963490 -0.179362
vn 0.198788 0.963490 -0.179362
vn 0.198788 0.963490 -0.179362
vn 0.198788 0.963490 -0.179362
vn -0.822479 0.419118 0.384537
vn -0.822479 0.419118 0.384537
vn -0.822479 0.419118 0.384537
vn -0.822479 0.419118 0.384537
vn -0.473524 0.385292 0.792038
vn -0.473524 0.385292 0.792038
vn -0.473524 0.385292 0.792038
vn -0.473524 0.385292 0.792038
vn 0.049648 -0.543528 0.837921
vn 0.049648 -0.543528 0.837921
vn 0.049648 -0.543528 0.837921
vn 0.049648 -0.543528 0.837921
vn 0.041256 -0.811354 0.583098
vn 0.041256 -0.811354 0.583098
vn 0.041256 -0.811354 0.583098
vn 0.041256 -0.811354 0.583098
vn -0.085466 -0.889347 0.449174
vn -0.085466 -0.889347 0.449174
vn -0.085466 -0.889347 0.449174
vn -0.085466 -0.889347 0.449174
vn -0.431713 -0.839792 0.329202
vn -0.431713 -0.839792 0.329202
vn -0.431713 -0.839792 0.329202
vn -0.431713 -0.839792 0.329202
vn -0.954885 0.089028 0.283319
vn -0.954885 0.089028 0.283319
vn -0.954885 0.089028 0.283319
vn -0.954885 0.089028 0.283319
vn -0.828474 0.371976 0.418647
vn -0.723573 0.604974 0.332338
vn -0.836403 0.519669 0.174284
vn -0.695757 0.497112 0.518461
vn -0.695757 0.497112 0.518461
vn -0.695757 0.497112 0.518461
vn -0.695757 0.497112 0.518461
vn -0.900020 0.308303 0.308079
vn -0.836403 0.519669 0.174284
vn -0.939175 0.325432 0.109747
vn -0.959164 0.083636 0.270202
vn -0.939175 0.325432 0.109747
vn -0.999047 0.039534 0.018500
vn -0.671840 -0.703030 0.233196
vn -0.870887 -0.491266 -0.014591
vn -0.485725 -0.871801 0.063519
vn -0.437984 -0.841647 0.315911
vn -0.485725 -0.871801 0.063519
vn -0.214436 -0.961240 0.173305
vn -0.217094 -0.904139 0.367972
vn -0.214436 -0.961240 0.173305
vn 0.002003 -0.968807 0.247810
vn -0.702585 0.449457 0.551691
vn -0.570050 0.683597 0.455782
vn -0.723573 0.604974 0.332338
vn -0.004369 -0.790129 0.612925
vn 0.126741 -0.904634 0.406908
vn 0.268357 -0.804872 0.529306
vn 0.091177 -0.714406 0.693766
vn 0.268357 -0.804872 0.529306
vn 0.284733 -0.654012 0.700853
vn 0.060573 -0.534799 0.842805
vn 0.284733 -0.654012 0.700853
vn 0.279716 -0.400691 0.872471
vn -0.958764 -0.193636 0.208032
vn -0.999047 0.039534 0.018500
vn -0.870887 -0.491266 -0.014591
vn -0.271116 0.229592 0.934764
vn 0.081676 0.095011 0.992120
vn -0.233605 0.510638 0.827452
vn 0.015807 -0.279802 0.959928
vn 0.279716 -0.400691 0.872471
vn 0.081676 0.095011 0.992120
vn -0.591748 0.498036 0.633873
vn -0.440003 0.632657 0.637293
vn -0.570050 0.683597 0.455782
vn -0.130258 -0.867610 0.479881
vn 0.002003 -0.968807 0.247810
vn 0.126741 -0.904634 0.406908
vn 0.870532 0.486767 -0.072333
vn 0.870532 0.486767 -0.072333
vn 0.870532 0.486767 -0.072333
vn 0.870532 0.486767 -0.072333
vn 0.911914 -0.198825 0.359001
vn 0.898925 0.012405 0.437926
vn 0.792478 0.465826 0.393682
vn 0.858445 -0.418512 0.296514
vn 0.911914 -0.198825 0.359001
vn 0.839180 -0.515155 0.174334
vn 0.704845 -0.703289 0.092621
vn 0.750967 -0.640535 0.160510
vn 0.839180 -0.515155 0.174334
vn 0.713905 -0.627990 -0.309787
vn 0.713905 -0.627990 -0.309787
vn 0.713905 -0.627990 -0.309787
vn 0.713905 -0.627990 -0.309787
vn 0.408436 -0.885720 -0.220635
vn 0.473800 -0.869585 -0.139056
vn 0.589962 -0.802286 -0.091004
vn 0.329149 -0.900152 -0.285284
vn 0.408436 -0.885720 -0.220635
vn 0.273122 -0.863547 -0.423899
vn -0.024853 -0.775380 -0.631006
vn 0.125805 -0.869431 -0.477768
vn 0.273122 -0.863547 -0.423899
vn -0.005914 -0.052661 -0.998595
vn -0.005914 -0.052661 -0.998595
vn -0.005914 -0.052661 -0.998595
vn -0.005914 -0.052661 -0.998595
vn -0.648176 0.331243 -0.685672
vn -0.638553 0.118323 -0.760427
vn -0.405768 -0.271668 -0.872667
vn -0.656702 0.519803 -0.546394
vn -0.648176 0.331243 -0.685672
vn -0.577470 0.646554 -0.498494
vn -0.534712 0.788709 -0.303351
vn -0.585470 0.723628 -0.365497
vn -0.577470 0.646554 -0.498494
vn -0.152353 0.909933 -0.385759
vn -0.152353 0.909933 -0.385759
vn -0.152353 0.909933 -0.385759
vn -0.152353 0.909933 -0.385759
vn -0.238305 0.971140 0.009907
vn -0.323463 0.945065 -0.047153
vn -0.374710 0.910359 -0.175610
vn -0.163651 0.983245 0.080297
vn -0.238305 0.971140 0.009907
vn -0.011410 0.994948 0.099739
vn 0.288592 0.907796 0.304337
vn 0.075938 0.970722 0.227886
vn -0.011410 0.994948 0.099739
vn -0.023631 0.951968 0.305285
vn 0.046917 0.982236 0.181689
vn -0.120774 0.964115 0.236425
vn -0.054106 0.987249 0.149709
vn -0.011410 0.994948 0.099739
vn -0.108134 0.990512 0.084806
vn 0.046917 0.982236 0.181689
vn -0.054106 0.987249 0.149709
vn -0.206536 0.963220 0.171903
vn -0.120774 0.964115 0.236425
vn -0.108134 0.990512 0.084806
vn -0.054106 0.987249 0.149709
vn -0.661695 0.683083 -0.309124
vn -0.581846 0.698957 -0.415830
vn -0.699747 0.607772 -0.375456
vn -0.624472 0.636205 -0.453076
vn -0.577470 0.646554 -0.498494
vn -0.629019 0.566215 -0.532668
vn -0.581846 0.698957 -0.415830
vn -0.624472 0.636205 -0.453076
vn -0.732778 0.515505 -0.444175
vn -0.699747 0.607772 -0.375456
vn -0.629019 0.566215 -0.532668
vn -0.624472 0.636205 -0.453076
vn 0.078330 -0.924505 -0.373035
vn 0.179222 -0.868696 -0.461787
vn 0.171341 -0.938726 -0.299059
vn 0.237970 -0.894933 -0.377445
vn 0.273122 -0.863547 -0.423899
vn 0.312095 -0.888107 -0.337437
vn 0.179222 -0.868696 -0.461787
vn 0.237970 -0.894933 -0.377445
vn 0.252587 -0.940098 -0.228943
vn 0.171341 -0.938726 -0.299059
vn 0.312095 -0.888107 -0.337437
vn 0.237970 -0.894933 -0.377445
vn 0.707746 -0.659961 0.252088
vn 0.785806 -0.596551 0.163202
vn 0.750314 -0.582386 0.312819
vn 0.808335 -0.543890 0.225340
vn 0.839180 -0.515155 0.174334
vn 0.855157 -0.452676 0.252567
vn 0.785806 -0.596551 0.163202
vn 0.808335 -0.543890 0.225340
vn 0.787479 -0.488046 0.376415
vn 0.750314 -0.582386 0.312819
vn 0.855157 -0.452676 0.252567
vn 0.808335 -0.543890 0.225340
vn 0.878472 0.198919 0.434418
vn 0.736573 0.440249 0.513461
vn 0.800362 0.065125 0.595969
vn 0.664939 0.405515 0.627228
vn 0.792478 0.465826 0.393682
vn 0.607565 0.679871 0.410659
vn 0.878472 0.198919 0.434418
vn 0.736573 0.440249 0.513461
vn 0.664939 0.405515 0.627228
vn 0.736573 0.440249 0.513461
vn 0.446002 0.694249 0.564891
vn 0.607565 0.679871 0.410659
vn 0.440131 -0.896484 -0.051002
vn 0.510318 -0.852165 -0.115719
vn 0.507056 -0.861632 0.022003
vn 0.556887 -0.829427 -0.043902
vn 0.619674 -0.784860 -0.000143
vn 0.556887 -0.829427 -0.043902
vn 0.589962 -0.802286 -0.091004
vn 0.510318 -0.852165 -0.115719
vn 0.572782 -0.814841 0.089190
vn 0.507056 -0.861632 0.022003
vn 0.619674 -0.784860 -0.000143
vn 0.556887 -0.829427 -0.043902
vn -0.562446 -0.040242 -0.825854
vn -0.505700 -0.324336 -0.799421
vn -0.732257 -0.030913 -0.680327
vn -0.599155 -0.372484 -0.708710
vn -0.405768 -0.271668 -0.872667
vn -0.291533 -0.521203 -0.802095
vn -0.562446 -0.040242 -0.825854
vn -0.505700 -0.324336 -0.799421
vn -0.599155 -0.372484 -0.708710
vn -0.505700 -0.324336 -0.799421
vn -0.377879 -0.660061 -0.649252
vn -0.291533 -0.521203 -0.802095
vn -0.401946 0.915656 0.003704
vn -0.348243 0.933540 -0.085032
vn -0.473181 0.878640 -0.063962
vn -0.417039 0.899642 -0.129318
vn -0.457598 0.866234 -0.200605
vn -0.417039 0.899642 -0.129318
vn -0.374710 0.910359 -0.175610
vn -0.348243 0.933540 -0.085032
vn -0.534598 0.834013 -0.136484
vn -0.473181 0.878640 -0.063962
vn -0.457598 0.866234 -0.200605
vn -0.417039 0.899642 -0.129318
vn 0.145966 0.875131 0.461345
vn 0.161245 0.883272 0.440263
vn 0.038682 0.929595 0.366546
vn 0.115884 0.941737 0.315756
vn 0.334618 0.845626 0.415870
vn 0.161245 0.883272 0.440263
vn 0.298797 0.803465 0.514941
vn 0.145966 0.875131 0.461345
vn 0.288592 0.907796 0.304337
vn 0.115884 0.941737 0.315756
vn 0.334618 0.845626 0.415870
vn 0.161245 0.883272 0.440263
vn 0.803363 -0.291972 0.519000
vn 0.819136 -0.284708 0.497953
vn 0.819270 -0.120558 0.560591
vn 0.878038 -0.119134 0.463526
vn 0.850741 -0.362893 0.380195
vn 0.819136 -0.284708 0.497953
vn 0.798151 -0.418732 0.433149
vn 0.803363 -0.291972 0.519000
vn 0.911914 -0.198825 0.359001
vn 0.878038 -0.119134 0.463526
vn 0.850741 -0.362893 0.380195
vn 0.819136 -0.284708 0.497953
vn 0.675543 -0.701835 0.225985
vn 0.626666 -0.755190 0.192296
vn 0.707963 -0.686612 0.165388
vn 0.638948 -0.748685 0.176679
vn 0.599350 -0.789511 0.132104
vn 0.642122 -0.760827 0.093924
vn 0.626666 -0.755190 0.192296
vn 0.638948 -0.748685 0.176679
vn 0.704845 -0.703289 0.092621
vn 0.707963 -0.686612 0.165388
vn 0.642122 -0.760827 0.093924
vn 0.638948 -0.748685 0.176679
vn 0.396572 -0.914316 -0.082202
vn 0.334089 -0.935263 -0.116912
vn 0.423255 -0.895534 -0.137385
vn 0.346546 -0.928650 -0.132342
vn 0.288949 -0.939772 -0.182584
vn 0.339198 -0.913575 -0.224332
vn 0.334089 -0.935263 -0.116912
vn 0.346546 -0.928650 -0.132342
vn 0.408436 -0.885720 -0.220635
vn 0.423255 -0.895534 -0.137385
vn 0.339198 -0.913575 -0.224332
vn 0.346546 -0.928650 -0.132342
vn -0.135969 -0.870113 -0.473725
vn -0.118602 -0.861861 -0.493081
vn -0.001784 -0.911069 -0.412251
vn 0.025969 -0.870519 -0.491450
vn -0.159407 -0.757659 -0.632884
vn -0.118602 -0.861861 -0.493081
vn -0.252576 -0.780261 -0.572187
vn -0.135969 -0.870113 -0.473725
vn -0.024853 -0.775380 -0.631006
vn 0.025969 -0.870519 -0.491450
vn -0.159407 -0.757659 -0.632884
vn -0.118602 -0.861861 -0.493081
vn -0.793364 0.296999 -0.531381
vn -0.776488 0.306120 -0.550778
vn -0.773054 0.143768 -0.617833
vn -0.702830 0.207106 -0.680542
vn -0.708889 0.434113 -0.555898
vn -0.776488 0.306120 -0.550778
vn -0.761248 0.437262 -0.478856
vn -0.793364 0.296999 -0.531381
vn -0.648176 0.331243 -0.685672
vn -0.702830 0.207106 -0.680542
vn -0.708889 0.434113 -0.555898
vn -0.776488 0.306120 -0.550778
vn -0.644494 0.717423 -0.264445
vn -0.619978 0.758548 -0.200581
vn -0.594280 0.743689 -0.306199
vn -0.607215 0.764617 -0.215987
vn -0.571121 0.803685 -0.167067
vn -0.538909 0.812648 -0.221767
vn -0.619978 0.758548 -0.200581
vn -0.607215 0.764617 -0.215987
vn -0.534712 0.788709 -0.303351
vn -0.594280 0.743689 -0.306199
vn -0.538909 0.812648 -0.221767
vn -0.607215 0.764617 -0.215987
vn -0.368339 0.928491 0.047233
vn -0.327397 0.938623 0.108623
vn -0.320040 0.947356 0.009542
vn -0.314812 0.944584 0.093035
vn -0.257898 0.955362 0.144124
vn -0.225519 0.970652 0.083526
vn -0.327397 0.938623 0.108623
vn -0.314812 0.944584 0.093035
vn -0.238305 0.971140 0.009907
vn -0.320040 0.947356 0.009542
vn -0.225519 0.970652 0.083526
vn -0.314812 0.944584 0.093035
vn -0.092399 0.915779 0.390911
vn -0.175820 0.935908 0.305226
vn -0.224778 0.826614 0.515931
vn -0.246723 0.887938 0.388194
vn -0.346818 0.857581 0.379832
vn -0.246723 0.887938 0.388194
vn -0.264119 0.933375 0.243006
vn -0.175820 0.935908 0.305226
vn -0.440003 0.632657 0.637293
vn -0.224778 0.826614 0.515931
vn -0.346818 0.857581 0.379832
vn -0.246723 0.887938 0.388194
vn -0.755036 0.579419 -0.306910
vn -0.815726 0.537738 -0.213141
vn -0.718631 0.653637 -0.237338
vn -0.813554 0.570319 -0.113430
vn -0.801108 0.479590 -0.358078
vn -0.889305 0.417618 -0.186365
vn -0.755036 0.579419 -0.306910
vn -0.815726 0.537738 -0.213141
vn -0.939175 0.325432 0.109747
vn -0.813554 0.570319 -0.113430
vn -0.889305 0.417618 -0.186365
vn -0.815726 0.537738 -0.213141
vn 0.008562 -0.957871 -0.287070
vn 0.115538 -0.966174 -0.230561
vn -0.097369 -0.988357 -0.116917
vn 0.044494 -0.989473 -0.137709
vn 0.069237 -0.996950 -0.036014
vn 0.044494 -0.989473 -0.137709
vn 0.194863 -0.968147 -0.157224
vn 0.115538 -0.966174 -0.230561
vn -0.214436 -0.961240 0.173305
vn -0.097369 -0.988357 -0.116917
vn 0.069237 -0.996950 -0.036014
vn 0.044494 -0.989473 -0.137709
vn 0.694756 -0.609689 0.381567
vn 0.613496 -0.639275 0.463627
vn 0.649376 -0.688408 0.323117
vn 0.535969 -0.709688 0.457252
vn 0.717271 -0.521687 0.461914
vn 0.567158 -0.579362 0.585382
vn 0.694756 -0.609689 0.381567
vn 0.613496 -0.639275 0.463627
vn 0.284733 -0.654012 0.700853
vn 0.535969 -0.709688 0.457252
vn 0.567158 -0.579362 0.585382
vn 0.613496 -0.639275 0.463627
vn 0.589669 0.367655 0.719111
vn 0.485218 0.313602 0.816221
vn 0.712557 0.021483 0.701286
vn 0.486416 0.010695 0.873662
vn 0.224845 0.475081 0.850731
vn 0.485218 0.313602 0.816221
vn 0.358717 0.649675 0.670257
vn 0.589669 0.367655 0.719111
vn 0.081676 0.095011 0.992120
vn 0.486416 0.010695 0.873662
vn 0.224845 0.475081 0.850731
vn 0.485218 0.313602 0.816221
vn 0.390409 -0.920586 0.010142
vn 0.468381 -0.880770 0.069743
vn 0.305244 -0.943148 0.131518
vn 0.406568 -0.902676 0.140990
vn 0.523010 -0.838973 0.150281
vn 0.414424 -0.875950 0.246908
vn 0.468381 -0.880770 0.069743
vn 0.406568 -0.902676 0.140990
vn 0.126741 -0.904634 0.406908
vn 0.305244 -0.943148 0.131518
vn 0.414424 -0.875950 0.246908
vn 0.406568 -0.902676 0.140990
vn -0.673253 -0.409624 -0.615579
vn -0.749583 -0.446373 -0.488749
vn -0.816844 -0.073835 -0.572114
vn -0.910165 -0.223481 -0.348793
vn -0.648588 -0.687864 -0.325849
vn -0.749583 -0.446373 -0.488749
vn -0.463000 -0.702043 -0.541080
vn -0.673253 -0.409624 -0.615579
vn -0.870887 -0.491266 -0.014591
vn -0.910165 -0.223481 -0.348793
vn -0.648588 -0.687864 -0.325849
vn -0.749583 -0.446373 -0.488749
vn -0.450962 0.890183 0.064861
vn -0.511608 0.859066 -0.016200
vn -0.542983 0.823782 0.162950
vn -0.565409 0.822924 0.055756
vn -0.583565 0.808570 -0.075275
vn -0.652162 0.756586 0.047560
vn -0.511608 0.859066 -0.016200
vn -0.565409 0.822924 0.055756
vn -0.723573 0.604974 0.332338
vn -0.542983 0.823782 0.162950
vn -0.652162 0.756586 0.047560
vn -0.565409 0.822924 0.055756
vn -0.135654 0.783101 0.606920
vn 0.008124 0.786824 0.617124
vn -0.025968 0.897208 0.440845
vn 0.102420 0.848631 0.518975
vn -0.233605 0.510638 0.827452
vn 0.033699 0.653509 0.756168
vn -0.135654 0.783101 0.606920
vn 0.008124 0.786824 0.617124
vn 0.102420 0.848631 0.518975
vn 0.008124 0.786824 0.617124
vn 0.225332 0.758907 0.610971
vn 0.033699 0.653509 0.756168
vn 0.543459 -0.251497 0.800875
vn 0.649844 -0.352457 0.673407
vn 0.739044 -0.153114 0.656025
vn 0.755699 -0.311169 0.576276
vn 0.279716 -0.400691 0.872471
vn 0.572451 -0.474035 0.669023
vn 0.543459 -0.251497 0.800875
vn 0.649844 -0.352457 0.673407
vn 0.755699 -0.311169 0.576276
vn 0.649844 -0.352457 0.673407
vn 0.733804 -0.451658 0.507481
vn 0.572451 -0.474035 0.669023
vn 0.625047 -0.724807 0.289777
vn 0.502219 -0.765497 0.402232
vn 0.595559 -0.769397 0.230951
vn 0.519822 -0.795137 0.312318
vn 0.268357 -0.804872 0.529306
vn 0.451184 -0.836528 0.310892
vn 0.502219 -0.765497 0.402232
vn 0.519822 -0.795137 0.312318
vn 0.551662 -0.812585 0.188083
vn 0.595559 -0.769397 0.230951
vn 0.451184 -0.836528 0.310892
vn 0.519822 -0.795137 0.312318
vn 0.351069 -0.936044 -0.023912
vn 0.238910 -0.967177 0.086547
vn 0.302178 -0.949964 -0.079104
vn 0.230917 -0.972948 0.006993
vn 0.002003 -0.968807 0.247810
vn 0.136652 -0.990492 0.015888
vn 0.238910 -0.967177 0.086547
vn 0.230917 -0.972948 0.006993
vn 0.236220 -0.964118 -0.121145
vn 0.302178 -0.949964 -0.079104
vn 0.136652 -0.990492 0.015888
vn 0.230917 -0.972948 0.006993
vn -0.219096 -0.961215 -0.167520
vn -0.267397 -0.917003 -0.295980
vn -0.061271 -0.941008 -0.332790
vn -0.184469 -0.889830 -0.417342
vn -0.485725 -0.871801 0.063519
vn -0.446288 -0.860661 -0.245132
vn -0.219096 -0.961215 -0.167520
vn -0.267397 -0.917003 -0.295980
vn -0.184469 -0.889830 -0.417342
vn -0.267397 -0.917003 -0.295980
vn -0.333284 -0.813112 -0.477253
vn -0.446288 -0.860661 -0.245132
vn -0.956048 0.044352 -0.289836
vn -0.909124 0.222285 -0.352255
vn -0.847000 0.098916 -0.522309
vn -0.837756 0.269978 -0.474634
vn -0.999047 0.039534 0.018500
vn -0.927201 0.295926 -0.229621
vn -0.956048 0.044352 -0.289836
vn -0.909124 0.222285 -0.352255
vn -0.837756 0.269978 -0.474634
vn -0.909124 0.222285 -0.352255
vn -0.821044 0.407860 -0.399420
vn -0.927201 0.295926 -0.229621
vn -0.695240 0.689564 -0.202835
vn -0.775225 0.628427 -0.064083
vn -0.650684 0.741720 -0.162671
vn -0.710931 0.699186 -0.075606
vn -0.836403 0.519669 0.174284
vn -0.705213 0.708986 0.003752
vn -0.775225 0.628427 -0.064083
vn -0.710931 0.699186 -0.075606
vn -0.615748 0.780409 -0.108702
vn -0.650684 0.741720 -0.162671
vn -0.705213 0.708986 0.003752
vn -0.710931 0.699186 -0.075606
vn -0.415154 0.903869 0.103291
vn -0.492939 0.839632 0.228099
vn -0.357305 0.922286 0.147385
vn -0.422030 0.876994 0.229722
vn -0.570050 0.683597 0.455782
vn -0.409662 0.853418 0.322264
vn -0.492939 0.839632 0.228099
vn -0.422030 0.876994 0.229722
vn -0.306415 0.928875 0.208088
vn -0.357305 0.922286 0.147385
vn -0.409662 0.853418 0.322264
vn -0.422030 0.876994 0.229722
vn -0.011410 0.994948 0.099739
vn 0.046917 0.982236 0.181689
vn 0.288592 0.907796 0.304337
vn 0.115884 0.941737 0.315756
vn 0.046917 0.982236 0.181689
vn -0.023631 0.951968 0.305285
vn 0.115884 0.941737 0.315756
vn 0.038682 0.929595 0.366546
vn 0.911914 -0.198825 0.359001
vn 0.792478 0.465826 0.393682
vn 0.878038 -0.119134 0.463526
vn 0.878472 0.198919 0.434418
vn 0.878038 -0.119134 0.463526
vn 0.878472 0.198919 0.434418
vn 0.819270 -0.120558 0.560591
vn 0.800362 0.065125 0.595969
vn 0.704845 -0.703289 0.092621
vn 0.839180 -0.515155 0.174334
vn 0.707963 -0.686612 0.165388
vn 0.785806 -0.596551 0.163202
vn 0.707963 -0.686612 0.165388
vn 0.785806 -0.596551 0.163202
vn 0.675543 -0.701835 0.225985
vn 0.707746 -0.659961 0.252088
vn 0.408436 -0.885720 -0.220635
vn 0.589962 -0.802286 -0.091004
vn 0.423255 -0.895534 -0.137385
vn 0.510318 -0.852165 -0.115719
vn 0.423255 -0.895534 -0.137385
vn 0.510318 -0.852165 -0.115719
vn 0.396572 -0.914316 -0.082202
vn 0.440131 -0.896484 -0.051002
vn 0.273122 -0.863547 -0.423899
vn 0.179222 -0.868696 -0.461787
vn -0.024853 -0.775380 -0.631006
vn 0.025969 -0.870519 -0.491450
vn 0.179222 -0.868696 -0.461787
vn 0.078330 -0.924505 -0.373035
vn 0.025969 -0.870519 -0.491450
vn -0.001784 -0.911069 -0.412251
vn -0.648176 0.331243 -0.685672
vn -0.405768 -0.271668 -0.872667
vn -0.702830 0.207106 -0.680542
vn -0.562446 -0.040242 -0.825854
vn -0.702830 0.207106 -0.680542
vn -0.562446 -0.040242 -0.825854
vn -0.773054 0.143768 -0.617833
vn -0.732257 -0.030913 -0.680327
vn -0.534712 0.788709 -0.303351
vn -0.577470 0.646554 -0.498494
vn -0.594280 0.743689 -0.306199
vn -0.581846 0.698957 -0.415830
vn -0.594280 0.743689 -0.306199
vn -0.581846 0.698957 -0.415830
vn -0.644494 0.717423 -0.264445
vn -0.661695 0.683083 -0.309124
vn -0.238305 0.971140 0.009907
vn -0.374710 0.910359 -0.175610
vn -0.320040 0.947356 0.009542
vn -0.348243 0.933540 -0.085032
vn -0.320040 0.947356 0.009542
vn -0.348243 0.933540 -0.085032
vn -0.368339 0.928491 0.047233
vn -0.401946 0.915656 0.003704
vn 0.288592 0.907796 0.304337
vn 0.334618 0.845626 0.415870
vn 0.792478 0.465826 0.393682
vn 0.607565 0.679871 0.410659
vn 0.334618 0.845626 0.415870
vn 0.298797 0.803465 0.514941
vn 0.607565 0.679871 0.410659
vn 0.446002 0.694249 0.564891
vn 0.839180 -0.515155 0.174334
vn 0.911914 -0.198825 0.359001
vn 0.855157 -0.452676 0.252567
vn 0.850741 -0.362893 0.380195
vn 0.855157 -0.452676 0.252567
vn 0.850741 -0.362893 0.380195
vn 0.787479 -0.488046 0.376415
vn 0.798151 -0.418732 0.433149
vn 0.589962 -0.802286 -0.091004
vn 0.704845 -0.703289 0.092621
vn 0.619674 -0.784860 -0.000143
vn 0.642122 -0.760827 0.093924
vn 0.619674 -0.784860 -0.000143
vn 0.642122 -0.760827 0.093924
vn 0.572782 -0.814841 0.089190
vn 0.599350 -0.789511 0.132104
vn 0.408436 -0.885720 -0.220635
vn 0.339198 -0.913575 -0.224332
vn 0.273122 -0.863547 -0.423899
vn 0.312095 -0.888107 -0.337437
vn 0.339198 -0.913575 -0.224332
vn 0.288949 -0.939772 -0.182584
vn 0.312095 -0.888107 -0.337437
vn 0.252587 -0.940098 -0.228943
vn -0.024853 -0.775380 -0.631006
vn -0.159407 -0.757659 -0.632884
vn -0.405768 -0.271668 -0.872667
vn -0.291533 -0.521203 -0.802095
vn -0.159407 -0.757659 -0.632884
vn -0.252576 -0.780261 -0.572187
vn -0.291533 -0.521203 -0.802095
vn -0.377879 -0.660061 -0.649252
vn -0.577470 0.646554 -0.498494
vn -0.648176 0.331243 -0.685672
vn -0.629019 0.566215 -0.532668
vn -0.708889 0.434113 -0.555898
vn -0.629019 0.566215 -0.532668
vn -0.708889 0.434113 -0.555898
vn -0.732778 0.515505 -0.444175
vn -0.761248 0.437262 -0.478856
vn -0.374710 0.910359 -0.175610
vn -0.534712 0.788709 -0.303351
vn -0.457598 0.866234 -0.200605
vn -0.538909 0.812648 -0.221767
vn -0.457598 0.866234 -0.200605
vn -0.538909 0.812648 -0.221767
vn -0.534598 0.834013 -0.136484
vn -0.571121 0.803685 -0.167067
vn -0.238305 0.971140 0.009907
vn -0.225519 0.970652 0.083526
vn -0.011410 0.994948 0.099739
vn -0.108134 0.990512 0.084806
vn -0.225519 0.970652 0.083526
vn -0.257898 0.955362 0.144124
vn -0.108134 0.990512 0.084806
vn -0.206536 0.963220 0.171903
vn -0.025968 0.897208 0.440845
vn -0.092399 0.915779 0.390911
vn -0.135654 0.783101 0.606920
vn -0.224778 0.826614 0.515931
vn -0.135654 0.783101 0.606920
vn -0.224778 0.826614 0.515931
vn -0.233605 0.510638 0.827452
vn -0.440003 0.632657 0.637293
vn 0.712557 0.021483 0.701286
vn 0.486416 0.010695 0.873662
vn 0.739044 -0.153114 0.656025
vn 0.543459 -0.251497 0.800875
vn 0.486416 0.010695 0.873662
vn 0.081676 0.095011 0.992120
vn 0.543459 -0.251497 0.800875
vn 0.279716 -0.400691 0.872471
vn 0.649376 -0.688408 0.323117
vn 0.535969 -0.709688 0.457252
vn 0.625047 -0.724807 0.289777
vn 0.502219 -0.765497 0.402232
vn 0.535969 -0.709688 0.457252
vn 0.284733 -0.654012 0.700853
vn 0.502219 -0.765497 0.402232
vn 0.268357 -0.804872 0.529306
vn 0.351069 -0.936044 -0.023912
vn 0.390409 -0.920586 0.010142
vn 0.238910 -0.967177 0.086547
vn 0.305244 -0.943148 0.131518
vn 0.238910 -0.967177 0.086547
vn 0.305244 -0.943148 0.131518
vn 0.002003 -0.968807 0.247810
vn 0.126741 -0.904634 0.406908
vn -0.061271 -0.941008 -0.332790
vn 0.008562 -0.957871 -0.287070
vn -0.219096 -0.961215 -0.167520
vn -0.097369 -0.988357 -0.116917
vn -0.219096 -0.961215 -0.167520
vn -0.097369 -0.988357 -0.116917
vn -0.485725 -0.871801 0.063519
vn -0.214436 -0.961240 0.173305
vn -0.816844 -0.073835 -0.572114
vn -0.910165 -0.223481 -0.348793
vn -0.847000 0.098916 -0.522309
vn -0.956048 0.044352 -0.289836
vn -0.910165 -0.223481 -0.348793
vn -0.870887 -0.491266 -0.014591
vn -0.956048 0.044352 -0.289836
vn -0.999047 0.039534 0.018500
vn -0.718631 0.653637 -0.237338
vn -0.813554 0.570319 -0.113430
vn -0.695240 0.689564 -0.202835
vn -0.775225 0.628427 -0.064083
vn -0.813554 0.570319 -0.113430
vn -0.939175 0.325432 0.109747
vn -0.775225 0.628427 -0.064083
vn -0.836403 0.519669 0.174284
vn -0.415154 0.903869 0.103291
vn -0.450962 0.890183 0.064861
vn -0.492939 0.839632 0.228099
vn -0.542983 0.823782 0.162950
vn -0.492939 0.839632 0.228099
vn -0.542983 0.823782 0.162950
vn -0.570050 0.683597 0.455782
vn -0.723573 0.604974 0.332338
vn 0.358717 0.649675 0.670257
vn 0.225332 0.758907 0.610971
vn 0.224845 0.475081 0.850731
vn 0.033699 0.653509 0.756168
vn 0.224845 0.475081 0.850731
vn 0.033699 0.653509 0.756168
vn 0.081676 0.095011 0.992120
vn -0.233605 0.510638 0.827452
vn 0.733804 -0.451658 0.507481
vn 0.572451 -0.474035 0.669023
vn 0.717271 -0.521687 0.461914
vn 0.567158 -0.579362 0.585382
vn 0.572451 -0.474035 0.669023
vn 0.279716 -0.400691 0.872471
vn 0.567158 -0.579362 0.585382
vn 0.284733 -0.654012 0.700853
vn 0.551662 -0.812585 0.188083
vn 0.451184 -0.836528 0.310892
vn 0.523010 -0.838973 0.150281
vn 0.414424 -0.875950 0.246908
vn 0.451184 -0.836528 0.310892
vn 0.268357 -0.804872 0.529306
vn 0.414424 -0.875950 0.246908
vn 0.126741 -0.904634 0.406908
vn 0.194863 -0.968147 -0.157224
vn 0.236220 -0.964118 -0.121145
vn 0.069237 -0.996950 -0.036014
vn 0.136652 -0.990492 0.015888
vn 0.069237 -0.996950 -0.036014
vn 0.136652 -0.990492 0.015888
vn -0.214436 -0.961240 0.173305
vn 0.002003 -0.968807 0.247810
vn -0.463000 -0.702043 -0.541080
vn -0.333284 -0.813112 -0.477253
vn -0.648588 -0.687864 -0.325849
vn -0.446288 -0.860661 -0.245132
vn -0.648588 -0.687864 -0.325849
vn -0.446288 -0.860661 -0.245132
vn -0.870887 -0.491266 -0.014591
vn -0.485725 -0.871801 0.063519
vn -0.821044 0.407860 -0.399420
vn -0.927201 0.295926 -0.229621
vn -0.801108 0.479590 -0.358078
vn -0.889305 0.417618 -0.186365
vn -0.927201 0.295926 -0.229621
vn -0.999047 0.039534 0.018500
vn -0.889305 0.417618 -0.186365
vn -0.939175 0.325432 0.109747
vn -0.615748 0.780409 -0.108702
vn -0.705213 0.708986 0.003752
vn -0.583565 0.808570 -0.075275
vn -0.652162 0.756586 0.047560
vn -0.705213 0.708986 0.003752
vn -0.836403 0.519669 0.174284
vn -0.652162 0.756586 0.047560
vn -0.723573 0.604974 0.332338
vn -0.264119 0.933375 0.243006
vn -0.306415 0.928875 0.208088
vn -0.346818 0.857581 0.379832
vn -0.409662 0.853418 0.322264
vn -0.346818 0.857581 0.379832
vn -0.409662 0.853418 0.322264
vn -0.440003 0.632657 0.637293
vn -0.570050 0.683597 0.455782
vn 0.038682 0.929595 0.366546
vn -0.025968 0.897208 0.440845
vn 0.145966 0.875131 0.461345
vn 0.102420 0.848631 0.518975
vn 0.145966 0.875131 0.461345
vn 0.102420 0.848631 0.518975
vn 0.298797 0.803465 0.514941
vn 0.225332 0.758907 0.610971
vn 0.712557 0.021483 0.701286
vn 0.800362 0.065125 0.595969
vn 0.589669 0.367655 0.719111
vn 0.664939 0.405515 0.627228
vn 0.589669 0.367655 0.719111
vn 0.664939 0.405515 0.627228
vn 0.358717 0.649675 0.670257
vn 0.446002 0.694249 0.564891
vn 0.733804 -0.451658 0.507481
vn 0.798151 -0.418732 0.433149
vn 0.755699 -0.311169 0.576276
vn 0.803363 -0.291972 0.519000
vn 0.755699 -0.311169 0.576276
vn 0.803363 -0.291972 0.519000
vn 0.739044 -0.153114 0.656025
vn 0.819270 -0.120558 0.560591
vn 0.649376 -0.688408 0.323117
vn 0.707746 -0.659961 0.252088
vn 0.694756 -0.609689 0.381567
vn 0.750314 -0.582386 0.312819
vn 0.694756 -0.609689 0.381567
vn 0.750314 -0.582386 0.312819
vn 0.717271 -0.521687 0.461914
vn 0.787479 -0.488046 0.376415
vn 0.551662 -0.812585 0.188083
vn 0.599350 -0.789511 0.132104
vn 0.595559 -0.769397 0.230951
vn 0.626666 -0.755190 0.192296
vn 0.595559 -0.769397 0.230951
vn 0.626666 -0.755190 0.192296
vn 0.625047 -0.724807 0.289777
vn 0.675543 -0.701835 0.225985
vn 0.390409 -0.920586 0.010142
vn 0.440131 -0.896484 -0.051002
vn 0.468381 -0.880770 0.069743
vn 0.507056 -0.861632 0.022003
vn 0.468381 -0.880770 0.069743
vn 0.507056 -0.861632 0.022003
vn 0.523010 -0.838973 0.150281
vn 0.572782 -0.814841 0.089190
vn 0.236220 -0.964118 -0.121145
vn 0.288949 -0.939772 -0.182584
vn 0.302178 -0.949964 -0.079104
vn 0.334089 -0.935263 -0.116912
vn 0.302178 -0.949964 -0.079104
vn 0.334089 -0.935263 -0.116912
vn 0.351069 -0.936044 -0.023912
vn 0.396572 -0.914316 -0.082202
vn 0.008562 -0.957871 -0.287070
vn 0.078330 -0.924505 -0.373035
vn 0.115538 -0.966174 -0.230561
vn 0.171341 -0.938726 -0.299059
vn 0.115538 -0.966174 -0.230561
vn 0.171341 -0.938726 -0.299059
vn 0.194863 -0.968147 -0.157224
vn 0.252587 -0.940098 -0.228943
vn -0.333284 -0.813112 -0.477253
vn -0.252576 -0.780261 -0.572187
vn -0.184469 -0.889830 -0.417342
vn -0.135969 -0.870113 -0.473725
vn -0.184469 -0.889830 -0.417342
vn -0.135969 -0.870113 -0.473725
vn -0.061271 -0.941008 -0.332790
vn -0.001784 -0.911069 -0.412251
vn -0.816844 -0.073835 -0.572114
vn -0.732257 -0.030913 -0.680327
vn -0.673253 -0.409624 -0.615579
vn -0.599155 -0.372484 -0.708710
vn -0.673253 -0.409624 -0.615579
vn -0.599155 -0.372484 -0.708710
vn -0.463000 -0.702043 -0.541080
vn -0.377879 -0.660061 -0.649252
vn -0.821044 0.407860 -0.399420
vn -0.761248 0.437262 -0.478856
vn -0.837756 0.269978 -0.474634
vn -0.793364 0.296999 -0.531381
vn -0.837756 0.269978 -0.474634
vn -0.793364 0.296999 -0.531381
vn -0.847000 0.098916 -0.522309
vn -0.773054 0.143768 -0.617833
vn -0.718631 0.653637 -0.237338
vn -0.661695 0.683083 -0.309124
vn -0.755036 0.579419 -0.306910
vn -0.699747 0.607772 -0.375456
vn -0.755036 0.579419 -0.306910
vn -0.699747 0.607772 -0.375456
vn -0.801108 0.479590 -0.358078
vn -0.732778 0.515505 -0.444175
vn -0.615748 0.780409 -0.108702
vn -0.571121 0.803685 -0.167067
vn -0.650684 0.741720 -0.162671
vn -0.619978 0.758548 -0.200581
vn -0.650684 0.741720 -0.162671
vn -0.619978 0.758548 -0.200581
vn -0.695240 0.689564 -0.202835
vn -0.644494 0.717423 -0.264445
vn -0.450962 0.890183 0.064861
vn -0.401946 0.915656 0.003704
vn -0.511608 0.859066 -0.016200
vn -0.473181 0.878640 -0.063962
vn -0.511608 0.859066 -0.016200
vn -0.473181 0.878640 -0.063962
vn -0.583565 0.808570 -0.075275
vn -0.534598 0.834013 -0.136484
vn -0.306415 0.928875 0.208088
vn -0.257898 0.955362 0.144124
vn -0.357305 0.922286 0.147385
vn -0.327397 0.938623 0.108623
vn -0.357305 0.922286 0.147385
vn -0.327397 0.938623 0.108623
vn -0.415154 0.903869 0.103291
vn -0.368339 0.928491 0.047233
vn -0.092399 0.915779 0.390911
vn -0.023631 0.951968 0.305285
vn -0.175820 0.935908 0.305226
vn -0.120774 0.964115 0.236425
vn -0.175820 0.935908 0.305226
vn -0.120774 0.964115 0.236425
vn -0.264119 0.933375 0.243006
vn -0.206536 0.963220 0.171903
vn -0.092399 0.915779 0.390911
vn -0.025968 0.897208 0.440845
vn -0.023631 0.951968 0.305285
vn 0.038682 0.929595 0.366546
vn 0.252184 0.827729 -0.501266
vn 0.252184 0.827729 -0.501266
vn 0.252184 0.827729 -0.501266
s off
g d4_polySurface4
usemtl initialShadingGroup
f 15//1 7//2 3//3
f 14//4 8//5 1//6
f 17//7 5//8 2//9
s 1
f 7//10 9//11 3//12
f 3//12 9//11 8//13
s 2
f 146//14 237//15 34//16
f 34//16 237//15 125//17
s off
f 85//18 56//19 14//20
s 3
f 167//21 202//22 55//23
f 55//23 202//22 90//24
s off
f 99//25 63//26 15//27
s 4
f 160//28 209//29 48//30
f 48//30 209//29 97//31
s off
f 113//32 70//33 16//34
s 5
f 153//35 223//36 41//37
f 41//37 223//36 111//38
s off
f 127//39 77//40 17//41
f 11//42 2//43 6//44
f 12//45 4//46 7//47
f 13//48 3//49 8//50
f 16//51 6//52 4//53
s 6
f 6//54 2//55 9//56
f 9//56 2//55 5//57
s 7
f 5//58 1//59 9//60
f 9//60 1//59 8//61
s 8
f 6//62 9//63 4//64
f 4//64 9//63 7//65
s 9
f 246//66 140//67 133//68
f 133//68 140//67 29//69
s 10
f 174//70 216//71 62//72
f 62//72 216//71 104//73
s 11
f 197//74 168//75 84//76
f 84//76 168//75 57//77
s 12
f 15//78 3//79 49//80
f 49//80 3//79 13//81
s 13
f 204//82 161//83 91//84
f 91//84 161//83 50//85
s 14
f 181//86 230//87 69//88
f 69//88 230//87 118//89
s 15
f 211//90 175//91 98//92
f 98//92 175//91 64//93
s 16
f 16//94 4//95 42//96
f 42//96 4//95 12//97
s 17
f 218//98 154//99 105//100
f 105//100 154//99 43//101
s 18
f 188//102 244//103 76//104
f 76//104 244//103 132//105
s 19
f 225//106 182//107 112//108
f 112//108 182//107 71//109
s 20
f 17//110 2//111 35//112
f 35//112 2//111 11//113
s 21
f 232//114 147//115 119//116
f 119//116 147//115 36//117
s off
f 19//118 196//119 141//120
s 22
f 239//121 189//122 126//123
f 126//123 189//122 78//124
s 23
f 14//125 1//126 28//127
f 28//127 1//126 10//128
s 24
f 238//129 20//130 26//131
f 26//131 20//130 18//132
s 25
f 196//133 19//134 23//135
f 23//135 19//134 18//136
s 26
f 203//137 23//138 22//139
f 22//139 23//138 18//140
s 27
f 210//141 22//142 24//143
f 24//143 22//142 18//144
s 28
f 217//145 24//146 21//147
f 21//147 24//146 18//148
s 29
f 224//149 21//150 25//151
f 25//151 21//150 18//152
s 30
f 231//153 25//154 20//155
f 20//155 25//154 18//156
s off
f 26//157 190//158 238//159
s 31
f 245//160 26//161 19//162
f 19//162 26//161 18//163
s off
f 20//164 238//165 148//166
f 20//167 148//168 231//169
f 25//170 183//171 224//172
f 21//173 224//174 155//175
f 21//176 155//177 217//178
f 26//179 245//180 190//181
f 24//182 176//183 210//184
f 22//185 210//186 162//187
f 22//188 162//189 203//190
f 25//191 231//192 183//193
f 23//194 169//195 196//196
f 23//197 203//198 169//199
f 19//200 141//201 245//202
f 24//203 217//204 176//205
s 32
f 56//206 13//207 14//208
f 14//208 13//207 8//209
s off
f 92//210 13//211 56//212
f 13//213 92//214 49//215
f 99//216 15//217 49//218
s 33
f 12//219 7//220 63//221
f 63//221 7//220 15//222
s off
f 106//223 12//224 63//225
f 12//226 106//227 42//228
f 113//229 16//230 42//231
s 34
f 70//232 11//233 16//234
f 16//234 11//233 6//235
s off
f 120//236 11//237 70//238
f 11//239 120//240 35//241
f 127//242 17//243 35//244
s 35
f 10//245 5//246 77//247
f 77//247 5//246 17//248
s off
f 134//249 10//250 77//251
f 10//252 134//253 28//254
f 85//255 14//256 28//257
s 36
f 27//258 30//259 33//260
f 33//260 30//259 31//261
s 37
f 28//262 32//263 30//264
f 30//264 32//263 31//265
s 38
f 29//266 33//267 32//268
f 32//268 33//267 31//269
s 39
f 34//270 37//271 40//272
f 40//272 37//271 38//273
s 40
f 35//274 39//275 37//276
f 37//276 39//275 38//277
s 41
f 36//278 40//279 39//280
f 39//280 40//279 38//281
s 42
f 41//282 44//283 47//284
f 47//284 44//283 45//285
s 43
f 42//286 46//287 44//288
f 44//288 46//287 45//289
s 44
f 43//290 47//291 46//292
f 46//292 47//291 45//293
s 45
f 48//294 51//295 54//296
f 54//296 51//295 52//297
s 46
f 49//298 53//299 51//300
f 51//300 53//299 52//301
s 47
f 50//302 54//303 53//304
f 53//304 54//303 52//305
s 48
f 58//306 59//307 55//308
f 55//308 59//307 61//309
s 49
f 56//310 60//311 58//312
f 58//312 60//311 59//313
s 50
f 61//314 59//315 57//316
f 57//316 59//315 60//317
s 51
f 62//318 65//319 68//320
f 68//320 65//319 66//321
s 52
f 67//322 66//323 63//324
f 63//324 66//323 65//325
s 53
f 64//326 68//327 67//328
f 67//328 68//327 66//329
s 54
f 72//330 73//331 69//332
f 69//332 73//331 75//333
s 55
f 70//334 74//335 72//336
f 72//336 74//335 73//337
s 56
f 75//338 73//339 71//340
f 71//340 73//339 74//341
s 57
f 76//342 79//343 82//344
f 82//344 79//343 80//345
s 58
f 81//346 80//347 77//348
f 77//348 80//347 79//349
s 59
f 78//350 82//351 81//352
f 81//352 82//351 80//353
s 60
f 86//354 87//355 83//356
f 83//356 87//355 89//357
s 61
f 88//358 87//359 84//360
f 84//360 87//359 86//361
s 62
f 85//362 89//363 88//364
f 88//364 89//363 87//365
s 63
f 93//366 94//367 90//368
f 90//368 94//367 96//369
s 64
f 95//370 94//371 91//372
f 91//372 94//371 93//373
s 65
f 92//374 96//375 95//376
f 95//376 96//375 94//377
s 66
f 97//378 100//379 103//380
f 103//380 100//379 101//381
s 67
f 98//382 102//383 100//384
f 100//384 102//383 101//385
s 68
f 99//386 103//387 102//388
f 102//388 103//387 101//389
s 69
f 104//390 107//391 110//392
f 110//392 107//391 108//393
s 70
f 105//394 109//395 107//396
f 107//396 109//395 108//397
s 71
f 106//398 110//399 109//400
f 109//400 110//399 108//401
s 72
f 114//402 115//403 111//404
f 111//404 115//403 117//405
s 73
f 116//406 115//407 112//408
f 112//408 115//407 114//409
s 74
f 113//410 117//411 116//412
f 116//412 117//411 115//413
s 75
f 121//414 122//415 118//416
f 118//416 122//415 124//417
s 76
f 123//418 122//419 119//420
f 119//420 122//419 121//421
s 77
f 120//422 124//423 123//424
f 123//424 124//423 122//425
s 78
f 125//426 128//427 131//428
f 131//428 128//427 129//429
s 79
f 126//430 130//431 128//432
f 128//432 130//431 129//433
s 80
f 127//434 131//435 130//436
f 130//436 131//435 129//437
s 81
f 132//438 135//439 138//440
f 138//440 135//439 136//441
s 82
f 133//442 137//443 135//444
f 135//444 137//443 136//445
s 83
f 134//446 138//447 137//448
f 137//448 138//447 136//449
s 84
f 139//450 142//451 145//452
f 145//452 142//451 143//453
s 85
f 144//454 143//455 140//456
f 140//456 143//455 142//457
s 86
f 141//458 145//459 144//460
f 144//460 145//459 143//461
s 87
f 149//462 150//463 146//464
f 146//464 150//463 152//465
s 88
f 147//466 151//467 149//468
f 149//468 151//467 150//469
s 89
f 148//470 152//471 151//472
f 151//472 152//471 150//473
s 90
f 153//474 156//475 159//476
f 159//476 156//475 157//477
s 91
f 158//478 157//479 154//480
f 154//480 157//479 156//481
s 92
f 155//482 159//483 158//484
f 158//484 159//483 157//485
s 93
f 163//486 164//487 160//488
f 160//488 164//487 166//489
s 94
f 161//490 165//491 163//492
f 163//492 165//491 164//493
s 95
f 162//494 166//495 165//496
f 165//496 166//495 164//497
s 96
f 170//498 171//499 167//500
f 167//500 171//499 173//501
s 97
f 172//502 171//503 168//504
f 168//504 171//503 170//505
s 98
f 169//506 173//507 172//508
f 172//508 173//507 171//509
s 99
f 174//510 177//511 180//512
f 180//512 177//511 178//513
s 100
f 175//514 179//515 177//516
f 177//516 179//515 178//517
s 101
f 176//518 180//519 179//520
f 179//520 180//519 178//521
s 102
f 184//522 185//523 181//524
f 181//524 185//523 187//525
s 103
f 186//526 185//527 182//528
f 182//528 185//527 184//529
s 104
f 183//530 187//531 186//532
f 186//532 187//531 185//533
s 105
f 188//534 191//535 194//536
f 194//536 191//535 192//537
s 106
f 189//538 193//539 191//540
f 191//540 193//539 192//541
s 107
f 190//542 194//543 193//544
f 193//544 194//543 192//545
s 108
f 198//546 199//547 195//548
f 195//548 199//547 201//549
s 109
f 196//550 200//551 198//552
f 198//552 200//551 199//553
s 110
f 201//554 199//555 197//556
f 197//556 199//555 200//557
s 111
f 205//558 206//559 202//560
f 202//560 206//559 208//561
s 112
f 203//562 207//563 205//564
f 205//564 207//563 206//565
s 113
f 208//566 206//567 204//568
f 204//568 206//567 207//569
s 114
f 209//570 212//571 215//572
f 215//572 212//571 213//573
s 115
f 210//574 214//575 212//576
f 212//576 214//575 213//577
s 116
f 211//578 215//579 214//580
f 214//580 215//579 213//581
s 117
f 216//582 219//583 222//584
f 222//584 219//583 220//585
s 118
f 217//586 221//587 219//588
f 219//588 221//587 220//589
s 119
f 218//590 222//591 221//592
f 221//592 222//591 220//593
s 120
f 226//594 227//595 223//596
f 223//596 227//595 229//597
s 121
f 224//598 228//599 226//600
f 226//600 228//599 227//601
s 122
f 229//602 227//603 225//604
f 225//604 227//603 228//605
s 123
f 233//606 234//607 230//608
f 230//608 234//607 236//609
s 124
f 231//610 235//611 233//612
f 233//612 235//611 234//613
s 125
f 236//614 234//615 232//616
f 232//616 234//615 235//617
s 126
f 237//618 240//619 243//620
f 243//620 240//619 241//621
s 127
f 238//622 242//623 240//624
f 240//624 242//623 241//625
s 128
f 239//626 243//627 242//628
f 242//628 243//627 241//629
s 129
f 244//630 247//631 250//632
f 250//632 247//631 248//633
s 130
f 245//634 249//635 247//636
f 247//636 249//635 248//637
s 131
f 246//638 250//639 249//640
f 249//640 250//639 248//641
s 132
f 28//642 30//643 85//644
f 85//644 30//643 89//645
s 133
f 30//646 27//647 89//648
f 89//648 27//647 83//649
s 134
f 92//650 56//651 96//652
f 96//652 56//651 58//653
s 135
f 96//654 58//655 90//656
f 90//656 58//655 55//657
s 136
f 99//658 49//659 103//660
f 103//660 49//659 51//661
s 137
f 103//662 51//663 97//664
f 97//664 51//663 48//665
s 138
f 106//666 63//667 110//668
f 110//668 63//667 65//669
s 139
f 110//670 65//671 104//672
f 104//672 65//671 62//673
s 140
f 42//674 44//675 113//676
f 113//676 44//675 117//677
s 141
f 44//678 41//679 117//680
f 117//680 41//679 111//681
s 142
f 120//682 70//683 124//684
f 124//684 70//683 72//685
s 143
f 124//686 72//687 118//688
f 118//688 72//687 69//689
s 144
f 127//690 35//691 131//692
f 131//692 35//691 37//693
s 145
f 131//694 37//695 125//696
f 125//696 37//695 34//697
s 146
f 134//698 77//699 138//700
f 138//700 77//699 79//701
s 147
f 138//702 79//703 132//704
f 132//704 79//703 76//705
s 148
f 85//706 88//707 56//708
f 56//708 88//707 60//709
s 149
f 88//710 84//711 60//712
f 60//712 84//711 57//713
s 150
f 49//714 92//715 53//716
f 53//716 92//715 95//717
s 151
f 53//718 95//719 50//720
f 50//720 95//719 91//721
s 152
f 63//722 99//723 67//724
f 67//724 99//723 102//725
s 153
f 67//726 102//727 64//728
f 64//728 102//727 98//729
s 154
f 106//730 109//731 42//732
f 42//732 109//731 46//733
s 155
f 109//734 105//735 46//736
f 46//736 105//735 43//737
s 156
f 113//738 116//739 70//740
f 70//740 116//739 74//741
s 157
f 116//742 112//743 74//744
f 74//744 112//743 71//745
s 158
f 35//746 120//747 39//748
f 39//748 120//747 123//749
s 159
f 39//750 123//751 36//752
f 36//752 123//751 119//753
s 160
f 77//754 127//755 81//756
f 81//756 127//755 130//757
s 161
f 81//758 130//759 78//760
f 78//760 130//759 126//761
s 162
f 134//762 137//763 28//764
f 28//764 137//763 32//765
s 163
f 137//766 133//767 32//768
f 32//768 133//767 29//769
s 164
f 195//770 139//771 198//772
f 198//772 139//771 145//773
s 165
f 198//774 145//775 196//776
f 196//776 145//775 141//777
s 166
f 167//778 173//779 202//780
f 202//780 173//779 205//781
s 167
f 173//782 169//783 205//784
f 205//784 169//783 203//785
s 168
f 160//786 166//787 209//788
f 209//788 166//787 212//789
s 169
f 166//790 162//791 212//792
f 212//792 162//791 210//793
s 170
f 216//794 174//795 219//796
f 219//796 174//795 180//797
s 171
f 219//798 180//799 217//800
f 217//800 180//799 176//801
s 172
f 223//802 153//803 226//804
f 226//804 153//803 159//805
s 173
f 226//806 159//807 224//808
f 224//808 159//807 155//809
s 174
f 181//810 187//811 230//812
f 230//812 187//811 233//813
s 175
f 187//814 183//815 233//816
f 233//816 183//815 231//817
s 176
f 146//818 152//819 237//820
f 237//820 152//819 240//821
s 177
f 152//822 148//823 240//824
f 240//824 148//823 238//825
s 178
f 244//826 188//827 247//828
f 247//828 188//827 194//829
s 179
f 247//830 194//831 245//832
f 245//832 194//831 190//833
s 180
f 168//834 197//835 172//836
f 172//836 197//835 200//837
s 181
f 172//838 200//839 169//840
f 169//840 200//839 196//841
s 182
f 204//842 207//843 161//844
f 161//844 207//843 165//845
s 183
f 207//846 203//847 165//848
f 165//848 203//847 162//849
s 184
f 211//850 214//851 175//852
f 175//852 214//851 179//853
s 185
f 214//854 210//855 179//856
f 179//856 210//855 176//857
s 186
f 154//858 218//859 158//860
f 158//860 218//859 221//861
s 187
f 158//862 221//863 155//864
f 155//864 221//863 217//865
s 188
f 182//866 225//867 186//868
f 186//868 225//867 228//869
s 189
f 186//870 228//871 183//872
f 183//872 228//871 224//873
s 190
f 232//874 235//875 147//876
f 147//876 235//875 151//877
s 191
f 235//878 231//879 151//880
f 151//880 231//879 148//881
s 192
f 239//882 242//883 189//884
f 189//884 242//883 193//885
s 193
f 242//886 238//887 193//888
f 193//888 238//887 190//889
s 194
f 140//890 246//891 144//892
f 144//892 246//891 249//893
s 195
f 144//894 249//895 141//896
f 141//896 249//895 245//897
s 196
f 83//898 195//899 86//900
f 86//900 195//899 201//901
s 197
f 86//902 201//903 84//904
f 84//904 201//903 197//905
s 198
f 167//906 55//907 170//908
f 170//908 55//907 61//909
s 199
f 170//910 61//911 168//912
f 168//912 61//911 57//913
s 200
f 204//914 91//915 208//916
f 208//916 91//915 93//917
s 201
f 208//918 93//919 202//920
f 202//920 93//919 90//921
s 202
f 160//922 48//923 163//924
f 163//924 48//923 54//925
s 203
f 163//926 54//927 161//928
f 161//928 54//927 50//929
s 204
f 211//930 98//931 215//932
f 215//932 98//931 100//933
s 205
f 215//934 100//935 209//936
f 209//936 100//935 97//937
s 206
f 174//938 62//939 177//940
f 177//940 62//939 68//941
s 207
f 177//942 68//943 175//944
f 175//944 68//943 64//945
s 208
f 218//946 105//947 222//948
f 222//948 105//947 107//949
s 209
f 222//950 107//951 216//952
f 216//952 107//951 104//953
s 210
f 153//954 41//955 156//956
f 156//956 41//955 47//957
s 211
f 156//958 47//959 154//960
f 154//960 47//959 43//961
s 212
f 225//962 112//963 229//964
f 229//964 112//963 114//965
s 213
f 229//966 114//967 223//968
f 223//968 114//967 111//969
s 214
f 181//970 69//971 184//972
f 184//972 69//971 75//973
s 215
f 184//974 75//975 182//976
f 182//976 75//975 71//977
s 216
f 232//978 119//979 236//980
f 236//980 119//979 121//981
s 217
f 236//982 121//983 230//984
f 230//984 121//983 118//985
s 218
f 146//986 34//987 149//988
f 149//988 34//987 40//989
s 219
f 149//990 40//991 147//992
f 147//992 40//991 36//993
s 220
f 239//994 126//995 243//996
f 243//996 126//995 128//997
s 221
f 243//998 128//999 237//1000
f 237//1000 128//999 125//1001
s 222
f 188//1002 76//1003 191//1004
f 191//1004 76//1003 82//1005
s 223
f 191//1006 82//1007 189//1008
f 189//1008 82//1007 78//1009
s 224
f 246//1010 133//1011 250//1012
f 250//1012 133//1011 135//1013
s 225
f 250//1014 135//1015 244//1016
f 244//1016 135//1015 132//1017
s 226
f 139//1018 27//1019 142//1020
f 142//1020 27//1019 33//1021
s 227
f 142//1022 33//1023 140//1024
f 140//1024 33//1023 29//1025
s 228
f 139//1026 195//1027 27//1028
f 27//1028 195//1027 83//1029
s off
f 10//1030 1//1031 5//1032
