# This file uses centimeters as units for non-parametric coordinates.

mtllib d5.mtl
g default
v 381.209137 44.749306 255.156525
v 375.044159 45.546928 249.362823
v 381.817322 40.642254 253.943970
v 375.652344 41.439884 248.150253
v 377.984863 46.105625 252.542389
v 373.910950 43.679363 247.405792
v 378.876617 40.083557 250.764435
v 382.950500 42.509819 255.901001
v 378.430756 43.094589 251.653412
v 379.319763 46.227249 255.839111
v 371.596924 44.998817 247.594696
v 375.801056 39.188782 249.213409
v 383.523987 40.417210 257.457794
v 383.065186 43.515041 258.372406
v 380.451111 38.587151 253.583435
v 372.055634 41.900993 246.680084
v 374.669739 46.828873 251.469055
v 372.660736 40.531643 257.440277
v 376.444580 42.521629 258.270111
v 371.911530 43.108120 254.010010
v 372.358704 40.088230 253.118439
v 376.891785 39.501740 257.378510
v 377.462402 40.758301 259.080902
v 374.982178 39.203175 254.787186
v 370.815674 41.618259 252.834442
v 374.326477 43.631165 256.094513
v 380.607727 44.634655 258.770569
v 380.630341 44.687225 258.653351
v 380.531464 44.689880 258.718964
v 380.626984 44.664879 258.713196
v 380.601105 44.676292 258.713318
v 380.588501 44.692734 258.687164
v 380.571960 44.663689 258.747772
v 371.547516 45.852230 250.276062
v 371.606903 45.854679 250.173248
v 371.484955 45.814964 250.197174
v 371.576355 45.858730 250.217712
v 371.547607 45.847637 250.205017
v 371.544800 45.839935 250.177948
v 371.513336 45.835705 250.234634
v 372.371216 39.829956 248.430145
v 372.497040 39.843334 248.398468
v 372.447479 39.774727 248.481720
v 372.433868 39.836124 248.405365
v 372.440735 39.816269 248.424286
v 372.472321 39.808262 248.431396
v 372.406952 39.800919 248.452927
v 381.431396 38.612381 256.924652
v 381.520508 38.675877 256.878540
v 381.493958 38.649643 257.003540
v 381.484497 38.642265 256.900818
v 381.494232 38.644917 256.932617
v 381.516052 38.661064 256.940613
v 381.465607 38.628906 256.966064
v 383.127777 41.341972 259.824982
v 383.179199 41.409008 259.744202
v 383.118286 41.406128 259.843933
v 383.163666 41.375988 259.786255
v 383.156738 41.387665 259.805237
v 383.158752 41.409008 259.795990
v 383.128479 41.373344 259.839569
v 377.095703 37.819305 252.250366
v 377.215759 37.857395 252.225220
v 377.192017 37.806847 252.340881
v 377.159607 37.836124 252.231934
v 377.175446 37.825428 252.263718
v 377.209198 37.829712 252.278534
v 377.144409 37.809444 252.294556
v 369.851135 43.122635 247.375717
v 369.946960 43.121002 247.308807
v 369.860657 43.058487 247.356766
v 369.896820 43.124851 247.332672
v 369.884888 43.104794 247.332581
v 369.901703 43.091831 247.322891
v 369.850433 43.091270 247.361145
v 375.883209 46.645306 254.950348
v 375.910370 46.672607 254.827835
v 375.786896 46.657764 254.859833
v 375.900879 46.664715 254.886978
v 375.866180 46.667030 254.874115
v 375.851318 46.671127 254.840393
v 375.834503 46.655167 254.906158
v 382.201813 43.105553 259.682800
v 382.252075 43.040722 259.704193
v 382.315002 43.113564 259.598389
v 382.229919 43.073700 259.696716
v 382.263611 43.088947 259.661621
v 382.286102 43.077381 259.653381
v 382.260529 43.110321 259.642456
v 382.721283 39.872040 258.768646
v 382.688629 39.817944 258.712158
v 382.792877 39.886662 258.645691
v 382.708252 39.843613 258.743042
v 382.741943 39.859047 258.708008
v 382.743103 39.851261 258.680237
v 382.759766 39.878735 258.708984
v 379.544434 37.945389 254.747818
v 379.459290 37.929321 254.655762
v 379.592041 37.980354 254.609894
v 379.503632 37.935074 254.702545
v 379.537781 37.950787 254.668091
v 379.526794 37.953300 254.632721
v 379.570068 37.961502 254.679474
v 374.702881 38.544704 250.185791
v 374.609528 38.583878 250.110046
v 374.748230 38.607048 250.057800
v 374.655090 38.562389 250.145935
v 374.689484 38.578064 250.111771
v 374.677979 38.594437 250.082001
v 374.725403 38.574516 250.120468
v 370.777130 41.359062 247.517944
v 370.726868 41.423889 247.496521
v 370.846710 41.432259 247.418930
v 370.748993 41.390907 247.503983
v 370.783997 41.406178 247.470200
v 370.784790 41.428070 247.455139
v 370.810364 41.395130 247.466064
v 370.257629 44.592571 248.432053
v 370.290283 44.646667 248.488556
v 370.368866 44.659157 248.371643
v 370.270691 44.620998 248.457642
v 370.305695 44.636070 248.423798
v 370.327759 44.654190 248.428253
v 370.311096 44.626713 248.399475
v 373.434479 46.519218 252.452911
v 373.519653 46.535290 252.544922
v 373.569733 46.565468 252.407455
v 373.475281 46.529537 252.498169
v 373.509827 46.544334 252.463715
v 373.544067 46.552147 252.475769
v 373.500793 46.543953 252.429016
v 378.276062 45.919907 257.014954
v 378.369385 45.880733 257.090637
v 378.413544 45.938774 256.959534
v 378.323853 45.902222 257.054779
v 378.358124 45.917057 257.020081
v 378.392883 45.911011 257.026489
v 378.345459 45.930943 256.988037
v 380.444000 44.561935 258.934753
v 380.367737 44.617161 258.883179
v 380.309387 44.544197 258.968384
v 380.408234 44.590973 258.911987
v 380.372955 44.574863 258.940887
v 380.339386 44.582893 258.933380
v 380.379517 44.553825 258.960510
v 371.383789 45.779510 250.440262
v 371.321259 45.742249 250.361359
v 371.292633 45.710793 250.494598
v 371.349609 45.762985 250.398834
v 371.320709 45.746052 250.433716
v 371.298035 45.728794 250.425934
v 371.330994 45.748405 250.467438
v 372.207520 39.757236 248.594360
v 372.283752 39.702007 248.645935
v 372.182159 39.703918 248.721161
v 372.243256 39.728199 248.617126
v 372.213715 39.715504 248.653244
v 372.226868 39.698414 248.681244
v 372.186737 39.727478 248.654083
v 381.267700 38.539661 257.088806
v 381.330261 38.576927 257.167725
v 381.198883 38.537327 257.194885
v 381.301880 38.556187 257.130249
v 381.265961 38.544315 257.160400
v 381.268188 38.552509 257.188660
v 381.235260 38.532898 257.147156
v 382.964081 41.269253 259.989166
v 382.954590 41.333408 260.008118
v 382.856812 41.268867 260.057190
v 382.964783 41.300621 260.003784
v 382.928284 41.286774 260.032379
v 382.909729 41.300304 260.042236
v 382.914856 41.265709 260.032043
v 376.932007 37.746586 252.414551
v 377.028320 37.734127 252.505066
v 376.898193 37.720119 252.544235
v 376.980682 37.736725 252.458725
v 376.947906 37.725086 252.492035
v 376.963135 37.721069 252.527771
v 376.911194 37.727791 252.478958
v 369.687439 43.049919 247.539917
v 369.696930 42.985764 247.520966
v 369.635223 42.979488 247.631790
v 369.686737 43.018547 247.525314
v 369.658447 43.003632 247.561661
v 369.656677 42.981068 247.572205
v 369.651550 43.015663 247.582397
v 375.719513 46.572586 255.114532
v 375.623169 46.585045 255.024033
v 375.593872 46.528236 255.144745
v 375.670807 46.582447 255.070358
v 375.638824 46.565323 255.102036
v 375.603271 46.560303 255.086670
v 375.655212 46.553589 255.135468
v 382.038086 43.032825 259.846954
v 381.959961 42.961494 259.910553
v 382.088348 42.968002 259.868378
v 382.001770 42.997860 259.888123
v 382.029724 42.986034 259.888672
v 382.028229 42.963837 259.899445
v 382.066223 43.000980 259.860901
v 382.557587 39.799320 258.932861
v 382.435852 39.747829 258.961731
v 382.524902 39.745224 258.876312
v 382.501160 39.770073 258.956512
v 382.507690 39.758366 258.935730
v 382.483948 39.741692 258.926819
v 382.544525 39.770893 258.907257
v 379.380737 37.872673 254.911987
v 379.246002 37.848072 254.939804
v 379.295593 37.856598 254.819977
v 379.315247 37.854519 254.931488
v 379.305481 37.851242 254.898224
v 379.270569 37.846039 254.883209
v 379.339905 37.862354 254.866745
v 374.539185 38.471985 250.349976
v 374.422058 38.472195 250.406372
v 374.445801 38.511158 250.274277
v 374.476501 38.466301 250.377823
v 374.460510 38.478085 250.345032
v 374.427521 38.486897 250.338104
v 374.491364 38.489670 250.310120
v 370.613403 41.286339 247.682129
v 370.533966 41.287701 247.776581
v 370.563141 41.351170 247.660721
v 370.565155 41.283756 247.725739
v 370.557343 41.304512 247.705032
v 370.538727 41.317780 247.714447
v 370.585266 41.318188 247.668213
v 370.093933 44.519852 248.596252
v 370.058105 44.501366 248.725388
v 370.126587 44.573948 248.652771
v 370.065796 44.511543 248.657364
v 370.079376 44.532181 248.657990
v 370.082977 44.539925 248.687103
v 370.106995 44.548275 248.621826
v 373.270752 46.446499 252.617096
v 373.247955 46.401119 252.747299
v 373.355927 46.462570 252.709122
v 373.251709 46.427097 252.682388
v 373.281616 46.439308 252.695496
v 373.296387 46.435577 252.730682
v 373.311554 46.456818 252.662354
v 378.112335 45.847183 257.179108
v 378.071899 45.776993 257.280731
v 378.205688 45.808014 257.254852
v 378.090485 45.815315 257.236053
v 378.126556 45.812462 257.248718
v 378.139465 45.794720 257.275757
v 378.160156 45.829502 257.218964
vn 0.713556 -0.369977 -0.594940
vn 0.713556 -0.369977 -0.594940
vn 0.713556 -0.369977 -0.594940
vn 0.802490 0.538772 -0.256388
vn 0.802490 0.538772 -0.256388
vn 0.802490 0.538772 -0.256388
vn 0.326675 0.832034 -0.448334
vn 0.326675 0.832034 -0.448334
vn 0.326675 0.832034 -0.448334
vn 0.673716 0.299255 -0.675687
vn 0.673716 0.299255 -0.675687
vn 0.673716 0.299256 -0.675687
vn 0.673716 0.299255 -0.675687
vn -0.430389 0.900940 0.055431
vn -0.395848 0.913234 0.096474
vn -0.366036 0.930550 -0.009720
vn -0.337926 0.940273 0.041144
vn 0.595739 0.599983 0.533962
vn 0.904106 0.007746 0.427239
vn 0.712164 0.409814 0.569979
vn 0.665756 -0.455845 0.590740
vn 0.627466 -0.603901 0.491518
vn 0.764314 -0.413486 0.494827
vn 0.714849 -0.571904 0.402388
vn 0.400757 -0.892739 -0.205940
vn 0.259350 -0.880339 -0.397165
vn 0.318481 -0.908511 -0.270514
vn 0.352502 -0.935536 0.022683
vn 0.316908 -0.948298 -0.017303
vn 0.417824 -0.907546 -0.042223
vn 0.372846 -0.924762 -0.076166
vn -0.299150 -0.468241 -0.831420
vn -0.469222 0.185425 -0.863394
vn -0.419357 -0.279751 -0.863643
vn -0.337172 -0.752403 -0.565866
vn -0.395742 -0.698524 -0.596198
vn -0.259318 -0.719161 -0.644641
vn -0.328760 -0.666866 -0.668735
vn -0.209435 0.977722 0.014058
vn -0.017292 0.987857 0.154400
vn -0.149416 0.983607 0.100954
vn 0.284750 0.605757 -0.742951
vn 0.284750 0.605757 -0.742951
vn 0.284750 0.605757 -0.742951
vn 0.500590 -0.342424 -0.795082
vn 0.500590 -0.342424 -0.795082
vn 0.500590 -0.342424 -0.795082
vn 0.894413 -0.081989 -0.439662
vn 0.894413 -0.081989 -0.439662
vn 0.894413 -0.081989 -0.439662
vn 0.376673 -0.015003 -0.926225
vn 0.376673 -0.015003 -0.926225
vn 0.376673 -0.015003 -0.926225
vn 0.673716 0.299255 -0.675687
vn 0.673716 0.299255 -0.675687
vn 0.673716 0.299255 -0.675687
vn 0.673716 0.299255 -0.675687
vn 0.673716 0.299255 -0.675687
vn 0.673716 0.299255 -0.675687
vn 0.673716 0.299255 -0.675687
vn 0.673716 0.299255 -0.675687
vn 0.673716 0.299255 -0.675687
vn 0.673716 0.299255 -0.675687
vn 0.673716 0.299255 -0.675687
vn 0.673716 0.299255 -0.675687
vn 0.049792 0.855578 0.515273
vn 0.090539 0.833542 0.544987
vn 0.105158 0.882946 0.457546
vn 0.155632 0.863055 0.480535
vn 0.029618 -0.948395 -0.315706
vn -0.012355 -0.937307 -0.348286
vn 0.085218 -0.924461 -0.371631
vn 0.038424 -0.914934 -0.401770
vn 0.480148 0.390958 0.785245
vn 0.564279 0.229433 0.793064
vn 0.565591 0.436050 0.699977
vn 0.662691 0.272792 0.697442
vn 0.747023 -0.584748 -0.316269
vn 0.747023 -0.584748 -0.316269
vn 0.747023 -0.584748 -0.316269
vn 0.747023 -0.584748 -0.316269
vn 0.515515 -0.816425 0.260180
vn 0.475088 -0.857493 0.197478
vn 0.588056 -0.785488 0.192869
vn 0.553444 -0.824316 0.119178
vn -0.783032 0.403761 -0.473114
vn -0.748870 0.549972 -0.369762
vn -0.687722 0.447511 -0.571640
vn -0.662878 0.594993 -0.454506
vn 0.217545 -0.967052 -0.132229
vn 0.181597 -0.968057 -0.172881
vn 0.270829 -0.945003 -0.183360
vn 0.237253 -0.944131 -0.228753
vn 0.193893 -0.513183 -0.836091
vn 0.193893 -0.513183 -0.836091
vn 0.193893 -0.513183 -0.836091
vn 0.193893 -0.513183 -0.836091
vn -0.128728 -0.890640 -0.436107
vn -0.168421 -0.868137 -0.466875
vn -0.070239 -0.867435 -0.492567
vn -0.103844 -0.840052 -0.532474
vn -0.097717 0.918146 0.384004
vn -0.059713 0.905295 0.420566
vn -0.042274 0.943537 0.328560
vn -0.006677 0.929035 0.369931
vn -0.601551 -0.444885 -0.663486
vn -0.681555 -0.281534 -0.675442
vn -0.513617 -0.412968 -0.752101
vn -0.586094 -0.238773 -0.774262
vn -0.016727 0.909136 -0.416164
vn -0.016727 0.909136 -0.416164
vn -0.016727 0.909136 -0.416164
vn -0.016727 0.909136 -0.416164
vn -0.613620 0.772849 -0.161786
vn -0.569366 0.815616 -0.102925
vn -0.546557 0.803920 -0.234496
vn -0.491927 0.851641 -0.180875
vn -0.294293 0.243265 0.924237
vn -0.039427 0.260637 0.964631
vn -0.185845 0.501303 0.845078
vn -0.289616 0.935039 0.204511
vn -0.249693 0.937810 0.241176
vn -0.239083 0.959104 0.151521
vn -0.194311 0.963205 0.185684
vn 0.536404 0.837571 0.103658
vn 0.536404 0.837571 0.103658
vn 0.536404 0.837571 0.103658
vn 0.536404 0.837571 0.103658
vn -0.617568 0.527930 0.583010
vn -0.617568 0.527930 0.583010
vn -0.617568 0.527930 0.583010
vn -0.617568 0.527930 0.583010
vn -0.308171 0.244809 0.919293
vn -0.308171 0.244809 0.919293
vn -0.308171 0.244809 0.919293
vn -0.308171 0.244809 0.919293
vn -0.158138 -0.768371 0.620161
vn -0.158138 -0.768371 0.620161
vn -0.158138 -0.768371 0.620161
vn -0.158138 -0.768371 0.620161
vn -0.260973 -0.918166 0.298102
vn -0.260973 -0.918166 0.298102
vn -0.260973 -0.918166 0.298102
vn -0.260973 -0.918166 0.298102
vn -0.406210 -0.899375 0.161610
vn -0.406210 -0.899375 0.161610
vn -0.406210 -0.899375 0.161610
vn -0.406210 -0.899375 0.161610
vn -0.709832 -0.696992 0.101688
vn -0.709832 -0.696992 0.101688
vn -0.709832 -0.696992 0.101688
vn -0.709832 -0.696992 0.101688
vn -0.859865 0.316187 0.400821
vn -0.859865 0.316187 0.400821
vn -0.859865 0.316187 0.400821
vn -0.859865 0.316187 0.400821
vn -0.640553 0.477408 0.601476
vn -0.457514 0.674295 0.579661
vn -0.592257 0.689706 0.416579
vn -0.472330 0.509139 0.719501
vn -0.472330 0.509139 0.719501
vn -0.472330 0.509139 0.719501
vn -0.472330 0.509139 0.719501
vn -0.729382 0.482120 0.485349
vn -0.592257 0.689706 0.416579
vn -0.757956 0.575323 0.307419
vn -0.865698 0.317193 0.387242
vn -0.757956 0.575323 0.307419
vn -0.916715 0.374146 0.140171
vn -0.883131 -0.462358 0.079403
vn -0.989638 -0.126490 -0.067946
vn -0.769508 -0.619957 -0.153331
vn -0.716236 -0.692128 0.089249
vn -0.769508 -0.619957 -0.153331
vn -0.550118 -0.828208 -0.106964
vn -0.533535 -0.840440 0.094875
vn -0.550118 -0.828208 -0.106964
vn -0.351824 -0.933958 -0.062794
vn -0.496269 0.458740 0.737071
vn -0.286985 0.650207 0.703471
vn -0.457514 0.674295 0.579661
vn -0.296038 -0.893429 0.337855
vn -0.213666 -0.972424 0.093482
vn -0.046550 -0.973455 0.224097
vn -0.180220 -0.886152 0.426914
vn -0.046550 -0.973455 0.224097
vn 0.021991 -0.902229 0.430697
vn -0.144831 -0.766057 0.626244
vn 0.021991 -0.902229 0.430697
vn 0.107776 -0.733461 0.671132
vn -0.965414 0.093301 0.243457
vn -0.916715 0.374146 0.140171
vn -0.989638 -0.126490 -0.067946
vn -0.177290 -0.008667 0.984120
vn 0.102113 -0.267737 0.958066
vn -0.039427 0.260637 0.964631
vn -0.095007 -0.564326 0.820067
vn 0.107776 -0.733461 0.671132
vn 0.102113 -0.267737 0.958066
vn -0.376066 0.436407 0.817388
vn -0.185845 0.501303 0.845078
vn -0.286985 0.650207 0.703471
vn -0.440322 -0.874762 0.202260
vn -0.351824 -0.933958 -0.062794
vn -0.213666 -0.972424 0.093482
vn 0.988417 0.150964 -0.015575
vn 0.988417 0.150964 -0.015575
vn 0.988417 0.150964 -0.015575
vn 0.988417 0.150964 -0.015575
vn 0.774493 -0.607151 0.177564
vn 0.838373 -0.442477 0.318348
vn 0.904106 0.007746 0.427239
vn 0.645484 -0.761637 0.057088
vn 0.774493 -0.607151 0.177564
vn 0.593502 -0.800235 -0.085902
vn 0.400757 -0.892739 -0.205940
vn 0.465928 -0.875569 -0.127633
vn 0.593502 -0.800235 -0.085902
vn 0.439963 -0.698548 -0.564325
vn 0.439963 -0.698548 -0.564325
vn 0.439963 -0.698548 -0.564325
vn 0.439963 -0.698548 -0.564325
vn 0.061038 -0.848786 -0.525202
vn 0.127104 -0.883750 -0.450366
vn 0.259350 -0.880339 -0.397165
vn -0.017524 -0.813019 -0.581973
vn 0.061038 -0.848786 -0.525202
vn -0.055268 -0.716297 -0.695603
vn -0.299150 -0.468241 -0.831420
vn -0.194206 -0.652998 -0.732037
vn -0.055268 -0.716297 -0.695603
vn -0.016093 0.280928 -0.959594
vn -0.016093 0.280928 -0.959594
vn -0.016093 0.280928 -0.959594
vn -0.016093 0.280928 -0.959594
vn -0.477899 0.738894 -0.475025
vn -0.545565 0.572539 -0.612011
vn -0.469222 0.185425 -0.863394
vn -0.418610 0.862412 -0.284626
vn -0.477899 0.738894 -0.475025
vn -0.299195 0.930962 -0.209265
vn -0.209435 0.977722 0.014058
vn -0.279815 0.958238 -0.059025
vn -0.299195 0.930962 -0.209265
vn 0.191542 0.979054 -0.069028
vn 0.191542 0.979054 -0.069028
vn 0.191542 0.979054 -0.069028
vn 0.191542 0.979054 -0.069028
vn 0.130284 0.933768 0.333321
vn 0.041961 0.958847 0.280806
vn -0.017292 0.987857 0.154400
vn 0.203639 0.895688 0.395315
vn 0.130284 0.933768 0.333321
vn 0.349575 0.847023 0.400436
vn 0.595739 0.599983 0.533962
vn 0.421080 0.753772 0.504500
vn 0.349575 0.847023 0.400436
vn 0.320838 0.746486 0.582942
vn 0.398614 0.788983 0.467560
vn 0.235316 0.813182 0.532318
vn 0.306576 0.838733 0.450042
vn 0.349575 0.847023 0.400436
vn 0.257970 0.881420 0.395664
vn 0.398614 0.788983 0.467560
vn 0.306576 0.838733 0.450042
vn 0.155632 0.863055 0.480535
vn 0.235316 0.813182 0.532318
vn 0.257970 0.881420 0.395664
vn 0.306576 0.838733 0.450042
vn -0.366036 0.930550 -0.009720
vn -0.284963 0.951666 -0.114574
vn -0.428254 0.899035 -0.091293
vn -0.347132 0.923313 -0.164297
vn -0.299195 0.930962 -0.209265
vn -0.376086 0.889216 -0.260487
vn -0.284963 0.951666 -0.114574
vn -0.347132 0.923313 -0.164297
vn -0.491927 0.851641 -0.180875
vn -0.428254 0.899035 -0.091293
vn -0.376086 0.889216 -0.260487
vn -0.347132 0.923313 -0.164297
vn -0.259318 -0.719161 -0.644641
vn -0.144304 -0.676026 -0.722610
vn -0.178446 -0.787923 -0.589350
vn -0.099806 -0.746893 -0.657411
vn -0.055268 -0.716297 -0.695603
vn -0.028604 -0.779542 -0.625697
vn -0.144304 -0.676026 -0.722610
vn -0.099806 -0.746893 -0.657411
vn -0.103844 -0.840052 -0.532474
vn -0.178446 -0.787923 -0.589350
vn -0.028604 -0.779542 -0.625697
vn -0.099806 -0.746893 -0.657411
vn 0.417824 -0.907546 -0.042223
vn 0.514327 -0.849786 -0.115463
vn 0.485120 -0.873776 0.034258
vn 0.553896 -0.831471 -0.043072
vn 0.593502 -0.800235 -0.085902
vn 0.630394 -0.776257 0.005438
vn 0.514327 -0.849786 -0.115463
vn 0.553896 -0.831471 -0.043072
vn 0.553444 -0.824316 0.119178
vn 0.485120 -0.873776 0.034258
vn 0.630394 -0.776257 0.005438
vn 0.553896 -0.831471 -0.043072
vn 0.887029 -0.270129 0.374446
vn 0.841710 -0.034438 0.538831
vn 0.764314 -0.413486 0.494827
vn 0.761386 -0.077292 0.643675
vn 0.904106 0.007746 0.427239
vn 0.809337 0.254508 0.529339
vn 0.887029 -0.270129 0.374446
vn 0.841710 -0.034438 0.538831
vn 0.761386 -0.077292 0.643675
vn 0.841710 -0.034438 0.538831
vn 0.662691 0.272792 0.697442
vn 0.809337 0.254508 0.529339
vn 0.085218 -0.924461 -0.371631
vn 0.167249 -0.888650 -0.427001
vn 0.159605 -0.940704 -0.299337
vn 0.218283 -0.908128 -0.357291
vn 0.292585 -0.904866 -0.309212
vn 0.218283 -0.908128 -0.357291
vn 0.259350 -0.880339 -0.397165
vn 0.167249 -0.888650 -0.427001
vn 0.237253 -0.944131 -0.228753
vn 0.159605 -0.940704 -0.299337
vn 0.292585 -0.904866 -0.309212
vn 0.218283 -0.908128 -0.357291
vn -0.531631 0.427996 -0.730881
vn -0.582079 0.149761 -0.799222
vn -0.687722 0.447511 -0.571640
vn -0.687407 0.110153 -0.717870
vn -0.469222 0.185425 -0.863394
vn -0.453940 -0.096646 -0.885776
vn -0.531631 0.427996 -0.730881
vn -0.582079 0.149761 -0.799222
vn -0.687407 0.110153 -0.717870
vn -0.582079 0.149761 -0.799222
vn -0.586094 -0.238773 -0.774262
vn -0.453940 -0.096646 -0.885776
vn -0.042274 0.943537 0.328560
vn 0.015015 0.969608 0.244203
vn -0.121506 0.957627 0.261126
vn -0.061012 0.977984 0.199560
vn -0.110326 0.985823 0.126419
vn -0.061012 0.977984 0.199560
vn -0.017292 0.987857 0.154400
vn 0.015015 0.969608 0.244203
vn -0.194311 0.963205 0.185684
vn -0.121506 0.957627 0.261126
vn -0.110326 0.985823 0.126419
vn -0.061012 0.977984 0.199560
vn 0.449649 0.569411 0.688177
vn 0.467015 0.578170 0.669042
vn 0.370261 0.685304 0.627109
vn 0.447029 0.685850 0.574261
vn 0.615111 0.493041 0.615264
vn 0.467015 0.578170 0.669042
vn 0.565591 0.436050 0.699977
vn 0.449649 0.569411 0.688177
vn 0.595739 0.599983 0.533962
vn 0.447029 0.685850 0.574261
vn 0.615111 0.493041 0.615264
vn 0.467015 0.578170 0.669042
vn 0.638174 -0.703707 0.312298
vn 0.655685 -0.695917 0.292876
vn 0.714849 -0.571904 0.402388
vn 0.770952 -0.559360 0.304547
vn 0.657767 -0.737292 0.154089
vn 0.655685 -0.695917 0.292876
vn 0.588056 -0.785488 0.192869
vn 0.638174 -0.703707 0.312298
vn 0.774493 -0.607151 0.177564
vn 0.770952 -0.559360 0.304547
vn 0.657767 -0.737292 0.154089
vn 0.655685 -0.695917 0.292876
vn 0.372846 -0.924762 -0.076166
vn 0.308222 -0.943848 -0.118956
vn 0.409094 -0.902839 -0.132376
vn 0.322161 -0.937284 -0.133083
vn 0.270829 -0.945003 -0.183360
vn 0.321417 -0.922115 -0.215396
vn 0.308222 -0.943848 -0.118956
vn 0.322161 -0.937284 -0.133083
vn 0.400757 -0.892739 -0.205940
vn 0.409094 -0.902839 -0.132376
vn 0.321417 -0.922115 -0.215396
vn 0.322161 -0.937284 -0.133083
vn 0.038424 -0.914934 -0.401770
vn -0.027101 -0.900462 -0.434090
vn 0.070572 -0.889659 -0.451140
vn -0.012961 -0.893923 -0.448033
vn -0.070239 -0.867435 -0.492567
vn -0.013551 -0.848157 -0.529572
vn -0.027101 -0.900462 -0.434090
vn -0.012961 -0.893923 -0.448033
vn 0.061038 -0.848786 -0.525202
vn 0.070572 -0.889659 -0.451140
vn -0.013551 -0.848157 -0.529572
vn -0.012961 -0.893923 -0.448033
vn -0.438408 -0.564417 -0.699451
vn -0.419062 -0.556863 -0.717141
vn -0.328760 -0.666866 -0.668735
vn -0.287509 -0.614987 -0.734255
vn -0.418080 -0.405521 -0.812872
vn -0.419062 -0.556863 -0.717141
vn -0.513617 -0.412968 -0.752101
vn -0.438408 -0.564417 -0.699451
vn -0.299150 -0.468241 -0.831420
vn -0.287509 -0.614987 -0.734255
vn -0.418080 -0.405521 -0.812872
vn -0.419062 -0.556863 -0.717141
vn -0.626932 0.708701 -0.323573
vn -0.607725 0.717222 -0.340974
vn -0.662878 0.594993 -0.454506
vn -0.573917 0.646885 -0.502155
vn -0.498245 0.808149 -0.314083
vn -0.607725 0.717222 -0.340974
vn -0.546557 0.803920 -0.234496
vn -0.626932 0.708701 -0.323573
vn -0.477899 0.738894 -0.475025
vn -0.573917 0.646885 -0.502155
vn -0.498245 0.808149 -0.314083
vn -0.607725 0.717222 -0.340974
vn -0.337926 0.940273 0.041144
vn -0.300702 0.947188 0.111414
vn -0.281252 0.959625 0.004160
vn -0.286475 0.953135 0.097294
vn -0.239083 0.959104 0.151521
vn -0.205351 0.973669 0.098991
vn -0.300702 0.947188 0.111414
vn -0.286475 0.953135 0.097294
vn -0.209435 0.977722 0.014058
vn -0.281252 0.959625 0.004160
vn -0.205351 0.973669 0.098991
vn -0.286475 0.953135 0.097294
vn -0.006677 0.929035 0.369931
vn 0.034625 0.903803 0.426546
vn 0.045494 0.941214 0.334733
vn 0.048648 0.909775 0.412242
vn 0.105158 0.882946 0.457546
vn 0.141394 0.904942 0.401358
vn 0.034625 0.903803 0.426546
vn 0.048648 0.909775 0.412242
vn 0.130284 0.933768 0.333321
vn 0.045494 0.941214 0.334733
vn 0.141394 0.904942 0.401358
vn 0.048648 0.909775 0.412242
vn 0.242891 0.710526 0.660422
vn 0.173199 0.784983 0.594814
vn 0.086119 0.637105 0.765951
vn 0.089014 0.740256 0.666406
vn -0.015194 0.750871 0.660275
vn 0.089014 0.740256 0.666406
vn 0.090539 0.833542 0.544987
vn 0.173199 0.784983 0.594814
vn -0.185845 0.501303 0.845078
vn 0.086119 0.637105 0.765951
vn -0.015194 0.750871 0.660275
vn 0.089014 0.740256 0.666406
vn -0.490650 0.870872 -0.029061
vn -0.563128 0.824634 0.053532
vn -0.430389 0.900940 0.055431
vn -0.550131 0.820081 0.157552
vn -0.569366 0.815616 -0.102925
vn -0.675505 0.735646 0.050188
vn -0.490650 0.870872 -0.029061
vn -0.563128 0.824634 0.053532
vn -0.757956 0.575323 0.307419
vn -0.550131 0.820081 0.157552
vn -0.675505 0.735646 0.050188
vn -0.563128 0.824634 0.053532
vn -0.337172 -0.752403 -0.565866
vn -0.240989 -0.815094 -0.526826
vn -0.448396 -0.798024 -0.402615
vn -0.316439 -0.841277 -0.438315
vn -0.296966 -0.889530 -0.347199
vn -0.316439 -0.841277 -0.438315
vn -0.168421 -0.868137 -0.466875
vn -0.240989 -0.815094 -0.526826
vn -0.550118 -0.828208 -0.106964
vn -0.448396 -0.798024 -0.402615
vn -0.296966 -0.889530 -0.347199
vn -0.316439 -0.841277 -0.438315
vn 0.422859 -0.900984 0.097047
vn 0.335704 -0.925653 0.174556
vn 0.352502 -0.935536 0.022683
vn 0.237965 -0.958741 0.155525
vn 0.475088 -0.857493 0.197478
vn 0.313229 -0.896564 0.313147
vn 0.422859 -0.900984 0.097047
vn 0.335704 -0.925653 0.174556
vn 0.021991 -0.902229 0.430697
vn 0.237965 -0.958741 0.155525
vn 0.313229 -0.896564 0.313147
vn 0.335704 -0.925653 0.174556
vn 0.676722 -0.114515 0.727278
vn 0.558944 -0.157586 0.814094
vn 0.665756 -0.455845 0.590740
vn 0.449652 -0.443277 0.775447
vn 0.374637 0.063303 0.925008
vn 0.558944 -0.157586 0.814094
vn 0.564279 0.229433 0.793064
vn 0.676722 -0.114515 0.727278
vn 0.102113 -0.267737 0.958066
vn 0.449652 -0.443277 0.775447
vn 0.374637 0.063303 0.925008
vn 0.558944 -0.157586 0.814094
vn 0.029618 -0.948395 -0.315706
vn 0.116211 -0.959724 -0.255782
vn -0.058967 -0.978339 -0.198435
vn 0.050051 -0.980837 -0.188290
vn 0.181597 -0.968057 -0.172881
vn 0.066170 -0.994529 -0.080837
vn 0.116211 -0.959724 -0.255782
vn 0.050051 -0.980837 -0.188290
vn -0.213666 -0.972424 0.093482
vn -0.058967 -0.978339 -0.198435
vn 0.066170 -0.994529 -0.080837
vn 0.050051 -0.980837 -0.188290
vn -0.770721 0.072765 -0.633004
vn -0.856266 0.025515 -0.515905
vn -0.783032 0.403761 -0.473114
vn -0.926202 0.231605 -0.297503
vn -0.851182 -0.274988 -0.447069
vn -0.856266 0.025515 -0.515905
vn -0.681555 -0.281534 -0.675442
vn -0.770721 0.072765 -0.633004
vn -0.989638 -0.126490 -0.067946
vn -0.926202 0.231605 -0.297503
vn -0.851182 -0.274988 -0.447069
vn -0.856266 0.025515 -0.515905
vn -0.097717 0.918146 0.384004
vn -0.164827 0.938130 0.304540
vn -0.208391 0.859582 0.466575
vn -0.228687 0.901490 0.367448
vn -0.249693 0.937810 0.241176
vn -0.333525 0.875774 0.348972
vn -0.164827 0.938130 0.304540
vn -0.228687 0.901490 0.367448
vn -0.457514 0.674295 0.579661
vn -0.208391 0.859582 0.466575
vn -0.333525 0.875774 0.348972
vn -0.228687 0.901490 0.367448
vn 0.152605 0.538359 0.828783
vn 0.287844 0.488601 0.823659
vn 0.297634 0.654949 0.694591
vn 0.398972 0.542365 0.739365
vn -0.039427 0.260637 0.964631
vn 0.262102 0.317159 0.911435
vn 0.152605 0.538359 0.828783
vn 0.287844 0.488601 0.823659
vn 0.398972 0.542365 0.739365
vn 0.287844 0.488601 0.823659
vn 0.480148 0.390958 0.785245
vn 0.262102 0.317159 0.911435
vn 0.408282 -0.670033 0.619969
vn 0.471861 -0.754145 0.456742
vn 0.627466 -0.603901 0.491518
vn 0.586309 -0.722774 0.365840
vn 0.107776 -0.733461 0.671132
vn 0.355664 -0.832946 0.423915
vn 0.408282 -0.670033 0.619969
vn 0.471861 -0.754145 0.456742
vn 0.586309 -0.722774 0.365840
vn 0.471861 -0.754145 0.456742
vn 0.515515 -0.816425 0.260180
vn 0.355664 -0.832946 0.423915
vn 0.316908 -0.948298 -0.017303
vn 0.186734 -0.978266 0.090140
vn 0.273752 -0.958184 -0.083323
vn 0.193145 -0.981152 -0.005900
vn -0.046550 -0.973455 0.224097
vn 0.114183 -0.993383 -0.012334
vn 0.186734 -0.978266 0.090140
vn 0.193145 -0.981152 -0.005900
vn 0.217545 -0.967052 -0.132229
vn 0.273752 -0.958184 -0.083323
vn 0.114183 -0.993383 -0.012334
vn 0.193145 -0.981152 -0.005900
vn -0.012355 -0.937307 -0.348286
vn -0.129108 -0.961905 -0.240976
vn -0.062490 -0.914679 -0.399322
vn -0.137966 -0.938310 -0.317079
vn -0.351824 -0.933958 -0.062794
vn -0.232243 -0.924057 -0.303614
vn -0.129108 -0.961905 -0.240976
vn -0.137966 -0.938310 -0.317079
vn -0.128728 -0.890640 -0.436107
vn -0.062490 -0.914679 -0.399322
vn -0.232243 -0.924057 -0.303614
vn -0.137966 -0.938310 -0.317079
vn -0.551547 -0.715567 -0.428673
vn -0.579422 -0.618113 -0.531232
vn -0.395742 -0.698524 -0.596198
vn -0.491248 -0.583350 -0.646822
vn -0.769508 -0.619957 -0.153331
vn -0.726087 -0.523258 -0.446093
vn -0.551547 -0.715567 -0.428673
vn -0.579422 -0.618113 -0.531232
vn -0.491248 -0.583350 -0.646822
vn -0.579422 -0.618113 -0.531232
vn -0.601551 -0.444885 -0.663486
vn -0.726087 -0.523258 -0.446093
vn -0.872267 0.463939 -0.154629
vn -0.763438 0.624631 -0.164313
vn -0.748870 0.549972 -0.369762
vn -0.678586 0.681784 -0.273296
vn -0.916715 0.374146 0.140171
vn -0.754606 0.655747 -0.023801
vn -0.872267 0.463939 -0.154629
vn -0.763438 0.624631 -0.164313
vn -0.678586 0.681784 -0.273296
vn -0.763438 0.624631 -0.164313
vn -0.613620 0.772849 -0.161786
vn -0.754606 0.655747 -0.023801
vn -0.395848 0.913234 0.096474
vn -0.493748 0.841895 0.217774
vn -0.335749 0.930646 0.145502
vn -0.408066 0.885687 0.221451
vn -0.592257 0.689706 0.416579
vn -0.399858 0.866490 0.298845
vn -0.493748 0.841895 0.217774
vn -0.408066 0.885687 0.221451
vn -0.289616 0.935039 0.204511
vn -0.335749 0.930646 0.145502
vn -0.399858 0.866490 0.298845
vn -0.408066 0.885687 0.221451
vn -0.059713 0.905295 0.420566
vn -0.156567 0.835013 0.527485
vn 0.000500 0.887144 0.461492
vn -0.076949 0.842849 0.532620
vn -0.286985 0.650207 0.703471
vn -0.074768 0.787687 0.611521
vn -0.156567 0.835013 0.527485
vn -0.076949 0.842849 0.532620
vn 0.049792 0.855578 0.515273
vn 0.000500 0.887144 0.461492
vn -0.074768 0.787687 0.611521
vn -0.076949 0.842849 0.532620
vn 0.349575 0.847023 0.400436
vn 0.398614 0.788983 0.467560
vn 0.595739 0.599983 0.533962
vn 0.447029 0.685850 0.574261
vn 0.398614 0.788983 0.467560
vn 0.320838 0.746486 0.582942
vn 0.447029 0.685850 0.574261
vn 0.370261 0.685304 0.627109
vn 0.774493 -0.607151 0.177564
vn 0.904106 0.007746 0.427239
vn 0.770952 -0.559360 0.304547
vn 0.887029 -0.270129 0.374446
vn 0.770952 -0.559360 0.304547
vn 0.887029 -0.270129 0.374446
vn 0.714849 -0.571904 0.402388
vn 0.764314 -0.413486 0.494827
vn 0.400757 -0.892739 -0.205940
vn 0.593502 -0.800235 -0.085902
vn 0.409094 -0.902839 -0.132376
vn 0.514327 -0.849786 -0.115463
vn 0.409094 -0.902839 -0.132376
vn 0.514327 -0.849786 -0.115463
vn 0.372846 -0.924762 -0.076166
vn 0.417824 -0.907546 -0.042223
vn 0.061038 -0.848786 -0.525202
vn 0.259350 -0.880339 -0.397165
vn 0.070572 -0.889659 -0.451140
vn 0.167249 -0.888650 -0.427001
vn 0.070572 -0.889659 -0.451140
vn 0.167249 -0.888650 -0.427001
vn 0.038424 -0.914934 -0.401770
vn 0.085218 -0.924461 -0.371631
vn -0.055268 -0.716297 -0.695603
vn -0.144304 -0.676026 -0.722610
vn -0.299150 -0.468241 -0.831420
vn -0.287509 -0.614987 -0.734255
vn -0.144304 -0.676026 -0.722610
vn -0.259318 -0.719161 -0.644641
vn -0.287509 -0.614987 -0.734255
vn -0.328760 -0.666866 -0.668735
vn -0.477899 0.738894 -0.475025
vn -0.469222 0.185425 -0.863394
vn -0.573917 0.646885 -0.502155
vn -0.531631 0.427996 -0.730881
vn -0.573917 0.646885 -0.502155
vn -0.531631 0.427996 -0.730881
vn -0.662878 0.594993 -0.454506
vn -0.687722 0.447511 -0.571640
vn -0.209435 0.977722 0.014058
vn -0.299195 0.930962 -0.209265
vn -0.281252 0.959625 0.004160
vn -0.284963 0.951666 -0.114574
vn -0.281252 0.959625 0.004160
vn -0.284963 0.951666 -0.114574
vn -0.337926 0.940273 0.041144
vn -0.366036 0.930550 -0.009720
vn 0.130284 0.933768 0.333321
vn -0.017292 0.987857 0.154400
vn 0.045494 0.941214 0.334733
vn 0.015015 0.969608 0.244203
vn 0.045494 0.941214 0.334733
vn 0.015015 0.969608 0.244203
vn -0.006677 0.929035 0.369931
vn -0.042274 0.943537 0.328560
vn 0.595739 0.599983 0.533962
vn 0.615111 0.493041 0.615264
vn 0.904106 0.007746 0.427239
vn 0.809337 0.254508 0.529339
vn 0.615111 0.493041 0.615264
vn 0.565591 0.436050 0.699977
vn 0.809337 0.254508 0.529339
vn 0.662691 0.272792 0.697442
vn 0.593502 -0.800235 -0.085902
vn 0.774493 -0.607151 0.177564
vn 0.630394 -0.776257 0.005438
vn 0.657767 -0.737292 0.154089
vn 0.630394 -0.776257 0.005438
vn 0.657767 -0.737292 0.154089
vn 0.553444 -0.824316 0.119178
vn 0.588056 -0.785488 0.192869
vn 0.259350 -0.880339 -0.397165
vn 0.400757 -0.892739 -0.205940
vn 0.292585 -0.904866 -0.309212
vn 0.321417 -0.922115 -0.215396
vn 0.292585 -0.904866 -0.309212
vn 0.321417 -0.922115 -0.215396
vn 0.237253 -0.944131 -0.228753
vn 0.270829 -0.945003 -0.183360
vn 0.061038 -0.848786 -0.525202
vn -0.013551 -0.848157 -0.529572
vn -0.055268 -0.716297 -0.695603
vn -0.028604 -0.779542 -0.625697
vn -0.013551 -0.848157 -0.529572
vn -0.070239 -0.867435 -0.492567
vn -0.028604 -0.779542 -0.625697
vn -0.103844 -0.840052 -0.532474
vn -0.299150 -0.468241 -0.831420
vn -0.418080 -0.405521 -0.812872
vn -0.469222 0.185425 -0.863394
vn -0.453940 -0.096646 -0.885776
vn -0.418080 -0.405521 -0.812872
vn -0.513617 -0.412968 -0.752101
vn -0.453940 -0.096646 -0.885776
vn -0.586094 -0.238773 -0.774262
vn -0.299195 0.930962 -0.209265
vn -0.477899 0.738894 -0.475025
vn -0.376086 0.889216 -0.260487
vn -0.498245 0.808149 -0.314083
vn -0.376086 0.889216 -0.260487
vn -0.498245 0.808149 -0.314083
vn -0.491927 0.851641 -0.180875
vn -0.546557 0.803920 -0.234496
vn -0.017292 0.987857 0.154400
vn -0.209435 0.977722 0.014058
vn -0.110326 0.985823 0.126419
vn -0.205351 0.973669 0.098991
vn -0.110326 0.985823 0.126419
vn -0.205351 0.973669 0.098991
vn -0.194311 0.963205 0.185684
vn -0.239083 0.959104 0.151521
vn 0.130284 0.933768 0.333321
vn 0.141394 0.904942 0.401358
vn 0.349575 0.847023 0.400436
vn 0.257970 0.881420 0.395664
vn 0.141394 0.904942 0.401358
vn 0.105158 0.882946 0.457546
vn 0.257970 0.881420 0.395664
vn 0.155632 0.863055 0.480535
vn 0.297634 0.654949 0.694591
vn 0.242891 0.710526 0.660422
vn 0.152605 0.538359 0.828783
vn 0.086119 0.637105 0.765951
vn 0.152605 0.538359 0.828783
vn 0.086119 0.637105 0.765951
vn -0.039427 0.260637 0.964631
vn -0.185845 0.501303 0.845078
vn 0.665756 -0.455845 0.590740
vn 0.449652 -0.443277 0.775447
vn 0.627466 -0.603901 0.491518
vn 0.408282 -0.670033 0.619969
vn 0.449652 -0.443277 0.775447
vn 0.102113 -0.267737 0.958066
vn 0.408282 -0.670033 0.619969
vn 0.107776 -0.733461 0.671132
vn 0.352502 -0.935536 0.022683
vn 0.237965 -0.958741 0.155525
vn 0.316908 -0.948298 -0.017303
vn 0.186734 -0.978266 0.090140
vn 0.237965 -0.958741 0.155525
vn 0.021991 -0.902229 0.430697
vn 0.186734 -0.978266 0.090140
vn -0.046550 -0.973455 0.224097
vn -0.012355 -0.937307 -0.348286
vn 0.029618 -0.948395 -0.315706
vn -0.129108 -0.961905 -0.240976
vn -0.058967 -0.978339 -0.198435
vn -0.129108 -0.961905 -0.240976
vn -0.058967 -0.978339 -0.198435
vn -0.351824 -0.933958 -0.062794
vn -0.213666 -0.972424 0.093482
vn -0.395742 -0.698524 -0.596198
vn -0.337172 -0.752403 -0.565866
vn -0.551547 -0.715567 -0.428673
vn -0.448396 -0.798024 -0.402615
vn -0.551547 -0.715567 -0.428673
vn -0.448396 -0.798024 -0.402615
vn -0.769508 -0.619957 -0.153331
vn -0.550118 -0.828208 -0.106964
vn -0.783032 0.403761 -0.473114
vn -0.926202 0.231605 -0.297503
vn -0.748870 0.549972 -0.369762
vn -0.872267 0.463939 -0.154629
vn -0.926202 0.231605 -0.297503
vn -0.989638 -0.126490 -0.067946
vn -0.872267 0.463939 -0.154629
vn -0.916715 0.374146 0.140171
vn -0.430389 0.900940 0.055431
vn -0.550131 0.820081 0.157552
vn -0.395848 0.913234 0.096474
vn -0.493748 0.841895 0.217774
vn -0.550131 0.820081 0.157552
vn -0.757956 0.575323 0.307419
vn -0.493748 0.841895 0.217774
vn -0.592257 0.689706 0.416579
vn -0.059713 0.905295 0.420566
vn -0.097717 0.918146 0.384004
vn -0.156567 0.835013 0.527485
vn -0.208391 0.859582 0.466575
vn -0.156567 0.835013 0.527485
vn -0.208391 0.859582 0.466575
vn -0.286985 0.650207 0.703471
vn -0.457514 0.674295 0.579661
vn 0.564279 0.229433 0.793064
vn 0.480148 0.390958 0.785245
vn 0.374637 0.063303 0.925008
vn 0.262102 0.317159 0.911435
vn 0.374637 0.063303 0.925008
vn 0.262102 0.317159 0.911435
vn 0.102113 -0.267737 0.958066
vn -0.039427 0.260637 0.964631
vn 0.515515 -0.816425 0.260180
vn 0.355664 -0.832946 0.423915
vn 0.475088 -0.857493 0.197478
vn 0.313229 -0.896564 0.313147
vn 0.355664 -0.832946 0.423915
vn 0.107776 -0.733461 0.671132
vn 0.313229 -0.896564 0.313147
vn 0.021991 -0.902229 0.430697
vn 0.217545 -0.967052 -0.132229
vn 0.114183 -0.993383 -0.012334
vn 0.181597 -0.968057 -0.172881
vn 0.066170 -0.994529 -0.080837
vn 0.114183 -0.993383 -0.012334
vn -0.046550 -0.973455 0.224097
vn 0.066170 -0.994529 -0.080837
vn -0.213666 -0.972424 0.093482
vn -0.168421 -0.868137 -0.466875
vn -0.128728 -0.890640 -0.436107
vn -0.296966 -0.889530 -0.347199
vn -0.232243 -0.924057 -0.303614
vn -0.296966 -0.889530 -0.347199
vn -0.232243 -0.924057 -0.303614
vn -0.550118 -0.828208 -0.106964
vn -0.351824 -0.933958 -0.062794
vn -0.681555 -0.281534 -0.675442
vn -0.601551 -0.444885 -0.663486
vn -0.851182 -0.274988 -0.447069
vn -0.726087 -0.523258 -0.446093
vn -0.851182 -0.274988 -0.447069
vn -0.726087 -0.523258 -0.446093
vn -0.989638 -0.126490 -0.067946
vn -0.769508 -0.619957 -0.153331
vn -0.613620 0.772849 -0.161786
vn -0.754606 0.655747 -0.023801
vn -0.569366 0.815616 -0.102925
vn -0.675505 0.735646 0.050188
vn -0.754606 0.655747 -0.023801
vn -0.916715 0.374146 0.140171
vn -0.675505 0.735646 0.050188
vn -0.757956 0.575323 0.307419
vn -0.289616 0.935039 0.204511
vn -0.399858 0.866490 0.298845
vn -0.249693 0.937810 0.241176
vn -0.333525 0.875774 0.348972
vn -0.399858 0.866490 0.298845
vn -0.592257 0.689706 0.416579
vn -0.333525 0.875774 0.348972
vn -0.457514 0.674295 0.579661
vn 0.090539 0.833542 0.544987
vn 0.049792 0.855578 0.515273
vn -0.015194 0.750871 0.660275
vn -0.074768 0.787687 0.611521
vn -0.015194 0.750871 0.660275
vn -0.074768 0.787687 0.611521
vn -0.185845 0.501303 0.845078
vn -0.286985 0.650207 0.703471
vn 0.370261 0.685304 0.627109
vn 0.297634 0.654949 0.694591
vn 0.449649 0.569411 0.688177
vn 0.398972 0.542365 0.739365
vn 0.449649 0.569411 0.688177
vn 0.398972 0.542365 0.739365
vn 0.565591 0.436050 0.699977
vn 0.480148 0.390958 0.785245
vn 0.665756 -0.455845 0.590740
vn 0.764314 -0.413486 0.494827
vn 0.676722 -0.114515 0.727278
vn 0.761386 -0.077292 0.643675
vn 0.676722 -0.114515 0.727278
vn 0.761386 -0.077292 0.643675
vn 0.564279 0.229433 0.793064
vn 0.662691 0.272792 0.697442
vn 0.515515 -0.816425 0.260180
vn 0.588056 -0.785488 0.192869
vn 0.586309 -0.722774 0.365840
vn 0.638174 -0.703707 0.312298
vn 0.586309 -0.722774 0.365840
vn 0.638174 -0.703707 0.312298
vn 0.627466 -0.603901 0.491518
vn 0.714849 -0.571904 0.402388
vn 0.352502 -0.935536 0.022683
vn 0.417824 -0.907546 -0.042223
vn 0.422859 -0.900984 0.097047
vn 0.485120 -0.873776 0.034258
vn 0.422859 -0.900984 0.097047
vn 0.485120 -0.873776 0.034258
vn 0.475088 -0.857493 0.197478
vn 0.553444 -0.824316 0.119178
vn 0.217545 -0.967052 -0.132229
vn 0.270829 -0.945003 -0.183360
vn 0.273752 -0.958184 -0.083323
vn 0.308222 -0.943848 -0.118956
vn 0.273752 -0.958184 -0.083323
vn 0.308222 -0.943848 -0.118956
vn 0.316908 -0.948298 -0.017303
vn 0.372846 -0.924762 -0.076166
vn 0.029618 -0.948395 -0.315706
vn 0.085218 -0.924461 -0.371631
vn 0.116211 -0.959724 -0.255782
vn 0.159605 -0.940704 -0.299337
vn 0.116211 -0.959724 -0.255782
vn 0.159605 -0.940704 -0.299337
vn 0.181597 -0.968057 -0.172881
vn 0.237253 -0.944131 -0.228753
vn -0.128728 -0.890640 -0.436107
vn -0.070239 -0.867435 -0.492567
vn -0.062490 -0.914679 -0.399322
vn -0.027101 -0.900462 -0.434090
vn -0.062490 -0.914679 -0.399322
vn -0.027101 -0.900462 -0.434090
vn -0.012355 -0.937307 -0.348286
vn 0.038424 -0.914934 -0.401770
vn -0.337172 -0.752403 -0.565866
vn -0.259318 -0.719161 -0.644641
vn -0.240989 -0.815094 -0.526826
vn -0.178446 -0.787923 -0.589350
vn -0.240989 -0.815094 -0.526826
vn -0.178446 -0.787923 -0.589350
vn -0.168421 -0.868137 -0.466875
vn -0.103844 -0.840052 -0.532474
vn -0.601551 -0.444885 -0.663486
vn -0.513617 -0.412968 -0.752101
vn -0.491248 -0.583350 -0.646822
vn -0.438408 -0.564417 -0.699451
vn -0.491248 -0.583350 -0.646822
vn -0.438408 -0.564417 -0.699451
vn -0.395742 -0.698524 -0.596198
vn -0.328760 -0.666866 -0.668735
vn -0.783032 0.403761 -0.473114
vn -0.687722 0.447511 -0.571640
vn -0.770721 0.072765 -0.633004
vn -0.687407 0.110153 -0.717870
vn -0.770721 0.072765 -0.633004
vn -0.687407 0.110153 -0.717870
vn -0.681555 -0.281534 -0.675442
vn -0.586094 -0.238773 -0.774262
vn -0.613620 0.772849 -0.161786
vn -0.546557 0.803920 -0.234496
vn -0.678586 0.681784 -0.273296
vn -0.626932 0.708701 -0.323573
vn -0.678586 0.681784 -0.273296
vn -0.626932 0.708701 -0.323573
vn -0.748870 0.549972 -0.369762
vn -0.662878 0.594993 -0.454506
vn -0.430389 0.900940 0.055431
vn -0.366036 0.930550 -0.009720
vn -0.490650 0.870872 -0.029061
vn -0.428254 0.899035 -0.091293
vn -0.490650 0.870872 -0.029061
vn -0.428254 0.899035 -0.091293
vn -0.569366 0.815616 -0.102925
vn -0.491927 0.851641 -0.180875
vn -0.289616 0.935039 0.204511
vn -0.239083 0.959104 0.151521
vn -0.335749 0.930646 0.145502
vn -0.300702 0.947188 0.111414
vn -0.335749 0.930646 0.145502
vn -0.300702 0.947188 0.111414
vn -0.395848 0.913234 0.096474
vn -0.337926 0.940273 0.041144
vn -0.097717 0.918146 0.384004
vn -0.042274 0.943537 0.328560
vn -0.164827 0.938130 0.304540
vn -0.121506 0.957627 0.261126
vn -0.164827 0.938130 0.304540
vn -0.121506 0.957627 0.261126
vn -0.249693 0.937810 0.241176
vn -0.194311 0.963205 0.185684
vn 0.049792 0.855578 0.515273
vn 0.105158 0.882946 0.457546
vn 0.000500 0.887144 0.461492
vn 0.034625 0.903803 0.426546
vn 0.000500 0.887144 0.461492
vn 0.034625 0.903803 0.426546
vn -0.059713 0.905295 0.420566
vn -0.006677 0.929035 0.369931
vn 0.242891 0.710526 0.660422
vn 0.320838 0.746486 0.582942
vn 0.173199 0.784983 0.594814
vn 0.235316 0.813182 0.532318
vn 0.173199 0.784983 0.594814
vn 0.235316 0.813182 0.532318
vn 0.090539 0.833542 0.544987
vn 0.155632 0.863055 0.480535
vn 0.242891 0.710526 0.660422
vn 0.297634 0.654949 0.694591
vn 0.320838 0.746486 0.582942
vn 0.370261 0.685304 0.627109
vn 0.539641 0.804480 -0.248192
vn 0.539641 0.804480 -0.248192
vn 0.539641 0.804480 -0.248192
s off
g d5_polySurface5
usemtl initialShadingGroup
f 15//1 7//2 3//3
f 14//4 8//5 1//6
f 17//7 5//8 2//9
s 1
f 7//10 9//11 3//12
f 3//12 9//11 8//13
s 2
f 146//14 237//15 34//16
f 34//16 237//15 125//17
s off
f 85//18 56//19 14//20
s 3
f 167//21 202//22 55//23
f 55//23 202//22 90//24
s off
f 99//25 63//26 15//27
s 4
f 160//28 209//29 48//30
f 48//30 209//29 97//31
s off
f 113//32 70//33 16//34
s 5
f 153//35 223//36 41//37
f 41//37 223//36 111//38
s off
f 127//39 77//40 17//41
f 11//42 2//43 6//44
f 12//45 4//46 7//47
f 13//48 3//49 8//50
f 16//51 6//52 4//53
s 6
f 6//54 2//55 9//56
f 9//56 2//55 5//57
s 7
f 5//58 1//59 9//60
f 9//60 1//59 8//61
s 8
f 6//62 9//63 4//64
f 4//64 9//63 7//65
s 9
f 246//66 140//67 133//68
f 133//68 140//67 29//69
s 10
f 174//70 216//71 62//72
f 62//72 216//71 104//73
s 11
f 197//74 168//75 84//76
f 84//76 168//75 57//77
s 12
f 15//78 3//79 49//80
f 49//80 3//79 13//81
s 13
f 204//82 161//83 91//84
f 91//84 161//83 50//85
s 14
f 181//86 230//87 69//88
f 69//88 230//87 118//89
s 15
f 211//90 175//91 98//92
f 98//92 175//91 64//93
s 16
f 16//94 4//95 42//96
f 42//96 4//95 12//97
s 17
f 218//98 154//99 105//100
f 105//100 154//99 43//101
s 18
f 188//102 244//103 76//104
f 76//104 244//103 132//105
s 19
f 225//106 182//107 112//108
f 112//108 182//107 71//109
s 20
f 17//110 2//111 35//112
f 35//112 2//111 11//113
s 21
f 232//114 147//115 119//116
f 119//116 147//115 36//117
s off
f 19//118 196//119 141//120
s 22
f 239//121 189//122 126//123
f 126//123 189//122 78//124
s 23
f 14//125 1//126 28//127
f 28//127 1//126 10//128
s 24
f 238//129 20//130 26//131
f 26//131 20//130 18//132
s 25
f 196//133 19//134 23//135
f 23//135 19//134 18//136
s 26
f 203//137 23//138 22//139
f 22//139 23//138 18//140
s 27
f 210//141 22//142 24//143
f 24//143 22//142 18//144
s 28
f 217//145 24//146 21//147
f 21//147 24//146 18//148
s 29
f 224//149 21//150 25//151
f 25//151 21//150 18//152
s 30
f 231//153 25//154 20//155
f 20//155 25//154 18//156
s off
f 26//157 190//158 238//159
s 31
f 245//160 26//161 19//162
f 19//162 26//161 18//163
s off
f 20//164 238//165 148//166
f 20//167 148//168 231//169
f 25//170 183//171 224//172
f 21//173 224//174 155//175
f 21//176 155//177 217//178
f 26//179 245//180 190//181
f 24//182 176//183 210//184
f 22//185 210//186 162//187
f 22//188 162//189 203//190
f 25//191 231//192 183//193
f 23//194 169//195 196//196
f 23//197 203//198 169//199
f 19//200 141//201 245//202
f 24//203 217//204 176//205
s 32
f 56//206 13//207 14//208
f 14//208 13//207 8//209
s off
f 92//210 13//211 56//212
f 13//213 92//214 49//215
f 99//216 15//217 49//218
s 33
f 12//219 7//220 63//221
f 63//221 7//220 15//222
s off
f 106//223 12//224 63//225
f 12//226 106//227 42//228
f 113//229 16//230 42//231
s 34
f 70//232 11//233 16//234
f 16//234 11//233 6//235
s off
f 120//236 11//237 70//238
f 11//239 120//240 35//241
f 127//242 17//243 35//244
s 35
f 10//245 5//246 77//247
f 77//247 5//246 17//248
s off
f 134//249 10//250 77//251
f 10//252 134//253 28//254
f 85//255 14//256 28//257
s 36
f 27//258 30//259 33//260
f 33//260 30//259 31//261
s 37
f 28//262 32//263 30//264
f 30//264 32//263 31//265
s 38
f 29//266 33//267 32//268
f 32//268 33//267 31//269
s 39
f 34//270 37//271 40//272
f 40//272 37//271 38//273
s 40
f 35//274 39//275 37//276
f 37//276 39//275 38//277
s 41
f 36//278 40//279 39//280
f 39//280 40//279 38//281
s 42
f 41//282 44//283 47//284
f 47//284 44//283 45//285
s 43
f 42//286 46//287 44//288
f 44//288 46//287 45//289
s 44
f 43//290 47//291 46//292
f 46//292 47//291 45//293
s 45
f 48//294 51//295 54//296
f 54//296 51//295 52//297
s 46
f 49//298 53//299 51//300
f 51//300 53//299 52//301
s 47
f 50//302 54//303 53//304
f 53//304 54//303 52//305
s 48
f 58//306 59//307 55//308
f 55//308 59//307 61//309
s 49
f 56//310 60//311 58//312
f 58//312 60//311 59//313
s 50
f 61//314 59//315 57//316
f 57//316 59//315 60//317
s 51
f 62//318 65//319 68//320
f 68//320 65//319 66//321
s 52
f 67//322 66//323 63//324
f 63//324 66//323 65//325
s 53
f 64//326 68//327 67//328
f 67//328 68//327 66//329
s 54
f 72//330 73//331 69//332
f 69//332 73//331 75//333
s 55
f 70//334 74//335 72//336
f 72//336 74//335 73//337
s 56
f 75//338 73//339 71//340
f 71//340 73//339 74//341
s 57
f 76//342 79//343 82//344
f 82//344 79//343 80//345
s 58
f 81//346 80//347 77//348
f 77//348 80//347 79//349
s 59
f 78//350 82//351 81//352
f 81//352 82//351 80//353
s 60
f 86//354 87//355 83//356
f 83//356 87//355 89//357
s 61
f 88//358 87//359 84//360
f 84//360 87//359 86//361
s 62
f 85//362 89//363 88//364
f 88//364 89//363 87//365
s 63
f 93//366 94//367 90//368
f 90//368 94//367 96//369
s 64
f 95//370 94//371 91//372
f 91//372 94//371 93//373
s 65
f 92//374 96//375 95//376
f 95//376 96//375 94//377
s 66
f 97//378 100//379 103//380
f 103//380 100//379 101//381
s 67
f 98//382 102//383 100//384
f 100//384 102//383 101//385
s 68
f 99//386 103//387 102//388
f 102//388 103//387 101//389
s 69
f 104//390 107//391 110//392
f 110//392 107//391 108//393
s 70
f 105//394 109//395 107//396
f 107//396 109//395 108//397
s 71
f 106//398 110//399 109//400
f 109//400 110//399 108//401
s 72
f 114//402 115//403 111//404
f 111//404 115//403 117//405
s 73
f 116//406 115//407 112//408
f 112//408 115//407 114//409
s 74
f 113//410 117//411 116//412
f 116//412 117//411 115//413
s 75
f 121//414 122//415 118//416
f 118//416 122//415 124//417
s 76
f 123//418 122//419 119//420
f 119//420 122//419 121//421
s 77
f 120//422 124//423 123//424
f 123//424 124//423 122//425
s 78
f 125//426 128//427 131//428
f 131//428 128//427 129//429
s 79
f 126//430 130//431 128//432
f 128//432 130//431 129//433
s 80
f 127//434 131//435 130//436
f 130//436 131//435 129//437
s 81
f 132//438 135//439 138//440
f 138//440 135//439 136//441
s 82
f 133//442 137//443 135//444
f 135//444 137//443 136//445
s 83
f 134//446 138//447 137//448
f 137//448 138//447 136//449
s 84
f 139//450 142//451 145//452
f 145//452 142//451 143//453
s 85
f 144//454 143//455 140//456
f 140//456 143//455 142//457
s 86
f 141//458 145//459 144//460
f 144//460 145//459 143//461
s 87
f 149//462 150//463 146//464
f 146//464 150//463 152//465
s 88
f 147//466 151//467 149//468
f 149//468 151//467 150//469
s 89
f 148//470 152//471 151//472
f 151//472 152//471 150//473
s 90
f 153//474 156//475 159//476
f 159//476 156//475 157//477
s 91
f 158//478 157//479 154//480
f 154//480 157//479 156//481
s 92
f 155//482 159//483 158//484
f 158//484 159//483 157//485
s 93
f 163//486 164//487 160//488
f 160//488 164//487 166//489
s 94
f 161//490 165//491 163//492
f 163//492 165//491 164//493
s 95
f 162//494 166//495 165//496
f 165//496 166//495 164//497
s 96
f 170//498 171//499 167//500
f 167//500 171//499 173//501
s 97
f 172//502 171//503 168//504
f 168//504 171//503 170//505
s 98
f 169//506 173//507 172//508
f 172//508 173//507 171//509
s 99
f 174//510 177//511 180//512
f 180//512 177//511 178//513
s 100
f 175//514 179//515 177//516
f 177//516 179//515 178//517
s 101
f 176//518 180//519 179//520
f 179//520 180//519 178//521
s 102
f 184//522 185//523 181//524
f 181//524 185//523 187//525
s 103
f 186//526 185//527 182//528
f 182//528 185//527 184//529
s 104
f 183//530 187//531 186//532
f 186//532 187//531 185//533
s 105
f 188//534 191//535 194//536
f 194//536 191//535 192//537
s 106
f 189//538 193//539 191//540
f 191//540 193//539 192//541
s 107
f 190//542 194//543 193//544
f 193//544 194//543 192//545
s 108
f 198//546 199//547 195//548
f 195//548 199//547 201//549
s 109
f 196//550 200//551 198//552
f 198//552 200//551 199//553
s 110
f 201//554 199//555 197//556
f 197//556 199//555 200//557
s 111
f 205//558 206//559 202//560
f 202//560 206//559 208//561
s 112
f 203//562 207//563 205//564
f 205//564 207//563 206//565
s 113
f 208//566 206//567 204//568
f 204//568 206//567 207//569
s 114
f 209//570 212//571 215//572
f 215//572 212//571 213//573
s 115
f 210//574 214//575 212//576
f 212//576 214//575 213//577
s 116
f 211//578 215//579 214//580
f 214//580 215//579 213//581
s 117
f 216//582 219//583 222//584
f 222//584 219//583 220//585
s 118
f 217//586 221//587 219//588
f 219//588 221//587 220//589
s 119
f 218//590 222//591 221//592
f 221//592 222//591 220//593
s 120
f 226//594 227//595 223//596
f 223//596 227//595 229//597
s 121
f 224//598 228//599 226//600
f 226//600 228//599 227//601
s 122
f 229//602 227//603 225//604
f 225//604 227//603 228//605
s 123
f 233//606 234//607 230//608
f 230//608 234//607 236//609
s 124
f 231//610 235//611 233//612
f 233//612 235//611 234//613
s 125
f 236//614 234//615 232//616
f 232//616 234//615 235//617
s 126
f 237//618 240//619 243//620
f 243//620 240//619 241//621
s 127
f 238//622 242//623 240//624
f 240//624 242//623 241//625
s 128
f 239//626 243//627 242//628
f 242//628 243//627 241//629
s 129
f 244//630 247//631 250//632
f 250//632 247//631 248//633
s 130
f 245//634 249//635 247//636
f 247//636 249//635 248//637
s 131
f 246//638 250//639 249//640
f 249//640 250//639 248//641
s 132
f 28//642 30//643 85//644
f 85//644 30//643 89//645
s 133
f 30//646 27//647 89//648
f 89//648 27//647 83//649
s 134
f 92//650 56//651 96//652
f 96//652 56//651 58//653
s 135
f 96//654 58//655 90//656
f 90//656 58//655 55//657
s 136
f 99//658 49//659 103//660
f 103//660 49//659 51//661
s 137
f 103//662 51//663 97//664
f 97//664 51//663 48//665
s 138
f 106//666 63//667 110//668
f 110//668 63//667 65//669
s 139
f 110//670 65//671 104//672
f 104//672 65//671 62//673
s 140
f 42//674 44//675 113//676
f 113//676 44//675 117//677
s 141
f 44//678 41//679 117//680
f 117//680 41//679 111//681
s 142
f 120//682 70//683 124//684
f 124//684 70//683 72//685
s 143
f 124//686 72//687 118//688
f 118//688 72//687 69//689
s 144
f 127//690 35//691 131//692
f 131//692 35//691 37//693
s 145
f 131//694 37//695 125//696
f 125//696 37//695 34//697
s 146
f 134//698 77//699 138//700
f 138//700 77//699 79//701
s 147
f 138//702 79//703 132//704
f 132//704 79//703 76//705
s 148
f 85//706 88//707 56//708
f 56//708 88//707 60//709
s 149
f 88//710 84//711 60//712
f 60//712 84//711 57//713
s 150
f 49//714 92//715 53//716
f 53//716 92//715 95//717
s 151
f 53//718 95//719 50//720
f 50//720 95//719 91//721
s 152
f 63//722 99//723 67//724
f 67//724 99//723 102//725
s 153
f 67//726 102//727 64//728
f 64//728 102//727 98//729
s 154
f 106//730 109//731 42//732
f 42//732 109//731 46//733
s 155
f 109//734 105//735 46//736
f 46//736 105//735 43//737
s 156
f 113//738 116//739 70//740
f 70//740 116//739 74//741
s 157
f 116//742 112//743 74//744
f 74//744 112//743 71//745
s 158
f 35//746 120//747 39//748
f 39//748 120//747 123//749
s 159
f 39//750 123//751 36//752
f 36//752 123//751 119//753
s 160
f 77//754 127//755 81//756
f 81//756 127//755 130//757
s 161
f 81//758 130//759 78//760
f 78//760 130//759 126//761
s 162
f 134//762 137//763 28//764
f 28//764 137//763 32//765
s 163
f 137//766 133//767 32//768
f 32//768 133//767 29//769
s 164
f 195//770 139//771 198//772
f 198//772 139//771 145//773
s 165
f 198//774 145//775 196//776
f 196//776 145//775 141//777
s 166
f 167//778 173//779 202//780
f 202//780 173//779 205//781
s 167
f 173//782 169//783 205//784
f 205//784 169//783 203//785
s 168
f 160//786 166//787 209//788
f 209//788 166//787 212//789
s 169
f 166//790 162//791 212//792
f 212//792 162//791 210//793
s 170
f 216//794 174//795 219//796
f 219//796 174//795 180//797
s 171
f 219//798 180//799 217//800
f 217//800 180//799 176//801
s 172
f 223//802 153//803 226//804
f 226//804 153//803 159//805
s 173
f 226//806 159//807 224//808
f 224//808 159//807 155//809
s 174
f 181//810 187//811 230//812
f 230//812 187//811 233//813
s 175
f 187//814 183//815 233//816
f 233//816 183//815 231//817
s 176
f 146//818 152//819 237//820
f 237//820 152//819 240//821
s 177
f 152//822 148//823 240//824
f 240//824 148//823 238//825
s 178
f 244//826 188//827 247//828
f 247//828 188//827 194//829
s 179
f 247//830 194//831 245//832
f 245//832 194//831 190//833
s 180
f 168//834 197//835 172//836
f 172//836 197//835 200//837
s 181
f 172//838 200//839 169//840
f 169//840 200//839 196//841
s 182
f 204//842 207//843 161//844
f 161//844 207//843 165//845
s 183
f 207//846 203//847 165//848
f 165//848 203//847 162//849
s 184
f 211//850 214//851 175//852
f 175//852 214//851 179//853
s 185
f 214//854 210//855 179//856
f 179//856 210//855 176//857
s 186
f 154//858 218//859 158//860
f 158//860 218//859 221//861
s 187
f 158//862 221//863 155//864
f 155//864 221//863 217//865
s 188
f 182//866 225//867 186//868
f 186//868 225//867 228//869
s 189
f 186//870 228//871 183//872
f 183//872 228//871 224//873
s 190
f 232//874 235//875 147//876
f 147//876 235//875 151//877
s 191
f 235//878 231//879 151//880
f 151//880 231//879 148//881
s 192
f 239//882 242//883 189//884
f 189//884 242//883 193//885
s 193
f 242//886 238//887 193//888
f 193//888 238//887 190//889
s 194
f 140//890 246//891 144//892
f 144//892 246//891 249//893
s 195
f 144//894 249//895 141//896
f 141//896 249//895 245//897
s 196
f 83//898 195//899 86//900
f 86//900 195//899 201//901
s 197
f 86//902 201//903 84//904
f 84//904 201//903 197//905
s 198
f 167//906 55//907 170//908
f 170//908 55//907 61//909
s 199
f 170//910 61//911 168//912
f 168//912 61//911 57//913
s 200
f 204//914 91//915 208//916
f 208//916 91//915 93//917
s 201
f 208//918 93//919 202//920
f 202//920 93//919 90//921
s 202
f 160//922 48//923 163//924
f 163//924 48//923 54//925
s 203
f 163//926 54//927 161//928
f 161//928 54//927 50//929
s 204
f 211//930 98//931 215//932
f 215//932 98//931 100//933
s 205
f 215//934 100//935 209//936
f 209//936 100//935 97//937
s 206
f 174//938 62//939 177//940
f 177//940 62//939 68//941
s 207
f 177//942 68//943 175//944
f 175//944 68//943 64//945
s 208
f 218//946 105//947 222//948
f 222//948 105//947 107//949
s 209
f 222//950 107//951 216//952
f 216//952 107//951 104//953
s 210
f 153//954 41//955 156//956
f 156//956 41//955 47//957
s 211
f 156//958 47//959 154//960
f 154//960 47//959 43//961
s 212
f 225//962 112//963 229//964
f 229//964 112//963 114//965
s 213
f 229//966 114//967 223//968
f 223//968 114//967 111//969
s 214
f 181//970 69//971 184//972
f 184//972 69//971 75//973
s 215
f 184//974 75//975 182//976
f 182//976 75//975 71//977
s 216
f 232//978 119//979 236//980
f 236//980 119//979 121//981
s 217
f 236//982 121//983 230//984
f 230//984 121//983 118//985
s 218
f 146//986 34//987 149//988
f 149//988 34//987 40//989
s 219
f 149//990 40//991 147//992
f 147//992 40//991 36//993
s 220
f 239//994 126//995 243//996
f 243//996 126//995 128//997
s 221
f 243//998 128//999 237//1000
f 237//1000 128//999 125//1001
s 222
f 188//1002 76//1003 191//1004
f 191//1004 76//1003 82//1005
s 223
f 191//1006 82//1007 189//1008
f 189//1008 82//1007 78//1009
s 224
f 246//1010 133//1011 250//1012
f 250//1012 133//1011 135//1013
s 225
f 250//1014 135//1015 244//1016
f 244//1016 135//1015 132//1017
s 226
f 139//1018 27//1019 142//1020
f 142//1020 27//1019 33//1021
s 227
f 142//1022 33//1023 140//1024
f 140//1024 33//1023 29//1025
s 228
f 139//1026 195//1027 27//1028
f 27//1028 195//1027 83//1029
s off
f 10//1030 1//1031 5//1032
