# This file uses centimeters as units for non-parametric coordinates.

mtllib d6.mtl
g default
v 351.459381 41.908787 227.303864
v 352.407654 33.857536 224.756622
v 354.777252 41.434589 230.037872
v 355.725525 33.383335 227.490646
v 351.159973 37.993713 225.392822
v 354.287689 31.743382 225.529785
v 356.024902 37.298409 229.401672
v 352.897247 43.548740 229.264709
v 353.592468 37.646061 227.397247
v 349.332703 40.735386 226.737991
v 352.407043 29.948112 224.920013
v 356.220001 33.780430 229.902649
v 353.145630 44.567703 231.720612
v 350.643066 44.925377 229.658432
v 355.504761 39.853256 231.823929
v 354.909637 29.590435 226.982208
v 350.047943 34.662556 224.816711
v 348.181793 35.072662 233.517014
v 348.245850 38.983459 231.601913
v 348.943115 33.063416 229.728943
v 351.382751 32.714737 231.739258
v 350.685486 38.634781 233.612213
v 349.056824 40.072182 233.322266
v 351.839844 35.706169 232.876404
v 350.079224 31.391766 230.575989
v 348.262665 36.217426 229.928741
v 348.652985 43.082787 229.348785
v 348.719574 43.052570 229.240768
v 348.626282 42.997471 229.289307
v 348.686890 43.075645 229.290680
v 348.669067 43.054283 229.285706
v 348.673431 43.032608 229.260681
v 348.637817 43.043793 229.318970
v 350.008148 31.264751 225.577377
v 350.107544 31.268229 225.512512
v 350.056213 31.168755 225.579468
v 350.059662 31.263031 225.537094
v 350.061646 31.230675 225.544983
v 350.083862 31.214603 225.538177
v 350.031158 31.213497 225.576172
v 354.891174 30.477728 229.563629
v 354.963776 30.574158 229.514191
v 354.917847 30.563044 229.623093
v 354.934082 30.521404 229.534836
v 354.934082 30.534290 229.560013
v 354.947510 30.564442 229.564850
v 354.906342 30.516720 229.593445
v 353.536011 42.295761 233.335022
v 353.575867 42.358498 233.242462
v 353.487946 42.391758 233.332947
v 353.561340 42.334023 233.288422
v 353.541504 42.357895 233.300690
v 353.537079 42.382446 233.287384
v 353.513000 42.347015 233.336273
v 350.777649 45.439796 232.218384
v 350.823425 45.453541 232.111755
v 350.725830 45.447201 232.175690
v 350.803711 45.456394 232.163696
v 350.780762 45.460564 232.164764
v 350.777039 45.460205 232.141708
v 350.750885 45.450611 232.199295
v 355.349579 36.207130 232.378174
v 355.401794 36.304188 232.312256
v 355.334747 36.332893 232.417923
v 355.382812 36.256035 232.343414
v 355.372833 36.283810 232.365845
v 355.375214 36.320770 232.363892
v 355.345093 36.269592 232.400452
v 352.766510 28.120720 226.694031
v 352.858765 28.172636 226.644516
v 352.818329 28.113312 226.736725
v 352.816925 28.140499 226.662186
v 352.822174 28.127918 226.681152
v 352.843597 28.136684 226.684174
v 352.793274 28.109905 226.713135
v 348.194580 37.353386 226.534286
v 348.280426 37.321991 226.444031
v 348.209412 37.227619 226.494476
v 348.237823 37.340858 226.482513
v 348.230103 37.304665 226.480072
v 348.245453 37.276123 226.462036
v 348.199097 37.290920 226.511948
v 349.528046 44.748077 230.822723
v 349.569702 44.795361 230.879425
v 349.635620 44.807961 230.753128
v 349.547607 44.775932 230.851730
v 349.579987 44.790379 230.815109
v 349.602234 44.804905 230.816666
v 349.581055 44.780827 230.787872
v 352.129517 44.429501 232.988800
v 352.183929 44.368492 233.011261
v 352.242493 44.435387 232.901230
v 352.157043 44.402985 233.001953
v 352.189270 44.417458 232.965210
v 352.213898 44.404533 232.957397
v 352.186218 44.435589 232.945999
v 354.597839 39.544579 233.116943
v 354.633850 39.424824 233.098450
v 354.699890 39.524513 233.008850
v 354.617310 39.486366 233.109695
v 354.649200 39.501545 233.072906
v 354.668274 39.475441 233.054672
v 354.649963 39.536285 233.064056
v 355.365479 33.213097 231.133209
v 355.356903 33.099720 231.077957
v 355.444946 33.198662 231.007507
v 355.363098 33.154263 231.106354
v 355.394928 33.169819 231.069702
v 355.402435 33.147385 231.042755
v 355.406830 33.204979 231.070862
v 354.016113 28.812435 228.089691
v 353.974426 28.765154 228.033005
v 354.079956 28.834093 227.965393
v 353.996552 28.784584 228.060699
v 354.028564 28.800774 228.024490
v 354.028137 28.796619 227.998215
v 354.049316 28.820698 228.027054
v 351.414642 29.131010 225.923630
v 351.360229 29.192024 225.901184
v 351.473114 29.206669 225.817261
v 351.387146 29.157528 225.910446
v 351.419312 29.173698 225.874359
v 351.416473 29.196987 225.857529
v 351.444153 29.165936 225.868896
v 348.946320 34.015934 225.795456
v 348.910278 34.135689 225.813965
v 349.015717 34.117546 225.709656
v 348.926819 34.074150 225.802734
v 348.959381 34.089603 225.766632
v 348.962097 34.126080 225.760223
v 348.980408 34.065235 225.750870
v 348.178650 40.347420 227.779221
v 348.187256 40.460793 227.834473
v 348.270691 40.443394 227.710999
v 348.181061 40.406254 227.806046
v 348.213623 40.421333 227.769867
v 348.227936 40.454140 227.772156
v 348.223572 40.396542 227.744049
v 348.499451 43.009773 229.522430
v 348.472778 42.924454 229.462967
v 348.423798 42.906136 229.578064
v 348.484283 42.970776 229.492615
v 348.456085 42.951923 229.527069
v 348.442017 42.919838 229.522369
v 348.456085 42.964741 229.553680
v 349.854614 31.191736 225.751038
v 349.902679 31.095741 225.753113
v 349.810669 31.130558 225.852570
v 349.877625 31.140484 225.749786
v 349.848450 31.129932 225.786896
v 349.852936 31.104633 225.801453
v 349.827637 31.155151 225.800323
v 354.737671 30.404713 229.737274
v 354.764343 30.490030 229.796753
v 354.663330 30.437004 229.851288
v 354.752838 30.443705 229.767090
v 354.720245 30.433647 229.801392
v 354.715149 30.456623 229.827728
v 354.701080 30.411720 229.796448
v 353.382507 42.222744 233.508682
v 353.334473 42.318741 233.506577
v 353.276428 42.212578 233.576797
v 353.359467 42.274002 233.509888
v 353.327881 42.255630 233.541550
v 353.304260 42.271828 233.548676
v 353.329529 42.221306 233.549789
v 350.624146 45.366779 232.392014
v 350.572327 45.374187 232.349335
v 350.526978 45.305187 232.445831
v 350.597412 45.377598 232.372925
v 350.567657 45.357780 232.405563
v 350.545044 45.347675 232.402451
v 350.572998 45.343678 232.425476
v 355.196045 36.134117 232.551788
v 355.181244 36.259880 232.591599
v 355.101624 36.163197 232.646118
v 355.191589 36.196579 232.574112
v 355.158997 36.182457 232.606613
v 355.142334 36.212273 232.625565
v 355.150330 36.144455 232.604095
v 352.612976 28.047707 226.867676
v 352.664825 28.040298 226.910370
v 352.560669 28.038191 226.982971
v 352.639771 28.036888 226.886765
v 352.608734 28.027821 226.922791
v 352.612305 28.028854 226.947510
v 352.584351 28.032852 226.924484
v 348.041077 37.280369 226.707916
v 348.055908 37.154606 226.668137
v 347.985992 37.180183 226.782669
v 348.045532 37.217907 226.685608
v 348.017426 37.203148 226.721771
v 348.014954 37.164257 226.724396
v 348.007019 37.232079 226.745865
v 349.374512 44.675064 230.996368
v 349.331299 44.629364 231.102539
v 349.416199 44.722343 231.053055
v 349.347046 44.659153 231.053162
v 349.365540 44.682598 231.058502
v 349.368866 44.684048 231.082947
v 349.394104 44.702919 231.025391
v 351.976013 44.356487 233.162430
v 351.927429 44.258316 233.241821
v 352.030426 44.295475 233.184875
v 351.948975 44.315300 233.209030
v 351.973022 44.309933 233.207123
v 351.977509 44.283199 233.220749
v 352.003510 44.329971 233.175598
v 354.444305 39.471561 233.290588
v 354.376404 39.364323 233.349091
v 354.480347 39.351810 233.272095
v 354.410278 39.421612 233.327271
v 354.431458 39.396946 233.314774
v 354.429230 39.358768 233.317612
v 354.463806 39.413349 233.283325
v 355.211945 33.140083 231.306839
v 355.118378 33.064419 231.355927
v 355.203400 33.026703 231.251587
v 355.166626 33.097874 231.336823
v 355.176697 33.069595 231.312973
v 355.162048 33.038387 231.307800
v 355.209564 33.081245 231.279999
v 353.862579 28.739422 228.263336
v 353.758118 28.714851 228.324249
v 353.820923 28.692141 228.206635
v 353.810791 28.717621 228.296219
v 353.811157 28.703144 228.269531
v 353.788940 28.692726 228.266418
v 353.843018 28.711567 228.234344
v 351.261108 29.057997 226.097290
v 351.161957 29.085897 226.184967
v 351.206696 29.119007 226.074799
v 351.208862 29.061476 226.140381
v 351.203674 29.075813 226.120926
v 351.180298 29.093576 226.128616
v 351.233582 29.084513 226.084106
v 348.792786 33.942917 225.969131
v 348.712982 33.979893 226.077728
v 348.756775 34.062672 225.987610
v 348.747559 33.955162 226.022095
v 348.745209 33.988796 226.013260
v 348.728638 34.018005 226.031769
v 348.773315 34.001133 225.976364
v 348.025146 40.274403 227.952850
v 347.971008 40.279800 228.070862
v 348.033752 40.387775 228.008102
v 347.991211 40.278900 228.012543
v 347.999969 40.316151 228.015060
v 347.995758 40.338387 228.041565
v 348.027527 40.333237 227.979706
vn 0.945739 0.303233 -0.116738
vn 0.945739 0.303233 -0.116738
vn 0.945739 0.303233 -0.116738
vn 0.262306 0.636865 -0.724982
vn 0.262306 0.636865 -0.724982
vn 0.262306 0.636865 -0.724982
vn 0.029711 0.160708 -0.986555
vn 0.029711 0.160708 -0.986555
vn 0.029711 0.160708 -0.986555
vn 0.631760 0.300476 -0.714559
vn 0.631760 0.300476 -0.714559
vn 0.631760 0.300476 -0.714559
vn 0.631760 0.300476 -0.714559
vn -0.711030 -0.255392 -0.655143
vn -0.731368 -0.204463 -0.650612
vn -0.650790 -0.226872 -0.724570
vn -0.679729 -0.177184 -0.711741
vn -0.431099 0.836900 -0.337272
vn 0.098278 0.993742 0.053091
vn -0.303702 0.935777 -0.179129
vn 0.118186 0.814065 0.568622
vn 0.250404 0.718024 0.649415
vn 0.209258 0.859260 0.466780
vn 0.337028 0.755573 0.561714
vn 0.801349 0.159053 0.576665
vn 0.868104 -0.053870 0.493450
vn 0.818822 0.054865 0.571419
vn 0.637997 0.220657 0.737747
vn 0.657345 0.169256 0.734336
vn 0.699353 0.249970 0.669642
vn 0.712474 0.192759 0.674704
vn 0.709222 -0.704619 0.022698
vn 0.309519 -0.799786 -0.514334
vn 0.578277 -0.805184 -0.131432
vn 0.651625 -0.641940 0.404102
vn 0.618408 -0.701852 0.353518
vn 0.725836 -0.607686 0.322304
vn 0.684056 -0.674321 0.278134
vn -0.621941 -0.073723 -0.779586
vn -0.641117 0.161830 -0.750187
vn -0.660286 0.020538 -0.750733
vn 0.341942 -0.039288 -0.938900
vn 0.341942 -0.039288 -0.938900
vn 0.341942 -0.039288 -0.938900
vn 0.978496 0.025105 -0.204731
vn 0.978496 0.025105 -0.204731
vn 0.978496 0.025105 -0.204731
vn 0.763787 0.565192 -0.311748
vn 0.763787 0.565192 -0.311748
vn 0.763787 0.565192 -0.311748
vn 0.843424 -0.110961 -0.525666
vn 0.843424 -0.110961 -0.525666
vn 0.843424 -0.110961 -0.525666
vn 0.631760 0.300476 -0.714559
vn 0.631760 0.300476 -0.714559
vn 0.631760 0.300476 -0.714559
vn 0.631760 0.300476 -0.714559
vn 0.631760 0.300476 -0.714559
vn 0.631760 0.300476 -0.714559
vn 0.631760 0.300476 -0.714559
vn 0.631760 0.300476 -0.714559
vn 0.631760 0.300476 -0.714559
vn 0.631760 0.300476 -0.714559
vn 0.631759 0.300476 -0.714559
vn 0.631760 0.300476 -0.714559
vn -0.799916 0.377528 -0.466484
vn -0.791156 0.424915 -0.439908
vn -0.747883 0.401471 -0.528671
vn -0.731029 0.454406 -0.509030
vn 0.741645 -0.223316 0.632529
vn 0.740179 -0.274281 0.613926
vn 0.794301 -0.198676 0.574120
vn 0.789728 -0.252866 0.558917
vn -0.553290 0.832890 -0.012845
vn -0.435399 0.893187 0.112452
vn -0.477245 0.871951 -0.109265
vn -0.345146 0.938496 0.009940
vn 0.874379 0.441931 0.200397
vn 0.874379 0.441931 0.200397
vn 0.874379 0.441931 0.200397
vn 0.874379 0.441931 0.200397
vn 0.478246 0.488212 0.730020
vn 0.526689 0.418849 0.739706
vn 0.543037 0.523013 0.656938
vn 0.600820 0.453760 0.658117
vn -0.228165 -0.866373 -0.444229
vn -0.364248 -0.772170 -0.520650
vn -0.137432 -0.825098 -0.548020
vn -0.288288 -0.732391 -0.616841
vn 0.704814 0.025958 0.708917
vn 0.718266 -0.024838 0.695325
vn 0.753982 0.050648 0.654940
vn 0.770917 -0.000125 0.636936
vn 0.959459 -0.280441 -0.028144
vn 0.959459 -0.280441 -0.028144
vn 0.959459 -0.280441 -0.028144
vn 0.959459 -0.280441 -0.028144
vn 0.725891 -0.412736 0.550210
vn 0.718120 -0.459652 0.522516
vn 0.780629 -0.385896 0.491633
vn 0.779593 -0.431308 0.454102
vn -0.805502 0.192944 -0.560303
vn -0.807760 0.242139 -0.537488
vn -0.754036 0.217827 -0.619662
vn -0.759961 0.267024 -0.592586
vn 0.439441 -0.887038 0.141615
vn 0.325422 -0.945494 0.011938
vn 0.525982 -0.848771 0.054140
vn 0.416969 -0.904336 -0.091176
vn -0.189562 -0.116220 -0.974966
vn -0.189562 -0.116220 -0.974966
vn -0.189562 -0.116220 -0.974966
vn -0.189562 -0.116220 -0.974966
vn -0.570242 -0.531968 -0.625967
vn -0.615095 -0.460897 -0.639713
vn -0.504120 -0.504503 -0.700957
vn -0.543135 -0.426324 -0.723362
vn -0.925434 0.206039 0.317993
vn -0.848293 0.449852 0.279343
vn -0.955986 0.290487 0.041323
vn -0.772400 -0.058103 -0.632473
vn -0.782127 -0.005535 -0.623095
vn -0.724213 -0.036489 -0.688611
vn -0.730650 0.019276 -0.682480
vn -0.274642 0.606152 -0.746426
vn -0.274642 0.606152 -0.746426
vn -0.274642 0.606152 -0.746426
vn -0.274642 0.606152 -0.746426
vn -0.977269 -0.208353 -0.039175
vn -0.977269 -0.208353 -0.039175
vn -0.977269 -0.208353 -0.039175
vn -0.977269 -0.208353 -0.039175
vn -0.928981 0.191725 0.316601
vn -0.928981 0.191725 0.316601
vn -0.928981 0.191725 0.316601
vn -0.928981 0.191725 0.316601
vn -0.110484 0.074744 0.991063
vn -0.110484 0.074744 0.991063
vn -0.110484 0.074744 0.991063
vn -0.110484 0.074744 0.991063
vn 0.153440 -0.183474 0.970976
vn 0.153440 -0.183474 0.970976
vn 0.153440 -0.183474 0.970976
vn 0.153440 -0.183474 0.970976
vn 0.175780 -0.373150 0.910967
vn 0.175780 -0.373150 0.910967
vn 0.175780 -0.373150 0.910967
vn 0.175780 -0.373150 0.910967
vn -0.025625 -0.645753 0.763117
vn -0.025625 -0.645753 0.763117
vn -0.025625 -0.645753 0.763117
vn -0.025625 -0.645753 0.763117
vn -0.844122 -0.528771 0.088654
vn -0.844122 -0.528771 0.088654
vn -0.844122 -0.528771 0.088654
vn -0.844122 -0.528771 0.088654
vn -0.974211 -0.225013 0.016815
vn -0.979842 -0.054607 -0.192168
vn -0.931872 -0.248058 -0.264729
vn -0.999608 -0.018678 0.020834
vn -0.999608 -0.018678 0.020834
vn -0.999608 -0.018678 0.020834
vn -0.999608 -0.018678 0.020834
vn -0.933520 -0.357199 -0.030826
vn -0.931872 -0.248058 -0.264729
vn -0.867988 -0.456672 -0.195056
vn -0.837543 -0.540197 0.081903
vn -0.867988 -0.456672 -0.195056
vn -0.713354 -0.695857 -0.083126
vn -0.212134 -0.783184 0.584485
vn -0.332166 -0.910813 0.245124
vn 0.089734 -0.810636 0.578634
vn -0.022163 -0.656734 0.753797
vn 0.089734 -0.810636 0.578634
vn 0.265856 -0.618725 0.739257
vn 0.134910 -0.509901 0.849588
vn 0.265856 -0.618725 0.739257
vn 0.379804 -0.435528 0.816128
vn -0.996404 -0.036583 0.076430
vn -0.978828 0.150622 -0.138594
vn -0.979842 -0.054607 -0.192168
vn 0.095947 -0.192705 0.976555
vn 0.350462 -0.244737 0.904036
vn 0.332850 -0.036848 0.942260
vn 0.080565 -0.048482 0.995570
vn 0.332850 -0.036848 0.942260
vn 0.177855 0.128432 0.975640
vn -0.110054 0.089503 0.989888
vn 0.177855 0.128432 0.975640
vn -0.045209 0.335070 0.941108
vn -0.661023 -0.719027 0.214589
vn -0.713354 -0.695857 -0.083126
vn -0.332166 -0.910813 0.245124
vn -0.782248 0.310238 0.540222
vn -0.500091 0.514977 0.696209
vn -0.848293 0.449852 0.279343
vn -0.333359 0.246081 0.910119
vn -0.045209 0.335070 0.941108
vn -0.500091 0.514977 0.696209
vn -0.987865 0.104221 0.115156
vn -0.955986 0.290487 0.041323
vn -0.978828 0.150622 -0.138594
vn 0.118140 -0.381135 0.916940
vn 0.379804 -0.435528 0.816128
vn 0.350462 -0.244737 0.904036
vn 0.378631 0.872756 -0.308115
vn 0.378631 0.872756 -0.308115
vn 0.378631 0.872756 -0.308115
vn 0.378631 0.872756 -0.308115
vn 0.544080 0.697523 0.466304
vn 0.384819 0.837371 0.388231
vn 0.098278 0.993742 0.053091
vn 0.653906 0.511413 0.557552
vn 0.544080 0.697523 0.466304
vn 0.753465 0.394169 0.526233
vn 0.801349 0.159053 0.576665
vn 0.765535 0.254936 0.590731
vn 0.753465 0.394169 0.526233
vn 0.973715 0.043977 0.223486
vn 0.973715 0.043977 0.223486
vn 0.973715 0.043977 0.223486
vn 0.973715 0.043977 0.223486
vn 0.853604 -0.284610 0.436300
vn 0.848259 -0.195067 0.492347
vn 0.868104 -0.053870 0.493450
vn 0.839898 -0.376439 0.390980
vn 0.853604 -0.284610 0.436300
vn 0.853256 -0.453100 0.258175
vn 0.709222 -0.704619 0.022698
vn 0.783063 -0.585196 0.210613
vn 0.853256 -0.453100 0.258175
vn 0.533140 -0.439102 -0.723154
vn 0.533140 -0.439102 -0.723154
vn 0.533140 -0.439102 -0.723154
vn 0.533140 -0.439102 -0.723154
vn -0.265960 -0.565244 -0.780874
vn -0.110245 -0.706779 -0.698792
vn 0.309519 -0.799786 -0.514334
vn -0.441161 -0.410227 -0.798180
vn -0.265960 -0.565244 -0.780874
vn -0.477484 -0.262907 -0.838385
vn -0.621941 -0.073723 -0.779586
vn -0.591012 -0.171930 -0.788127
vn -0.477484 -0.262907 -0.838385
vn -0.381537 0.237673 -0.893276
vn -0.381537 0.237673 -0.893276
vn -0.381537 0.237673 -0.893276
vn -0.381537 0.237673 -0.893276
vn -0.674195 0.369940 -0.639223
vn -0.689723 0.270470 -0.671661
vn -0.641117 0.161830 -0.750187
vn -0.665375 0.459445 -0.588376
vn -0.674195 0.369940 -0.639223
vn -0.577271 0.584363 -0.570331
vn -0.431099 0.836900 -0.337272
vn -0.570318 0.686382 -0.451240
vn -0.577271 0.584363 -0.570331
vn -0.668152 0.635121 -0.387548
vn -0.572583 0.652937 -0.495804
vn -0.705775 0.543369 -0.454568
vn -0.627967 0.569387 -0.530525
vn -0.577271 0.584363 -0.570331
vn -0.633491 0.505616 -0.585697
vn -0.572583 0.652937 -0.495804
vn -0.627967 0.569387 -0.530525
vn -0.731029 0.454406 -0.509030
vn -0.705775 0.543369 -0.454568
vn -0.633491 0.505616 -0.585697
vn -0.627967 0.569387 -0.530525
vn -0.650790 -0.226872 -0.724570
vn -0.549982 -0.203428 -0.810023
vn -0.603709 -0.323231 -0.728737
vn -0.527420 -0.284323 -0.800617
vn -0.477484 -0.262907 -0.838385
vn -0.453426 -0.358794 -0.815887
vn -0.549982 -0.203428 -0.810023
vn -0.527420 -0.284323 -0.800617
vn -0.543135 -0.426324 -0.723362
vn -0.603709 -0.323231 -0.728737
vn -0.453426 -0.358794 -0.815887
vn -0.527420 -0.284323 -0.800617
vn 0.725836 -0.607686 0.322304
vn 0.811057 -0.539515 0.226075
vn 0.759102 -0.518005 0.394253
vn 0.821859 -0.477168 0.311221
vn 0.853256 -0.453100 0.258175
vn 0.848576 -0.403318 0.342424
vn 0.811057 -0.539515 0.226075
vn 0.821859 -0.477168 0.311221
vn 0.779593 -0.431308 0.454102
vn 0.759102 -0.518005 0.394253
vn 0.848576 -0.403318 0.342424
vn 0.821859 -0.477168 0.311221
vn 0.699353 0.249970 0.669642
vn 0.765067 0.305726 0.566748
vn 0.657034 0.348593 0.668423
vn 0.721311 0.376541 0.581315
vn 0.753465 0.394169 0.526233
vn 0.691895 0.472214 0.546164
vn 0.765067 0.305726 0.566748
vn 0.721311 0.376541 0.581315
vn 0.600820 0.453760 0.658117
vn 0.657034 0.348593 0.668423
vn 0.691895 0.472214 0.546164
vn 0.721311 0.376541 0.581315
vn 0.275412 0.924601 0.263176
vn 0.012230 0.987611 0.156448
vn 0.209258 0.859260 0.466780
vn -0.076735 0.962536 0.260071
vn 0.098278 0.993742 0.053091
vn -0.148417 0.985173 -0.086066
vn 0.275412 0.924601 0.263176
vn 0.012230 0.987611 0.156448
vn -0.076735 0.962536 0.260071
vn 0.012230 0.987611 0.156448
vn -0.345146 0.938496 0.009940
vn -0.148417 0.985173 -0.086066
vn 0.794301 -0.198676 0.574120
vn 0.852241 -0.149412 0.501359
vn 0.784645 -0.101098 0.611647
vn 0.835584 -0.073817 0.544381
vn 0.832962 0.014273 0.553146
vn 0.835584 -0.073817 0.544381
vn 0.868104 -0.053870 0.493450
vn 0.852241 -0.149412 0.501359
vn 0.770917 -0.000125 0.636936
vn 0.784645 -0.101098 0.611647
vn 0.832962 0.014273 0.553146
vn 0.835584 -0.073817 0.544381
vn 0.057853 -0.766094 -0.640119
vn 0.231236 -0.871814 -0.431822
vn -0.137432 -0.825098 -0.548020
vn 0.146108 -0.929540 -0.338537
vn 0.309519 -0.799786 -0.514334
vn 0.481678 -0.826668 -0.290873
vn 0.057853 -0.766094 -0.640119
vn 0.231236 -0.871814 -0.431822
vn 0.146108 -0.929540 -0.338537
vn 0.231236 -0.871814 -0.431822
vn 0.416969 -0.904336 -0.091176
vn 0.481678 -0.826668 -0.290873
vn -0.754036 0.217827 -0.619662
vn -0.681330 0.230701 -0.694670
vn -0.748923 0.118088 -0.652050
vn -0.688111 0.143958 -0.711182
vn -0.662052 0.067015 -0.746456
vn -0.688111 0.143958 -0.711182
vn -0.641117 0.161830 -0.750187
vn -0.681330 0.230701 -0.694670
vn -0.730650 0.019276 -0.682480
vn -0.748923 0.118088 -0.652050
vn -0.662052 0.067015 -0.746456
vn -0.688111 0.143958 -0.711182
vn -0.591763 0.779001 -0.207301
vn -0.574793 0.786047 -0.227471
vn -0.645141 0.692830 -0.322149
vn -0.572739 0.734988 -0.362992
vn -0.424150 0.881114 -0.209130
vn -0.574793 0.786047 -0.227471
vn -0.477245 0.871951 -0.109265
vn -0.591763 0.779001 -0.207301
vn -0.431099 0.836900 -0.337272
vn -0.572739 0.734988 -0.362992
vn -0.424150 0.881114 -0.209130
vn -0.574793 0.786047 -0.227471
vn 0.436718 0.632006 0.640193
vn 0.454465 0.638936 0.620662
vn 0.337028 0.755573 0.561714
vn 0.426027 0.759601 0.491435
vn 0.576936 0.570666 0.584368
vn 0.454465 0.638936 0.620662
vn 0.543037 0.523013 0.656938
vn 0.436718 0.632006 0.640193
vn 0.544080 0.697523 0.466304
vn 0.426027 0.759601 0.491435
vn 0.576936 0.570666 0.584368
vn 0.454465 0.638936 0.620662
vn 0.712474 0.192759 0.674704
vn 0.724050 0.113978 0.680265
vn 0.757643 0.200130 0.621229
vn 0.737031 0.120163 0.665091
vn 0.753982 0.050648 0.654940
vn 0.787772 0.082113 0.610469
vn 0.724050 0.113978 0.680265
vn 0.737031 0.120163 0.665091
vn 0.801349 0.159053 0.576665
vn 0.757643 0.200130 0.621229
vn 0.787772 0.082113 0.610469
vn 0.737031 0.120163 0.665091
vn 0.789728 -0.252866 0.558917
vn 0.775630 -0.323945 0.541718
vn 0.826356 -0.245485 0.506826
vn 0.788579 -0.317500 0.526628
vn 0.780629 -0.385896 0.491633
vn 0.822655 -0.351833 0.446601
vn 0.775630 -0.323945 0.541718
vn 0.788579 -0.317500 0.526628
vn 0.853604 -0.284610 0.436300
vn 0.826356 -0.245485 0.506826
vn 0.822655 -0.351833 0.446601
vn 0.788579 -0.317500 0.526628
vn 0.602311 -0.773985 0.195370
vn 0.619773 -0.764654 0.176596
vn 0.684056 -0.674321 0.278134
vn 0.722330 -0.663840 0.193796
vn 0.608912 -0.793238 0.000153
vn 0.619773 -0.764654 0.176596
vn 0.525982 -0.848771 0.054140
vn 0.602311 -0.773985 0.195370
vn 0.709222 -0.704619 0.022698
vn 0.722330 -0.663840 0.193796
vn 0.608912 -0.793238 0.000153
vn 0.619773 -0.764654 0.176596
vn -0.426170 -0.626989 -0.652123
vn -0.409486 -0.617543 -0.671536
vn -0.288288 -0.732391 -0.616841
vn -0.241263 -0.671724 -0.700413
vn -0.427346 -0.499519 -0.753562
vn -0.409486 -0.617543 -0.671536
vn -0.504120 -0.504503 -0.700957
vn -0.426170 -0.626989 -0.652123
vn -0.265960 -0.565244 -0.780874
vn -0.241263 -0.671724 -0.700413
vn -0.427346 -0.499519 -0.753562
vn -0.409486 -0.617543 -0.671536
vn -0.679729 -0.177184 -0.711741
vn -0.716994 -0.110623 -0.688245
vn -0.637763 -0.143113 -0.756821
vn -0.703566 -0.104247 -0.702942
vn -0.724213 -0.036489 -0.688611
vn -0.678933 -0.030347 -0.733573
vn -0.716994 -0.110623 -0.688245
vn -0.703566 -0.104247 -0.702942
vn -0.621941 -0.073723 -0.779586
vn -0.637763 -0.143113 -0.756821
vn -0.678933 -0.030347 -0.733573
vn -0.703566 -0.104247 -0.702942
vn -0.759961 0.267024 -0.592586
vn -0.768574 0.327301 -0.549699
vn -0.717518 0.297251 -0.629929
vn -0.755115 0.333416 -0.564478
vn -0.747883 0.401471 -0.528671
vn -0.702772 0.408851 -0.582196
vn -0.768574 0.327301 -0.549699
vn -0.755115 0.333416 -0.564478
vn -0.674195 0.369940 -0.639223
vn -0.717518 0.297251 -0.629929
vn -0.702772 0.408851 -0.582196
vn -0.755115 0.333416 -0.564478
vn -0.740036 0.599890 -0.304104
vn -0.763845 0.515696 -0.388070
vn -0.847920 0.505082 -0.161010
vn -0.829690 0.471297 -0.299156
vn -0.878058 0.378387 -0.292980
vn -0.829690 0.471297 -0.299156
vn -0.791156 0.424915 -0.439908
vn -0.763845 0.515696 -0.388070
vn -0.955986 0.290487 0.041323
vn -0.847920 0.505082 -0.161010
vn -0.878058 0.378387 -0.292980
vn -0.829690 0.471297 -0.299156
vn -0.661733 -0.351269 -0.662359
vn -0.729380 -0.380380 -0.568608
vn -0.711030 -0.255392 -0.655143
vn -0.795778 -0.320218 -0.514001
vn -0.615095 -0.460897 -0.639713
vn -0.730772 -0.489580 -0.475693
vn -0.661733 -0.351269 -0.662359
vn -0.729380 -0.380380 -0.568608
vn -0.867988 -0.456672 -0.195056
vn -0.795778 -0.320218 -0.514001
vn -0.730772 -0.489580 -0.475693
vn -0.729380 -0.380380 -0.568608
vn 0.651625 -0.641940 0.404102
vn 0.700274 -0.545932 0.459974
vn 0.508203 -0.666658 0.545250
vn 0.616425 -0.572729 0.540371
vn 0.585334 -0.517612 0.624069
vn 0.616425 -0.572729 0.540371
vn 0.718120 -0.459652 0.522516
vn 0.700274 -0.545932 0.459974
vn 0.265856 -0.618725 0.739257
vn 0.508203 -0.666658 0.545250
vn 0.585334 -0.517612 0.624069
vn 0.616425 -0.572729 0.540371
vn 0.598166 0.321036 0.734257
vn 0.516118 0.278949 0.809820
vn 0.637997 0.220657 0.737747
vn 0.503053 0.180993 0.845091
vn 0.526689 0.418849 0.739706
vn 0.391052 0.328003 0.859938
vn 0.598166 0.321036 0.734257
vn 0.516118 0.278949 0.809820
vn 0.177855 0.128432 0.975640
vn 0.503053 0.180993 0.845091
vn 0.391052 0.328003 0.859938
vn 0.516118 0.278949 0.809820
vn -0.155390 0.924196 0.348879
vn -0.248238 0.857810 0.450045
vn 0.118186 0.814065 0.568622
vn -0.118862 0.713916 0.690070
vn -0.528092 0.772407 0.352854
vn -0.248238 0.857810 0.450045
vn -0.435399 0.893187 0.112452
vn -0.155390 0.924196 0.348879
vn -0.500091 0.514977 0.696209
vn -0.118862 0.713916 0.690070
vn -0.528092 0.772407 0.352854
vn -0.248238 0.857810 0.450045
vn 0.741645 -0.223316 0.632529
vn 0.743797 -0.120405 0.657472
vn 0.633193 -0.248371 0.733061
vn 0.676563 -0.148502 0.721255
vn 0.718266 -0.024838 0.695325
vn 0.613946 -0.084944 0.784765
vn 0.743797 -0.120405 0.657472
vn 0.676563 -0.148502 0.721255
vn 0.350462 -0.244737 0.904036
vn 0.633193 -0.248371 0.733061
vn 0.613946 -0.084944 0.784765
vn 0.676563 -0.148502 0.721255
vn 0.067241 -0.966121 -0.249177
vn -0.030569 -0.990415 -0.134697
vn -0.228165 -0.866373 -0.444229
vn -0.328010 -0.926456 -0.184630
vn 0.081220 -0.984947 0.152585
vn -0.030569 -0.990415 -0.134697
vn 0.325422 -0.945494 0.011938
vn 0.067241 -0.966121 -0.249177
vn -0.332166 -0.910813 0.245124
vn -0.328010 -0.926456 -0.184630
vn 0.081220 -0.984947 0.152585
vn -0.030569 -0.990415 -0.134697
vn -0.805502 0.192944 -0.560303
vn -0.789385 0.098722 -0.605909
vn -0.883899 0.129131 -0.449497
vn -0.844075 0.068831 -0.531790
vn -0.782127 -0.005535 -0.623095
vn -0.864651 -0.034295 -0.501202
vn -0.789385 0.098722 -0.605909
vn -0.844075 0.068831 -0.531790
vn -0.979842 -0.054607 -0.192168
vn -0.883899 0.129131 -0.449497
vn -0.864651 -0.034295 -0.501202
vn -0.844075 0.068831 -0.531790
vn -0.810731 0.582593 -0.057455
vn -0.719546 0.693184 -0.041832
vn -0.710410 0.658094 -0.249459
vn -0.637162 0.756083 -0.149543
vn -0.848293 0.449852 0.279343
vn -0.703545 0.694244 0.151822
vn -0.810731 0.582593 -0.057455
vn -0.719546 0.693184 -0.041832
vn -0.637162 0.756083 -0.149543
vn -0.719546 0.693184 -0.041832
vn -0.553290 0.832890 -0.012845
vn -0.703545 0.694244 0.151822
vn 0.093966 0.580263 0.808990
vn 0.284419 0.549699 0.785454
vn 0.250404 0.718024 0.649415
vn 0.384883 0.610012 0.692640
vn -0.045209 0.335070 0.941108
vn 0.297087 0.424261 0.855419
vn 0.093966 0.580263 0.808990
vn 0.284419 0.549699 0.785454
vn 0.384883 0.610012 0.692640
vn 0.284419 0.549699 0.785454
vn 0.478246 0.488212 0.730020
vn 0.297087 0.424261 0.855419
vn 0.657345 0.169256 0.734336
vn 0.537143 0.103176 0.837157
vn 0.690445 0.099209 0.716549
vn 0.610526 0.062986 0.789488
vn 0.332850 -0.036848 0.942260
vn 0.585883 -0.010393 0.810329
vn 0.537143 0.103176 0.837157
vn 0.610526 0.062986 0.789488
vn 0.704814 0.025958 0.708917
vn 0.690445 0.099209 0.716549
vn 0.585883 -0.010393 0.810329
vn 0.610526 0.062986 0.789488
vn 0.740179 -0.274281 0.613926
vn 0.623306 -0.328124 0.709806
vn 0.742167 -0.339915 0.577621
vn 0.661459 -0.369440 0.652677
vn 0.379804 -0.435528 0.816128
vn 0.601587 -0.444003 0.664044
vn 0.623306 -0.328124 0.709806
vn 0.661459 -0.369440 0.652677
vn 0.725891 -0.412736 0.550210
vn 0.742167 -0.339915 0.577621
vn 0.601587 -0.444003 0.664044
vn 0.661459 -0.369440 0.652677
vn 0.436632 -0.760521 0.480583
vn 0.446116 -0.823232 0.351098
vn 0.618408 -0.701852 0.353518
vn 0.550623 -0.797243 0.247425
vn 0.089734 -0.810636 0.578634
vn 0.268448 -0.901184 0.340299
vn 0.436632 -0.760521 0.480583
vn 0.446116 -0.823232 0.351098
vn 0.550623 -0.797243 0.247425
vn 0.446116 -0.823232 0.351098
vn 0.439441 -0.887038 0.141615
vn 0.268448 -0.901184 0.340299
vn -0.529061 -0.787202 -0.316871
vn -0.557841 -0.679743 -0.476197
vn -0.364248 -0.772170 -0.520650
vn -0.471415 -0.651168 -0.594768
vn -0.713354 -0.695857 -0.083126
vn -0.671189 -0.602190 -0.432288
vn -0.529061 -0.787202 -0.316871
vn -0.557841 -0.679743 -0.476197
vn -0.471415 -0.651168 -0.594768
vn -0.557841 -0.679743 -0.476197
vn -0.570242 -0.531968 -0.625967
vn -0.671189 -0.602190 -0.432288
vn -0.731368 -0.204463 -0.650612
vn -0.825037 -0.240104 -0.511531
vn -0.748581 -0.126860 -0.650794
vn -0.812062 -0.158840 -0.561538
vn -0.931872 -0.248058 -0.264729
vn -0.853766 -0.117017 -0.507337
vn -0.825037 -0.240104 -0.511531
vn -0.812062 -0.158840 -0.561538
vn -0.772400 -0.058103 -0.632473
vn -0.748581 -0.126860 -0.650794
vn -0.853766 -0.117017 -0.507337
vn -0.812062 -0.158840 -0.561538
vn -0.807760 0.242139 -0.537488
vn -0.891187 0.200715 -0.406817
vn -0.800300 0.312265 -0.511869
vn -0.862991 0.273587 -0.424731
vn -0.978828 0.150622 -0.138594
vn -0.889483 0.307074 -0.338416
vn -0.891187 0.200715 -0.406817
vn -0.862991 0.273587 -0.424731
vn -0.799916 0.377528 -0.466484
vn -0.800300 0.312265 -0.511869
vn -0.889483 0.307074 -0.338416
vn -0.862991 0.273587 -0.424731
vn -0.577271 0.584363 -0.570331
vn -0.572583 0.652937 -0.495804
vn -0.431099 0.836900 -0.337272
vn -0.572739 0.734988 -0.362992
vn -0.572583 0.652937 -0.495804
vn -0.668152 0.635121 -0.387548
vn -0.572739 0.734988 -0.362992
vn -0.645141 0.692830 -0.322149
vn 0.544080 0.697523 0.466304
vn 0.098278 0.993742 0.053091
vn 0.426027 0.759601 0.491435
vn 0.275412 0.924601 0.263176
vn 0.426027 0.759601 0.491435
vn 0.275412 0.924601 0.263176
vn 0.337028 0.755573 0.561714
vn 0.209258 0.859260 0.466780
vn 0.801349 0.159053 0.576665
vn 0.753465 0.394169 0.526233
vn 0.757643 0.200130 0.621229
vn 0.765067 0.305726 0.566748
vn 0.757643 0.200130 0.621229
vn 0.765067 0.305726 0.566748
vn 0.712474 0.192759 0.674704
vn 0.699353 0.249970 0.669642
vn 0.853604 -0.284610 0.436300
vn 0.868104 -0.053870 0.493450
vn 0.826356 -0.245485 0.506826
vn 0.852241 -0.149412 0.501359
vn 0.826356 -0.245485 0.506826
vn 0.852241 -0.149412 0.501359
vn 0.789728 -0.252866 0.558917
vn 0.794301 -0.198676 0.574120
vn 0.853256 -0.453100 0.258175
vn 0.811057 -0.539515 0.226075
vn 0.709222 -0.704619 0.022698
vn 0.722330 -0.663840 0.193796
vn 0.811057 -0.539515 0.226075
vn 0.725836 -0.607686 0.322304
vn 0.722330 -0.663840 0.193796
vn 0.684056 -0.674321 0.278134
vn -0.265960 -0.565244 -0.780874
vn 0.309519 -0.799786 -0.514334
vn -0.241263 -0.671724 -0.700413
vn 0.057853 -0.766094 -0.640119
vn -0.241263 -0.671724 -0.700413
vn 0.057853 -0.766094 -0.640119
vn -0.288288 -0.732391 -0.616841
vn -0.137432 -0.825098 -0.548020
vn -0.621941 -0.073723 -0.779586
vn -0.477484 -0.262907 -0.838385
vn -0.637763 -0.143113 -0.756821
vn -0.549982 -0.203428 -0.810023
vn -0.637763 -0.143113 -0.756821
vn -0.549982 -0.203428 -0.810023
vn -0.679729 -0.177184 -0.711741
vn -0.650790 -0.226872 -0.724570
vn -0.674195 0.369940 -0.639223
vn -0.641117 0.161830 -0.750187
vn -0.717518 0.297251 -0.629929
vn -0.681330 0.230701 -0.694670
vn -0.717518 0.297251 -0.629929
vn -0.681330 0.230701 -0.694670
vn -0.759961 0.267024 -0.592586
vn -0.754036 0.217827 -0.619662
vn -0.431099 0.836900 -0.337272
vn -0.424150 0.881114 -0.209130
vn 0.098278 0.993742 0.053091
vn -0.148417 0.985173 -0.086066
vn -0.424150 0.881114 -0.209130
vn -0.477245 0.871951 -0.109265
vn -0.148417 0.985173 -0.086066
vn -0.345146 0.938496 0.009940
vn 0.753465 0.394169 0.526233
vn 0.544080 0.697523 0.466304
vn 0.691895 0.472214 0.546164
vn 0.576936 0.570666 0.584368
vn 0.691895 0.472214 0.546164
vn 0.576936 0.570666 0.584368
vn 0.600820 0.453760 0.658117
vn 0.543037 0.523013 0.656938
vn 0.868104 -0.053870 0.493450
vn 0.801349 0.159053 0.576665
vn 0.832962 0.014273 0.553146
vn 0.787772 0.082113 0.610469
vn 0.832962 0.014273 0.553146
vn 0.787772 0.082113 0.610469
vn 0.770917 -0.000125 0.636936
vn 0.753982 0.050648 0.654940
vn 0.853604 -0.284610 0.436300
vn 0.822655 -0.351833 0.446601
vn 0.853256 -0.453100 0.258175
vn 0.848576 -0.403318 0.342424
vn 0.822655 -0.351833 0.446601
vn 0.780629 -0.385896 0.491633
vn 0.848576 -0.403318 0.342424
vn 0.779593 -0.431308 0.454102
vn 0.709222 -0.704619 0.022698
vn 0.608912 -0.793238 0.000153
vn 0.309519 -0.799786 -0.514334
vn 0.481678 -0.826668 -0.290873
vn 0.608912 -0.793238 0.000153
vn 0.525982 -0.848771 0.054140
vn 0.481678 -0.826668 -0.290873
vn 0.416969 -0.904336 -0.091176
vn -0.477484 -0.262907 -0.838385
vn -0.265960 -0.565244 -0.780874
vn -0.453426 -0.358794 -0.815887
vn -0.427346 -0.499519 -0.753562
vn -0.453426 -0.358794 -0.815887
vn -0.427346 -0.499519 -0.753562
vn -0.543135 -0.426324 -0.723362
vn -0.504120 -0.504503 -0.700957
vn -0.641117 0.161830 -0.750187
vn -0.621941 -0.073723 -0.779586
vn -0.662052 0.067015 -0.746456
vn -0.678933 -0.030347 -0.733573
vn -0.662052 0.067015 -0.746456
vn -0.678933 -0.030347 -0.733573
vn -0.730650 0.019276 -0.682480
vn -0.724213 -0.036489 -0.688611
vn -0.674195 0.369940 -0.639223
vn -0.702772 0.408851 -0.582196
vn -0.577271 0.584363 -0.570331
vn -0.633491 0.505616 -0.585697
vn -0.702772 0.408851 -0.582196
vn -0.747883 0.401471 -0.528671
vn -0.633491 0.505616 -0.585697
vn -0.731029 0.454406 -0.509030
vn -0.710410 0.658094 -0.249459
vn -0.740036 0.599890 -0.304104
vn -0.810731 0.582593 -0.057455
vn -0.847920 0.505082 -0.161010
vn -0.810731 0.582593 -0.057455
vn -0.847920 0.505082 -0.161010
vn -0.848293 0.449852 0.279343
vn -0.955986 0.290487 0.041323
vn 0.118186 0.814065 0.568622
vn -0.118862 0.713916 0.690070
vn 0.250404 0.718024 0.649415
vn 0.093966 0.580263 0.808990
vn -0.118862 0.713916 0.690070
vn -0.500091 0.514977 0.696209
vn 0.093966 0.580263 0.808990
vn -0.045209 0.335070 0.941108
vn 0.637997 0.220657 0.737747
vn 0.503053 0.180993 0.845091
vn 0.657345 0.169256 0.734336
vn 0.537143 0.103176 0.837157
vn 0.503053 0.180993 0.845091
vn 0.177855 0.128432 0.975640
vn 0.537143 0.103176 0.837157
vn 0.332850 -0.036848 0.942260
vn 0.740179 -0.274281 0.613926
vn 0.741645 -0.223316 0.632529
vn 0.623306 -0.328124 0.709806
vn 0.633193 -0.248371 0.733061
vn 0.623306 -0.328124 0.709806
vn 0.633193 -0.248371 0.733061
vn 0.379804 -0.435528 0.816128
vn 0.350462 -0.244737 0.904036
vn 0.618408 -0.701852 0.353518
vn 0.651625 -0.641940 0.404102
vn 0.436632 -0.760521 0.480583
vn 0.508203 -0.666658 0.545250
vn 0.436632 -0.760521 0.480583
vn 0.508203 -0.666658 0.545250
vn 0.089734 -0.810636 0.578634
vn 0.265856 -0.618725 0.739257
vn -0.228165 -0.866373 -0.444229
vn -0.328010 -0.926456 -0.184630
vn -0.364248 -0.772170 -0.520650
vn -0.529061 -0.787202 -0.316871
vn -0.328010 -0.926456 -0.184630
vn -0.332166 -0.910813 0.245124
vn -0.529061 -0.787202 -0.316871
vn -0.713354 -0.695857 -0.083126
vn -0.711030 -0.255392 -0.655143
vn -0.795778 -0.320218 -0.514001
vn -0.731368 -0.204463 -0.650612
vn -0.825037 -0.240104 -0.511531
vn -0.795778 -0.320218 -0.514001
vn -0.867988 -0.456672 -0.195056
vn -0.825037 -0.240104 -0.511531
vn -0.931872 -0.248058 -0.264729
vn -0.807760 0.242139 -0.537488
vn -0.805502 0.192944 -0.560303
vn -0.891187 0.200715 -0.406817
vn -0.883899 0.129131 -0.449497
vn -0.891187 0.200715 -0.406817
vn -0.883899 0.129131 -0.449497
vn -0.978828 0.150622 -0.138594
vn -0.979842 -0.054607 -0.192168
vn -0.435399 0.893187 0.112452
vn -0.553290 0.832890 -0.012845
vn -0.528092 0.772407 0.352854
vn -0.703545 0.694244 0.151822
vn -0.528092 0.772407 0.352854
vn -0.703545 0.694244 0.151822
vn -0.500091 0.514977 0.696209
vn -0.848293 0.449852 0.279343
vn 0.478246 0.488212 0.730020
vn 0.297087 0.424261 0.855419
vn 0.526689 0.418849 0.739706
vn 0.391052 0.328003 0.859938
vn 0.297087 0.424261 0.855419
vn -0.045209 0.335070 0.941108
vn 0.391052 0.328003 0.859938
vn 0.177855 0.128432 0.975640
vn 0.704814 0.025958 0.708917
vn 0.585883 -0.010393 0.810329
vn 0.718266 -0.024838 0.695325
vn 0.613946 -0.084944 0.784765
vn 0.585883 -0.010393 0.810329
vn 0.332850 -0.036848 0.942260
vn 0.613946 -0.084944 0.784765
vn 0.350462 -0.244737 0.904036
vn 0.718120 -0.459652 0.522516
vn 0.725891 -0.412736 0.550210
vn 0.585334 -0.517612 0.624069
vn 0.601587 -0.444003 0.664044
vn 0.585334 -0.517612 0.624069
vn 0.601587 -0.444003 0.664044
vn 0.265856 -0.618725 0.739257
vn 0.379804 -0.435528 0.816128
vn 0.325422 -0.945494 0.011938
vn 0.439441 -0.887038 0.141615
vn 0.081220 -0.984947 0.152585
vn 0.268448 -0.901184 0.340299
vn 0.081220 -0.984947 0.152585
vn 0.268448 -0.901184 0.340299
vn -0.332166 -0.910813 0.245124
vn 0.089734 -0.810636 0.578634
vn -0.570242 -0.531968 -0.625967
vn -0.671189 -0.602190 -0.432288
vn -0.615095 -0.460897 -0.639713
vn -0.730772 -0.489580 -0.475693
vn -0.671189 -0.602190 -0.432288
vn -0.713354 -0.695857 -0.083126
vn -0.730772 -0.489580 -0.475693
vn -0.867988 -0.456672 -0.195056
vn -0.772400 -0.058103 -0.632473
vn -0.853766 -0.117017 -0.507337
vn -0.782127 -0.005535 -0.623095
vn -0.864651 -0.034295 -0.501202
vn -0.853766 -0.117017 -0.507337
vn -0.931872 -0.248058 -0.264729
vn -0.864651 -0.034295 -0.501202
vn -0.979842 -0.054607 -0.192168
vn -0.791156 0.424915 -0.439908
vn -0.799916 0.377528 -0.466484
vn -0.878058 0.378387 -0.292980
vn -0.889483 0.307074 -0.338416
vn -0.878058 0.378387 -0.292980
vn -0.889483 0.307074 -0.338416
vn -0.955986 0.290487 0.041323
vn -0.978828 0.150622 -0.138594
vn -0.645141 0.692830 -0.322149
vn -0.710410 0.658094 -0.249459
vn -0.591763 0.779001 -0.207301
vn -0.637162 0.756083 -0.149543
vn -0.591763 0.779001 -0.207301
vn -0.637162 0.756083 -0.149543
vn -0.477245 0.871951 -0.109265
vn -0.553290 0.832890 -0.012845
vn 0.118186 0.814065 0.568622
vn 0.209258 0.859260 0.466780
vn -0.155390 0.924196 0.348879
vn -0.076735 0.962536 0.260071
vn -0.155390 0.924196 0.348879
vn -0.076735 0.962536 0.260071
vn -0.435399 0.893187 0.112452
vn -0.345146 0.938496 0.009940
vn 0.478246 0.488212 0.730020
vn 0.543037 0.523013 0.656938
vn 0.384883 0.610012 0.692640
vn 0.436718 0.632006 0.640193
vn 0.384883 0.610012 0.692640
vn 0.436718 0.632006 0.640193
vn 0.250404 0.718024 0.649415
vn 0.337028 0.755573 0.561714
vn 0.637997 0.220657 0.737747
vn 0.699353 0.249970 0.669642
vn 0.598166 0.321036 0.734257
vn 0.657034 0.348593 0.668423
vn 0.598166 0.321036 0.734257
vn 0.657034 0.348593 0.668423
vn 0.526689 0.418849 0.739706
vn 0.600820 0.453760 0.658117
vn 0.704814 0.025958 0.708917
vn 0.753982 0.050648 0.654940
vn 0.690445 0.099209 0.716549
vn 0.724050 0.113978 0.680265
vn 0.690445 0.099209 0.716549
vn 0.724050 0.113978 0.680265
vn 0.657345 0.169256 0.734336
vn 0.712474 0.192759 0.674704
vn 0.741645 -0.223316 0.632529
vn 0.794301 -0.198676 0.574120
vn 0.743797 -0.120405 0.657472
vn 0.784645 -0.101098 0.611647
vn 0.743797 -0.120405 0.657472
vn 0.784645 -0.101098 0.611647
vn 0.718266 -0.024838 0.695325
vn 0.770917 -0.000125 0.636936
vn 0.725891 -0.412736 0.550210
vn 0.780629 -0.385896 0.491633
vn 0.742167 -0.339915 0.577621
vn 0.775630 -0.323945 0.541718
vn 0.742167 -0.339915 0.577621
vn 0.775630 -0.323945 0.541718
vn 0.740179 -0.274281 0.613926
vn 0.789728 -0.252866 0.558917
vn 0.651625 -0.641940 0.404102
vn 0.725836 -0.607686 0.322304
vn 0.700274 -0.545932 0.459974
vn 0.759102 -0.518005 0.394253
vn 0.700274 -0.545932 0.459974
vn 0.759102 -0.518005 0.394253
vn 0.718120 -0.459652 0.522516
vn 0.779593 -0.431308 0.454102
vn 0.439441 -0.887038 0.141615
vn 0.525982 -0.848771 0.054140
vn 0.550623 -0.797243 0.247425
vn 0.602311 -0.773985 0.195370
vn 0.550623 -0.797243 0.247425
vn 0.602311 -0.773985 0.195370
vn 0.618408 -0.701852 0.353518
vn 0.684056 -0.674321 0.278134
vn -0.228165 -0.866373 -0.444229
vn -0.137432 -0.825098 -0.548020
vn 0.067241 -0.966121 -0.249177
vn 0.146108 -0.929540 -0.338537
vn 0.067241 -0.966121 -0.249177
vn 0.146108 -0.929540 -0.338537
vn 0.325422 -0.945494 0.011938
vn 0.416969 -0.904336 -0.091176
vn -0.570242 -0.531968 -0.625967
vn -0.504120 -0.504503 -0.700957
vn -0.471415 -0.651168 -0.594768
vn -0.426170 -0.626989 -0.652123
vn -0.471415 -0.651168 -0.594768
vn -0.426170 -0.626989 -0.652123
vn -0.364248 -0.772170 -0.520650
vn -0.288288 -0.732391 -0.616841
vn -0.711030 -0.255392 -0.655143
vn -0.650790 -0.226872 -0.724570
vn -0.661733 -0.351269 -0.662359
vn -0.603709 -0.323231 -0.728737
vn -0.661733 -0.351269 -0.662359
vn -0.603709 -0.323231 -0.728737
vn -0.615095 -0.460897 -0.639713
vn -0.543135 -0.426324 -0.723362
vn -0.772400 -0.058103 -0.632473
vn -0.724213 -0.036489 -0.688611
vn -0.748581 -0.126860 -0.650794
vn -0.716994 -0.110623 -0.688245
vn -0.748581 -0.126860 -0.650794
vn -0.716994 -0.110623 -0.688245
vn -0.731368 -0.204463 -0.650612
vn -0.679729 -0.177184 -0.711741
vn -0.805502 0.192944 -0.560303
vn -0.754036 0.217827 -0.619662
vn -0.789385 0.098722 -0.605909
vn -0.748923 0.118088 -0.652050
vn -0.789385 0.098722 -0.605909
vn -0.748923 0.118088 -0.652050
vn -0.782127 -0.005535 -0.623095
vn -0.730650 0.019276 -0.682480
vn -0.799916 0.377528 -0.466484
vn -0.747883 0.401471 -0.528671
vn -0.800300 0.312265 -0.511869
vn -0.768574 0.327301 -0.549699
vn -0.800300 0.312265 -0.511869
vn -0.768574 0.327301 -0.549699
vn -0.807760 0.242139 -0.537488
vn -0.759961 0.267024 -0.592586
vn -0.740036 0.599890 -0.304104
vn -0.668152 0.635121 -0.387548
vn -0.763845 0.515696 -0.388070
vn -0.705775 0.543369 -0.454568
vn -0.763845 0.515696 -0.388070
vn -0.705775 0.543369 -0.454568
vn -0.791156 0.424915 -0.439908
vn -0.731029 0.454406 -0.509030
vn -0.740036 0.599890 -0.304104
vn -0.710410 0.658094 -0.249459
vn -0.668152 0.635121 -0.387548
vn -0.645141 0.692830 -0.322149
vn -0.003047 0.438836 -0.898562
vn -0.003047 0.438836 -0.898562
vn -0.003047 0.438836 -0.898562
s off
g d6_polySurface6
usemtl initialShadingGroup
f 15//1 7//2 3//3
f 14//4 8//5 1//6
f 17//7 5//8 2//9
s 1
f 7//10 9//11 3//12
f 3//12 9//11 8//13
s 2
f 146//14 237//15 34//16
f 34//16 237//15 125//17
s off
f 85//18 56//19 14//20
s 3
f 167//21 202//22 55//23
f 55//23 202//22 90//24
s off
f 99//25 63//26 15//27
s 4
f 160//28 209//29 48//30
f 48//30 209//29 97//31
s off
f 113//32 70//33 16//34
s 5
f 153//35 223//36 41//37
f 41//37 223//36 111//38
s off
f 127//39 77//40 17//41
f 11//42 2//43 6//44
f 12//45 4//46 7//47
f 13//48 3//49 8//50
f 16//51 6//52 4//53
s 6
f 6//54 2//55 9//56
f 9//56 2//55 5//57
s 7
f 5//58 1//59 9//60
f 9//60 1//59 8//61
s 8
f 6//62 9//63 4//64
f 4//64 9//63 7//65
s 9
f 246//66 140//67 133//68
f 133//68 140//67 29//69
s 10
f 174//70 216//71 62//72
f 62//72 216//71 104//73
s 11
f 197//74 168//75 84//76
f 84//76 168//75 57//77
s 12
f 15//78 3//79 49//80
f 49//80 3//79 13//81
s 13
f 204//82 161//83 91//84
f 91//84 161//83 50//85
s 14
f 181//86 230//87 69//88
f 69//88 230//87 118//89
s 15
f 211//90 175//91 98//92
f 98//92 175//91 64//93
s 16
f 16//94 4//95 42//96
f 42//96 4//95 12//97
s 17
f 218//98 154//99 105//100
f 105//100 154//99 43//101
s 18
f 188//102 244//103 76//104
f 76//104 244//103 132//105
s 19
f 225//106 182//107 112//108
f 112//108 182//107 71//109
s 20
f 17//110 2//111 35//112
f 35//112 2//111 11//113
s 21
f 232//114 147//115 119//116
f 119//116 147//115 36//117
s off
f 19//118 196//119 141//120
s 22
f 239//121 189//122 126//123
f 126//123 189//122 78//124
s 23
f 14//125 1//126 28//127
f 28//127 1//126 10//128
s 24
f 238//129 20//130 26//131
f 26//131 20//130 18//132
s 25
f 196//133 19//134 23//135
f 23//135 19//134 18//136
s 26
f 203//137 23//138 22//139
f 22//139 23//138 18//140
s 27
f 210//141 22//142 24//143
f 24//143 22//142 18//144
s 28
f 217//145 24//146 21//147
f 21//147 24//146 18//148
s 29
f 224//149 21//150 25//151
f 25//151 21//150 18//152
s 30
f 231//153 25//154 20//155
f 20//155 25//154 18//156
s off
f 26//157 190//158 238//159
s 31
f 245//160 26//161 19//162
f 19//162 26//161 18//163
s off
f 20//164 238//165 148//166
f 20//167 148//168 231//169
f 25//170 183//171 224//172
f 21//173 224//174 155//175
f 21//176 155//177 217//178
f 26//179 245//180 190//181
f 24//182 176//183 210//184
f 22//185 210//186 162//187
f 22//188 162//189 203//190
f 25//191 231//192 183//193
f 23//194 169//195 196//196
f 23//197 203//198 169//199
f 19//200 141//201 245//202
f 24//203 217//204 176//205
s 32
f 56//206 13//207 14//208
f 14//208 13//207 8//209
s off
f 92//210 13//211 56//212
f 13//213 92//214 49//215
f 99//216 15//217 49//218
s 33
f 12//219 7//220 63//221
f 63//221 7//220 15//222
s off
f 106//223 12//224 63//225
f 12//226 106//227 42//228
f 113//229 16//230 42//231
s 34
f 70//232 11//233 16//234
f 16//234 11//233 6//235
s off
f 120//236 11//237 70//238
f 11//239 120//240 35//241
f 127//242 17//243 35//244
s 35
f 10//245 5//246 77//247
f 77//247 5//246 17//248
s off
f 134//249 10//250 77//251
f 10//252 134//253 28//254
f 85//255 14//256 28//257
s 36
f 27//258 30//259 33//260
f 33//260 30//259 31//261
s 37
f 28//262 32//263 30//264
f 30//264 32//263 31//265
s 38
f 29//266 33//267 32//268
f 32//268 33//267 31//269
s 39
f 34//270 37//271 40//272
f 40//272 37//271 38//273
s 40
f 35//274 39//275 37//276
f 37//276 39//275 38//277
s 41
f 36//278 40//279 39//280
f 39//280 40//279 38//281
s 42
f 41//282 44//283 47//284
f 47//284 44//283 45//285
s 43
f 42//286 46//287 44//288
f 44//288 46//287 45//289
s 44
f 43//290 47//291 46//292
f 46//292 47//291 45//293
s 45
f 48//294 51//295 54//296
f 54//296 51//295 52//297
s 46
f 49//298 53//299 51//300
f 51//300 53//299 52//301
s 47
f 50//302 54//303 53//304
f 53//304 54//303 52//305
s 48
f 58//306 59//307 55//308
f 55//308 59//307 61//309
s 49
f 56//310 60//311 58//312
f 58//312 60//311 59//313
s 50
f 61//314 59//315 57//316
f 57//316 59//315 60//317
s 51
f 62//318 65//319 68//320
f 68//320 65//319 66//321
s 52
f 67//322 66//323 63//324
f 63//324 66//323 65//325
s 53
f 64//326 68//327 67//328
f 67//328 68//327 66//329
s 54
f 72//330 73//331 69//332
f 69//332 73//331 75//333
s 55
f 70//334 74//335 72//336
f 72//336 74//335 73//337
s 56
f 75//338 73//339 71//340
f 71//340 73//339 74//341
s 57
f 76//342 79//343 82//344
f 82//344 79//343 80//345
s 58
f 81//346 80//347 77//348
f 77//348 80//347 79//349
s 59
f 78//350 82//351 81//352
f 81//352 82//351 80//353
s 60
f 86//354 87//355 83//356
f 83//356 87//355 89//357
s 61
f 88//358 87//359 84//360
f 84//360 87//359 86//361
s 62
f 85//362 89//363 88//364
f 88//364 89//363 87//365
s 63
f 93//366 94//367 90//368
f 90//368 94//367 96//369
s 64
f 95//370 94//371 91//372
f 91//372 94//371 93//373
s 65
f 92//374 96//375 95//376
f 95//376 96//375 94//377
s 66
f 97//378 100//379 103//380
f 103//380 100//379 101//381
s 67
f 98//382 102//383 100//384
f 100//384 102//383 101//385
s 68
f 99//386 103//387 102//388
f 102//388 103//387 101//389
s 69
f 104//390 107//391 110//392
f 110//392 107//391 108//393
s 70
f 105//394 109//395 107//396
f 107//396 109//395 108//397
s 71
f 106//398 110//399 109//400
f 109//400 110//399 108//401
s 72
f 114//402 115//403 111//404
f 111//404 115//403 117//405
s 73
f 116//406 115//407 112//408
f 112//408 115//407 114//409
s 74
f 113//410 117//411 116//412
f 116//412 117//411 115//413
s 75
f 121//414 122//415 118//416
f 118//416 122//415 124//417
s 76
f 123//418 122//419 119//420
f 119//420 122//419 121//421
s 77
f 120//422 124//423 123//424
f 123//424 124//423 122//425
s 78
f 125//426 128//427 131//428
f 131//428 128//427 129//429
s 79
f 126//430 130//431 128//432
f 128//432 130//431 129//433
s 80
f 127//434 131//435 130//436
f 130//436 131//435 129//437
s 81
f 132//438 135//439 138//440
f 138//440 135//439 136//441
s 82
f 133//442 137//443 135//444
f 135//444 137//443 136//445
s 83
f 134//446 138//447 137//448
f 137//448 138//447 136//449
s 84
f 139//450 142//451 145//452
f 145//452 142//451 143//453
s 85
f 144//454 143//455 140//456
f 140//456 143//455 142//457
s 86
f 141//458 145//459 144//460
f 144//460 145//459 143//461
s 87
f 149//462 150//463 146//464
f 146//464 150//463 152//465
s 88
f 147//466 151//467 149//468
f 149//468 151//467 150//469
s 89
f 148//470 152//471 151//472
f 151//472 152//471 150//473
s 90
f 153//474 156//475 159//476
f 159//476 156//475 157//477
s 91
f 158//478 157//479 154//480
f 154//480 157//479 156//481
s 92
f 155//482 159//483 158//484
f 158//484 159//483 157//485
s 93
f 163//486 164//487 160//488
f 160//488 164//487 166//489
s 94
f 161//490 165//491 163//492
f 163//492 165//491 164//493
s 95
f 162//494 166//495 165//496
f 165//496 166//495 164//497
s 96
f 170//498 171//499 167//500
f 167//500 171//499 173//501
s 97
f 172//502 171//503 168//504
f 168//504 171//503 170//505
s 98
f 169//506 173//507 172//508
f 172//508 173//507 171//509
s 99
f 174//510 177//511 180//512
f 180//512 177//511 178//513
s 100
f 175//514 179//515 177//516
f 177//516 179//515 178//517
s 101
f 176//518 180//519 179//520
f 179//520 180//519 178//521
s 102
f 184//522 185//523 181//524
f 181//524 185//523 187//525
s 103
f 186//526 185//527 182//528
f 182//528 185//527 184//529
s 104
f 183//530 187//531 186//532
f 186//532 187//531 185//533
s 105
f 188//534 191//535 194//536
f 194//536 191//535 192//537
s 106
f 189//538 193//539 191//540
f 191//540 193//539 192//541
s 107
f 190//542 194//543 193//544
f 193//544 194//543 192//545
s 108
f 198//546 199//547 195//548
f 195//548 199//547 201//549
s 109
f 196//550 200//551 198//552
f 198//552 200//551 199//553
s 110
f 201//554 199//555 197//556
f 197//556 199//555 200//557
s 111
f 205//558 206//559 202//560
f 202//560 206//559 208//561
s 112
f 203//562 207//563 205//564
f 205//564 207//563 206//565
s 113
f 208//566 206//567 204//568
f 204//568 206//567 207//569
s 114
f 209//570 212//571 215//572
f 215//572 212//571 213//573
s 115
f 210//574 214//575 212//576
f 212//576 214//575 213//577
s 116
f 211//578 215//579 214//580
f 214//580 215//579 213//581
s 117
f 216//582 219//583 222//584
f 222//584 219//583 220//585
s 118
f 217//586 221//587 219//588
f 219//588 221//587 220//589
s 119
f 218//590 222//591 221//592
f 221//592 222//591 220//593
s 120
f 226//594 227//595 223//596
f 223//596 227//595 229//597
s 121
f 224//598 228//599 226//600
f 226//600 228//599 227//601
s 122
f 229//602 227//603 225//604
f 225//604 227//603 228//605
s 123
f 233//606 234//607 230//608
f 230//608 234//607 236//609
s 124
f 231//610 235//611 233//612
f 233//612 235//611 234//613
s 125
f 236//614 234//615 232//616
f 232//616 234//615 235//617
s 126
f 237//618 240//619 243//620
f 243//620 240//619 241//621
s 127
f 238//622 242//623 240//624
f 240//624 242//623 241//625
s 128
f 239//626 243//627 242//628
f 242//628 243//627 241//629
s 129
f 244//630 247//631 250//632
f 250//632 247//631 248//633
s 130
f 245//634 249//635 247//636
f 247//636 249//635 248//637
s 131
f 246//638 250//639 249//640
f 249//640 250//639 248//641
s 132
f 28//642 30//643 85//644
f 85//644 30//643 89//645
s 133
f 30//646 27//647 89//648
f 89//648 27//647 83//649
s 134
f 92//650 56//651 96//652
f 96//652 56//651 58//653
s 135
f 96//654 58//655 90//656
f 90//656 58//655 55//657
s 136
f 99//658 49//659 103//660
f 103//660 49//659 51//661
s 137
f 103//662 51//663 97//664
f 97//664 51//663 48//665
s 138
f 106//666 63//667 110//668
f 110//668 63//667 65//669
s 139
f 110//670 65//671 104//672
f 104//672 65//671 62//673
s 140
f 42//674 44//675 113//676
f 113//676 44//675 117//677
s 141
f 44//678 41//679 117//680
f 117//680 41//679 111//681
s 142
f 120//682 70//683 124//684
f 124//684 70//683 72//685
s 143
f 124//686 72//687 118//688
f 118//688 72//687 69//689
s 144
f 127//690 35//691 131//692
f 131//692 35//691 37//693
s 145
f 131//694 37//695 125//696
f 125//696 37//695 34//697
s 146
f 134//698 77//699 138//700
f 138//700 77//699 79//701
s 147
f 138//702 79//703 132//704
f 132//704 79//703 76//705
s 148
f 85//706 88//707 56//708
f 56//708 88//707 60//709
s 149
f 88//710 84//711 60//712
f 60//712 84//711 57//713
s 150
f 49//714 92//715 53//716
f 53//716 92//715 95//717
s 151
f 53//718 95//719 50//720
f 50//720 95//719 91//721
s 152
f 63//722 99//723 67//724
f 67//724 99//723 102//725
s 153
f 67//726 102//727 64//728
f 64//728 102//727 98//729
s 154
f 106//730 109//731 42//732
f 42//732 109//731 46//733
s 155
f 109//734 105//735 46//736
f 46//736 105//735 43//737
s 156
f 113//738 116//739 70//740
f 70//740 116//739 74//741
s 157
f 116//742 112//743 74//744
f 74//744 112//743 71//745
s 158
f 35//746 120//747 39//748
f 39//748 120//747 123//749
s 159
f 39//750 123//751 36//752
f 36//752 123//751 119//753
s 160
f 77//754 127//755 81//756
f 81//756 127//755 130//757
s 161
f 81//758 130//759 78//760
f 78//760 130//759 126//761
s 162
f 134//762 137//763 28//764
f 28//764 137//763 32//765
s 163
f 137//766 133//767 32//768
f 32//768 133//767 29//769
s 164
f 195//770 139//771 198//772
f 198//772 139//771 145//773
s 165
f 198//774 145//775 196//776
f 196//776 145//775 141//777
s 166
f 167//778 173//779 202//780
f 202//780 173//779 205//781
s 167
f 173//782 169//783 205//784
f 205//784 169//783 203//785
s 168
f 160//786 166//787 209//788
f 209//788 166//787 212//789
s 169
f 166//790 162//791 212//792
f 212//792 162//791 210//793
s 170
f 216//794 174//795 219//796
f 219//796 174//795 180//797
s 171
f 219//798 180//799 217//800
f 217//800 180//799 176//801
s 172
f 223//802 153//803 226//804
f 226//804 153//803 159//805
s 173
f 226//806 159//807 224//808
f 224//808 159//807 155//809
s 174
f 181//810 187//811 230//812
f 230//812 187//811 233//813
s 175
f 187//814 183//815 233//816
f 233//816 183//815 231//817
s 176
f 146//818 152//819 237//820
f 237//820 152//819 240//821
s 177
f 152//822 148//823 240//824
f 240//824 148//823 238//825
s 178
f 244//826 188//827 247//828
f 247//828 188//827 194//829
s 179
f 247//830 194//831 245//832
f 245//832 194//831 190//833
s 180
f 168//834 197//835 172//836
f 172//836 197//835 200//837
s 181
f 172//838 200//839 169//840
f 169//840 200//839 196//841
s 182
f 204//842 207//843 161//844
f 161//844 207//843 165//845
s 183
f 207//846 203//847 165//848
f 165//848 203//847 162//849
s 184
f 211//850 214//851 175//852
f 175//852 214//851 179//853
s 185
f 214//854 210//855 179//856
f 179//856 210//855 176//857
s 186
f 154//858 218//859 158//860
f 158//860 218//859 221//861
s 187
f 158//862 221//863 155//864
f 155//864 221//863 217//865
s 188
f 182//866 225//867 186//868
f 186//868 225//867 228//869
s 189
f 186//870 228//871 183//872
f 183//872 228//871 224//873
s 190
f 232//874 235//875 147//876
f 147//876 235//875 151//877
s 191
f 235//878 231//879 151//880
f 151//880 231//879 148//881
s 192
f 239//882 242//883 189//884
f 189//884 242//883 193//885
s 193
f 242//886 238//887 193//888
f 193//888 238//887 190//889
s 194
f 140//890 246//891 144//892
f 144//892 246//891 249//893
s 195
f 144//894 249//895 141//896
f 141//896 249//895 245//897
s 196
f 83//898 195//899 86//900
f 86//900 195//899 201//901
s 197
f 86//902 201//903 84//904
f 84//904 201//903 197//905
s 198
f 167//906 55//907 170//908
f 170//908 55//907 61//909
s 199
f 170//910 61//911 168//912
f 168//912 61//911 57//913
s 200
f 204//914 91//915 208//916
f 208//916 91//915 93//917
s 201
f 208//918 93//919 202//920
f 202//920 93//919 90//921
s 202
f 160//922 48//923 163//924
f 163//924 48//923 54//925
s 203
f 163//926 54//927 161//928
f 161//928 54//927 50//929
s 204
f 211//930 98//931 215//932
f 215//932 98//931 100//933
s 205
f 215//934 100//935 209//936
f 209//936 100//935 97//937
s 206
f 174//938 62//939 177//940
f 177//940 62//939 68//941
s 207
f 177//942 68//943 175//944
f 175//944 68//943 64//945
s 208
f 218//946 105//947 222//948
f 222//948 105//947 107//949
s 209
f 222//950 107//951 216//952
f 216//952 107//951 104//953
s 210
f 153//954 41//955 156//956
f 156//956 41//955 47//957
s 211
f 156//958 47//959 154//960
f 154//960 47//959 43//961
s 212
f 225//962 112//963 229//964
f 229//964 112//963 114//965
s 213
f 229//966 114//967 223//968
f 223//968 114//967 111//969
s 214
f 181//970 69//971 184//972
f 184//972 69//971 75//973
s 215
f 184//974 75//975 182//976
f 182//976 75//975 71//977
s 216
f 232//978 119//979 236//980
f 236//980 119//979 121//981
s 217
f 236//982 121//983 230//984
f 230//984 121//983 118//985
s 218
f 146//986 34//987 149//988
f 149//988 34//987 40//989
s 219
f 149//990 40//991 147//992
f 147//992 40//991 36//993
s 220
f 239//994 126//995 243//996
f 243//996 126//995 128//997
s 221
f 243//998 128//999 237//1000
f 237//1000 128//999 125//1001
s 222
f 188//1002 76//1003 191//1004
f 191//1004 76//1003 82//1005
s 223
f 191//1006 82//1007 189//1008
f 189//1008 82//1007 78//1009
s 224
f 246//1010 133//1011 250//1012
f 250//1012 133//1011 135//1013
s 225
f 250//1014 135//1015 244//1016
f 244//1016 135//1015 132//1017
s 226
f 139//1018 27//1019 142//1020
f 142//1020 27//1019 33//1021
s 227
f 142//1022 33//1023 140//1024
f 140//1024 33//1023 29//1025
s 228
f 139//1026 195//1027 27//1028
f 27//1028 195//1027 83//1029
s off
f 10//1030 1//1031 5//1032
