# This file uses centimeters as units for non-parametric coordinates.

mtllib d7.mtl
g default
v 356.327820 16.038179 221.110840
v 363.172363 13.475330 225.446136
v 356.645660 19.952612 222.923080
v 363.490173 17.389767 227.258377
v 359.675964 13.844151 222.855972
v 364.926971 14.835056 227.362976
v 360.142029 19.583794 225.513245
v 354.891022 18.592890 221.006256
v 359.908997 16.713972 224.184631
v 356.272400 13.652098 221.834320
v 365.395660 12.466423 228.503769
v 362.026276 19.000801 228.475479
v 352.902954 20.186472 221.806030
v 352.663239 17.233932 220.439087
v 356.863647 20.933880 225.205505
v 365.635406 15.418965 229.870697
v 361.434998 11.719014 225.104279
v 354.872437 14.144745 230.617462
v 353.758820 14.423016 226.416443
v 358.791565 12.538568 229.604141
v 359.025269 15.416832 230.936676
v 353.992554 17.301279 227.748993
v 352.473145 16.184547 226.632294
v 356.783966 17.142601 229.371780
v 359.852509 13.421431 231.306381
v 356.441284 12.922277 227.417908
v 352.918732 14.893625 221.820831
v 353.037628 14.893492 221.767181
v 352.992249 14.820692 221.849243
v 352.976288 14.894472 221.785278
v 352.982849 14.871147 221.799866
v 353.013367 14.857679 221.799622
v 352.952393 14.856579 221.832397
v 362.966431 11.085979 228.166855
v 363.055725 11.142342 228.112564
v 363.047058 11.101196 228.236069
v 363.018860 11.111232 228.137054
v 363.034271 11.107500 228.166412
v 363.059570 11.118912 228.171982
v 363.009521 11.090805 228.202545
v 363.510223 16.805517 230.876953
v 363.520905 16.871759 230.765106
v 363.436768 16.878452 230.848541
v 363.524170 16.841152 230.821167
v 363.501068 16.856010 230.827789
v 363.487122 16.877943 230.806854
v 363.476562 16.842567 230.865387
v 353.462524 20.613169 224.530945
v 353.502838 20.622910 224.419708
v 353.381927 20.597950 224.461731
v 353.481567 20.624388 224.469406
v 353.449615 20.619658 224.461243
v 353.440918 20.616711 224.434509
v 353.419434 20.608341 224.495239
v 350.852173 18.637794 221.698242
v 350.933350 18.632748 221.614288
v 350.847229 18.576651 221.669922
v 350.889465 18.640041 221.647736
v 350.874451 18.622162 221.647476
v 350.886902 18.608568 221.633179
v 350.843689 18.609489 221.680252
v 358.609955 20.041531 228.332748
v 358.619843 20.083244 228.211700
v 358.503052 20.081562 228.265015
v 358.619446 20.067757 228.270081
v 358.583954 20.077005 228.264648
v 358.564423 20.088364 228.235245
v 358.556763 20.065004 228.300507
v 365.576782 13.061352 230.999573
v 365.624146 13.131954 230.919373
v 365.581726 13.122498 231.027863
v 365.610687 13.095423 230.959137
v 365.609222 13.104900 230.980438
v 365.613251 13.126896 230.973724
v 365.585327 13.089661 231.017532
v 357.819000 11.657616 224.365051
v 357.937622 11.681458 224.321960
v 357.925934 11.617584 224.432770
v 357.880676 11.667706 224.336761
v 357.899719 11.650059 224.363281
v 357.935730 11.647100 224.371628
v 357.872192 11.634141 224.397278
v 351.475037 16.758736 221.435425
v 351.433594 16.832645 221.432495
v 351.537964 16.835571 221.334686
v 351.450745 16.796070 221.431320
v 351.481476 16.811180 221.393509
v 351.483337 16.834797 221.381470
v 351.504456 16.797232 221.382980
v 351.678833 19.852718 222.830688
v 351.729462 19.892159 222.886078
v 351.787659 19.911133 222.758575
v 351.700745 19.874666 222.856598
v 351.731445 19.889599 222.818726
v 351.756683 19.903446 222.821014
v 351.730896 19.883430 222.792877
v 355.782104 20.656918 226.364502
v 355.883331 20.646139 226.439453
v 355.913361 20.689680 226.299713
v 355.831268 20.654127 226.401886
v 355.861359 20.668941 226.363495
v 355.897980 20.669786 226.369507
v 355.846558 20.675238 226.331421
v 361.164032 18.668844 229.784225
v 361.260986 18.605412 229.834808
v 361.291077 18.676056 229.705933
v 361.214294 18.638517 229.811462
v 361.244080 18.653450 229.772858
v 361.277863 18.641544 229.771606
v 361.228638 18.673798 229.745941
v 364.953949 14.940411 231.262390
v 364.995361 14.866503 231.265320
v 365.050598 14.944983 231.159256
v 364.978210 14.903076 231.266479
v 365.007446 14.918552 231.227692
v 365.025848 14.905293 231.213837
v 365.004761 14.942860 231.212341
v 364.750153 11.846427 229.867126
v 364.699493 11.806989 229.811707
v 364.800873 11.869422 229.735382
v 364.728241 11.824476 229.841217
v 364.757507 11.840136 229.802490
v 364.752563 11.836644 229.774246
v 364.778320 11.856660 229.802429
v 360.646851 11.042229 226.333313
v 360.545624 11.053008 226.258347
v 360.675171 11.090878 226.194260
v 360.597717 11.045016 226.295929
v 360.627563 11.060790 226.257721
v 360.611237 11.070303 226.225754
v 360.662659 11.064852 226.263840
v 355.264954 13.030302 222.913574
v 355.167969 13.093731 222.863022
v 355.297455 13.104498 222.788040
v 355.214661 13.060633 222.886353
v 355.244843 13.076283 222.848358
v 355.231354 13.098543 222.823669
v 355.280579 13.066294 222.849380
v 352.775818 14.820732 222.003357
v 352.849304 14.747797 222.031769
v 352.764038 14.752662 222.124969
v 352.809509 14.783682 222.014923
v 352.784882 14.769942 222.054245
v 352.799591 14.747013 222.076752
v 352.760895 14.785395 222.061798
v 362.823486 11.013081 228.349365
v 362.904144 11.028303 228.418579
v 362.774658 11.004306 228.465668
v 362.866638 11.017905 228.385071
v 362.834961 11.006814 228.419907
v 362.843384 11.010132 228.447998
v 362.800934 11.002122 228.411575
v 363.367340 16.732616 231.059479
v 363.293823 16.805553 231.031082
v 363.239502 16.729462 231.116211
v 363.333679 16.769670 231.047928
v 363.301666 16.754536 231.080887
v 363.269135 16.768377 231.081146
v 363.307861 16.729992 231.096085
v 353.319641 20.540268 224.713470
v 353.239014 20.525049 224.644272
v 353.228882 20.477821 224.775513
v 353.276489 20.535444 224.677780
v 353.251587 20.517662 224.715225
v 353.225342 20.505257 224.709900
v 353.267792 20.513268 224.746307
v 350.709290 18.564898 221.880768
v 350.704346 18.503754 221.852448
v 350.662506 18.489367 221.971481
v 350.700745 18.536589 221.862793
v 350.677063 18.520464 221.901764
v 350.673279 18.497036 221.909546
v 350.675964 18.530014 221.924805
v 358.467041 19.968630 228.515259
v 358.360138 20.008663 228.447556
v 358.342834 19.938700 228.563568
v 358.413849 19.992104 228.483032
v 358.385406 19.975080 228.517914
v 358.347382 19.977667 228.509262
v 358.405029 19.956076 228.545792
v 365.433899 12.988452 231.182098
v 365.438843 13.049598 231.210388
v 365.341492 12.992996 231.269073
v 365.442383 13.016760 231.200073
v 365.409576 13.004055 231.233276
v 365.395599 13.018423 231.248154
v 365.392914 12.985447 231.232880
v 357.676117 11.584716 224.547577
v 357.783020 11.544687 224.615265
v 357.661163 11.543670 224.676971
v 357.729279 11.561241 224.579819
v 357.701233 11.549438 224.617126
v 357.721497 11.537799 224.648438
v 357.663818 11.559383 224.611908
v 351.332123 16.685837 221.617920
v 351.271576 16.683996 221.725464
v 351.290710 16.759747 221.614990
v 351.292389 16.683516 221.669434
v 351.284790 16.708130 221.653427
v 351.270599 16.722321 221.667847
v 351.307861 16.723169 221.613831
v 351.535919 19.779823 223.013184
v 351.520294 19.746943 223.143524
v 351.586548 19.819258 223.068604
v 351.517761 19.766304 223.077087
v 351.534546 19.784422 223.077637
v 351.544403 19.786968 223.106201
v 351.557831 19.801771 223.039124
v 355.639221 20.584021 226.547012
v 355.631805 20.522814 226.672455
v 355.740417 20.573242 226.621979
v 355.628662 20.557701 226.611816
v 355.661987 20.563301 226.620270
v 355.681793 20.552088 226.651154
v 355.688354 20.581230 226.584381
v 361.021118 18.595943 229.966736
v 360.987427 18.517448 230.064697
v 361.118103 18.532515 230.017319
v 361.004272 18.559143 230.022400
v 361.041016 18.549204 230.027298
v 361.055176 18.525818 230.048904
v 361.071411 18.565620 229.993988
v 364.811035 14.867515 231.444901
v 364.734070 14.799200 231.513031
v 364.852448 14.793603 231.447830
v 364.776947 14.832190 231.487671
v 364.802185 14.816525 231.481262
v 364.798767 14.793385 231.489258
v 364.835297 14.830179 231.449020
v 364.607239 11.773527 230.049637
v 364.485321 11.736258 230.095001
v 364.556610 11.734093 229.994247
v 364.551605 11.749404 230.079987
v 364.552368 11.740236 230.057053
v 364.524963 11.728737 230.050873
v 364.585327 11.751579 230.023727
v 360.503967 10.969332 226.515808
v 360.373840 10.960386 226.566055
v 360.402740 10.980108 226.440857
v 360.440674 10.958004 226.545288
v 360.424896 10.961355 226.514404
v 360.387573 10.963620 226.505920
v 360.454803 10.972118 226.478439
v 355.122009 12.957405 223.096115
v 355.018188 12.965748 223.173798
v 355.025085 13.020834 223.045532
v 355.065063 12.956562 223.134705
v 355.045898 12.975452 223.107376
v 355.014191 12.989885 223.108185
v 355.071777 12.987732 223.068878
vn 0.381228 0.835549 -0.395631
vn 0.381228 0.835549 -0.395631
vn 0.381228 0.835549 -0.395631
vn 0.203213 0.074317 -0.976310
vn 0.203213 0.074317 -0.976310
vn 0.203213 0.074317 -0.976310
vn 0.526778 -0.372361 -0.764103
vn 0.526778 -0.372361 -0.764103
vn 0.526778 -0.372361 -0.764103
vn 0.588078 0.299989 -0.751113
vn 0.588078 0.299989 -0.751113
vn 0.588079 0.299989 -0.751113
vn 0.588078 0.299989 -0.751113
vn 0.186727 -0.968671 -0.163734
vn 0.143130 -0.969840 -0.197292
vn 0.243671 -0.940685 -0.236087
vn 0.191253 -0.945789 -0.262500
vn -0.513258 -0.286063 -0.809156
vn -0.572552 0.382278 -0.725292
vn -0.603367 -0.079543 -0.793487
vn -0.772581 0.580505 -0.257162
vn -0.696732 0.702531 -0.144966
vn -0.689648 0.624791 -0.366090
vn -0.620254 0.747256 -0.238524
vn -0.034404 0.983632 0.176876
vn 0.177939 0.944182 0.277233
vn 0.039809 0.967309 0.250456
vn -0.254709 0.933993 0.250562
vn -0.212032 0.934692 0.285296
vn -0.198470 0.963742 0.178355
vn -0.160776 0.961336 0.223573
vn 0.772148 0.418128 0.478494
vn 0.952155 -0.188636 0.240451
vn 0.858956 0.209923 0.467040
vn 0.470420 0.557418 0.684098
vn 0.519961 0.489937 0.699716
vn 0.538807 0.593326 0.598040
vn 0.583964 0.519579 0.623718
vn 0.201409 -0.898439 -0.390181
vn 0.033362 -0.836393 -0.547114
vn 0.107766 -0.892029 -0.438942
vn 0.778023 -0.140914 -0.612228
vn 0.778023 -0.140914 -0.612228
vn 0.778023 -0.140914 -0.612228
vn 0.617669 0.747016 -0.245870
vn 0.617669 0.747016 -0.245870
vn 0.617669 0.747016 -0.245870
vn 0.251254 0.665965 -0.702398
vn 0.251254 0.665965 -0.702398
vn 0.251254 0.665965 -0.702398
vn 0.826064 0.450734 -0.338316
vn 0.826064 0.450734 -0.338316
vn 0.826064 0.450734 -0.338316
vn 0.588078 0.299989 -0.751113
vn 0.588078 0.299989 -0.751113
vn 0.588078 0.299989 -0.751113
vn 0.588078 0.299989 -0.751113
vn 0.588078 0.299989 -0.751113
vn 0.588078 0.299989 -0.751113
vn 0.588078 0.299989 -0.751113
vn 0.588078 0.299989 -0.751113
vn 0.588078 0.299989 -0.751113
vn 0.588078 0.299989 -0.751113
vn 0.588079 0.299989 -0.751113
vn 0.588078 0.299989 -0.751113
vn -0.351633 -0.784583 -0.510669
vn -0.391614 -0.752120 -0.530050
vn -0.300671 -0.761592 -0.574086
vn -0.335492 -0.723825 -0.602929
vn 0.127630 0.852120 0.507545
vn 0.168616 0.828436 0.534100
vn 0.176180 0.877527 0.445990
vn 0.215382 0.851833 0.477483
vn -0.773726 -0.245670 -0.583948
vn -0.825616 -0.072631 -0.559539
vn -0.698260 -0.213430 -0.683286
vn -0.742759 -0.029311 -0.668917
vn 0.066720 0.955370 -0.287780
vn 0.066720 0.955370 -0.287780
vn 0.066720 0.955370 -0.287780
vn 0.066720 0.955370 -0.287780
vn -0.491727 0.868754 0.058911
vn -0.431369 0.895083 0.112903
vn -0.433912 0.900711 -0.020998
vn -0.363546 0.931199 0.026493
vn 0.670214 -0.632719 0.387917
vn 0.590760 -0.756590 0.280312
vn 0.756507 -0.590676 0.280710
vn 0.665620 -0.724114 0.180581
vn -0.086625 0.924009 0.372430
vn -0.041101 0.915300 0.400671
vn -0.042642 0.948447 0.314054
vn 0.007385 0.940729 0.339079
vn 0.680821 0.725427 0.101189
vn 0.680821 0.725427 0.101189
vn 0.680821 0.725427 0.101189
vn 0.680821 0.725427 0.101189
vn 0.282728 0.749436 0.598674
vn 0.323633 0.717440 0.616880
vn 0.331151 0.777142 0.535153
vn 0.380698 0.746882 0.545194
vn -0.187073 -0.882443 -0.431622
vn -0.231526 -0.860528 -0.453749
vn -0.138699 -0.858407 -0.493862
vn -0.187673 -0.837699 -0.512873
vn 0.667752 0.191611 0.719300
vn 0.723245 0.020400 0.690290
vn 0.743624 0.236575 0.625345
vn 0.809618 0.063399 0.583523
vn 0.570748 -0.630187 -0.526414
vn 0.570748 -0.630187 -0.526414
vn 0.570748 -0.630187 -0.526414
vn 0.570748 -0.630187 -0.526414
vn 0.406094 -0.912437 0.050464
vn 0.349077 -0.937062 -0.007795
vn 0.470138 -0.882231 -0.025272
vn 0.417246 -0.903806 -0.095080
vn -0.797289 -0.587205 0.139717
vn -0.878516 -0.471491 -0.076852
vn -0.693103 -0.713791 -0.100557
vn 0.023715 -0.956100 -0.292079
vn -0.018343 -0.945623 -0.324748
vn 0.070350 -0.934313 -0.349443
vn 0.030094 -0.921611 -0.386947
vn -0.043353 -0.400244 -0.915383
vn -0.043353 -0.400244 -0.915383
vn -0.043353 -0.400244 -0.915383
vn -0.043353 -0.400244 -0.915383
vn -0.358040 -0.905967 0.225899
vn -0.358040 -0.905967 0.225899
vn -0.358040 -0.905967 0.225899
vn -0.358040 -0.905967 0.225899
vn -0.789759 -0.594804 0.149963
vn -0.789759 -0.594804 0.149963
vn -0.789759 -0.594804 0.149963
vn -0.789759 -0.594804 0.149963
vn -0.711350 0.370859 0.597031
vn -0.711350 0.370859 0.597031
vn -0.711350 0.370859 0.597031
vn -0.711350 0.370859 0.597031
vn -0.408828 0.514776 0.753569
vn -0.408828 0.514776 0.753569
vn -0.408828 0.514776 0.753569
vn -0.408828 0.514776 0.753569
vn -0.247581 0.454399 0.855702
vn -0.247581 0.454399 0.855702
vn -0.247581 0.454399 0.855702
vn -0.247581 0.454399 0.855702
vn -0.098843 0.141513 0.984989
vn -0.098843 0.141513 0.984989
vn -0.098843 0.141513 0.984989
vn -0.098843 0.141513 0.984989
vn -0.177253 -0.824149 0.537921
vn -0.177253 -0.824149 0.537921
vn -0.177253 -0.824149 0.537921
vn -0.177253 -0.824149 0.537921
vn -0.380998 -0.882887 0.274500
vn -0.356651 -0.934175 0.010831
vn -0.172169 -0.979433 0.105208
vn -0.519287 -0.845591 0.123766
vn -0.519287 -0.845591 0.123766
vn -0.519287 -0.845591 0.123766
vn -0.519287 -0.845591 0.123766
vn -0.252036 -0.906216 0.339484
vn -0.172169 -0.979433 0.105208
vn -0.057931 -0.951623 0.301757
vn -0.162900 -0.824744 0.541536
vn -0.057931 -0.951623 0.301757
vn 0.095473 -0.836188 0.540070
vn -0.003815 -0.135106 0.990824
vn 0.218693 -0.424521 0.878610
vn 0.172407 0.111291 0.978719
vn -0.084789 0.137241 0.986902
vn 0.172407 0.111291 0.978719
vn 0.050689 0.386085 0.921069
vn -0.149684 0.354317 0.923068
vn 0.050689 0.386085 0.921069
vn -0.046513 0.568084 0.821655
vn -0.541185 -0.822907 0.173038
vn -0.511092 -0.852527 -0.109464
vn -0.356651 -0.934175 0.010831
vn -0.436541 0.465847 0.769687
vn -0.229211 0.635318 0.737451
vn -0.385436 0.694991 0.606982
vn -0.541944 0.501194 0.674612
vn -0.385436 0.694991 0.606982
vn -0.584482 0.623919 0.518754
vn -0.719178 0.374781 0.585083
vn -0.584482 0.623919 0.518754
vn -0.801582 0.475990 0.361800
vn -0.046817 -0.664705 0.745638
vn 0.095473 -0.836188 0.540070
vn 0.218693 -0.424521 0.878610
vn -0.921814 -0.337073 0.191419
vn -0.993402 0.029333 0.110874
vn -0.878516 -0.471491 -0.076852
vn -0.878811 0.192526 0.436605
vn -0.801582 0.475990 0.361800
vn -0.993402 0.029333 0.110874
vn -0.644297 -0.759339 0.091029
vn -0.693103 -0.713791 -0.100557
vn -0.511092 -0.852527 -0.109464
vn -0.276354 0.405867 0.871149
vn -0.046513 0.568084 0.821655
vn -0.229211 0.635318 0.737451
vn -0.133252 0.425268 -0.895204
vn -0.133252 0.425268 -0.895204
vn -0.133252 0.425268 -0.895204
vn -0.133252 0.425268 -0.895204
vn -0.419840 0.864454 -0.276504
vn -0.537409 0.732775 -0.417411
vn -0.572552 0.382278 -0.725292
vn -0.308467 0.947214 -0.087370
vn -0.419840 0.864454 -0.276504
vn -0.167954 0.985376 -0.028740
vn -0.034404 0.983632 0.176876
vn -0.118605 0.986018 0.117054
vn -0.167954 0.985376 -0.028740
vn 0.340531 0.940059 0.018097
vn 0.340531 0.940059 0.018097
vn 0.340531 0.940059 0.018097
vn 0.340531 0.940059 0.018097
vn 0.342762 0.842406 0.415772
vn 0.252280 0.887752 0.385035
vn 0.177939 0.944182 0.277233
vn 0.418138 0.785041 0.457024
vn 0.342762 0.842406 0.415772
vn 0.552331 0.715675 0.427481
vn 0.772148 0.418128 0.478494
vn 0.623779 0.598146 0.503111
vn 0.552331 0.715675 0.427481
vn 0.981982 0.007683 -0.188821
vn 0.981982 0.007683 -0.188821
vn 0.981982 0.007683 -0.188821
vn 0.981982 0.007683 -0.188821
vn 0.678728 -0.732390 -0.054158
vn 0.792998 -0.602395 0.090965
vn 0.952155 -0.188636 0.240451
vn 0.506503 -0.846193 -0.165568
vn 0.678728 -0.732390 -0.054158
vn 0.424847 -0.854331 -0.299372
vn 0.201409 -0.898439 -0.390181
vn 0.281060 -0.903147 -0.324548
vn 0.424847 -0.854331 -0.299372
vn 0.210702 -0.658866 -0.722150
vn 0.210702 -0.658866 -0.722150
vn 0.210702 -0.658866 -0.722150
vn 0.210702 -0.658866 -0.722150
vn -0.175758 -0.757214 -0.629075
vn -0.104706 -0.812471 -0.573522
vn 0.033362 -0.836393 -0.547114
vn -0.255682 -0.702169 -0.664518
vn -0.175758 -0.757214 -0.629075
vn -0.295429 -0.584629 -0.755599
vn -0.513258 -0.286063 -0.809156
vn -0.425743 -0.497125 -0.756049
vn -0.295429 -0.584629 -0.755599
vn -0.485114 -0.565930 -0.666624
vn -0.379623 -0.528272 -0.759483
vn -0.408814 -0.653335 -0.637201
vn -0.337266 -0.614030 -0.713596
vn -0.295429 -0.584629 -0.755599
vn -0.268268 -0.661095 -0.700704
vn -0.379623 -0.528272 -0.759483
vn -0.337266 -0.614030 -0.713596
vn -0.335492 -0.723825 -0.602929
vn -0.408814 -0.653335 -0.637201
vn -0.268268 -0.661095 -0.700704
vn -0.337266 -0.614030 -0.713596
vn 0.243671 -0.940685 -0.236087
vn 0.334500 -0.886797 -0.318905
vn 0.327900 -0.929186 -0.170573
vn 0.388491 -0.885782 -0.253900
vn 0.424847 -0.854331 -0.299372
vn 0.480469 -0.850325 -0.214702
vn 0.334500 -0.886797 -0.318905
vn 0.388491 -0.885782 -0.253900
vn 0.417246 -0.903806 -0.095080
vn 0.327900 -0.929186 -0.170573
vn 0.480469 -0.850325 -0.214702
vn 0.388491 -0.885782 -0.253900
vn 0.538807 0.593326 0.598040
vn 0.601604 0.641510 0.475960
vn 0.458449 0.678659 0.573800
vn 0.517749 0.706098 0.483076
vn 0.552331 0.715675 0.427481
vn 0.468482 0.763223 0.444990
vn 0.601604 0.641510 0.475960
vn 0.517749 0.706098 0.483076
vn 0.380698 0.746882 0.545194
vn 0.458449 0.678659 0.573800
vn 0.468482 0.763223 0.444990
vn 0.517749 0.706098 0.483076
vn -0.198470 0.963742 0.178355
vn -0.134295 0.988924 0.063196
vn -0.278260 0.954508 0.107171
vn -0.208010 0.977847 0.023383
vn -0.167954 0.985376 -0.028740
vn -0.258492 0.963559 -0.068815
vn -0.134295 0.988924 0.063196
vn -0.208010 0.977847 0.023383
vn -0.363546 0.931199 0.026493
vn -0.278260 0.954508 0.107171
vn -0.258492 0.963559 -0.068815
vn -0.208010 0.977847 0.023383
vn -0.568980 0.607877 -0.553848
vn -0.677057 0.353745 -0.645336
vn -0.689648 0.624791 -0.366090
vn -0.771961 0.317607 -0.550638
vn -0.572552 0.382278 -0.725292
vn -0.609584 0.107835 -0.785353
vn -0.568980 0.607877 -0.553848
vn -0.677057 0.353745 -0.645336
vn -0.771961 0.317607 -0.550638
vn -0.677057 0.353745 -0.645336
vn -0.742759 -0.029311 -0.668917
vn -0.609584 0.107835 -0.785353
vn 0.176180 0.877527 0.445990
vn 0.221658 0.907808 0.356024
vn 0.090080 0.913132 0.397588
vn 0.141622 0.933841 0.328457
vn 0.082504 0.959911 0.267888
vn 0.141622 0.933841 0.328457
vn 0.177939 0.944182 0.277233
vn 0.221658 0.907808 0.356024
vn 0.007385 0.940729 0.339079
vn 0.090080 0.913132 0.397588
vn 0.082504 0.959911 0.267888
vn 0.141622 0.933841 0.328457
vn 0.879199 -0.449622 0.157634
vn 0.903677 -0.238145 0.355885
vn 0.756507 -0.590676 0.280710
vn 0.836531 -0.284670 0.468166
vn 0.952155 -0.188636 0.240451
vn 0.919803 0.050401 0.389130
vn 0.879199 -0.449622 0.157634
vn 0.903677 -0.238145 0.355885
vn 0.836531 -0.284670 0.468166
vn 0.903677 -0.238145 0.355885
vn 0.809618 0.063399 0.583523
vn 0.919803 0.050401 0.389130
vn -0.138699 -0.858407 -0.493862
vn -0.062558 -0.826648 -0.559231
vn -0.056830 -0.896170 -0.440056
vn -0.004340 -0.863811 -0.503797
vn 0.076593 -0.878753 -0.471091
vn -0.004340 -0.863811 -0.503797
vn 0.033362 -0.836393 -0.547114
vn -0.062558 -0.826648 -0.559231
vn 0.030094 -0.921611 -0.386947
vn -0.056830 -0.896170 -0.440056
vn 0.076593 -0.878753 -0.471091
vn -0.004340 -0.863811 -0.503797
vn -0.641984 -0.380433 -0.665678
vn -0.624981 -0.373096 -0.685710
vn -0.547738 -0.501104 -0.669984
vn -0.510185 -0.446197 -0.735268
vn -0.614781 -0.210503 -0.760087
vn -0.624981 -0.373096 -0.685710
vn -0.698260 -0.213430 -0.683286
vn -0.641984 -0.380433 -0.665678
vn -0.513258 -0.286063 -0.809156
vn -0.510185 -0.446197 -0.735268
vn -0.614781 -0.210503 -0.760087
vn -0.624981 -0.373096 -0.685710
vn -0.543456 0.832981 -0.103917
vn -0.526377 0.841230 -0.123527
vn -0.620254 0.747256 -0.238524
vn -0.533333 0.792533 -0.295717
vn -0.400050 0.910190 -0.107306
vn -0.526377 0.841230 -0.123527
vn -0.433912 0.900711 -0.020998
vn -0.543456 0.832981 -0.103917
vn -0.419840 0.864454 -0.276504
vn -0.533333 0.792533 -0.295717
vn -0.400050 0.910190 -0.107306
vn -0.526377 0.841230 -0.123527
vn -0.160776 0.961336 0.223573
vn -0.111366 0.951873 0.285543
vn -0.108870 0.977812 0.178975
vn -0.098986 0.957820 0.269783
vn -0.042642 0.948447 0.314054
vn -0.016490 0.965951 0.258200
vn -0.111366 0.951873 0.285543
vn -0.098986 0.957820 0.269783
vn -0.034404 0.983632 0.176876
vn -0.108870 0.977812 0.178975
vn -0.016490 0.965951 0.258200
vn -0.098986 0.957820 0.269783
vn 0.215382 0.851833 0.477483
vn 0.260924 0.812474 0.521349
vn 0.262010 0.861670 0.434599
vn 0.273083 0.818504 0.505448
vn 0.331151 0.777142 0.535153
vn 0.360365 0.802113 0.476184
vn 0.260924 0.812474 0.521349
vn 0.273083 0.818504 0.505448
vn 0.342762 0.842406 0.415772
vn 0.262010 0.861670 0.434599
vn 0.360365 0.802113 0.476184
vn 0.273083 0.818504 0.505448
vn 0.651795 0.385437 0.653147
vn 0.666840 0.394448 0.632246
vn 0.583964 0.519579 0.623718
vn 0.649431 0.517225 0.557422
vn 0.786764 0.298239 0.540423
vn 0.666840 0.394448 0.632246
vn 0.743624 0.236575 0.625345
vn 0.651795 0.385437 0.653147
vn 0.772148 0.418128 0.478494
vn 0.649431 0.517225 0.557422
vn 0.786764 0.298239 0.540423
vn 0.666840 0.394448 0.632246
vn 0.553270 -0.827975 0.091381
vn 0.568240 -0.819876 0.070056
vn 0.665620 -0.724114 0.180581
vn 0.705319 -0.704799 0.076047
vn 0.539289 -0.839161 -0.070541
vn 0.568240 -0.819876 0.070056
vn 0.470138 -0.882231 -0.025272
vn 0.553270 -0.827975 0.091381
vn 0.678728 -0.732390 -0.054158
vn 0.705319 -0.704799 0.076047
vn 0.539289 -0.839161 -0.070541
vn 0.568240 -0.819876 0.070056
vn 0.191253 -0.945789 -0.262500
vn 0.117934 -0.948523 -0.293931
vn 0.220461 -0.920887 -0.321503
vn 0.130140 -0.941928 -0.309572
vn 0.070350 -0.934313 -0.349443
vn 0.117806 -0.914268 -0.387603
vn 0.117934 -0.948523 -0.293931
vn 0.130140 -0.941928 -0.309572
vn 0.201409 -0.898439 -0.390181
vn 0.220461 -0.920887 -0.321503
vn 0.117806 -0.914268 -0.387603
vn 0.130140 -0.941928 -0.309572
vn -0.187673 -0.837699 -0.512873
vn -0.254356 -0.809123 -0.529739
vn -0.160696 -0.809987 -0.564001
vn -0.241932 -0.802611 -0.545238
vn -0.300671 -0.761592 -0.574086
vn -0.248774 -0.745186 -0.618716
vn -0.254356 -0.809123 -0.529739
vn -0.241932 -0.802611 -0.545238
vn -0.175758 -0.757214 -0.629075
vn -0.160696 -0.809987 -0.564001
vn -0.248774 -0.745186 -0.618716
vn -0.241932 -0.802611 -0.545238
vn -0.552719 -0.599394 -0.578989
vn -0.463335 -0.680556 -0.567595
vn -0.640248 -0.653219 -0.404213
vn -0.525735 -0.708971 -0.470067
vn -0.499344 -0.773028 -0.391259
vn -0.525735 -0.708971 -0.470067
vn -0.391614 -0.752120 -0.530050
vn -0.463335 -0.680556 -0.567595
vn -0.693103 -0.713791 -0.100557
vn -0.640248 -0.653219 -0.404213
vn -0.499344 -0.773028 -0.391259
vn -0.525735 -0.708971 -0.470067
vn 0.273689 -0.956525 -0.100769
vn 0.198295 -0.980075 -0.011478
vn 0.186727 -0.968671 -0.163734
vn 0.094554 -0.995405 -0.015091
vn 0.349077 -0.937062 -0.007795
vn 0.205332 -0.969835 0.131370
vn 0.273689 -0.956525 -0.100769
vn 0.198295 -0.980075 -0.011478
vn -0.057931 -0.951623 0.301757
vn 0.094554 -0.995405 -0.015091
vn 0.205332 -0.969835 0.131370
vn 0.198295 -0.980075 -0.011478
vn 0.470420 0.557418 0.684098
vn 0.404158 0.650375 0.643171
vn 0.324018 0.491909 0.808108
vn 0.327211 0.607711 0.723616
vn 0.226859 0.634031 0.739283
vn 0.327211 0.607711 0.723616
vn 0.323633 0.717440 0.616880
vn 0.404158 0.650375 0.643171
vn 0.050689 0.386085 0.921069
vn 0.324018 0.491909 0.808108
vn 0.226859 0.634031 0.739283
vn 0.327211 0.607711 0.723616
vn -0.332859 0.926341 0.176343
vn -0.396805 0.878811 0.265022
vn -0.254709 0.933993 0.250562
vn -0.367033 0.856409 0.363112
vn -0.431369 0.895083 0.112903
vn -0.521556 0.808524 0.272523
vn -0.332859 0.926341 0.176343
vn -0.396805 0.878811 0.265022
vn -0.584482 0.623919 0.518754
vn -0.367033 0.856409 0.363112
vn -0.521556 0.808524 0.272523
vn -0.396805 0.878811 0.265022
vn -0.844521 0.279931 -0.456533
vn -0.915368 0.227967 -0.331861
vn -0.772581 0.580505 -0.257162
vn -0.910498 0.405706 -0.079975
vn -0.949705 -0.077115 -0.303503
vn -0.915368 0.227967 -0.331861
vn -0.825616 -0.072631 -0.559539
vn -0.844521 0.279931 -0.456533
vn -0.993402 0.029333 0.110874
vn -0.910498 0.405706 -0.079975
vn -0.949705 -0.077115 -0.303503
vn -0.915368 0.227967 -0.331861
vn 0.127630 0.852120 0.507545
vn 0.052219 0.893600 0.445817
vn 0.024527 0.798046 0.602097
vn -0.005127 0.857254 0.514868
vn -0.041101 0.915300 0.400671
vn -0.114405 0.850066 0.514100
vn 0.052219 0.893600 0.445817
vn -0.005127 0.857254 0.514868
vn -0.229211 0.635318 0.737451
vn 0.024527 0.798046 0.602097
vn -0.114405 0.850066 0.514100
vn -0.005127 0.857254 0.514868
vn 0.762471 -0.321787 0.561330
vn 0.655841 -0.360347 0.663342
vn 0.670214 -0.632719 0.387917
vn 0.494530 -0.617885 0.611276
vn 0.533730 -0.135071 0.834798
vn 0.655841 -0.360347 0.663342
vn 0.723245 0.020400 0.690290
vn 0.762471 -0.321787 0.561330
vn 0.218693 -0.424521 0.878610
vn 0.494530 -0.617885 0.611276
vn 0.533730 -0.135071 0.834798
vn 0.655841 -0.360347 0.663342
vn -0.187073 -0.882443 -0.431622
vn -0.094655 -0.915247 -0.391615
vn -0.257896 -0.917091 -0.304031
vn -0.150801 -0.936795 -0.315713
vn -0.018343 -0.945623 -0.324748
vn -0.118963 -0.969112 -0.216034
vn -0.094655 -0.915247 -0.391615
vn -0.150801 -0.936795 -0.315713
vn -0.356651 -0.934175 0.010831
vn -0.257896 -0.917091 -0.304031
vn -0.118963 -0.969112 -0.216034
vn -0.150801 -0.936795 -0.315713
vn -0.730777 -0.553758 -0.399145
vn -0.758917 -0.438640 -0.481290
vn -0.605596 -0.533620 -0.590341
vn -0.687387 -0.399474 -0.606564
vn -0.878516 -0.471491 -0.076852
vn -0.870406 -0.337966 -0.358012
vn -0.730777 -0.553758 -0.399145
vn -0.758917 -0.438640 -0.481290
vn -0.687387 -0.399474 -0.606564
vn -0.758917 -0.438640 -0.481290
vn -0.773726 -0.245670 -0.583948
vn -0.870406 -0.337966 -0.358012
vn -0.794004 0.602940 0.077593
vn -0.662738 0.745840 0.067083
vn -0.696732 0.702531 -0.144966
vn -0.589478 0.806338 -0.048314
vn -0.801582 0.475990 0.361800
vn -0.624652 0.753255 0.205955
vn -0.794004 0.602940 0.077593
vn -0.662738 0.745840 0.067083
vn -0.589478 0.806338 -0.048314
vn -0.662738 0.745840 0.067083
vn -0.491727 0.868754 0.058911
vn -0.624652 0.753255 0.205955
vn -0.212032 0.934692 0.285296
vn -0.298241 0.860302 0.413440
vn -0.142307 0.935480 0.323460
vn -0.207025 0.890204 0.405805
vn -0.385436 0.694991 0.606982
vn -0.188983 0.858293 0.477094
vn -0.298241 0.860302 0.413440
vn -0.207025 0.890204 0.405805
vn -0.086625 0.924009 0.372430
vn -0.142307 0.935480 0.323460
vn -0.188983 0.858293 0.477094
vn -0.207025 0.890204 0.405805
vn 0.168616 0.828436 0.534100
vn 0.081125 0.757154 0.648179
vn 0.231001 0.795699 0.559912
vn 0.160585 0.752557 0.638648
vn -0.046513 0.568084 0.821655
vn 0.166920 0.686127 0.708073
vn 0.081125 0.757154 0.648179
vn 0.160585 0.752557 0.638648
vn 0.282728 0.749436 0.598674
vn 0.231001 0.795699 0.559912
vn 0.166920 0.686127 0.708073
vn 0.160585 0.752557 0.638648
vn 0.382549 0.376113 0.843917
vn 0.504407 0.308802 0.806359
vn 0.519961 0.489937 0.699716
vn 0.606842 0.358385 0.709438
vn 0.172407 0.111291 0.978719
vn 0.465400 0.131358 0.875299
vn 0.382549 0.376113 0.843917
vn 0.504407 0.308802 0.806359
vn 0.606842 0.358385 0.709438
vn 0.504407 0.308802 0.806359
vn 0.667752 0.191611 0.719300
vn 0.465400 0.131358 0.875299
vn 0.389000 -0.809535 0.439695
vn 0.408231 -0.875666 0.257987
vn 0.590760 -0.756590 0.280312
vn 0.508933 -0.847426 0.151185
vn 0.095473 -0.836188 0.540070
vn 0.276426 -0.930888 0.238821
vn 0.389000 -0.809535 0.439695
vn 0.408231 -0.875666 0.257987
vn 0.508933 -0.847426 0.151185
vn 0.408231 -0.875666 0.257987
vn 0.406094 -0.912437 0.050464
vn 0.276426 -0.930888 0.238821
vn 0.143130 -0.969840 -0.197292
vn 0.030254 -0.997006 -0.071159
vn 0.088193 -0.963084 -0.254344
vn 0.019427 -0.985901 -0.166199
vn -0.172169 -0.979433 0.105208
vn -0.060374 -0.985494 -0.158607
vn 0.030254 -0.997006 -0.071159
vn 0.019427 -0.985901 -0.166199
vn 0.023715 -0.956100 -0.292079
vn 0.088193 -0.963084 -0.254344
vn -0.060374 -0.985494 -0.158607
vn 0.019427 -0.985901 -0.166199
vn -0.231526 -0.860528 -0.453749
vn -0.330485 -0.884355 -0.329692
vn -0.285118 -0.823303 -0.490795
vn -0.348187 -0.848252 -0.399043
vn -0.511092 -0.852527 -0.109464
vn -0.434910 -0.822831 -0.365791
vn -0.330485 -0.884355 -0.329692
vn -0.348187 -0.848252 -0.399043
vn -0.351633 -0.784583 -0.510669
vn -0.285118 -0.823303 -0.490795
vn -0.434910 -0.822831 -0.365791
vn -0.348187 -0.848252 -0.399043
vn -0.295429 -0.584629 -0.755599
vn -0.379623 -0.528272 -0.759483
vn -0.513258 -0.286063 -0.809156
vn -0.510185 -0.446197 -0.735268
vn -0.379623 -0.528272 -0.759483
vn -0.485114 -0.565930 -0.666624
vn -0.510185 -0.446197 -0.735268
vn -0.547738 -0.501104 -0.669984
vn -0.419840 0.864454 -0.276504
vn -0.572552 0.382278 -0.725292
vn -0.533333 0.792533 -0.295717
vn -0.568980 0.607877 -0.553848
vn -0.533333 0.792533 -0.295717
vn -0.568980 0.607877 -0.553848
vn -0.620254 0.747256 -0.238524
vn -0.689648 0.624791 -0.366090
vn -0.034404 0.983632 0.176876
vn -0.167954 0.985376 -0.028740
vn -0.108870 0.977812 0.178975
vn -0.134295 0.988924 0.063196
vn -0.108870 0.977812 0.178975
vn -0.134295 0.988924 0.063196
vn -0.160776 0.961336 0.223573
vn -0.198470 0.963742 0.178355
vn 0.342762 0.842406 0.415772
vn 0.177939 0.944182 0.277233
vn 0.262010 0.861670 0.434599
vn 0.221658 0.907808 0.356024
vn 0.262010 0.861670 0.434599
vn 0.221658 0.907808 0.356024
vn 0.215382 0.851833 0.477483
vn 0.176180 0.877527 0.445990
vn 0.552331 0.715675 0.427481
vn 0.601604 0.641510 0.475960
vn 0.772148 0.418128 0.478494
vn 0.649431 0.517225 0.557422
vn 0.601604 0.641510 0.475960
vn 0.538807 0.593326 0.598040
vn 0.649431 0.517225 0.557422
vn 0.583964 0.519579 0.623718
vn 0.678728 -0.732390 -0.054158
vn 0.952155 -0.188636 0.240451
vn 0.705319 -0.704799 0.076047
vn 0.879199 -0.449622 0.157634
vn 0.705319 -0.704799 0.076047
vn 0.879199 -0.449622 0.157634
vn 0.665620 -0.724114 0.180581
vn 0.756507 -0.590676 0.280710
vn 0.201409 -0.898439 -0.390181
vn 0.424847 -0.854331 -0.299372
vn 0.220461 -0.920887 -0.321503
vn 0.334500 -0.886797 -0.318905
vn 0.220461 -0.920887 -0.321503
vn 0.334500 -0.886797 -0.318905
vn 0.191253 -0.945789 -0.262500
vn 0.243671 -0.940685 -0.236087
vn -0.175758 -0.757214 -0.629075
vn 0.033362 -0.836393 -0.547114
vn -0.160696 -0.809987 -0.564001
vn -0.062558 -0.826648 -0.559231
vn -0.160696 -0.809987 -0.564001
vn -0.062558 -0.826648 -0.559231
vn -0.187673 -0.837699 -0.512873
vn -0.138699 -0.858407 -0.493862
vn -0.513258 -0.286063 -0.809156
vn -0.614781 -0.210503 -0.760087
vn -0.572552 0.382278 -0.725292
vn -0.609584 0.107835 -0.785353
vn -0.614781 -0.210503 -0.760087
vn -0.698260 -0.213430 -0.683286
vn -0.609584 0.107835 -0.785353
vn -0.742759 -0.029311 -0.668917
vn -0.167954 0.985376 -0.028740
vn -0.419840 0.864454 -0.276504
vn -0.258492 0.963559 -0.068815
vn -0.400050 0.910190 -0.107306
vn -0.258492 0.963559 -0.068815
vn -0.400050 0.910190 -0.107306
vn -0.363546 0.931199 0.026493
vn -0.433912 0.900711 -0.020998
vn 0.177939 0.944182 0.277233
vn -0.034404 0.983632 0.176876
vn 0.082504 0.959911 0.267888
vn -0.016490 0.965951 0.258200
vn 0.082504 0.959911 0.267888
vn -0.016490 0.965951 0.258200
vn 0.007385 0.940729 0.339079
vn -0.042642 0.948447 0.314054
vn 0.342762 0.842406 0.415772
vn 0.360365 0.802113 0.476184
vn 0.552331 0.715675 0.427481
vn 0.468482 0.763223 0.444990
vn 0.360365 0.802113 0.476184
vn 0.331151 0.777142 0.535153
vn 0.468482 0.763223 0.444990
vn 0.380698 0.746882 0.545194
vn 0.772148 0.418128 0.478494
vn 0.786764 0.298239 0.540423
vn 0.952155 -0.188636 0.240451
vn 0.919803 0.050401 0.389130
vn 0.786764 0.298239 0.540423
vn 0.743624 0.236575 0.625345
vn 0.919803 0.050401 0.389130
vn 0.809618 0.063399 0.583523
vn 0.424847 -0.854331 -0.299372
vn 0.678728 -0.732390 -0.054158
vn 0.480469 -0.850325 -0.214702
vn 0.539289 -0.839161 -0.070541
vn 0.480469 -0.850325 -0.214702
vn 0.539289 -0.839161 -0.070541
vn 0.417246 -0.903806 -0.095080
vn 0.470138 -0.882231 -0.025272
vn 0.033362 -0.836393 -0.547114
vn 0.201409 -0.898439 -0.390181
vn 0.076593 -0.878753 -0.471091
vn 0.117806 -0.914268 -0.387603
vn 0.076593 -0.878753 -0.471091
vn 0.117806 -0.914268 -0.387603
vn 0.030094 -0.921611 -0.386947
vn 0.070350 -0.934313 -0.349443
vn -0.175758 -0.757214 -0.629075
vn -0.248774 -0.745186 -0.618716
vn -0.295429 -0.584629 -0.755599
vn -0.268268 -0.661095 -0.700704
vn -0.248774 -0.745186 -0.618716
vn -0.300671 -0.761592 -0.574086
vn -0.268268 -0.661095 -0.700704
vn -0.335492 -0.723825 -0.602929
vn -0.605596 -0.533620 -0.590341
vn -0.552719 -0.599394 -0.578989
vn -0.730777 -0.553758 -0.399145
vn -0.640248 -0.653219 -0.404213
vn -0.730777 -0.553758 -0.399145
vn -0.640248 -0.653219 -0.404213
vn -0.878516 -0.471491 -0.076852
vn -0.693103 -0.713791 -0.100557
vn -0.772581 0.580505 -0.257162
vn -0.910498 0.405706 -0.079975
vn -0.696732 0.702531 -0.144966
vn -0.794004 0.602940 0.077593
vn -0.910498 0.405706 -0.079975
vn -0.993402 0.029333 0.110874
vn -0.794004 0.602940 0.077593
vn -0.801582 0.475990 0.361800
vn -0.254709 0.933993 0.250562
vn -0.367033 0.856409 0.363112
vn -0.212032 0.934692 0.285296
vn -0.298241 0.860302 0.413440
vn -0.367033 0.856409 0.363112
vn -0.584482 0.623919 0.518754
vn -0.298241 0.860302 0.413440
vn -0.385436 0.694991 0.606982
vn 0.168616 0.828436 0.534100
vn 0.127630 0.852120 0.507545
vn 0.081125 0.757154 0.648179
vn 0.024527 0.798046 0.602097
vn 0.081125 0.757154 0.648179
vn 0.024527 0.798046 0.602097
vn -0.046513 0.568084 0.821655
vn -0.229211 0.635318 0.737451
vn 0.519961 0.489937 0.699716
vn 0.470420 0.557418 0.684098
vn 0.382549 0.376113 0.843917
vn 0.324018 0.491909 0.808108
vn 0.382549 0.376113 0.843917
vn 0.324018 0.491909 0.808108
vn 0.172407 0.111291 0.978719
vn 0.050689 0.386085 0.921069
vn 0.670214 -0.632719 0.387917
vn 0.494530 -0.617885 0.611276
vn 0.590760 -0.756590 0.280312
vn 0.389000 -0.809535 0.439695
vn 0.494530 -0.617885 0.611276
vn 0.218693 -0.424521 0.878610
vn 0.389000 -0.809535 0.439695
vn 0.095473 -0.836188 0.540070
vn 0.186727 -0.968671 -0.163734
vn 0.094554 -0.995405 -0.015091
vn 0.143130 -0.969840 -0.197292
vn 0.030254 -0.997006 -0.071159
vn 0.094554 -0.995405 -0.015091
vn -0.057931 -0.951623 0.301757
vn 0.030254 -0.997006 -0.071159
vn -0.172169 -0.979433 0.105208
vn -0.231526 -0.860528 -0.453749
vn -0.187073 -0.882443 -0.431622
vn -0.330485 -0.884355 -0.329692
vn -0.257896 -0.917091 -0.304031
vn -0.330485 -0.884355 -0.329692
vn -0.257896 -0.917091 -0.304031
vn -0.511092 -0.852527 -0.109464
vn -0.356651 -0.934175 0.010831
vn -0.825616 -0.072631 -0.559539
vn -0.773726 -0.245670 -0.583948
vn -0.949705 -0.077115 -0.303503
vn -0.870406 -0.337966 -0.358012
vn -0.949705 -0.077115 -0.303503
vn -0.870406 -0.337966 -0.358012
vn -0.993402 0.029333 0.110874
vn -0.878516 -0.471491 -0.076852
vn -0.491727 0.868754 0.058911
vn -0.624652 0.753255 0.205955
vn -0.431369 0.895083 0.112903
vn -0.521556 0.808524 0.272523
vn -0.624652 0.753255 0.205955
vn -0.801582 0.475990 0.361800
vn -0.521556 0.808524 0.272523
vn -0.584482 0.623919 0.518754
vn -0.086625 0.924009 0.372430
vn -0.188983 0.858293 0.477094
vn -0.041101 0.915300 0.400671
vn -0.114405 0.850066 0.514100
vn -0.188983 0.858293 0.477094
vn -0.385436 0.694991 0.606982
vn -0.114405 0.850066 0.514100
vn -0.229211 0.635318 0.737451
vn 0.323633 0.717440 0.616880
vn 0.282728 0.749436 0.598674
vn 0.226859 0.634031 0.739283
vn 0.166920 0.686127 0.708073
vn 0.226859 0.634031 0.739283
vn 0.166920 0.686127 0.708073
vn 0.050689 0.386085 0.921069
vn -0.046513 0.568084 0.821655
vn 0.723245 0.020400 0.690290
vn 0.667752 0.191611 0.719300
vn 0.533730 -0.135071 0.834798
vn 0.465400 0.131358 0.875299
vn 0.533730 -0.135071 0.834798
vn 0.465400 0.131358 0.875299
vn 0.218693 -0.424521 0.878610
vn 0.172407 0.111291 0.978719
vn 0.406094 -0.912437 0.050464
vn 0.276426 -0.930888 0.238821
vn 0.349077 -0.937062 -0.007795
vn 0.205332 -0.969835 0.131370
vn 0.276426 -0.930888 0.238821
vn 0.095473 -0.836188 0.540070
vn 0.205332 -0.969835 0.131370
vn -0.057931 -0.951623 0.301757
vn 0.023715 -0.956100 -0.292079
vn -0.060374 -0.985494 -0.158607
vn -0.018343 -0.945623 -0.324748
vn -0.118963 -0.969112 -0.216034
vn -0.060374 -0.985494 -0.158607
vn -0.172169 -0.979433 0.105208
vn -0.118963 -0.969112 -0.216034
vn -0.356651 -0.934175 0.010831
vn -0.391614 -0.752120 -0.530050
vn -0.351633 -0.784583 -0.510669
vn -0.499344 -0.773028 -0.391259
vn -0.434910 -0.822831 -0.365791
vn -0.499344 -0.773028 -0.391259
vn -0.434910 -0.822831 -0.365791
vn -0.693103 -0.713791 -0.100557
vn -0.511092 -0.852527 -0.109464
vn -0.547738 -0.501104 -0.669984
vn -0.605596 -0.533620 -0.590341
vn -0.641984 -0.380433 -0.665678
vn -0.687387 -0.399474 -0.606564
vn -0.641984 -0.380433 -0.665678
vn -0.687387 -0.399474 -0.606564
vn -0.698260 -0.213430 -0.683286
vn -0.773726 -0.245670 -0.583948
vn -0.772581 0.580505 -0.257162
vn -0.689648 0.624791 -0.366090
vn -0.844521 0.279931 -0.456533
vn -0.771961 0.317607 -0.550638
vn -0.844521 0.279931 -0.456533
vn -0.771961 0.317607 -0.550638
vn -0.825616 -0.072631 -0.559539
vn -0.742759 -0.029311 -0.668917
vn -0.491727 0.868754 0.058911
vn -0.433912 0.900711 -0.020998
vn -0.589478 0.806338 -0.048314
vn -0.543456 0.832981 -0.103917
vn -0.589478 0.806338 -0.048314
vn -0.543456 0.832981 -0.103917
vn -0.696732 0.702531 -0.144966
vn -0.620254 0.747256 -0.238524
vn -0.254709 0.933993 0.250562
vn -0.198470 0.963742 0.178355
vn -0.332859 0.926341 0.176343
vn -0.278260 0.954508 0.107171
vn -0.332859 0.926341 0.176343
vn -0.278260 0.954508 0.107171
vn -0.431369 0.895083 0.112903
vn -0.363546 0.931199 0.026493
vn -0.086625 0.924009 0.372430
vn -0.042642 0.948447 0.314054
vn -0.142307 0.935480 0.323460
vn -0.111366 0.951873 0.285543
vn -0.142307 0.935480 0.323460
vn -0.111366 0.951873 0.285543
vn -0.212032 0.934692 0.285296
vn -0.160776 0.961336 0.223573
vn 0.127630 0.852120 0.507545
vn 0.176180 0.877527 0.445990
vn 0.052219 0.893600 0.445817
vn 0.090080 0.913132 0.397588
vn 0.052219 0.893600 0.445817
vn 0.090080 0.913132 0.397588
vn -0.041101 0.915300 0.400671
vn 0.007385 0.940729 0.339079
vn 0.282728 0.749436 0.598674
vn 0.331151 0.777142 0.535153
vn 0.231001 0.795699 0.559912
vn 0.260924 0.812474 0.521349
vn 0.231001 0.795699 0.559912
vn 0.260924 0.812474 0.521349
vn 0.168616 0.828436 0.534100
vn 0.215382 0.851833 0.477483
vn 0.470420 0.557418 0.684098
vn 0.538807 0.593326 0.598040
vn 0.404158 0.650375 0.643171
vn 0.458449 0.678659 0.573800
vn 0.404158 0.650375 0.643171
vn 0.458449 0.678659 0.573800
vn 0.323633 0.717440 0.616880
vn 0.380698 0.746882 0.545194
vn 0.667752 0.191611 0.719300
vn 0.743624 0.236575 0.625345
vn 0.606842 0.358385 0.709438
vn 0.651795 0.385437 0.653147
vn 0.606842 0.358385 0.709438
vn 0.651795 0.385437 0.653147
vn 0.519961 0.489937 0.699716
vn 0.583964 0.519579 0.623718
vn 0.670214 -0.632719 0.387917
vn 0.756507 -0.590676 0.280710
vn 0.762471 -0.321787 0.561330
vn 0.836531 -0.284670 0.468166
vn 0.762471 -0.321787 0.561330
vn 0.836531 -0.284670 0.468166
vn 0.723245 0.020400 0.690290
vn 0.809618 0.063399 0.583523
vn 0.406094 -0.912437 0.050464
vn 0.470138 -0.882231 -0.025272
vn 0.508933 -0.847426 0.151185
vn 0.553270 -0.827975 0.091381
vn 0.508933 -0.847426 0.151185
vn 0.553270 -0.827975 0.091381
vn 0.590760 -0.756590 0.280312
vn 0.665620 -0.724114 0.180581
vn 0.186727 -0.968671 -0.163734
vn 0.243671 -0.940685 -0.236087
vn 0.273689 -0.956525 -0.100769
vn 0.327900 -0.929186 -0.170573
vn 0.273689 -0.956525 -0.100769
vn 0.327900 -0.929186 -0.170573
vn 0.349077 -0.937062 -0.007795
vn 0.417246 -0.903806 -0.095080
vn 0.023715 -0.956100 -0.292079
vn 0.070350 -0.934313 -0.349443
vn 0.088193 -0.963084 -0.254344
vn 0.117934 -0.948523 -0.293931
vn 0.088193 -0.963084 -0.254344
vn 0.117934 -0.948523 -0.293931
vn 0.143130 -0.969840 -0.197292
vn 0.191253 -0.945789 -0.262500
vn -0.187073 -0.882443 -0.431622
vn -0.138699 -0.858407 -0.493862
vn -0.094655 -0.915247 -0.391615
vn -0.056830 -0.896170 -0.440056
vn -0.094655 -0.915247 -0.391615
vn -0.056830 -0.896170 -0.440056
vn -0.018343 -0.945623 -0.324748
vn 0.030094 -0.921611 -0.386947
vn -0.351633 -0.784583 -0.510669
vn -0.300671 -0.761592 -0.574086
vn -0.285118 -0.823303 -0.490795
vn -0.254356 -0.809123 -0.529739
vn -0.285118 -0.823303 -0.490795
vn -0.254356 -0.809123 -0.529739
vn -0.231526 -0.860528 -0.453749
vn -0.187673 -0.837699 -0.512873
vn -0.552719 -0.599394 -0.578989
vn -0.485114 -0.565930 -0.666624
vn -0.463335 -0.680556 -0.567595
vn -0.408814 -0.653335 -0.637201
vn -0.463335 -0.680556 -0.567595
vn -0.408814 -0.653335 -0.637201
vn -0.391614 -0.752120 -0.530050
vn -0.335492 -0.723825 -0.602929
vn -0.552719 -0.599394 -0.578989
vn -0.605596 -0.533620 -0.590341
vn -0.485114 -0.565930 -0.666624
vn -0.547738 -0.501104 -0.669984
vn 0.290336 -0.283828 -0.913863
vn 0.290336 -0.283828 -0.913863
vn 0.290336 -0.283828 -0.913863
s off
g d7_polySurface7
usemtl initialShadingGroup
f 15//1 7//2 3//3
f 14//4 8//5 1//6
f 17//7 5//8 2//9
s 1
f 7//10 9//11 3//12
f 3//12 9//11 8//13
s 2
f 146//14 237//15 34//16
f 34//16 237//15 125//17
s off
f 85//18 56//19 14//20
s 3
f 167//21 202//22 55//23
f 55//23 202//22 90//24
s off
f 99//25 63//26 15//27
s 4
f 160//28 209//29 48//30
f 48//30 209//29 97//31
s off
f 113//32 70//33 16//34
s 5
f 153//35 223//36 41//37
f 41//37 223//36 111//38
s off
f 127//39 77//40 17//41
f 11//42 2//43 6//44
f 12//45 4//46 7//47
f 13//48 3//49 8//50
f 16//51 6//52 4//53
s 6
f 6//54 2//55 9//56
f 9//56 2//55 5//57
s 7
f 5//58 1//59 9//60
f 9//60 1//59 8//61
s 8
f 6//62 9//63 4//64
f 4//64 9//63 7//65
s 9
f 246//66 140//67 133//68
f 133//68 140//67 29//69
s 10
f 174//70 216//71 62//72
f 62//72 216//71 104//73
s 11
f 197//74 168//75 84//76
f 84//76 168//75 57//77
s 12
f 15//78 3//79 49//80
f 49//80 3//79 13//81
s 13
f 204//82 161//83 91//84
f 91//84 161//83 50//85
s 14
f 181//86 230//87 69//88
f 69//88 230//87 118//89
s 15
f 211//90 175//91 98//92
f 98//92 175//91 64//93
s 16
f 16//94 4//95 42//96
f 42//96 4//95 12//97
s 17
f 218//98 154//99 105//100
f 105//100 154//99 43//101
s 18
f 188//102 244//103 76//104
f 76//104 244//103 132//105
s 19
f 225//106 182//107 112//108
f 112//108 182//107 71//109
s 20
f 17//110 2//111 35//112
f 35//112 2//111 11//113
s 21
f 232//114 147//115 119//116
f 119//116 147//115 36//117
s off
f 19//118 196//119 141//120
s 22
f 239//121 189//122 126//123
f 126//123 189//122 78//124
s 23
f 14//125 1//126 28//127
f 28//127 1//126 10//128
s 24
f 238//129 20//130 26//131
f 26//131 20//130 18//132
s 25
f 196//133 19//134 23//135
f 23//135 19//134 18//136
s 26
f 203//137 23//138 22//139
f 22//139 23//138 18//140
s 27
f 210//141 22//142 24//143
f 24//143 22//142 18//144
s 28
f 217//145 24//146 21//147
f 21//147 24//146 18//148
s 29
f 224//149 21//150 25//151
f 25//151 21//150 18//152
s 30
f 231//153 25//154 20//155
f 20//155 25//154 18//156
s off
f 26//157 190//158 238//159
s 31
f 245//160 26//161 19//162
f 19//162 26//161 18//163
s off
f 20//164 238//165 148//166
f 20//167 148//168 231//169
f 25//170 183//171 224//172
f 21//173 224//174 155//175
f 21//176 155//177 217//178
f 26//179 245//180 190//181
f 24//182 176//183 210//184
f 22//185 210//186 162//187
f 22//188 162//189 203//190
f 25//191 231//192 183//193
f 23//194 169//195 196//196
f 23//197 203//198 169//199
f 19//200 141//201 245//202
f 24//203 217//204 176//205
s 32
f 56//206 13//207 14//208
f 14//208 13//207 8//209
s off
f 92//210 13//211 56//212
f 13//213 92//214 49//215
f 99//216 15//217 49//218
s 33
f 12//219 7//220 63//221
f 63//221 7//220 15//222
s off
f 106//223 12//224 63//225
f 12//226 106//227 42//228
f 113//229 16//230 42//231
s 34
f 70//232 11//233 16//234
f 16//234 11//233 6//235
s off
f 120//236 11//237 70//238
f 11//239 120//240 35//241
f 127//242 17//243 35//244
s 35
f 10//245 5//246 77//247
f 77//247 5//246 17//248
s off
f 134//249 10//250 77//251
f 10//252 134//253 28//254
f 85//255 14//256 28//257
s 36
f 27//258 30//259 33//260
f 33//260 30//259 31//261
s 37
f 28//262 32//263 30//264
f 30//264 32//263 31//265
s 38
f 29//266 33//267 32//268
f 32//268 33//267 31//269
s 39
f 34//270 37//271 40//272
f 40//272 37//271 38//273
s 40
f 35//274 39//275 37//276
f 37//276 39//275 38//277
s 41
f 36//278 40//279 39//280
f 39//280 40//279 38//281
s 42
f 41//282 44//283 47//284
f 47//284 44//283 45//285
s 43
f 42//286 46//287 44//288
f 44//288 46//287 45//289
s 44
f 43//290 47//291 46//292
f 46//292 47//291 45//293
s 45
f 48//294 51//295 54//296
f 54//296 51//295 52//297
s 46
f 49//298 53//299 51//300
f 51//300 53//299 52//301
s 47
f 50//302 54//303 53//304
f 53//304 54//303 52//305
s 48
f 58//306 59//307 55//308
f 55//308 59//307 61//309
s 49
f 56//310 60//311 58//312
f 58//312 60//311 59//313
s 50
f 61//314 59//315 57//316
f 57//316 59//315 60//317
s 51
f 62//318 65//319 68//320
f 68//320 65//319 66//321
s 52
f 67//322 66//323 63//324
f 63//324 66//323 65//325
s 53
f 64//326 68//327 67//328
f 67//328 68//327 66//329
s 54
f 72//330 73//331 69//332
f 69//332 73//331 75//333
s 55
f 70//334 74//335 72//336
f 72//336 74//335 73//337
s 56
f 75//338 73//339 71//340
f 71//340 73//339 74//341
s 57
f 76//342 79//343 82//344
f 82//344 79//343 80//345
s 58
f 81//346 80//347 77//348
f 77//348 80//347 79//349
s 59
f 78//350 82//351 81//352
f 81//352 82//351 80//353
s 60
f 86//354 87//355 83//356
f 83//356 87//355 89//357
s 61
f 88//358 87//359 84//360
f 84//360 87//359 86//361
s 62
f 85//362 89//363 88//364
f 88//364 89//363 87//365
s 63
f 93//366 94//367 90//368
f 90//368 94//367 96//369
s 64
f 95//370 94//371 91//372
f 91//372 94//371 93//373
s 65
f 92//374 96//375 95//376
f 95//376 96//375 94//377
s 66
f 97//378 100//379 103//380
f 103//380 100//379 101//381
s 67
f 98//382 102//383 100//384
f 100//384 102//383 101//385
s 68
f 99//386 103//387 102//388
f 102//388 103//387 101//389
s 69
f 104//390 107//391 110//392
f 110//392 107//391 108//393
s 70
f 105//394 109//395 107//396
f 107//396 109//395 108//397
s 71
f 106//398 110//399 109//400
f 109//400 110//399 108//401
s 72
f 114//402 115//403 111//404
f 111//404 115//403 117//405
s 73
f 116//406 115//407 112//408
f 112//408 115//407 114//409
s 74
f 113//410 117//411 116//412
f 116//412 117//411 115//413
s 75
f 121//414 122//415 118//416
f 118//416 122//415 124//417
s 76
f 123//418 122//419 119//420
f 119//420 122//419 121//421
s 77
f 120//422 124//423 123//424
f 123//424 124//423 122//425
s 78
f 125//426 128//427 131//428
f 131//428 128//427 129//429
s 79
f 126//430 130//431 128//432
f 128//432 130//431 129//433
s 80
f 127//434 131//435 130//436
f 130//436 131//435 129//437
s 81
f 132//438 135//439 138//440
f 138//440 135//439 136//441
s 82
f 133//442 137//443 135//444
f 135//444 137//443 136//445
s 83
f 134//446 138//447 137//448
f 137//448 138//447 136//449
s 84
f 139//450 142//451 145//452
f 145//452 142//451 143//453
s 85
f 144//454 143//455 140//456
f 140//456 143//455 142//457
s 86
f 141//458 145//459 144//460
f 144//460 145//459 143//461
s 87
f 149//462 150//463 146//464
f 146//464 150//463 152//465
s 88
f 147//466 151//467 149//468
f 149//468 151//467 150//469
s 89
f 148//470 152//471 151//472
f 151//472 152//471 150//473
s 90
f 153//474 156//475 159//476
f 159//476 156//475 157//477
s 91
f 158//478 157//479 154//480
f 154//480 157//479 156//481
s 92
f 155//482 159//483 158//484
f 158//484 159//483 157//485
s 93
f 163//486 164//487 160//488
f 160//488 164//487 166//489
s 94
f 161//490 165//491 163//492
f 163//492 165//491 164//493
s 95
f 162//494 166//495 165//496
f 165//496 166//495 164//497
s 96
f 170//498 171//499 167//500
f 167//500 171//499 173//501
s 97
f 172//502 171//503 168//504
f 168//504 171//503 170//505
s 98
f 169//506 173//507 172//508
f 172//508 173//507 171//509
s 99
f 174//510 177//511 180//512
f 180//512 177//511 178//513
s 100
f 175//514 179//515 177//516
f 177//516 179//515 178//517
s 101
f 176//518 180//519 179//520
f 179//520 180//519 178//521
s 102
f 184//522 185//523 181//524
f 181//524 185//523 187//525
s 103
f 186//526 185//527 182//528
f 182//528 185//527 184//529
s 104
f 183//530 187//531 186//532
f 186//532 187//531 185//533
s 105
f 188//534 191//535 194//536
f 194//536 191//535 192//537
s 106
f 189//538 193//539 191//540
f 191//540 193//539 192//541
s 107
f 190//542 194//543 193//544
f 193//544 194//543 192//545
s 108
f 198//546 199//547 195//548
f 195//548 199//547 201//549
s 109
f 196//550 200//551 198//552
f 198//552 200//551 199//553
s 110
f 201//554 199//555 197//556
f 197//556 199//555 200//557
s 111
f 205//558 206//559 202//560
f 202//560 206//559 208//561
s 112
f 203//562 207//563 205//564
f 205//564 207//563 206//565
s 113
f 208//566 206//567 204//568
f 204//568 206//567 207//569
s 114
f 209//570 212//571 215//572
f 215//572 212//571 213//573
s 115
f 210//574 214//575 212//576
f 212//576 214//575 213//577
s 116
f 211//578 215//579 214//580
f 214//580 215//579 213//581
s 117
f 216//582 219//583 222//584
f 222//584 219//583 220//585
s 118
f 217//586 221//587 219//588
f 219//588 221//587 220//589
s 119
f 218//590 222//591 221//592
f 221//592 222//591 220//593
s 120
f 226//594 227//595 223//596
f 223//596 227//595 229//597
s 121
f 224//598 228//599 226//600
f 226//600 228//599 227//601
s 122
f 229//602 227//603 225//604
f 225//604 227//603 228//605
s 123
f 233//606 234//607 230//608
f 230//608 234//607 236//609
s 124
f 231//610 235//611 233//612
f 233//612 235//611 234//613
s 125
f 236//614 234//615 232//616
f 232//616 234//615 235//617
s 126
f 237//618 240//619 243//620
f 243//620 240//619 241//621
s 127
f 238//622 242//623 240//624
f 240//624 242//623 241//625
s 128
f 239//626 243//627 242//628
f 242//628 243//627 241//629
s 129
f 244//630 247//631 250//632
f 250//632 247//631 248//633
s 130
f 245//634 249//635 247//636
f 247//636 249//635 248//637
s 131
f 246//638 250//639 249//640
f 249//640 250//639 248//641
s 132
f 28//642 30//643 85//644
f 85//644 30//643 89//645
s 133
f 30//646 27//647 89//648
f 89//648 27//647 83//649
s 134
f 92//650 56//651 96//652
f 96//652 56//651 58//653
s 135
f 96//654 58//655 90//656
f 90//656 58//655 55//657
s 136
f 99//658 49//659 103//660
f 103//660 49//659 51//661
s 137
f 103//662 51//663 97//664
f 97//664 51//663 48//665
s 138
f 106//666 63//667 110//668
f 110//668 63//667 65//669
s 139
f 110//670 65//671 104//672
f 104//672 65//671 62//673
s 140
f 42//674 44//675 113//676
f 113//676 44//675 117//677
s 141
f 44//678 41//679 117//680
f 117//680 41//679 111//681
s 142
f 120//682 70//683 124//684
f 124//684 70//683 72//685
s 143
f 124//686 72//687 118//688
f 118//688 72//687 69//689
s 144
f 127//690 35//691 131//692
f 131//692 35//691 37//693
s 145
f 131//694 37//695 125//696
f 125//696 37//695 34//697
s 146
f 134//698 77//699 138//700
f 138//700 77//699 79//701
s 147
f 138//702 79//703 132//704
f 132//704 79//703 76//705
s 148
f 85//706 88//707 56//708
f 56//708 88//707 60//709
s 149
f 88//710 84//711 60//712
f 60//712 84//711 57//713
s 150
f 49//714 92//715 53//716
f 53//716 92//715 95//717
s 151
f 53//718 95//719 50//720
f 50//720 95//719 91//721
s 152
f 63//722 99//723 67//724
f 67//724 99//723 102//725
s 153
f 67//726 102//727 64//728
f 64//728 102//727 98//729
s 154
f 106//730 109//731 42//732
f 42//732 109//731 46//733
s 155
f 109//734 105//735 46//736
f 46//736 105//735 43//737
s 156
f 113//738 116//739 70//740
f 70//740 116//739 74//741
s 157
f 116//742 112//743 74//744
f 74//744 112//743 71//745
s 158
f 35//746 120//747 39//748
f 39//748 120//747 123//749
s 159
f 39//750 123//751 36//752
f 36//752 123//751 119//753
s 160
f 77//754 127//755 81//756
f 81//756 127//755 130//757
s 161
f 81//758 130//759 78//760
f 78//760 130//759 126//761
s 162
f 134//762 137//763 28//764
f 28//764 137//763 32//765
s 163
f 137//766 133//767 32//768
f 32//768 133//767 29//769
s 164
f 195//770 139//771 198//772
f 198//772 139//771 145//773
s 165
f 198//774 145//775 196//776
f 196//776 145//775 141//777
s 166
f 167//778 173//779 202//780
f 202//780 173//779 205//781
s 167
f 173//782 169//783 205//784
f 205//784 169//783 203//785
s 168
f 160//786 166//787 209//788
f 209//788 166//787 212//789
s 169
f 166//790 162//791 212//792
f 212//792 162//791 210//793
s 170
f 216//794 174//795 219//796
f 219//796 174//795 180//797
s 171
f 219//798 180//799 217//800
f 217//800 180//799 176//801
s 172
f 223//802 153//803 226//804
f 226//804 153//803 159//805
s 173
f 226//806 159//807 224//808
f 224//808 159//807 155//809
s 174
f 181//810 187//811 230//812
f 230//812 187//811 233//813
s 175
f 187//814 183//815 233//816
f 233//816 183//815 231//817
s 176
f 146//818 152//819 237//820
f 237//820 152//819 240//821
s 177
f 152//822 148//823 240//824
f 240//824 148//823 238//825
s 178
f 244//826 188//827 247//828
f 247//828 188//827 194//829
s 179
f 247//830 194//831 245//832
f 245//832 194//831 190//833
s 180
f 168//834 197//835 172//836
f 172//836 197//835 200//837
s 181
f 172//838 200//839 169//840
f 169//840 200//839 196//841
s 182
f 204//842 207//843 161//844
f 161//844 207//843 165//845
s 183
f 207//846 203//847 165//848
f 165//848 203//847 162//849
s 184
f 211//850 214//851 175//852
f 175//852 214//851 179//853
s 185
f 214//854 210//855 179//856
f 179//856 210//855 176//857
s 186
f 154//858 218//859 158//860
f 158//860 218//859 221//861
s 187
f 158//862 221//863 155//864
f 155//864 221//863 217//865
s 188
f 182//866 225//867 186//868
f 186//868 225//867 228//869
s 189
f 186//870 228//871 183//872
f 183//872 228//871 224//873
s 190
f 232//874 235//875 147//876
f 147//876 235//875 151//877
s 191
f 235//878 231//879 151//880
f 151//880 231//879 148//881
s 192
f 239//882 242//883 189//884
f 189//884 242//883 193//885
s 193
f 242//886 238//887 193//888
f 193//888 238//887 190//889
s 194
f 140//890 246//891 144//892
f 144//892 246//891 249//893
s 195
f 144//894 249//895 141//896
f 141//896 249//895 245//897
s 196
f 83//898 195//899 86//900
f 86//900 195//899 201//901
s 197
f 86//902 201//903 84//904
f 84//904 201//903 197//905
s 198
f 167//906 55//907 170//908
f 170//908 55//907 61//909
s 199
f 170//910 61//911 168//912
f 168//912 61//911 57//913
s 200
f 204//914 91//915 208//916
f 208//916 91//915 93//917
s 201
f 208//918 93//919 202//920
f 202//920 93//919 90//921
s 202
f 160//922 48//923 163//924
f 163//924 48//923 54//925
s 203
f 163//926 54//927 161//928
f 161//928 54//927 50//929
s 204
f 211//930 98//931 215//932
f 215//932 98//931 100//933
s 205
f 215//934 100//935 209//936
f 209//936 100//935 97//937
s 206
f 174//938 62//939 177//940
f 177//940 62//939 68//941
s 207
f 177//942 68//943 175//944
f 175//944 68//943 64//945
s 208
f 218//946 105//947 222//948
f 222//948 105//947 107//949
s 209
f 222//950 107//951 216//952
f 216//952 107//951 104//953
s 210
f 153//954 41//955 156//956
f 156//956 41//955 47//957
s 211
f 156//958 47//959 154//960
f 154//960 47//959 43//961
s 212
f 225//962 112//963 229//964
f 229//964 112//963 114//965
s 213
f 229//966 114//967 223//968
f 223//968 114//967 111//969
s 214
f 181//970 69//971 184//972
f 184//972 69//971 75//973
s 215
f 184//974 75//975 182//976
f 182//976 75//975 71//977
s 216
f 232//978 119//979 236//980
f 236//980 119//979 121//981
s 217
f 236//982 121//983 230//984
f 230//984 121//983 118//985
s 218
f 146//986 34//987 149//988
f 149//988 34//987 40//989
s 219
f 149//990 40//991 147//992
f 147//992 40//991 36//993
s 220
f 239//994 126//995 243//996
f 243//996 126//995 128//997
s 221
f 243//998 128//999 237//1000
f 237//1000 128//999 125//1001
s 222
f 188//1002 76//1003 191//1004
f 191//1004 76//1003 82//1005
s 223
f 191//1006 82//1007 189//1008
f 189//1008 82//1007 78//1009
s 224
f 246//1010 133//1011 250//1012
f 250//1012 133//1011 135//1013
s 225
f 250//1014 135//1015 244//1016
f 244//1016 135//1015 132//1017
s 226
f 139//1018 27//1019 142//1020
f 142//1020 27//1019 33//1021
s 227
f 142//1022 33//1023 140//1024
f 140//1024 33//1023 29//1025
s 228
f 139//1026 195//1027 27//1028
f 27//1028 195//1027 83//1029
s off
f 10//1030 1//1031 5//1032
